<svg width="15" height="22" viewBox="0 0 15 22" fill="none" xmlns="http://www.w3.org/2000/svg">
<path fill-rule="evenodd" clip-rule="evenodd" d="M8.82399 16.6415L8.48332 16.2923C7.80236 15.6057 6.5085 15.1291 5.57288 15.0235C5.28664 14.9912 4.86253 14.934 4.58971 14.9712C4.27645 15.014 4.11844 14.9637 3.63376 15.0606C3.21833 15.1438 2.90507 15.2262 2.53816 15.3648C2.22372 15.4836 1.87022 15.6641 1.61141 15.8371L1.12397 16.2075C1.07978 16.2447 1.06558 16.2486 1.02178 16.2919L0.689196 16.6491C0.356608 17.0683 0.103518 17.5339 0.0285571 18.0754C-0.0834892 18.8849 0.131332 19.5683 0.611868 20.2099C0.760803 20.4085 0.934199 20.5835 1.11529 20.7506C1.2944 20.9159 1.50686 21.0489 1.70826 21.1833C1.7704 21.2248 1.8643 21.2783 1.93236 21.3137C3.57261 22.1647 5.71017 22.2524 7.37962 21.4189C7.64869 21.2846 7.89054 21.1491 8.12785 20.9734C8.82478 20.4568 9.44557 19.6637 9.51402 18.7437C9.55052 18.2523 9.53375 17.6841 9.53375 17.1625V1.1542C9.59076 1.16934 9.80085 1.37284 9.85608 1.42868C10.0531 1.62825 10.2826 1.7995 10.482 1.99612L11.7297 3.13513C11.7926 3.1835 11.8262 3.22754 11.882 3.28122C11.9205 3.31799 11.9274 3.31818 11.9644 3.34787C12.1063 3.46073 12.2173 3.60407 12.3617 3.71516C12.5535 3.86282 12.7935 4.11842 12.9843 4.28594C13.0214 4.31858 13.0309 4.31877 13.0681 4.35141L13.6189 4.86361C13.6769 4.91925 13.7177 4.94166 13.7781 5.00281L14.4034 5.57084C14.7254 5.88209 15.2021 5.45012 14.9074 5.10584C14.8421 5.02955 14.7887 5.0034 14.7208 4.93812C14.1876 4.42652 13.6211 3.9509 13.0875 3.43891L12.9007 3.27158C12.8373 3.20788 12.7882 3.17976 12.7229 3.1137C12.6924 3.08263 12.6708 3.05806 12.6389 3.02994L9.97168 0.606812C9.90165 0.552939 9.86476 0.499262 9.80025 0.442636L9.61404 0.274527C9.57261 0.23481 9.56235 0.233827 9.52113 0.199615C9.41204 0.108778 9.35463 0.000244141 9.17946 0.000244141C9.0327 0.000244141 8.90448 0.10052 8.86128 0.204138C8.78987 0.375589 8.82478 1.5323 8.82478 1.76844V16.6413L8.82399 16.6415Z" fill="black"/>
</svg>
