<svg width="24" height="23" viewBox="0 0 24 23" fill="none" xmlns="http://www.w3.org/2000/svg">
<path d="M1 10.5L10.619 1.31818C11.3919 0.580462 12.6081 0.580462 13.381 1.31818L23 10.5" stroke="black"/>
<path d="M2.29688 12H10V23H2.29688V12Z" fill="black"/>
<path d="M14 12H21.7129V23H14V12Z" fill="black"/>
<path d="M11.6645 3.30351C11.855 3.1312 12.145 3.1312 12.3355 3.30351L21.5376 11.6292C21.8769 11.9362 21.6597 12.5 21.2021 12.5H2.79788C2.34029 12.5 2.1231 11.9362 2.46243 11.6292L11.6645 3.30351Z" fill="black"/>
<path d="M10 22.9999V12.9999C10.6667 12.3332 12.4 11.3999 14 12.9999C14 15.7999 14 20.8332 14 22.9999" stroke="black"/>
</svg>
