<svg width="32" height="38" viewBox="0 0 32 38" fill="none" xmlns="http://www.w3.org/2000/svg">
<path fill-rule="evenodd" clip-rule="evenodd" d="M7.71084 30.8468C7.69896 30.8813 7.71076 31.0026 7.69004 31.0672L7.66743 31.2053C7.65695 31.2385 7.65627 31.1924 7.64716 31.2815L7.60269 31.462C7.60144 31.4655 7.59533 31.4819 7.59411 31.4856C7.58861 31.5016 7.58538 31.5137 7.57867 31.5344L7.49192 31.7851C7.48976 31.7896 7.48308 31.8019 7.48084 31.8062L7.36814 32.031C7.36358 32.0401 7.35831 32.0506 7.35209 32.0632L7.26109 32.2293C7.24914 32.2452 7.24925 32.2435 7.24052 32.2569C7.22766 32.2768 7.23418 32.27 7.22326 32.2879L7.10611 32.46C7.10429 32.4631 7.10232 32.4674 7.10053 32.4705C7.05997 32.5401 7.00324 32.5843 6.9607 32.6521C6.91865 32.7192 6.85988 32.7591 6.80314 32.8159C6.7636 32.8554 6.73438 32.8849 6.69879 32.9204C6.57603 33.0432 6.51904 33.0659 6.48151 33.1049C6.45069 33.137 6.46526 33.1288 6.43369 33.1535L6.11543 33.3655C6.1135 33.3666 6.08458 33.3811 6.08344 33.3817C6.0801 33.3834 6.07585 33.3852 6.07255 33.3869L5.81531 33.5153C5.81208 33.5169 5.80791 33.519 5.80468 33.5207L5.77304 33.5372C5.76973 33.5389 5.76571 33.5411 5.76233 33.5426L5.16429 33.7318C5.16023 33.733 5.15625 33.7347 5.1523 33.7359C5.14733 33.7375 5.13454 33.7437 5.12953 33.7453L4.98325 33.7597C4.89062 33.7785 5.01239 33.7711 4.89881 33.7877C4.84015 33.7963 4.75128 33.7793 4.69394 33.7917C4.63702 33.804 4.60696 33.822 4.51437 33.821C4.4518 33.8203 4.36319 33.8264 4.3046 33.8212C4.1949 33.8117 4.23167 33.7868 4.12936 33.7876L3.98714 33.7853C3.93469 33.774 3.93652 33.7587 3.87174 33.7561L2.88087 33.4134C2.87757 33.4118 2.87343 33.4097 2.87013 33.4081L2.82706 33.3869C2.82372 33.3853 2.81947 33.3834 2.81617 33.3817L2.74699 33.3384C2.68719 33.2925 2.61831 33.2707 2.56245 33.2176C2.55388 33.2095 2.54132 33.1982 2.53684 33.1951C2.53403 33.1931 2.5299 33.1907 2.52698 33.1889L2.39845 33.0924C2.39549 33.0905 2.39116 33.0885 2.38809 33.0867L2.36692 33.0757C2.27603 33.0226 1.93265 32.6613 1.89011 32.5884L1.75544 32.4177C1.74534 32.4018 1.74891 32.4089 1.73495 32.39L1.40856 31.7843C1.40689 31.781 1.40473 31.7769 1.40306 31.7737L1.3376 31.6142C1.33631 31.6103 1.33464 31.6062 1.33331 31.6024L1.26463 31.3657C1.26342 31.3617 1.26171 31.3577 1.26061 31.3536L1.25495 31.3272C1.25154 31.3101 1.25306 31.3043 1.24865 31.2852L1.19196 31.0848C1.18456 31.0488 1.19075 31.0112 1.18961 30.9746C1.1876 30.9104 1.17094 30.9113 1.15982 30.8598C1.1399 30.7672 1.15303 30.2107 1.16779 30.1668C1.16893 30.1634 1.17644 30.1479 1.17758 30.1445C1.19496 30.0926 1.18657 29.9833 1.20475 29.9305L1.22149 29.8348C1.23021 29.7494 1.23086 29.7914 1.24129 29.7581L1.27294 29.6291C1.27598 29.6203 1.27981 29.609 1.28509 29.593C1.29028 29.5772 1.29294 29.5682 1.29692 29.5566C1.29833 29.5525 1.3041 29.5372 1.3055 29.533L1.31362 29.509C1.31848 29.494 1.31984 29.4871 1.32485 29.4721C1.32614 29.4682 1.32774 29.464 1.32907 29.4601L1.49398 29.0626C1.49562 29.0593 1.4977 29.0551 1.49933 29.0519L1.79346 28.5586C1.80435 28.5404 1.79733 28.5477 1.81035 28.5272C1.81562 28.5189 1.82701 28.5039 1.83084 28.4995C1.8442 28.4841 1.86977 28.4639 1.88818 28.4444C1.89603 28.4361 1.90761 28.4223 1.91038 28.4183L1.92225 28.3981C1.92404 28.395 1.92593 28.3906 1.92772 28.3875C1.9295 28.3843 1.9314 28.38 1.93318 28.3769L2.08027 28.2186C2.11977 28.1791 2.14918 28.1498 2.18473 28.1142L2.29231 28.0128C2.31311 27.9998 2.30541 28.007 2.32385 27.9962L2.49484 27.8619C2.49776 27.86 2.50189 27.8577 2.5047 27.8557L2.75204 27.6853C2.75622 27.6828 2.76881 27.6765 2.77322 27.6743C2.77652 27.6726 2.78081 27.6708 2.78418 27.6692C2.7975 27.6627 2.79287 27.6655 2.80619 27.6591L2.94466 27.5726C2.94796 27.5709 2.95221 27.569 2.95551 27.5674C2.95881 27.5657 2.96299 27.5637 2.96629 27.562L3.13849 27.4933C3.14293 27.4911 3.15519 27.4844 3.15955 27.4822L3.63894 27.3189C3.643 27.3178 3.64694 27.3161 3.65093 27.3148L3.81198 27.2831C3.84594 27.2722 3.79349 27.2694 3.88753 27.2622C3.93098 27.259 3.94919 27.2675 3.99321 27.2554L4.80436 27.2289C4.94242 27.2349 4.82372 27.2569 4.96363 27.2625C5.004 27.2641 5.01353 27.2582 5.05345 27.2691L5.3445 27.3475C5.37008 27.3553 5.35285 27.351 5.3834 27.3568L5.55849 27.4067C5.56198 27.4081 5.56607 27.4102 5.56945 27.4118L6.167 27.6979C6.16806 27.6987 6.18453 27.7129 6.19357 27.7195L6.7551 28.1543C6.9094 28.3088 6.89794 28.3274 6.94712 28.3801L7.23992 28.7622C7.23995 28.7623 7.24997 28.7842 7.25001 28.7843L7.36279 28.9768C7.36442 28.9801 7.36651 28.9843 7.36814 28.9876L7.64223 29.7099L7.71145 30.0747C7.70947 30.2205 7.7253 30.1882 7.73979 30.2553L7.74416 30.7677C7.73452 30.895 7.73106 30.7882 7.71084 30.8468H7.71084ZM31.9999 21.2867V22.453C31.9961 22.5083 31.9909 22.549 31.9839 22.5685C31.9272 22.7276 32.0096 22.9465 31.9566 23.1039L31.9348 23.2266C31.9349 23.2887 31.9414 23.3784 31.9363 23.4371C31.9282 23.5304 31.9262 23.478 31.9147 23.512C31.8884 23.5903 31.9183 23.7021 31.8924 23.779C31.8521 23.8986 31.8872 23.9234 31.8682 24.012C31.8577 24.0613 31.8607 24.0323 31.8554 24.0474C31.8306 24.1169 31.8479 24.2346 31.8233 24.3046L31.774 24.641C31.7635 24.7203 31.7536 24.6777 31.7429 24.8189L31.6898 25.0552C31.675 25.1008 31.6802 25.0863 31.6786 25.1404L31.6348 25.3537C31.6332 25.3588 31.6271 25.3716 31.6256 25.3767L31.5893 25.5493C31.5787 25.5894 31.5859 25.599 31.5806 25.6371L31.2777 26.8128C31.2764 26.8166 31.2745 26.8206 31.2732 26.8244C31.2677 26.8404 31.2543 26.8804 31.2488 26.8964L31.1436 27.2413C31.1359 27.2668 31.1402 27.2496 31.1343 27.2802L31.0886 27.4434C31.0872 27.4472 31.0856 27.4513 31.0843 27.4552C31.083 27.459 31.0813 27.4631 31.08 27.4669L31.0437 27.5753C31.0387 27.5903 31.0373 27.5972 31.0324 27.6122L31.0076 27.6839C31.0027 27.6989 31.0014 27.7057 30.9964 27.7208L30.9194 27.9492C30.9111 27.9738 30.9059 27.998 30.8964 28.0226L30.7828 28.3591C30.7778 28.3739 30.7763 28.3808 30.7712 28.3957L30.7581 28.4308C30.7569 28.4348 30.7554 28.4389 30.7543 28.4431L30.5745 29.0187C30.5699 29.0323 30.5706 29.0286 30.5659 29.0422C30.5618 29.0543 30.5596 29.0617 30.5542 29.0787C30.5487 29.0956 30.5465 29.1031 30.5424 29.1151L30.4736 29.2874C30.4721 29.2909 30.4703 29.2952 30.4689 29.2988C30.4675 29.3026 30.4661 29.3069 30.4648 29.3107L30.3823 29.5336C30.3685 29.5632 30.3804 29.5327 30.3685 29.5679L30.2762 29.781C30.2649 29.8111 30.2651 29.8251 30.2539 29.8552C30.252 29.8599 30.2463 29.8731 30.2442 29.8777C30.2427 29.8811 30.2405 29.885 30.2389 29.8884L30.1259 30.145C30.1191 30.1581 30.1217 30.1532 30.115 30.1663C30.1107 30.1745 30.105 30.1842 30.0984 30.1979L30.0514 30.3277C30.0499 30.3311 30.0477 30.3351 30.0461 30.3384C30.0398 30.3515 30.0333 30.3626 30.0295 30.3701C30.0053 30.4173 30.0428 30.3439 30.0187 30.3914L29.9812 30.4664C29.9796 30.4697 29.9775 30.4739 29.9758 30.4772C29.9742 30.4804 29.9721 30.4846 29.9705 30.4879L29.9276 30.5735C29.9259 30.5768 29.9238 30.5809 29.9222 30.5842L29.8683 30.7232C29.8665 30.728 29.8607 30.7411 29.8587 30.7457L29.7617 30.9379C29.76 30.9412 29.758 30.9454 29.7563 30.9486L29.5903 31.2809C29.5881 31.2853 29.5818 31.2979 29.5796 31.3023L29.3707 31.688C29.3643 31.7012 29.3594 31.7109 29.3547 31.7202C29.3528 31.724 29.3459 31.7379 29.344 31.7417L29.3065 31.8167C29.3049 31.82 29.3028 31.8241 29.3012 31.8274L29.0602 32.2453C29.0586 32.2487 29.0568 32.253 29.0551 32.2564L28.974 32.3841C28.9723 32.3874 28.9705 32.3917 28.9688 32.395C28.9672 32.3984 28.9654 32.4027 28.9638 32.4061L28.8725 32.5558C28.8708 32.5591 28.869 32.5634 28.8674 32.5668L28.5121 33.1436C28.5101 33.1464 28.5072 33.15 28.5052 33.1527L28.4542 33.2303C28.4524 33.2332 28.4498 33.2372 28.4478 33.24L28.3804 33.3494C28.3788 33.3528 28.377 33.3571 28.3753 33.3604L28.3644 33.3816C28.3626 33.3846 28.3601 33.3886 28.3582 33.3915C28.3564 33.3944 28.3537 33.3982 28.3517 33.401L28.1587 33.6901C28.1581 33.6909 28.1309 33.7254 28.1304 33.7261L27.9634 33.9608C27.9615 33.9638 27.9593 33.968 27.9574 33.971L27.9401 34.0019C27.9383 34.0048 27.9357 34.0088 27.9338 34.0116L27.7095 34.3337C27.6911 34.3595 27.6802 34.3628 27.6624 34.383L27.3493 34.8252C27.3297 34.8504 27.3391 34.8368 27.3259 34.85L27.1337 35.0757C27.1318 35.0785 27.1294 35.0827 27.1276 35.0856L27.0606 35.1793C27.0075 35.2304 26.9851 35.2891 26.9321 35.3401C26.8789 35.3913 26.8562 35.4492 26.8037 35.501L26.7223 35.5802C26.6994 35.6028 26.717 35.5826 26.6983 35.6044L26.6191 35.7181C26.6186 35.7186 26.6022 35.7339 26.5944 35.7416L26.2408 36.1272C26.1602 36.2076 25.9755 36.4206 25.8844 36.4778C25.8814 36.4797 25.8771 36.4817 25.874 36.4835C25.8709 36.4853 25.8665 36.4872 25.8634 36.489L25.8325 36.5063C25.8131 36.5199 25.7981 36.5374 25.7828 36.553C25.6201 36.7201 25.6894 36.6426 25.5663 36.7382C25.5421 36.757 25.5539 36.7493 25.5414 36.7616L25.4942 36.8107C25.4923 36.8127 25.4721 36.8337 25.4705 36.8353L25.403 36.8803C25.4 36.882 25.3956 36.8841 25.3927 36.886C25.3897 36.8878 25.3856 36.8902 25.3828 36.8922L24.7958 37.2854C24.7874 37.2917 24.7701 37.3066 24.7694 37.3071L24.1718 37.5932C24.1681 37.5946 24.1639 37.5964 24.1604 37.5979C24.1569 37.5993 24.1528 37.6014 24.1494 37.603L24.0851 37.6352C24.0545 37.6467 24.0418 37.6459 24.0112 37.6576L23.863 37.7183C23.8591 37.7196 23.855 37.7211 23.8511 37.7225C23.8473 37.7237 23.8432 37.7254 23.8393 37.7267L23.4944 37.8317C23.4609 37.8407 23.4466 37.8378 23.4132 37.8468C23.409 37.8479 23.4051 37.8496 23.4011 37.8508L23.0651 37.9325C22.9857 37.9494 22.91 37.9304 22.8322 37.9567C22.7928 37.9699 22.7982 37.9684 22.7481 37.969C22.6073 37.971 22.0526 37.9856 21.9665 37.9611L21.7983 37.9365C21.7325 37.9345 21.6902 37.9054 21.6225 37.9035L20.831 37.6989C20.8272 37.6975 20.8231 37.6959 20.8192 37.6946C20.8154 37.6933 20.8113 37.6916 20.8075 37.6903L20.6382 37.6346C20.6344 37.6333 20.6303 37.6316 20.6265 37.6303L20.3806 37.5387C20.3773 37.5371 20.3732 37.5351 20.3697 37.5336L19.952 37.3729C19.9484 37.3713 19.9443 37.3696 19.9406 37.3682L19.706 37.2815C19.7023 37.2801 19.6981 37.2784 19.6945 37.2769L19.331 37.1262C19.3277 37.1246 19.3237 37.1223 19.3204 37.1208C19.317 37.1192 19.3129 37.1171 19.3094 37.1156L18.9321 36.9788C18.9171 36.9738 18.9102 36.9724 18.8952 36.9675C18.8912 36.9663 18.887 36.9649 18.8831 36.9636C18.8792 36.9623 18.875 36.9608 18.8712 36.9594L18.8476 36.9508C18.8438 36.9495 18.8396 36.948 18.8358 36.9467C18.8318 36.9453 18.8276 36.944 18.8236 36.9428L18.346 36.7938C18.3421 36.7925 18.3382 36.7907 18.3342 36.7895L18.1932 36.7538C18.1889 36.7526 18.1848 36.7516 18.1804 36.7505L17.8029 36.6781C17.7081 36.659 17.8262 36.6727 17.7317 36.653C17.6661 36.6392 17.6211 36.6613 17.5533 36.6386L17.3816 36.6175C17.2618 36.6189 17.2416 36.6077 17.1534 36.5886C17.0503 36.5664 16.9238 36.5854 16.8192 36.5854C16.4356 36.5854 16.6006 36.6051 16.4504 36.6182C16.3874 36.6237 16.3046 36.6136 16.2398 36.6164C16.0999 36.6224 16.2207 36.6462 16.0811 36.6506C16.0519 36.6515 16.0133 36.6466 15.9848 36.6506L15.6503 36.7178C15.5554 36.7368 15.6734 36.7234 15.5785 36.7424L15.2411 36.8227C15.2373 36.824 15.2333 36.8259 15.2295 36.8272C15.2256 36.8284 15.2217 36.8302 15.2177 36.8315C15.2137 36.8327 15.2097 36.8342 15.2055 36.8353L14.522 37.0516C14.5182 37.0529 14.5141 37.0545 14.5102 37.0559C14.5064 37.0572 14.5023 37.0587 14.4983 37.06L14.4369 37.0788C14.4321 37.0807 14.4189 37.0865 14.4145 37.0886C14.4111 37.0902 14.4071 37.0925 14.4039 37.0941C14.3962 37.0979 14.3733 37.1107 14.3726 37.111L13.8041 37.3458C13.7734 37.3574 13.7606 37.3566 13.7301 37.3682L13.5464 37.4417C13.5425 37.4429 13.5384 37.4445 13.5345 37.4458L13.3249 37.5254C13.321 37.5267 13.3169 37.5282 13.313 37.5296C13.3091 37.5308 13.305 37.5325 13.3012 37.5338L13.2654 37.5462C13.2504 37.5511 13.2435 37.5525 13.2284 37.5575L13.1563 37.5818C13.0367 37.6193 12.9261 37.6848 12.8013 37.7088C12.7753 37.7138 12.7745 37.7106 12.7463 37.718L12.6147 37.7632C12.6108 37.7645 12.6067 37.766 12.6028 37.7674L12.554 37.7828C12.5502 37.7841 12.5461 37.7858 12.5423 37.7872L12.4132 37.8187C12.4128 37.8188 12.3904 37.8275 12.39 37.8276L11.8404 37.9368C11.7571 37.9478 11.7797 37.9668 11.662 37.9672C11.5672 37.9676 11.6097 37.9901 11.5091 38H10.7882C10.7791 37.999 10.7716 37.998 10.7662 37.9968C10.6828 37.9788 10.7792 37.9822 10.6819 37.9687L10.5413 37.9646C10.4468 37.9448 10.5649 37.9586 10.4701 37.9395C10.437 37.9328 10.4146 37.9385 10.3812 37.9319L10.3217 37.9112C10.3174 37.91 10.3132 37.909 10.3089 37.9079L9.42482 37.603C9.42 37.6012 9.40683 37.5954 9.40232 37.5934L9.11335 37.4325C9.11001 37.4308 9.10572 37.429 9.10246 37.4273L8.68254 37.1563C8.60072 37.0909 8.49064 37.0436 8.40981 36.9791L8.36124 36.9312C8.33756 36.9124 8.35661 36.927 8.33187 36.9124L8.1619 36.7931C8.1232 36.7662 8.10165 36.7261 8.06298 36.6992C8.06013 36.6972 8.05603 36.6949 8.05307 36.6931C7.91866 36.6086 7.81575 36.4808 7.70225 36.369C7.68499 36.3519 7.67045 36.3373 7.65774 36.3171L7.61494 36.2474C7.59619 36.2256 7.6138 36.2458 7.59088 36.2232C7.49218 36.1259 7.38745 36.0384 7.31413 35.9215C7.24651 35.8137 7.1154 35.7505 7.04729 35.6419C7.03423 35.6211 7.04144 35.6288 7.03067 35.6103C7.01636 35.5859 7.03025 35.6044 7.012 35.5808L6.91573 35.4842C6.84966 35.4182 6.76739 35.3586 6.72034 35.2779C6.67222 35.1955 6.59276 35.15 6.53941 35.0732C6.53743 35.0703 6.53508 35.0662 6.53326 35.0633C6.48988 34.9942 6.42993 34.9422 6.38807 34.8709L6.2008 34.6244H6.13652C6.11546 34.6766 6.11986 34.6452 6.06412 34.6644L5.96474 34.7096C5.96098 34.711 5.95669 34.7125 5.95286 34.7138C5.93282 34.7208 5.92349 34.7218 5.90322 34.7284C5.89931 34.7297 5.89518 34.7313 5.89131 34.7326L5.33273 34.881C5.29679 34.8846 5.29755 34.8786 5.26006 34.8886L5.23699 34.8977C5.18519 34.9154 5.1447 34.908 5.09343 34.9148C5.0079 34.9261 5.05253 34.948 4.86746 34.9459L4.67959 34.9668C4.59641 34.9948 4.46329 34.9777 4.36944 34.978C4.15394 34.9788 4.22206 34.9604 4.12772 34.9466C4.04652 34.9347 3.95567 34.9612 3.87822 34.9391C3.87424 34.938 3.8704 34.9359 3.86657 34.9347L3.82009 34.9169C3.74696 34.9015 3.6883 34.9155 3.61878 34.8933C3.61483 34.892 3.61085 34.8903 3.60679 34.8892L3.53852 34.8772C3.53412 34.8761 3.52998 34.8751 3.52573 34.8739C3.52163 34.8728 3.51769 34.8711 3.51374 34.8698C3.50869 34.8682 3.49587 34.8621 3.49082 34.8606C3.45215 34.8487 3.48729 34.8551 3.43716 34.85L2.54875 34.5495C2.54548 34.5478 2.54135 34.5457 2.53808 34.544L2.23781 34.3783C2.22597 34.3706 2.20821 34.3622 2.19576 34.3561C2.07517 34.2977 1.97848 34.2097 1.86331 34.1422C1.86024 34.1404 1.85587 34.1385 1.8528 34.1367C1.84976 34.1349 1.84544 34.1329 1.84248 34.1309C1.83956 34.1291 1.83542 34.1267 1.83265 34.1247L1.5342 33.8929C1.43424 33.8152 1.32974 33.6884 1.23696 33.5956L1.10775 33.4676C1.09534 33.455 1.08263 33.4416 1.0714 33.4237C1.05633 33.3996 1.06415 33.4057 1.04908 33.3817C1.03091 33.3528 1.01334 33.3387 0.987988 33.3142C0.911942 33.2408 0.917483 33.2373 0.853353 33.1436L0.829939 33.1027C0.828118 33.0997 0.826069 33.0953 0.824172 33.0924C0.822312 33.0894 0.81996 33.0853 0.817949 33.0825C0.796661 33.0526 0.777649 33.0455 0.756323 33.0156L0.6536 32.8451C0.651968 32.8418 0.650147 32.8375 0.648477 32.8342C0.646807 32.8309 0.64491 32.8266 0.643164 32.8234L0.6314 32.803C0.626543 32.7956 0.615045 32.783 0.603092 32.7671C0.587268 32.746 0.591594 32.7536 0.577667 32.7282L0.492628 32.5561C0.486519 32.5438 0.477335 32.5255 0.471226 32.5132C0.469025 32.5088 0.462726 32.4962 0.460525 32.4918L0.444435 32.4597C0.442803 32.4564 0.440717 32.4522 0.439085 32.449L0.120861 31.5618C0.0900101 31.4501 0.075059 31.3017 0.0432591 31.2054C0.0279285 31.159 0.03104 31.144 0.0321407 31.088C0.0338107 31.0017 0.0179487 30.9925 0.00318742 30.924C0.00204877 30.9188 0.000986828 30.9097 0 30.8975V30.1704C0.00284583 30.1203 0.00652666 30.0841 0.0111564 30.0704C0.0261834 30.0258 0.0129023 30.1 0.0289153 30.0238C0.0420453 29.9613 0.0241717 29.9027 0.0432971 29.8454C0.0744897 29.7519 0.0525944 29.732 0.0710366 29.6642L0.273067 28.9661C0.274395 28.9623 0.276064 28.9582 0.277355 28.9543L0.718413 28.0776C0.72031 28.0747 0.722853 28.0707 0.724826 28.0679L0.823716 27.9257C0.881965 27.8343 0.908489 27.8359 0.952697 27.7654C1.00616 27.6802 1.0824 27.6155 1.13568 27.5306C1.1375 27.5277 1.13985 27.5235 1.14183 27.5207C1.20455 27.4304 1.44301 27.2099 1.53101 27.1546C1.53165 27.1542 1.56645 27.1267 1.56691 27.1263L1.7829 26.9405C1.78639 26.9374 1.79664 26.9288 1.80051 26.926L2.02409 26.78C2.02713 26.7782 2.03145 26.7762 2.03449 26.7743L2.14158 26.7047C2.14165 26.7047 2.16355 26.6946 2.16362 26.6946C2.16806 26.6924 2.18104 26.6865 2.18533 26.6842L2.37749 26.571C2.38079 26.5694 2.38493 26.5673 2.38823 26.5657L2.46318 26.5282C2.46758 26.526 2.48021 26.5197 2.48462 26.5175L2.77206 26.3872C2.77593 26.3858 2.78022 26.3844 2.78398 26.383C2.78876 26.3812 2.80189 26.3754 2.80637 26.3733L3.2771 26.2174C3.28097 26.2162 3.28477 26.2141 3.28871 26.2129L3.62993 26.1365C3.6812 26.1311 3.64378 26.1385 3.68344 26.1257C3.74355 26.1064 3.7977 26.1142 3.87063 26.1041C3.98838 26.0877 3.8512 26.0907 3.96865 26.0735C4.02614 26.0651 4.15945 26.0727 4.2249 26.0727C4.40158 26.0727 4.57838 26.0733 4.75502 26.0727C4.97049 26.072 4.90503 26.0913 4.99682 26.1041C5.03484 26.1093 5.08562 26.1005 5.12364 26.1057C5.24207 26.1221 5.10315 26.1202 5.22196 26.136C5.28226 26.1439 5.29357 26.1289 5.35439 26.1481L5.65896 26.2291C5.68784 26.2357 5.69744 26.2329 5.7276 26.2408L6.09322 26.3733C6.098 26.3751 6.1111 26.3809 6.11561 26.383L6.29761 26.4581C6.30087 26.4597 6.30489 26.462 6.30815 26.4636C6.31138 26.4653 6.31548 26.4674 6.3187 26.4691L7.5069 27.2734C7.55851 27.3058 7.48053 27.2511 7.52602 27.2864C7.58021 27.3285 7.66062 27.4041 7.69967 27.4663L7.72198 27.5083C7.77249 27.5888 7.85586 27.6394 7.91475 27.7333L8.02097 27.8521C8.03569 27.8753 8.02886 27.8702 8.04373 27.8936L8.10202 27.9799C8.10388 27.9829 8.10608 27.9871 8.10798 27.9901L8.15496 28.0556C8.15746 28.0597 8.1638 28.0723 8.1663 28.0764C8.16813 28.0794 8.17033 28.0836 8.17222 28.0865C8.17408 28.0894 8.17666 28.0934 8.1786 28.0962L8.50331 28.6875C8.50786 28.6966 8.51321 28.7074 8.5194 28.7197L8.78279 29.5009C8.784 29.5048 8.78613 29.5086 8.78738 29.5124L8.82852 29.6963C8.84138 29.7437 8.83038 29.7714 8.83641 29.817C8.85204 29.9354 8.84954 29.7975 8.86669 29.9153C8.87955 30.0037 8.86373 30.0935 8.8884 30.1668C8.90828 30.2259 8.91682 30.7995 8.8884 30.8839C8.86248 30.9609 8.88115 31.038 8.86426 31.1169L8.83535 31.2809C8.83 31.3517 8.82032 31.3146 8.80696 31.3811L8.78738 31.5062C8.78613 31.51 8.784 31.5138 8.78279 31.5176C8.78154 31.5216 8.77983 31.5256 8.77873 31.5296L8.7316 31.7397C8.7305 31.7439 8.72898 31.7479 8.72777 31.7519L8.69502 31.8478C8.69361 31.8519 8.68788 31.8672 8.68644 31.8713L8.40184 32.5671C8.40021 32.5704 8.39831 32.5746 8.39668 32.578L8.29972 32.7381C8.29414 32.7497 8.28413 32.7698 8.27855 32.7813L8.23225 32.8635C8.22038 32.8796 8.21006 32.8911 8.20436 32.8999L7.97334 33.2314C7.97152 33.2344 7.96962 33.2388 7.96784 33.2419L7.92834 33.2989C7.92659 33.3008 7.9023 33.3239 7.89559 33.3304C7.87862 33.3468 7.88037 33.3448 7.86292 33.362L7.7515 33.5077C7.65777 33.6001 7.57501 33.6831 7.48591 33.7724L7.37837 33.8737C7.31663 33.9125 7.23497 33.9997 7.19676 34.0135V34.0457C7.2706 34.0755 7.19634 34.0348 7.2407 34.0982L7.28536 34.1499C7.29352 34.1587 7.30464 34.171 7.3079 34.1756L7.51779 34.4478C7.52113 34.4511 7.53073 34.4604 7.53407 34.4637L7.67918 34.6078C7.7101 34.6438 7.68866 34.6175 7.71082 34.6565L7.72198 34.6775C7.78289 34.7746 7.90283 34.8622 7.98457 34.9452L8.05626 35.0503C8.11454 35.1254 8.19852 35.1927 8.26557 35.2587L8.36879 35.3966C8.36932 35.3971 8.38567 35.4124 8.39349 35.4201L8.59503 35.6203C8.64049 35.6665 8.64607 35.7163 8.70636 35.75L8.72765 35.7609C8.78131 35.7937 8.81193 35.8465 8.86745 35.8782L9.10352 36.0599C9.12431 36.0733 9.11634 36.0657 9.13482 36.0768L9.69166 36.4358C9.69606 36.438 9.70892 36.4441 9.71336 36.4462C9.7167 36.4479 9.72084 36.4499 9.72414 36.4515C9.73731 36.458 9.74698 36.4629 9.75632 36.4675C9.76008 36.4694 9.774 36.4764 9.77776 36.4783L9.95983 36.5693C9.96309 36.571 9.96723 36.5731 9.97053 36.5747C9.97956 36.5793 9.99038 36.5846 10.0026 36.5908C10.0059 36.5924 10.0101 36.5945 10.0133 36.5962C10.0166 36.5978 10.0208 36.5999 10.024 36.6016L10.4973 36.771C10.5016 36.7721 10.5057 36.7731 10.5102 36.7741C10.552 36.7834 10.55 36.7772 10.5906 36.7901C10.6522 36.8097 10.6985 36.8014 10.7597 36.8138C10.8545 36.8331 10.7364 36.8192 10.8305 36.8394C10.9151 36.8577 11.4231 36.8488 11.4667 36.8394C11.5605 36.8192 11.4432 36.8335 11.5373 36.8137C11.5679 36.8073 11.5999 36.8112 11.6311 36.8111L12.1329 36.7024C12.1369 36.7012 12.1407 36.6992 12.1446 36.698L12.3812 36.6294C12.3851 36.6281 12.3892 36.6265 12.3931 36.6252C12.397 36.6239 12.4013 36.6225 12.4052 36.6213L12.755 36.5051C12.7588 36.5037 12.7629 36.5021 12.7668 36.5008L12.8939 36.4511C12.8971 36.4495 12.9011 36.4472 12.9044 36.4456C12.9078 36.444 12.9119 36.442 12.9154 36.4405L13.0002 36.4129C13.0041 36.4116 13.0082 36.4099 13.012 36.4086L13.2331 36.3244C13.2371 36.3232 13.2414 36.3219 13.2453 36.3206C13.2493 36.3193 13.2534 36.3178 13.2573 36.3164C13.2611 36.3151 13.2652 36.3135 13.269 36.3122L13.6015 36.1787C13.6022 36.1784 13.6251 36.1656 13.6328 36.1618L13.7935 36.0975C13.7967 36.0958 13.8007 36.0935 13.804 36.092L14.7512 35.7538C14.7803 35.7474 14.7896 35.7502 14.8199 35.7422C14.8241 35.7411 14.8281 35.7396 14.8322 35.7384L15.0566 35.6736C15.0606 35.6725 15.0643 35.6704 15.0683 35.6692L15.4173 35.5844C15.4217 35.5834 15.4258 35.5823 15.4301 35.5812L15.7271 35.5248C15.8681 35.5191 15.7478 35.4959 15.8867 35.4915L16.0433 35.4714C16.1202 35.4455 16.2318 35.4754 16.3101 35.4491C16.4659 35.3965 16.9016 35.4281 17.1084 35.4281C17.2344 35.4281 17.3192 35.4201 17.4364 35.4535C17.4939 35.4698 17.578 35.4543 17.6391 35.4596C17.7657 35.4705 17.6386 35.4887 17.7823 35.4932L17.9165 35.5035C17.9564 35.5166 17.8988 35.5003 17.939 35.5132L18.8236 35.7211C18.8276 35.7224 18.8318 35.7237 18.8357 35.725L18.9676 35.7699C18.9714 35.7712 18.9755 35.7728 18.9795 35.7741C18.9834 35.7754 18.9876 35.7767 18.9916 35.778L19.3414 35.8942C19.3452 35.8956 19.3493 35.8972 19.3531 35.8985C19.357 35.8998 19.3611 35.9014 19.365 35.9027L19.5251 35.9675C19.529 35.9689 19.5334 35.97 19.5375 35.9712L19.6096 35.9955C19.6102 35.9958 19.6331 36.0086 19.6408 36.0125L19.7708 36.0592C19.7747 36.0605 19.7788 36.0621 19.7827 36.0634L20.2297 36.243C20.2331 36.2446 20.2372 36.2466 20.2407 36.2481L20.3798 36.3018C20.3831 36.3034 20.387 36.3058 20.3904 36.3073C20.3937 36.3089 20.3978 36.3109 20.4013 36.3124L20.8074 36.4687C20.8113 36.4699 20.8154 36.4716 20.8192 36.4729L20.855 36.4853C20.8559 36.4856 20.879 36.4924 20.8798 36.4926C20.8838 36.4939 20.888 36.4953 20.892 36.4966L21.193 36.5972C21.1971 36.5986 21.2124 36.6044 21.2165 36.6058C21.2204 36.6071 21.2245 36.6087 21.2284 36.61L21.4181 36.6614C21.552 36.7021 21.5662 36.6945 21.6829 36.7178L21.8296 36.7479C21.9331 36.7627 21.8968 36.7801 22.0728 36.7778C22.1515 36.7767 22.186 36.7965 22.2361 36.8073C22.3013 36.8213 22.5338 36.8213 22.5956 36.8037C22.7582 36.7575 22.7365 36.7953 22.8586 36.7775L23.0183 36.7445C23.1053 36.7321 23.0817 36.7217 23.1641 36.7134C23.2292 36.707 23.265 36.6825 23.3364 36.6609L23.3616 36.6539C23.3663 36.6529 23.3705 36.6525 23.3753 36.6516L23.9893 36.414C23.9925 36.4123 23.9967 36.4103 24 36.4086L24.3001 36.2428C24.3035 36.2412 24.3078 36.2394 24.3111 36.2377L24.4935 36.1148C24.4965 36.1129 24.5007 36.1107 24.5037 36.109C24.5221 36.0978 24.5142 36.1054 24.535 36.092L24.7501 35.9215C24.8308 35.8703 24.8809 35.7973 24.9532 35.755C25.0891 35.6757 25.4701 35.2584 25.5828 35.1473L25.644 35.0638C25.6945 34.9773 25.7894 34.9298 25.8461 34.8481L25.8579 34.8278C25.8597 34.8247 25.8616 34.8204 25.8634 34.8172C25.8652 34.8141 25.8671 34.8097 25.8689 34.8067L25.9191 34.7444C26.0143 34.6507 26.0372 34.5978 26.1372 34.4964L26.1959 34.4105C26.2288 34.358 26.2759 34.3359 26.3077 34.2813L26.9446 33.4237C26.9465 33.4207 26.9485 33.4164 26.9504 33.4133C26.9522 33.4103 26.9541 33.4059 26.9559 33.4028C26.9577 33.3998 26.9597 33.3954 26.9615 33.3923L27.0843 33.2098C27.0861 33.2067 27.0881 33.2024 27.0899 33.1994C27.0918 33.1964 27.094 33.1922 27.0959 33.1892L27.2128 33.0169C27.2146 33.0139 27.2166 33.0095 27.2185 33.0065C27.2203 33.0035 27.2225 32.9993 27.2244 32.9963L27.4172 32.707C27.4261 32.6931 27.4493 32.6655 27.4582 32.6516L27.9628 31.8384C27.9644 31.8351 27.9662 31.8308 27.9678 31.8274L28.1236 31.5492C28.1312 31.5375 28.1578 31.5064 28.1655 31.4947L28.2804 31.2882C28.2971 31.2659 28.2866 31.2825 28.3001 31.2597L28.5836 30.7236C28.5852 30.7203 28.5873 30.7162 28.589 30.7129L28.7392 30.4131C28.7407 30.4096 28.7424 30.4054 28.7438 30.4017C28.755 30.3716 28.7549 30.3576 28.7661 30.3276C28.7679 30.3228 28.7737 30.3096 28.7758 30.3051C28.7773 30.3017 28.7795 30.2977 28.7811 30.2944L28.9372 29.9843C28.9388 29.9811 28.941 29.977 28.9426 29.9737L28.9641 29.9309C28.9656 29.9273 28.9673 29.9231 28.9687 29.9194C28.9701 29.9156 28.9715 29.9114 28.9728 29.9075L29.0549 29.7163C29.0565 29.713 29.0586 29.7089 29.0603 29.7056L29.2482 29.2668C29.2498 29.2634 29.2518 29.2593 29.2533 29.2558L29.3069 29.1165C29.3085 29.1133 29.3108 29.1093 29.3123 29.1059L29.4408 28.7523C29.4422 28.7486 29.444 28.7444 29.4455 28.7409L29.4618 28.709C29.5067 28.6206 29.5312 28.5176 29.5618 28.4233L29.5743 28.3875C29.5756 28.3836 29.5772 28.3795 29.5785 28.3757L29.5941 28.327C29.5954 28.3231 29.5968 28.3188 29.5982 28.3149L29.647 28.1387C29.6552 28.1082 29.6522 28.0996 29.6589 28.0703L29.6662 28.0455C29.6673 28.0415 29.6694 28.0377 29.6706 28.0338L29.7109 27.8813C29.7162 27.8654 29.7171 27.8592 29.722 27.8441L29.7949 27.6599C29.7962 27.656 29.7978 27.6519 29.7992 27.648L29.8549 27.4788C29.8562 27.4749 29.8578 27.4708 29.8591 27.4669L29.8998 27.3469C29.9011 27.3431 29.9027 27.3389 29.904 27.335L30.522 25.0279C30.5291 24.9496 30.5504 24.9131 30.5536 24.8827C30.559 24.8301 30.5497 24.8475 30.5655 24.7981C30.5921 24.7146 30.5756 24.6989 30.5896 24.6294L30.6182 24.4811C30.6213 24.4035 30.6477 24.3985 30.6508 24.3209C30.6538 24.2463 30.6691 24.2221 30.6795 24.1727C30.6917 24.1146 30.6762 24.0468 30.6938 23.9942C30.7384 23.8612 30.6963 23.8253 30.726 23.7371C30.7374 23.703 30.7395 23.7556 30.7475 23.6622L30.7679 23.4254C30.7866 23.3697 30.7797 23.304 30.7789 23.2435C30.7771 23.0971 30.812 23.0392 30.8113 22.9061C30.8106 22.804 30.8052 22.6375 30.8322 22.5573C30.8644 22.4615 30.8433 22.309 30.8433 22.1988C30.8433 22.0234 30.8709 21.3834 30.8224 21.2392C30.7777 21.1065 30.8405 20.8858 30.8045 20.7588L30.7787 20.5917C30.7815 20.3725 30.7442 20.3962 30.7469 20.2538L30.7309 20.1252C30.7035 20.0482 30.72 19.967 30.6938 19.889C30.688 19.8714 30.6901 19.899 30.6835 19.8511C30.6759 19.7961 30.6877 19.735 30.6715 19.6863C30.6402 19.5925 30.661 19.5688 30.6297 19.4709C30.6285 19.467 30.6266 19.4632 30.6255 19.4591C30.6148 19.419 30.6221 19.4094 30.6167 19.3714L30.373 18.3132C30.3718 18.3093 30.3701 18.3053 30.369 18.3012C30.3607 18.2705 30.3637 18.2622 30.3572 18.2326C30.3562 18.2281 30.3552 18.224 30.3541 18.2197C30.353 18.2155 30.3514 18.2115 30.3502 18.2075L30.3089 18.088C30.3026 18.0698 30.291 18.0332 30.2849 18.0156L30.2407 17.8509C30.2394 17.847 30.238 17.8427 30.2367 17.8388L30.1569 17.5972C30.1551 17.5923 30.1499 17.5786 30.1483 17.5736L30.0513 17.3171C30.0498 17.3133 30.0484 17.309 30.0471 17.3052L29.9968 17.1465C29.995 17.1418 29.9892 17.1286 29.987 17.1241C29.9867 17.1233 29.9741 17.1007 29.9701 17.0928L29.9595 17.0713C29.958 17.0677 29.9563 17.0635 29.9549 17.0599L29.789 16.6311C29.7874 16.6278 29.7852 16.6238 29.7835 16.6205L29.6338 16.2881C29.6322 16.2847 29.63 16.2808 29.6284 16.2774L29.6119 16.2458C29.6102 16.2425 29.6081 16.2384 29.6064 16.2351L29.5046 16.0316C29.503 16.0283 29.5009 16.0242 29.4993 16.0209L29.4408 15.9025C29.4392 15.8992 29.4373 15.8949 29.4356 15.8916C29.4244 15.8698 29.4301 15.8785 29.4185 15.8606C29.3581 15.7678 29.4675 15.9256 29.4049 15.842L29.1516 15.3881C29.1495 15.3837 29.1435 15.3708 29.1411 15.3665L28.8564 14.9281C28.8546 14.925 28.8525 14.9208 28.8508 14.9177C28.8484 14.9134 28.8425 14.9004 28.8403 14.896L28.8198 14.8522C28.8181 14.849 28.816 14.8449 28.8142 14.8418L28.7606 14.7667C28.7498 14.749 28.7561 14.7556 28.7434 14.7358L28.7023 14.6804C28.7004 14.6774 28.6982 14.6733 28.6964 14.6702L28.4603 14.36C28.406 14.2668 27.7209 13.6056 27.5669 13.4536C27.5544 13.4414 27.5662 13.449 27.5421 13.4302L27.481 13.3949C27.4648 13.3847 27.4482 13.3696 27.437 13.3585L27.2986 13.2399C27.2955 13.2381 27.2912 13.236 27.2882 13.2342C27.2853 13.2323 27.2812 13.23 27.2783 13.228C27.2135 13.1829 27.2051 13.1467 27.0417 13.0468L26.5271 12.7259C26.5041 12.7122 26.521 12.723 26.4986 12.7062L26.2918 12.5916C26.2917 12.5916 26.2704 12.5809 26.2704 12.5809C26.2671 12.5793 26.2629 12.5772 26.2597 12.5755L25.7316 12.3164C25.7144 12.311 25.7124 12.3123 25.6938 12.306L25.5952 12.2599C25.5914 12.2585 25.5871 12.2571 25.5833 12.2558L25.2412 12.1319C25.2373 12.1306 25.2332 12.129 25.2293 12.1277L25.012 12.0558C24.9948 12.0503 24.9881 12.0483 24.9756 12.044C24.9714 12.0426 24.9562 12.0369 24.952 12.0354L24.7273 11.971C24.6885 11.9592 24.6863 11.9641 24.6469 11.955L24.6104 11.9433C24.6065 11.9421 24.6027 11.94 24.5988 11.9388L24.4703 11.9067C24.4663 11.9055 24.4623 11.9038 24.4582 11.9027L24.3536 11.8787C24.3431 11.8753 24.3624 11.8755 24.3175 11.8667C24.295 11.8623 24.2935 11.8648 24.2731 11.8629C24.2525 11.8611 24.2512 11.8637 24.2286 11.8591C24.1809 11.8496 24.2055 11.8511 24.1927 11.8468L23.726 11.7673C23.708 11.7668 23.6996 11.767 23.6819 11.7633C23.6315 11.7526 23.6625 11.7561 23.6466 11.7504C23.5213 11.7059 23.5635 11.7649 23.4105 11.7134C23.3286 11.6858 23.1902 11.7176 23.1115 11.691C23.1066 11.6893 23.0941 11.6829 23.0892 11.6812C22.9851 11.6461 22.7355 11.6691 22.6183 11.6702L22.446 11.6485C22.3789 11.6252 22.3388 11.657 22.294 11.6668C22.1854 11.6906 22.0384 11.6709 21.9274 11.6697L21.7719 11.691C21.7055 11.7134 21.6609 11.6957 21.5898 11.7016C21.464 11.7121 21.5907 11.7288 21.446 11.7346L20.7915 11.8673C20.7871 11.8683 20.7829 11.8694 20.7786 11.8705C20.7745 11.8716 20.7706 11.8733 20.7666 11.8745L19.224 12.3885C19.2206 12.3901 19.2165 12.3921 19.2131 12.3936L19.1773 12.4061C19.1766 12.4063 19.1527 12.4126 19.1519 12.4128L18.3557 12.7252C18.3478 12.7291 18.3253 12.7417 18.3244 12.7422L18.2406 12.7708C18.2366 12.772 18.2325 12.7736 18.2286 12.7749L18.205 12.7834C18.2012 12.7848 18.197 12.7863 18.1931 12.7876L18.1435 12.8022C18.1091 12.8142 18.1384 12.8025 18.1093 12.8162L18.0564 12.8437C18.0529 12.8453 18.0487 12.847 18.045 12.8484L17.5946 13.0085C17.5767 13.0146 17.5557 13.0205 17.5337 13.0279C17.5298 13.0292 17.5256 13.0307 17.5218 13.0321C17.5179 13.0334 17.5138 13.035 17.51 13.0364L17.4258 13.0647C17.4209 13.0664 17.4075 13.0719 17.4025 13.0734C17.3984 13.0746 17.3944 13.0762 17.3902 13.0773L16.9033 13.1848C16.8533 13.1949 16.8826 13.192 16.8675 13.1972L16.788 13.214C16.7588 13.2149 16.7201 13.2101 16.6916 13.214C16.5989 13.2269 16.6768 13.2189 16.6314 13.2342C16.535 13.2666 16.3835 13.2444 16.2727 13.2457L16.1057 13.2199C16.0517 13.2046 15.991 13.2184 15.9351 13.2138C15.8321 13.2052 15.8672 13.1898 15.7757 13.1805C15.6795 13.1706 15.7063 13.1614 15.6323 13.147C15.602 13.1411 15.6192 13.1455 15.5935 13.1377L15.5584 13.1246C15.5435 13.1194 15.5366 13.118 15.5218 13.113L15.4865 13.1C15.4826 13.0988 15.4787 13.097 15.4747 13.0958L15.4075 13.0827C15.3769 13.0768 15.3941 13.0811 15.3686 13.0734C15.3635 13.0719 15.3501 13.0664 15.3452 13.0647L14.7994 12.8713C14.7955 12.8701 14.7914 12.8685 14.7875 12.8672L13.6015 12.3983C13.5982 12.3967 13.5941 12.3946 13.5906 12.3931L13.1287 12.2283C13.1249 12.227 13.1208 12.2255 13.1169 12.2242C13.113 12.2228 13.1087 12.2215 13.1047 12.2203C13.0897 12.2154 13.0829 12.214 13.0678 12.209C13.0639 12.2077 13.0598 12.2061 13.0559 12.2048L12.936 12.1641C12.9321 12.1627 12.928 12.1612 12.9241 12.1599C12.9202 12.1585 12.9159 12.1572 12.912 12.1559L12.8277 12.1277C12.8127 12.1227 12.8058 12.1213 12.7908 12.1164C12.7868 12.1151 12.7826 12.1138 12.7786 12.1125L12.755 12.1041C12.7512 12.1027 12.7471 12.1011 12.7432 12.0998L12.301 11.9636C12.2823 11.9595 12.2756 11.9608 12.2589 11.9575L11.9434 11.8874C11.8566 11.8631 11.8022 11.8705 11.7498 11.8561C11.7457 11.855 11.7419 11.853 11.7381 11.8517L11.4068 11.7975C11.19 11.7952 11.2707 11.7765 11.1492 11.7659C10.9895 11.752 10.4212 11.745 10.3244 11.7777C10.1955 11.8211 10.1098 11.7783 10.0147 11.8054C10.0108 11.8065 10.007 11.8085 10.0031 11.8098L9.81415 11.8297C9.67068 11.8349 9.7978 11.8533 9.67068 11.8629L9.50625 11.8913C9.47305 11.898 9.45066 11.8922 9.41742 11.8989C9.36961 11.9084 9.39427 11.9069 9.38152 11.9112C9.37772 11.9124 9.37404 11.9147 9.37021 11.9159L9.20913 11.9477C9.20518 11.9489 9.20123 11.9506 9.19713 11.9517C9.16359 11.961 9.14974 11.9579 9.116 11.967C9.11191 11.9681 9.10796 11.9698 9.10394 11.971L9.05586 11.9871C9.01685 11.9961 9.014 11.9909 8.97499 12.0027L8.69069 12.0879C8.67495 12.0931 8.66595 12.0957 8.65434 12.0997L7.68943 12.4845C7.68502 12.4867 7.67239 12.493 7.66799 12.4952C7.66472 12.4968 7.66055 12.4989 7.65728 12.5006L6.65252 13.0704C6.65142 13.0712 6.63446 13.0855 6.6257 13.0918L6.34512 13.2773C6.25863 13.3537 6.12946 13.4264 6.05596 13.5023C5.98382 13.5767 5.93256 13.5936 5.87882 13.6465C5.87833 13.6471 5.86296 13.6635 5.85537 13.6712L5.67877 13.816C5.56197 13.9068 5.29008 14.206 5.16455 14.3303C5.1543 14.3404 5.14626 14.3484 5.1403 14.3542L5.04467 14.4836C4.99458 14.5418 4.92818 14.5821 4.88901 14.6493C4.83775 14.7372 4.68964 14.8727 4.63196 14.9708L4.53554 15.0993C4.52472 15.1174 4.53136 15.1103 4.5185 15.1305L4.39001 15.3234C4.38106 15.3373 4.35787 15.3649 4.34895 15.3788L4.24088 15.5439C4.22566 15.5642 4.23063 15.5548 4.22001 15.5712L4.13721 15.7134C4.12051 15.7357 4.13106 15.7191 4.11751 15.7419C4.11645 15.7437 4.1018 15.7729 4.10131 15.7739C4.09911 15.7784 4.09304 15.7912 4.09091 15.7957L4.05414 15.8714C4.0519 15.8758 4.0456 15.8884 4.04314 15.8925L3.91431 16.1173C3.91268 16.1206 3.91059 16.1247 3.90896 16.128L3.78043 16.3852C3.7788 16.3885 3.77675 16.3926 3.77508 16.3959L3.54535 16.9215C3.54379 16.9249 3.54148 16.9288 3.53985 16.9321L3.43394 17.1959C3.43268 17.1999 3.43139 17.2041 3.4301 17.2081L3.39804 17.3046C3.39675 17.3084 3.39515 17.3126 3.39383 17.3165L3.35315 17.4365C3.34643 17.4561 3.3363 17.4897 3.32958 17.5094L3.29315 17.6176C3.29183 17.6214 3.29019 17.6255 3.28887 17.6294L3.20064 17.8947C3.19897 17.8996 3.19343 17.913 3.19187 17.9181L3.15294 18.072C3.14398 18.111 3.14922 18.1139 3.13742 18.1529L3.06801 18.3889C3.06676 18.3927 3.06456 18.3964 3.06338 18.4003L2.95751 18.8891C2.95208 18.9272 2.95945 18.9367 2.94875 18.9769L2.93968 18.9999C2.93842 19.0037 2.93607 19.0074 2.93486 19.0111L2.88776 19.2855C2.87486 19.3442 2.88678 19.2967 2.87642 19.3224L2.76368 19.531C2.71408 19.5887 2.67105 19.609 2.60244 19.643L2.53873 19.6757C2.46245 19.7157 2.25056 19.7286 2.16256 19.6973C2.1577 19.6956 2.14514 19.6892 2.14066 19.687C2.13736 19.6855 2.13349 19.683 2.13027 19.6814C2.06462 19.6479 1.98277 19.6177 1.92676 19.5635L1.83064 19.4347C1.79326 19.3836 1.82297 19.4447 1.79827 19.3706C1.79406 19.3581 1.79015 19.3442 1.78669 19.334C1.76138 19.2588 1.78764 19.182 1.73494 19.1607V19.0964C1.80882 19.0666 1.74632 19.0135 1.77823 18.9147L1.83075 18.6779C1.83963 18.5919 1.85215 18.6207 1.86286 18.5172C1.86828 18.4647 1.85925 18.4819 1.87473 18.4326L1.99954 17.8984C2.00068 17.8943 2.00235 17.8904 2.00356 17.8864C2.00474 17.8825 2.00679 17.8787 2.00804 17.8748L2.03142 17.7696C2.03252 17.7654 2.03403 17.7614 2.03525 17.7573L2.09953 17.5323C2.10071 17.5283 2.10253 17.5244 2.10382 17.5205L2.13224 17.4364C2.13357 17.4326 2.1352 17.4285 2.13653 17.4247L2.38872 16.6965C2.39028 16.6931 2.39233 16.689 2.39381 16.6855L2.43054 16.5776C2.4321 16.5743 2.43441 16.5703 2.43604 16.567L2.8379 15.6671C2.8395 15.6638 2.84151 15.6596 2.8431 15.6563L2.94522 15.4852C2.94905 15.4773 2.95554 15.4642 2.96119 15.4529C2.96283 15.4496 2.96487 15.4455 2.96654 15.4422C2.96818 15.4389 2.97026 15.4347 2.9719 15.4315L3.06657 15.269C3.06855 15.2663 3.07128 15.2624 3.07318 15.2595L3.09549 15.2176C3.09712 15.2143 3.09902 15.21 3.10065 15.2067L3.13746 15.131C3.13909 15.1277 3.14095 15.1233 3.14262 15.1201L3.22891 14.9814C3.2305 14.978 3.23233 14.9737 3.23396 14.9703L3.36188 14.7769C3.37463 14.7571 3.36829 14.7637 3.37914 14.7459C3.381 14.7429 3.3832 14.7387 3.3851 14.7358C3.38696 14.7329 3.38954 14.7289 3.39147 14.7261L3.43208 14.6703C3.43394 14.6673 3.43591 14.6629 3.43773 14.6599L3.61001 14.4143C3.61187 14.4114 3.61445 14.4075 3.61639 14.4046L3.64466 14.3686C3.64659 14.3658 3.64917 14.3618 3.65103 14.3589L3.77019 14.1888C3.78316 14.1682 3.79705 14.1542 3.81485 14.1371L3.88756 14.0491C3.8893 14.0459 3.8912 14.0415 3.89302 14.0385C3.92695 13.9802 3.98311 13.949 4.02405 13.8963L4.36132 13.4944C4.38284 13.4731 4.38834 13.4677 4.40971 13.4463C4.50438 13.3516 4.77335 13.0553 4.86257 12.9993L4.96411 12.9241C5.12269 12.7613 5.05257 12.8385 5.18067 12.7389L5.26051 12.6581C5.28321 12.635 5.26291 12.6527 5.28465 12.634C5.28928 12.63 5.30393 12.6188 5.31235 12.6135L5.73979 12.3018C5.76339 12.2868 5.77022 12.2762 5.79094 12.2566C5.79963 12.2483 5.81196 12.2373 5.81655 12.234C5.81936 12.232 5.8235 12.2296 5.82642 12.2277L5.87757 12.1986C5.87833 12.198 5.89586 12.1833 5.9044 12.1772L5.92322 12.1639C5.92618 12.162 5.93039 12.1598 5.93335 12.1579L6.14692 12.018C6.14992 12.0162 6.15413 12.014 6.15705 12.0121C6.15993 12.0102 6.16392 12.0076 6.16673 12.0057C6.16953 12.0037 6.17318 12.0007 6.17587 11.9988L6.48825 11.813C6.4889 11.8126 6.50631 11.7976 6.51474 11.7913C6.53697 11.7745 6.52043 11.7851 6.5432 11.7715L7.07897 11.4879C7.08223 11.4862 7.08641 11.4841 7.08967 11.4825L7.58257 11.2684C7.58606 11.267 7.59012 11.2649 7.59353 11.2633L7.66969 11.227C7.67364 11.2256 7.678 11.2246 7.68206 11.2233L7.79602 11.1766C7.7994 11.175 7.80349 11.173 7.80698 11.1715L8.14885 11.0474C8.15378 11.0457 8.16748 11.0405 8.17241 11.0388L8.48252 10.9473C8.48635 10.946 8.49033 10.9441 8.49413 10.9428L8.84692 10.8458C8.85094 10.8446 8.85485 10.8429 8.85899 10.8418L9.23523 10.7682C9.30521 10.7582 9.26836 10.7594 9.28513 10.7538L9.40987 10.734C9.46068 10.7237 9.49608 10.7065 9.5749 10.7062C9.6402 10.7059 9.65489 10.6876 9.70597 10.6766L9.84846 10.6745C9.93854 10.6712 9.91399 10.6389 10.1206 10.6414L10.2923 10.6203C10.4011 10.5836 10.9151 10.6105 11.0686 10.6088L11.2356 10.6345C11.2909 10.6503 11.3625 10.6417 11.422 10.641C11.5147 10.6398 11.5448 10.6582 11.6016 10.6702C11.6671 10.684 11.712 10.6619 11.78 10.6846C11.8148 10.6962 11.7603 10.6984 11.8554 10.7056L12.1125 10.7377C12.1616 10.7414 12.1305 10.7377 12.1657 10.7488C12.3009 10.7914 12.445 10.8039 12.5828 10.8458L12.7235 10.8818C12.7273 10.8831 12.7313 10.8849 12.7351 10.8863L13.5791 11.1669C13.6083 11.1805 13.579 11.1688 13.6134 11.1808L13.663 11.1955C13.6669 11.1967 13.671 11.1983 13.6749 11.1996L13.8683 11.2633C13.8731 11.2651 13.8862 11.2709 13.8907 11.273L14.756 11.6128C14.7911 11.6248 14.7608 11.6129 14.7903 11.6267C14.791 11.627 14.8138 11.6398 14.8216 11.6436C14.8248 11.6452 14.8288 11.6475 14.8321 11.6491L15.3337 11.8385C15.3376 11.8397 15.3417 11.8413 15.3456 11.8426L15.4538 11.879C15.4576 11.8803 15.4617 11.882 15.4656 11.8833L15.7666 11.9839C15.8444 12.0101 15.954 12.05 16.0321 12.0558C16.1629 12.0656 16.1208 12.0686 16.1959 12.0848C16.2761 12.102 16.5323 12.099 16.6105 12.072L16.6603 12.0575C16.698 12.0521 16.708 12.0591 16.748 12.0488L16.8996 12.0076C16.9035 12.0064 16.9072 12.0043 16.9112 12.0031C16.9152 12.0019 16.9191 12.0002 16.9232 11.9991L17.1008 11.9518C17.1047 11.9505 17.1089 11.9489 17.1127 11.9476C17.1165 11.9463 17.1207 11.9446 17.1245 11.9433C17.1283 11.942 17.1324 11.9403 17.1363 11.939C17.1559 11.9323 17.1894 11.9222 17.2091 11.9155L17.3055 11.8833C17.3104 11.8816 17.3241 11.8764 17.329 11.8747L17.6944 11.742C17.71 11.7369 17.7169 11.7359 17.7317 11.7311C17.7357 11.7298 17.7401 11.7287 17.744 11.7273C17.7478 11.726 17.7521 11.7246 17.7559 11.7232L17.8201 11.691C17.8235 11.6894 17.8276 11.6874 17.8311 11.6859L18.1001 11.5854C18.104 11.5841 18.1081 11.5825 18.112 11.5812L18.1617 11.5666C18.3063 11.5163 18.5087 11.4174 18.6784 11.3604L18.7276 11.3453C18.7317 11.344 18.736 11.3429 18.74 11.3416C18.7438 11.3402 18.7481 11.3388 18.7519 11.3374L18.7742 11.3276C18.7776 11.3261 18.7815 11.3238 18.7848 11.3221L19.4019 11.0877C19.4059 11.0864 19.4101 11.0851 19.4141 11.0838L19.9678 10.8984C19.9838 10.8931 19.995 10.8892 20.0038 10.8862L20.3458 10.7944C20.3499 10.7933 20.3538 10.7916 20.3578 10.7904L20.6381 10.7172C20.6421 10.7159 20.646 10.7143 20.6501 10.7132L20.9805 10.6419C21.0329 10.6364 21.0157 10.6455 21.065 10.63L21.2368 10.593C21.2896 10.5748 21.3988 10.5832 21.4506 10.5658C21.5247 10.5409 21.592 10.5493 21.6718 10.546C21.8106 10.5403 21.6912 10.5175 21.8301 10.5115C22.086 10.5005 22.3748 10.5127 22.6345 10.5127C22.7958 10.5127 22.9758 10.4879 23.1115 10.5336C23.2067 10.5657 23.3487 10.5243 23.4426 10.556C23.5213 10.5826 23.6256 10.5632 23.6996 10.5881C23.7814 10.6157 23.865 10.603 23.9469 10.6301C23.9643 10.6358 23.9371 10.6339 23.985 10.6402C24.015 10.6441 24.0492 10.6384 24.0792 10.6424C24.1935 10.6575 24.0714 10.6513 24.1639 10.6701C24.2334 10.6841 24.2491 10.6675 24.3326 10.6942L24.5867 10.7453C24.5909 10.7464 24.5948 10.7481 24.5988 10.7493L25.4575 10.9831C25.4614 10.9844 25.4655 10.986 25.4694 10.9873C25.4733 10.9886 25.4776 10.9899 25.4815 10.9912L25.8109 11.1117C25.8148 11.113 25.8189 11.1146 25.8229 11.1159L26.045 11.199C26.0487 11.2004 26.0529 11.2021 26.0564 11.2036L27.7063 12.1085C27.7093 12.1104 27.7135 12.1126 27.7164 12.1145L27.8027 12.1728C27.8229 12.1857 27.8159 12.179 27.8339 12.1898L27.9412 12.2754C28.0057 12.3133 28.0494 12.3736 28.1124 12.4095C28.1155 12.4112 28.1199 12.4131 28.123 12.4149L28.3485 12.6233C28.3515 12.6252 28.3558 12.6272 28.3589 12.629L28.4578 12.7068C28.6095 12.8623 29.1829 13.4047 29.2517 13.5038L29.5981 13.9448C29.6644 14.0148 29.7103 14.101 29.7654 14.1793L29.9059 14.4244C29.9168 14.4422 29.9104 14.4356 29.9232 14.4554L29.9875 14.5518C29.9893 14.5547 29.9919 14.5587 29.9938 14.5615L30.1576 14.8316C30.1592 14.835 30.161 14.8393 30.1627 14.8426L30.4738 15.3993C30.4755 15.4026 30.4775 15.4067 30.4792 15.41C30.4808 15.4133 30.4829 15.4174 30.4846 15.4208L30.6666 15.7851C30.6683 15.7884 30.6703 15.7925 30.6719 15.7958L30.6988 15.8493C30.7004 15.8526 30.7026 15.8567 30.7042 15.86L30.7897 16.0638C30.8148 16.1129 30.7754 16.0357 30.8004 16.0852L30.8382 16.1599C30.8396 16.1626 30.8544 16.1911 30.8547 16.1917C30.868 16.2211 30.8566 16.1912 30.8684 16.2262L30.8866 16.2883C30.888 16.292 30.8897 16.2962 30.8912 16.2998L30.9401 16.3955C30.9424 16.3999 30.949 16.4122 30.951 16.4167C30.9526 16.4202 30.9546 16.4243 30.9561 16.4278L30.9648 16.4512C30.9662 16.4552 30.9672 16.4595 30.9685 16.4636C30.9698 16.4677 30.9706 16.4721 30.9718 16.4763L31.1528 16.9542C31.1541 16.9581 31.1557 16.9622 31.157 16.9661L31.3537 17.557C31.3586 17.572 31.3599 17.5788 31.365 17.5939C31.3663 17.5978 31.3678 17.6019 31.3691 17.6058C31.3705 17.6096 31.3721 17.6137 31.3734 17.6176L31.3819 17.6412C31.3869 17.6561 31.3884 17.6634 31.3933 17.6781L31.4704 17.9385C31.4717 17.9423 31.4735 17.9463 31.4747 17.9502L31.4817 17.9754C31.4906 18.0157 31.4856 18.0169 31.4975 18.0561L31.7542 19.1816C31.7651 19.2155 31.7679 19.1631 31.7751 19.2572C31.7852 19.3907 31.7891 19.3484 31.8038 19.4213L31.8184 19.5675C31.823 19.5814 31.8235 19.5759 31.8281 19.5898C31.8489 19.652 31.8285 19.7185 31.846 19.7809C31.9028 19.9825 31.849 19.9499 31.8826 20.0497L31.9031 20.2221C31.9004 20.3702 31.9357 20.291 31.9347 20.5923C31.9346 20.627 31.9334 20.6494 31.9424 20.6811C31.9727 20.7876 31.9679 20.8144 31.9678 20.945C31.9677 21.2573 31.9939 21.2139 31.9999 21.2867L31.9999 21.2867Z" fill="url(#paint0_linear)"/>
<path fill-rule="evenodd" clip-rule="evenodd" d="M16.8674 9.19458C16.8674 9.06616 16.8429 8.63322 16.8834 8.51946C16.9117 8.44017 16.8876 8.33336 16.9003 8.24698C16.9109 8.17422 16.9293 8.18656 16.9316 8.10151C16.935 7.98277 16.9583 8.02283 16.9635 7.89233C16.9643 7.87201 16.963 7.86818 16.9671 7.84767C16.9825 7.7712 16.9708 7.84395 16.9846 7.80085L17.0072 7.66275C17.0208 7.61969 17.0089 7.6921 17.0243 7.61552L17.0718 7.37372C17.0718 7.37341 17.0806 7.35078 17.0807 7.35048L17.0942 7.28357C17.0951 7.27879 17.0955 7.27457 17.0965 7.26987L17.1035 7.24469C17.1047 7.24071 17.1064 7.23676 17.1077 7.23288L17.2647 6.73091C17.266 6.72707 17.2676 6.72297 17.269 6.71913L17.2927 6.64634C17.2939 6.64247 17.2955 6.63833 17.2968 6.63446C17.2968 6.63442 17.3054 6.61092 17.3054 6.61088L17.3375 6.51443C17.3388 6.51056 17.3404 6.50642 17.3416 6.50251L17.5635 5.96898C17.5652 5.96571 17.5672 5.96153 17.5689 5.95827C17.5705 5.95497 17.5726 5.95083 17.5742 5.94756L17.849 5.40271C17.8495 5.40199 17.8644 5.38468 17.8707 5.37621L18.6135 4.22269C18.6456 4.1715 18.5914 4.24862 18.6265 4.20351C18.6585 4.16239 18.6993 4.13816 18.7253 4.09351L18.891 3.87343C18.947 3.80827 19.059 3.68707 19.1275 3.64401C19.1515 3.62893 19.1455 3.63672 19.1695 3.62164C19.1701 3.62123 19.2049 3.59373 19.2054 3.59332L19.406 3.39222C19.4535 3.33697 19.4725 3.29217 19.534 3.23096C19.6472 3.11834 19.6939 3.06157 19.8219 2.97249L20.0146 2.81172C20.0185 2.80899 20.0288 2.80029 20.0323 2.79718C20.0533 2.77861 20.059 2.76467 20.0914 2.74383L20.1785 2.68634C20.1814 2.6844 20.1853 2.68182 20.1882 2.67996L20.2947 2.60975C20.2978 2.60789 20.3021 2.60588 20.3051 2.60406L21.0655 2.14324C21.0693 2.14138 21.0832 2.13443 21.0869 2.13253L21.2154 2.06825C21.2277 2.0621 21.246 2.05295 21.2583 2.04683L21.3225 2.01467C21.3357 2.00806 21.3307 2.01057 21.344 2.00396L21.4939 1.92893C21.4971 1.9273 21.5013 1.92521 21.5046 1.92358L22.0189 1.69879C22.0221 1.69712 22.0262 1.69495 22.0295 1.69328C22.0327 1.69161 22.0368 1.68949 22.0401 1.68781L22.2647 1.59114C22.2683 1.58962 22.2725 1.58788 22.2761 1.58647L22.4341 1.53555C22.438 1.53426 22.4421 1.5327 22.446 1.53137L22.4814 1.51858C22.4965 1.51356 22.5033 1.5122 22.5183 1.50734L22.6269 1.47127C22.6307 1.46997 22.6349 1.46838 22.6387 1.46705L22.8315 1.40277C22.8353 1.40147 22.8394 1.3998 22.8433 1.39847L23.0921 1.32595C23.0959 1.32462 23.1002 1.32322 23.1041 1.32189L23.8071 1.18952C23.8071 1.30636 23.8212 1.55336 23.8064 1.65489C23.7899 1.76717 23.7978 1.64829 23.7782 1.73923C23.7719 1.76827 23.7743 1.81703 23.7747 1.84824C23.7756 1.93444 23.7909 2.0515 23.7683 2.13116C23.7671 2.13515 23.7651 2.13899 23.7638 2.14278L23.7496 2.17681C23.7295 2.24773 23.7554 2.32945 23.7317 2.4C23.7304 2.40376 23.7281 2.40748 23.7268 2.41116C23.7043 2.47435 23.7212 2.53567 23.7075 2.60083C23.6883 2.69241 23.6947 2.57193 23.6797 2.6855L23.5985 3.15084C23.5973 3.15467 23.5952 3.15847 23.5939 3.16234C23.5927 3.16629 23.591 3.17024 23.5899 3.17434C23.5818 3.20343 23.5857 3.20237 23.5803 3.22906L23.5746 3.25553C23.5735 3.25963 23.5719 3.26358 23.5706 3.26756C23.5694 3.27151 23.5674 3.27531 23.5662 3.27918L23.4537 3.68099C23.4524 3.68498 23.4513 3.68935 23.4499 3.69333C23.4486 3.69724 23.4472 3.70146 23.4459 3.70537L23.2928 4.16303C23.2873 4.18084 23.2857 4.18654 23.2813 4.19972C23.2796 4.20465 23.2744 4.21836 23.2727 4.2233L23.0952 4.67257C23.0935 4.6758 23.0914 4.6799 23.0897 4.68316C23.0655 4.73036 23.1029 4.65692 23.0789 4.70446L23.0146 4.83303C23.013 4.83634 23.0109 4.84048 23.0093 4.84378C23.0076 4.84704 23.0056 4.85118 23.0039 4.85449L22.9343 4.9938C22.9327 4.99707 22.9306 5.00125 22.929 5.00451L22.5721 5.66016C22.5702 5.66297 22.5676 5.66692 22.5657 5.6698L22.5541 5.69034C22.5523 5.69338 22.5503 5.69775 22.5485 5.70075C22.5466 5.70375 22.5444 5.70796 22.5425 5.71089L22.4372 5.86269C22.4353 5.86566 22.4331 5.86983 22.4313 5.87283L22.367 5.96928C22.3669 5.96943 22.3558 5.98997 22.3557 5.99009L22.1217 6.30251C22.1197 6.30532 22.1174 6.30946 22.1155 6.31239L22.0398 6.41346C21.9787 6.48276 21.9935 6.49476 21.8792 6.60636L21.8206 6.67638C21.7718 6.76003 21.6955 6.81767 21.6434 6.90082C21.6133 6.94882 21.5654 6.97464 21.5372 7.01964C21.5221 7.04367 21.5299 7.03756 21.5148 7.06159C21.4982 7.0881 21.4806 7.1031 21.462 7.12125C21.3707 7.21029 21.2923 7.3051 21.1838 7.37326C21.0974 7.42752 21.0469 7.52993 20.9583 7.58168C20.958 7.58184 20.9374 7.59247 20.9371 7.59262L20.7469 7.73991C20.7155 7.76444 20.7387 7.74625 20.7144 7.77158L20.3911 8.01076C20.3881 8.01258 20.3839 8.01478 20.381 8.01668C20.3781 8.01854 20.3741 8.02112 20.3713 8.02306C20.3702 8.02382 20.3533 8.03813 20.3445 8.04447C20.3418 8.04645 20.3381 8.04945 20.3353 8.05138L20.2947 8.07504C20.2918 8.07686 20.2875 8.0791 20.2846 8.081C20.2817 8.08286 20.2778 8.08544 20.2749 8.08738L20.1983 8.13936C20.1954 8.14119 20.1912 8.14339 20.1882 8.14529L20.0369 8.25111C20.034 8.25297 20.03 8.2554 20.027 8.25723L19.3413 8.6159C19.338 8.61757 19.3339 8.61962 19.3306 8.62125L19.0954 8.72355C19.0659 8.73733 19.0963 8.72548 19.0611 8.73744C19.0389 8.745 19.0332 8.74398 19.011 8.75153L18.7545 8.84855C18.7506 8.84984 18.7465 8.8514 18.7426 8.85272C18.7377 8.8544 18.724 8.85964 18.719 8.86131L17.6995 9.12707C17.6788 9.13139 17.6604 9.13083 17.6391 9.1309C17.5972 9.13105 17.5725 9.12585 17.5327 9.13705L17.4988 9.15125C17.4504 9.16758 17.3739 9.16264 17.3166 9.16188C17.2793 9.16139 17.2453 9.15953 17.2115 9.16918C17.2075 9.17031 17.2037 9.17233 17.1998 9.17362L17.1095 9.19575C17.034 9.19898 16.9446 9.19458 16.8674 9.19458L16.8674 9.19458ZM23.9922 7.91229e-07H24.457C24.5767 0.0116959 24.4264 0.0321627 24.8674 0.0321627L24.8883 0.171934C24.9043 0.21936 24.9005 0.247838 24.8998 0.305099C24.8969 0.541355 24.9229 0.470804 24.9322 0.578073C24.9431 0.702352 24.9037 0.884081 24.9384 1.00597C24.9395 1.00996 24.9415 1.01375 24.9428 1.01759L24.9606 1.0641C24.9773 1.14187 24.9748 1.5624 24.9526 1.62843C24.8938 1.8031 24.973 2.01885 24.9205 2.17495L24.8741 2.49831C24.8541 2.56947 24.8766 2.62156 24.8464 2.71171C24.826 2.77269 24.8438 2.85444 24.8241 2.9144L24.6444 3.71513C24.6368 3.75367 24.6428 3.74433 24.6313 3.78242L24.2136 4.97186C24.212 4.97528 24.21 4.97934 24.2085 4.98283L24.1719 5.09086C24.1704 5.09424 24.1681 5.09826 24.1665 5.10157L24.1499 5.13324C24.1483 5.1365 24.1462 5.14064 24.1445 5.14387L24.0112 5.44452C24.0097 5.4479 24.0075 5.45189 24.0059 5.45523L23.9785 5.5082C23.9769 5.51147 23.9748 5.51564 23.9731 5.51891L23.1001 6.92786C23.0673 6.96496 23.091 6.93625 23.0682 6.97631L22.6129 7.53346C22.5757 7.59714 22.4797 7.67753 22.4689 7.69476L22.4577 7.71572C22.4356 7.75476 22.457 7.72848 22.4261 7.76448L22.2916 7.91925C22.2599 7.97355 22.2185 8.00377 22.1771 8.04581L22.0079 8.18186C21.9453 8.24565 21.8745 8.33815 21.7936 8.38538C21.7123 8.43292 21.6607 8.50977 21.5797 8.55709C21.5352 8.58306 21.5032 8.63311 21.4605 8.66287L21.3575 8.73665C21.3489 8.74482 21.3364 8.75605 21.3319 8.75924L21.2802 8.78784C21.2295 8.82007 21.3055 8.76558 21.2611 8.80094L21.1064 8.91941C21.1036 8.92134 21.0996 8.92393 21.0967 8.92579C21.0938 8.92768 21.0896 8.92989 21.0866 8.93171L20.949 9.01908C20.8917 9.05994 20.8933 9.079 20.8302 9.10919L20.6803 9.20028C20.6773 9.2021 20.6731 9.2043 20.6701 9.2062L20.2195 9.46251C20.2194 9.46251 20.1981 9.47318 20.198 9.47321L19.6835 9.72994C19.6797 9.73134 19.6755 9.73278 19.6716 9.73407C19.6676 9.7354 19.6632 9.7365 19.6592 9.73776C19.6551 9.73905 19.6506 9.73985 19.6465 9.74114C19.6238 9.74801 19.6339 9.74315 19.6095 9.7523L19.5129 9.8003C19.5096 9.80197 19.5056 9.80421 19.5023 9.80584L19.4344 9.83432C19.4195 9.83914 19.4127 9.84013 19.3971 9.84521L19.3375 9.86591C19.3325 9.86751 19.3174 9.87134 19.3124 9.87293L19.1897 9.92701C19.1858 9.92837 19.1814 9.92947 19.1774 9.93077C19.1724 9.9324 19.1573 9.93623 19.1523 9.93783L19.0927 9.95856C19.0706 9.96593 19.0497 9.97177 19.0318 9.97793L18.9124 10.0193C18.9084 10.0205 18.9044 10.022 18.9002 10.0231L18.4301 10.1474C18.4261 10.1487 18.4221 10.1504 18.418 10.1515L18.1412 10.2121C18.0855 10.2296 18.0575 10.2173 18.0032 10.2347C17.9415 10.2544 17.8668 10.248 17.8103 10.2667C17.7537 10.2855 17.6836 10.2806 17.6058 10.2871C17.5023 10.2957 17.5627 10.3221 17.3487 10.3192C17.3295 10.319 17.287 10.318 17.2698 10.3206C17.191 10.3321 17.2463 10.3268 17.2208 10.3359C17.2061 10.3411 17.2343 10.3382 17.1855 10.3488C17.0801 10.3715 16.4592 10.3519 16.3212 10.3519C16.2723 10.3519 16.2241 10.3525 16.1754 10.3532C16.1227 10.3539 16.0818 10.3636 16.0642 10.3198H15.9357C15.9336 10.2259 15.9207 10.275 15.9079 10.219L15.8752 10.091C15.8735 10.0861 15.8693 10.0713 15.8676 10.0664L15.8504 10.0193C15.8492 10.0153 15.8477 10.0112 15.8466 10.007L15.7541 9.56921C15.7315 9.50181 15.7472 9.34821 15.7268 9.29103L15.7361 8.46451C15.7439 8.43714 15.7427 8.43827 15.744 8.40809C15.7471 8.33598 15.732 8.24234 15.7541 8.177C15.7731 8.12027 15.7679 8.05112 15.7744 7.97237C15.7856 7.83829 15.7969 7.97913 15.8071 7.84433L15.8676 7.51907C15.8735 7.48987 15.8691 7.47199 15.8731 7.44415C15.8889 7.33305 15.8895 7.45961 15.903 7.32937L15.9472 7.1165C15.9485 7.11259 15.9505 7.10879 15.9517 7.10492L15.9923 6.95266C16.0006 6.92198 15.9976 6.9137 16.0041 6.88408L16.1248 6.4904C16.126 6.48641 16.1271 6.48204 16.1284 6.47802L16.1851 6.30965C16.1924 6.28763 16.1983 6.26663 16.2044 6.24867L16.2366 6.15223C16.2379 6.14839 16.2395 6.14429 16.2409 6.14042L16.2681 6.05517C16.2695 6.05149 16.2712 6.04731 16.2728 6.04374C16.2742 6.04025 16.2763 6.03615 16.2779 6.03277C16.2794 6.02943 16.2817 6.02548 16.2833 6.02221L16.4288 5.66938C16.4301 5.6657 16.4319 5.66149 16.4333 5.65792L16.4925 5.54032C16.4942 5.53706 16.4963 5.53288 16.4979 5.52961L16.5086 5.5082C16.5108 5.50379 16.5171 5.49115 16.5193 5.48674C16.521 5.48348 16.523 5.4793 16.5247 5.47604L16.6137 5.27574C16.615 5.27168 16.616 5.26735 16.6173 5.26332C16.6186 5.25941 16.62 5.25516 16.6214 5.25132L16.6307 5.2285C16.6323 5.22509 16.6342 5.22091 16.6359 5.21761L17.9067 3.25822C17.9085 3.25526 17.9108 3.25112 17.9128 3.24831L18.0561 3.08629C18.0842 3.03697 18.1515 2.96854 18.2377 2.91439L18.4095 2.74873C18.4612 2.69701 18.5065 2.65156 18.5621 2.59597C18.5944 2.56366 18.6105 2.5482 18.643 2.51619L18.7042 2.43273C18.7375 2.37555 18.7962 2.33036 18.843 2.28233L18.9026 2.22943C18.9234 2.21641 18.9157 2.22359 18.9342 2.2128C18.9373 2.21102 18.9416 2.20897 18.9446 2.20711L19.1695 2.01421C19.1724 2.01235 19.1765 2.01 19.1794 2.00803C19.1832 2.00533 19.1936 1.99679 19.1972 1.99371L19.3092 1.89677C19.3123 1.89499 19.3166 1.89313 19.3197 1.8913L19.5546 1.72442C19.5616 1.7199 19.5943 1.69382 19.6002 1.68975L19.7372 1.60177C19.7402 1.59995 19.7444 1.59775 19.7473 1.59585L20.3161 1.24876C20.3192 1.24697 20.3232 1.24454 20.3261 1.24264L20.9584 0.910891C20.9675 0.906334 20.978 0.901057 20.9905 0.894829L21.3337 0.739869C21.3369 0.738236 21.341 0.735996 21.3442 0.734325L21.3654 0.723427C21.3687 0.721756 21.3728 0.719668 21.3761 0.718035L21.517 0.650029C21.5209 0.648661 21.5253 0.647599 21.5294 0.646346L21.6657 0.589883C21.6695 0.588439 21.6737 0.587035 21.6776 0.585744L21.8039 0.535318C21.8073 0.533723 21.8114 0.531711 21.8149 0.530192C21.8185 0.52871 21.8227 0.526964 21.8263 0.525559L22.2165 0.385522C22.2346 0.379864 22.2396 0.378573 22.2532 0.373978L22.3374 0.345804C22.3413 0.344474 22.3453 0.342728 22.3491 0.341437C22.353 0.340107 22.3569 0.338247 22.3607 0.336956C22.3646 0.335665 22.3686 0.333843 22.3725 0.332665C22.3766 0.33145 22.3806 0.329931 22.3848 0.32883L22.5138 0.2972C22.5349 0.289948 22.5573 0.283493 22.5745 0.277569L23.0445 0.1531C23.0485 0.15196 23.0525 0.150252 23.0565 0.148999C23.0603 0.147783 23.0641 0.145657 23.0679 0.144404C23.1116 0.130165 23.155 0.137266 23.2288 0.112508C23.2326 0.111255 23.2363 0.108977 23.2401 0.107761C23.244 0.106508 23.2478 0.104572 23.2519 0.103509C23.2894 0.0935985 23.2888 0.0995596 23.3246 0.0958764C23.4576 0.0820932 23.3262 0.0802322 23.4387 0.0653856L23.5594 0.0574875C23.7676 0.00026506 23.7532 0.0570318 23.8602 0.0209597C23.8886 0.0113913 23.9358 0.00459388 23.9922 0V7.91229e-07Z" fill="url(#paint1_linear)"/>
<defs>
<linearGradient id="paint0_linear" x1="16" y1="10.506" x2="16" y2="38" gradientUnits="userSpaceOnUse">
<stop stop-color="#3102FF"/>
<stop offset="1" stop-color="#3100FF"/>
</linearGradient>
<linearGradient id="paint1_linear" x1="20.3491" y1="0" x2="20.3491" y2="10.3598" gradientUnits="userSpaceOnUse">
<stop stop-color="#3102FF"/>
<stop offset="1" stop-color="#3100FF"/>
</linearGradient>
</defs>
</svg>
