<svg width="47" height="34" viewBox="0 0 47 34" fill="none" xmlns="http://www.w3.org/2000/svg">
<path fill-rule="evenodd" clip-rule="evenodd" d="M9.92211 30.8986C9.00773 30.8986 8.31107 30.6008 7.80101 30.0963C7.66417 29.9565 7.60196 29.8957 7.48378 29.7376C6.82443 28.8806 6.76223 27.7864 7.20387 26.8139C7.60196 25.9264 8.6905 25.2031 9.84124 25.2031C10.4695 25.2031 11.0293 25.4037 11.4958 25.7137C11.726 25.8656 12.0681 26.1939 12.2298 26.4248C12.3356 26.5707 12.4226 26.7166 12.4973 26.8929C12.8518 27.7074 12.8456 28.3943 12.5097 29.2088C12.348 29.5978 12.0681 29.9321 11.7571 30.2057C11.6638 30.2847 11.6638 30.2969 11.5518 30.3698L11.1039 30.6312C10.8116 30.771 10.3637 30.9108 9.93455 30.9108L9.92211 30.8986ZM43.5238 33.9987H43.107H43.0199H26.6669C25.9578 33.9987 23.986 33.9622 23.4573 33.9926C23.4138 33.9926 23.3764 33.9987 23.3329 33.9987H20.229H20.1793C14.7303 33.9987 9.2752 33.9987 3.82629 33.9987C2.62578 33.9987 1.80471 33.9926 1.07073 33.5063C0.355402 33.0322 -0.00537109 32.2663 -0.00537109 31.3727V5.81262C-0.00537109 5.47222 0.380283 5.24732 0.57311 5.06496C0.790818 4.85829 1.06451 4.68809 1.32576 4.51789C1.66787 4.29299 2.76263 3.752 3.16694 3.72161C3.16694 3.25964 3.07364 2.80983 3.32867 2.56669C3.44063 2.45728 4.02533 2.20806 4.1995 2.12904C5.25072 1.66707 6.24595 1.27805 7.39048 0.943731C8.31729 0.676276 9.2441 0.463529 10.2704 0.29333C11.2159 0.135289 12.5097 0.00156191 13.4863 0.00156191C15.0725 0.00156191 15.5141 0.0197974 17.1189 0.165682C19.0472 0.348037 21.1621 0.86471 23.0281 1.37531C23.5755 1.52727 23.3827 1.56374 24.0234 1.35707C24.1975 1.30236 24.353 1.25981 24.5334 1.21119C25.6593 0.901181 26.5425 0.718826 27.6808 0.487843C28.8751 0.250781 30.99 -0.0045166 32.3522 -0.0045166C33.8575 -0.0045166 34.3365 -0.00451662 35.8107 0.159603C36.0657 0.189996 36.2896 0.21431 36.5384 0.256859C37.0298 0.33588 37.4715 0.408822 37.9318 0.512157C39.6486 0.895103 41.8567 1.61237 43.4678 2.42081C43.9218 2.65179 43.8099 2.95572 43.8099 3.70337C44.0027 3.70945 44.6372 3.96475 44.7989 4.04985C44.886 4.0924 44.9544 4.11671 45.0353 4.15318C45.2779 4.2626 45.819 4.60299 46.0367 4.76103C46.298 4.94947 46.976 5.44183 46.976 5.77007V31.47C46.976 32.3332 46.5343 33.1294 45.819 33.5489C45.1472 33.944 44.4568 33.9804 43.5051 33.9865L43.5238 33.9987ZM24.0171 28.8015C24.0171 24.3764 24.0482 20.0303 24.0482 15.6173C24.0482 11.2103 24.0482 6.80949 24.0482 2.40257L24.9813 2.1412C26.4306 1.78864 27.4072 1.53335 28.9498 1.29628C29.7149 1.18079 30.5857 1.09569 31.3694 1.03491L33.8824 1.00452L34.8963 1.07746C35.002 1.08962 35.1078 1.08962 35.2135 1.10785C36.0968 1.22942 36.4265 1.24766 37.3968 1.43609C38.983 1.74609 40.3266 2.18375 41.7945 2.77944C41.9625 2.8463 42.1429 2.91925 42.2922 2.99219L42.8084 3.21709V28.7772L41.8008 28.4794C41.4462 28.3821 41.0917 28.2788 40.7495 28.1937C36.2337 27.0996 31.9417 27.0631 27.3698 27.9566C26.9282 28.0417 24.4028 28.6313 24.0296 28.8015H24.0171ZM5.8914 28.297C5.79188 28.3031 5.54929 28.376 5.45599 28.4064L4.62248 28.6496C4.49807 28.6921 4.3239 28.7651 4.20572 28.7711V3.21102C4.30524 3.1867 4.34879 3.15023 4.44831 3.11376C5.09521 2.85238 5.49331 2.65179 6.23973 2.37826C7.70771 1.84943 9.26898 1.44217 10.8303 1.22334C12.7461 0.961966 14.9978 0.913338 16.9447 1.1504C18.9165 1.39354 20.5898 1.72178 22.4745 2.25669L22.9597 2.40257C22.9597 11.2346 22.9908 19.9755 22.9908 28.8015C22.8602 28.7408 22.5865 28.6739 22.4248 28.6253C22.2444 28.5766 22.0267 28.5219 21.8463 28.4672L20.6582 28.1755C20.173 28.0721 18.6055 27.7135 18.1328 27.7135C17.573 27.7135 17.4361 28.5645 18.0706 28.6921C18.8854 28.8562 19.5759 28.9413 20.4778 29.1663L22.7482 29.768C23.5755 30.0051 23.3329 30.0659 24.1229 29.8167C27.8426 28.6313 32.3211 28.0478 36.2959 28.4611C38.6969 28.7104 39.8787 28.9717 42.1615 29.6282C42.6902 29.7802 42.9826 29.9747 43.4118 29.9747C43.5984 29.9747 43.7974 29.768 43.8285 29.6039C43.8721 29.4094 43.841 4.88868 43.841 4.74888C43.9654 4.80966 44.1955 4.86437 44.4506 4.99202C44.8984 5.21084 45.1348 5.33242 45.5391 5.63026C45.6262 5.69713 45.6884 5.75183 45.7755 5.8187C45.8315 5.86732 45.987 5.98889 45.987 6.06184V31.4578C45.987 32.6249 45.0664 32.9957 43.9841 32.9957H3.01766C1.82337 32.9957 1.04585 32.5398 1.04585 31.3727V6.06184C1.04585 5.90987 1.8918 5.35673 2.00376 5.28987C2.19659 5.17437 2.36453 5.09535 2.56358 4.9981C2.66311 4.94947 2.74397 4.91908 2.86215 4.87045C2.97412 4.8279 3.09852 4.79143 3.19182 4.74888V28.8319C3.19182 29.3425 3.0612 29.9747 3.76408 29.9747C3.90093 29.9747 4.16218 29.8592 4.33013 29.8045C4.52295 29.7437 4.69712 29.6829 4.91483 29.6221L6.10289 29.2757C6.25217 29.9018 6.86176 30.6676 7.40292 31.081C8.09336 31.6159 8.87711 31.9016 9.96565 31.9016C11.2035 31.9016 12.4226 31.2026 13.1069 30.2178C13.8595 29.1419 14.0212 27.6709 13.449 26.4613C13.2748 26.0966 13.1193 25.8717 12.8767 25.5678C12.5595 25.1727 11.9499 24.7411 11.4585 24.5223C10.2269 23.9813 9.00773 24.115 7.85699 24.7168C7.73881 24.7776 7.65172 24.8384 7.54598 24.9174C6.73113 25.5191 6.14643 26.3276 5.96604 27.3427C5.91006 27.6649 5.91006 27.908 5.91006 28.2909L5.8914 28.297Z" fill="url(#paint0_linear)"/>
<defs>
<linearGradient id="paint0_linear" x1="23.4853" y1="-0.0045166" x2="23.4853" y2="33.9987" gradientUnits="userSpaceOnUse">
<stop stop-color="#D10FF9"/>
<stop offset="1" stop-color="#8839FC"/>
</linearGradient>
</defs>
</svg>
