<svg width="27" height="21" viewBox="0 0 27 21" fill="none" xmlns="http://www.w3.org/2000/svg">
<path d="M23.8333 0.166687H3.16659C2.48144 0.166687 1.82436 0.438859 1.33989 0.923328C0.855424 1.4078 0.583252 2.06488 0.583252 2.75002V18.25C0.583252 18.9352 0.855424 19.5922 1.33989 20.0767C1.82436 20.5612 2.48144 20.8334 3.16659 20.8334H23.8333C24.5184 20.8334 25.1755 20.5612 25.6599 20.0767C26.1444 19.5922 26.4166 18.9352 26.4166 18.25V2.75002C26.4166 2.06488 26.1444 1.4078 25.6599 0.923328C25.1755 0.438859 24.5184 0.166687 23.8333 0.166687ZM23.8333 2.75002V5.33335H3.16659V2.75002H23.8333ZM3.16659 18.25V10.5H23.8333V18.25H3.16659ZM5.74992 13.0834H14.7916V15.6667H5.74992V13.0834ZM17.3749 13.0834H21.2499V15.6667H17.3749V13.0834Z" fill="#C4C4C4"/>
</svg>
