<svg width="27" height="27" viewBox="0 0 27 27" fill="none" xmlns="http://www.w3.org/2000/svg">
<path fill-rule="evenodd" clip-rule="evenodd" d="M3.03943 15.2854C2.68458 15.2854 2.38151 15.1905 2.1318 15.0904C1.64348 14.8947 1.23851 14.4719 1.01032 14.0067C0.593105 13.1563 0.778969 12.1084 1.43514 11.4539C1.54333 11.3459 1.59808 11.3007 1.7194 11.2089C3.37608 9.9548 6.03302 11.6145 5.08743 13.9595C5.03906 14.0795 4.96113 14.2034 4.88766 14.311C4.48689 14.8985 3.77081 15.2854 3.03934 15.2854H3.03943ZM11.9705 1.08388C11.9705 1.38388 11.9926 1.60185 11.9926 1.89984C11.8969 1.9078 11.7863 1.94751 11.6884 1.9706L10.7228 2.19582C10.521 2.25346 10.3381 2.32317 10.1429 2.38781C9.95584 2.44982 9.74575 2.52741 9.56741 2.60612C9.12571 2.80108 8.6834 2.99946 8.26995 3.24926L7.53804 3.7081C7.36171 3.61478 7.23103 3.42874 7.10228 3.28381C6.54653 2.65843 6.1846 2.41781 5.47018 3.13984L4.54418 4.06618C4.43581 4.16651 4.34161 4.26945 4.23604 4.37555C4.00364 4.60908 3.76714 4.74308 3.76714 5.14148C3.76714 5.4742 4.00732 5.63042 4.20315 5.8301C4.25939 5.88739 4.27173 5.91809 4.32368 5.97416C4.45129 6.11218 4.60829 6.29708 4.75943 6.39836C4.61118 6.6786 4.40975 6.93234 4.24522 7.20733C3.77247 7.99767 3.41185 8.84757 3.13013 9.73088C3.10844 9.79893 3.06715 9.92357 3.06138 9.99293C1.83232 9.99293 0.826375 10.647 0.289862 11.7201C-0.00918203 12.3183 -0.0779299 13.111 0.0886918 13.7816C0.142133 13.9968 0.20712 14.1404 0.285664 14.3344C0.37173 14.5469 0.724478 15.0559 0.909293 15.2103L1.32335 15.546C1.47021 15.6462 1.63928 15.7403 1.80468 15.8145C2.71327 16.2223 3.95466 16.1465 4.75322 15.544C4.79503 15.5125 4.812 15.502 4.8567 15.4711C5.26656 15.1872 5.58581 14.7529 5.80351 14.3009C6.33224 13.2028 6.07789 11.9229 5.33959 11.0447C4.99227 10.6316 4.51619 10.3002 3.99464 10.1403C3.80379 10.0818 3.85775 10.0863 4.02892 9.57117C4.19178 9.08075 4.40756 8.60127 4.63418 8.14767C4.85057 7.71454 5.12548 7.30538 5.40825 6.91502C6.03818 6.04562 5.08052 5.76371 4.64914 5.11944C4.74868 4.97084 5.62368 4.15592 5.81234 3.96726C5.90287 3.87673 6.16317 3.65291 6.21477 3.57585L6.77263 4.12068C7.07211 4.47893 7.47672 4.7262 7.89979 4.445L8.50698 4.0598C8.60914 3.99901 8.71296 3.92913 8.8243 3.86991C9.04769 3.75113 9.25341 3.64224 9.4782 3.53151C9.5842 3.47929 9.6987 3.43346 9.81537 3.3836C10.4338 3.1192 11.0513 2.92397 11.7149 2.79129C12.3224 2.6698 12.8084 2.63857 12.8084 1.87797V0.841509C13.1063 0.841509 13.3243 0.819467 13.6243 0.819467H14.352C14.609 0.819467 14.7811 0.841509 15.0357 0.841509V1.87797C15.0357 2.67732 15.5321 2.66455 16.1916 2.79487C16.7623 2.90762 17.3156 3.09462 17.7953 3.28617C18.0466 3.38649 18.275 3.48664 18.5125 3.60542C18.757 3.72769 18.9547 3.83624 19.1883 3.96612L19.8148 4.37607C20.0201 4.53019 20.3212 4.7227 20.6149 4.7227C21.0252 4.7227 21.5949 3.90131 21.916 3.68623C21.9405 3.77825 22.0235 3.82688 22.0869 3.8902C22.443 4.24619 22.8252 4.57821 23.1677 4.94845L23.4375 5.27399L22.8698 5.87497C22.8062 5.93934 22.7841 5.95203 22.7163 6.00818C22.5342 6.15897 22.379 6.38376 22.379 6.64125C22.379 6.97004 22.7261 7.3415 22.8873 7.61055C22.9183 7.66233 22.9484 7.69845 22.9816 7.75871C23.0193 7.8272 23.0353 7.86262 23.0754 7.92953C23.33 8.35488 23.523 8.82037 23.7084 9.28131C23.8091 9.5319 23.8714 9.7559 23.9585 10.0235C24.3135 11.1133 24.0771 11.9117 25.0694 11.9117H26.1279V14.1391C25.6769 14.1391 24.996 14.0583 24.637 14.2138C24.2668 14.3742 24.2525 14.7723 24.1671 15.1993C24.0868 15.6007 23.9786 15.9906 23.8594 16.3469C23.7022 16.8168 23.4559 17.455 23.2042 17.8751C23.1066 18.038 23.0491 18.1819 22.9434 18.3419C22.891 18.4214 22.8601 18.4788 22.8069 18.5582C22.6604 18.777 22.5006 18.996 22.3717 19.2255C22.1503 19.6194 22.3772 19.9291 22.649 20.1979C22.7855 20.3328 23.3094 20.803 23.3493 20.953C23.0043 21.184 22.0483 22.2973 21.7836 22.4745L21.4804 22.2043C21.4273 22.1512 21.3905 22.114 21.3369 22.0611C21.27 21.9949 21.2519 21.962 21.1935 21.8958C20.8532 21.5092 20.4669 21.2363 20.0018 21.5527L19.3975 21.9407C18.4306 22.5895 17.3366 22.9694 16.2046 23.2465C14.9398 23.5561 15.0797 23.4437 15.0797 25.2309H12.8524C12.8524 24.8186 12.9742 23.9564 12.702 23.6172C12.524 23.3954 12.2705 23.3649 11.9323 23.3064C11.6326 23.2545 11.3661 23.1775 11.0751 23.105C10.4106 22.9396 9.76298 22.6585 9.15501 22.3569C8.68156 22.122 8.25324 21.8277 7.81609 21.5348C7.33214 21.2105 7.02418 21.4114 6.62831 21.8074C6.52143 21.9143 6.15118 22.3341 6.03844 22.3642C5.88774 22.2633 4.88766 21.2306 4.67652 20.9916C4.59465 20.8989 4.56745 20.885 4.49476 20.7765L4.94512 20.3447C5.07606 20.1751 5.31073 20.0486 5.31073 19.7842C5.31073 19.5788 5.11279 19.3872 4.91381 19.3872C4.70074 19.3872 4.60138 19.5342 4.48925 19.6463C4.36995 19.7656 4.26674 19.8688 4.14744 19.9881C3.93831 20.1973 3.61267 20.4235 3.61267 20.8206C3.61267 21.2168 4.13248 21.5734 4.37931 21.8403L4.66567 22.1493C4.76477 22.2484 4.87279 22.3444 4.96323 22.4471L5.25003 22.7557C5.54286 23.0485 5.671 23.2464 6.12661 23.2464C6.49903 23.2464 6.79589 22.7396 7.06555 22.5315C7.17453 22.4473 7.27643 22.3512 7.33949 22.2321C7.4455 22.2567 8.17487 22.7488 8.36896 22.8566C9.40586 23.432 10.5169 23.8453 11.693 24.0752C11.8135 24.0987 11.932 24.1419 12.0366 24.1506C12.0366 24.3099 12.0685 24.3854 12.059 24.5475C12.0253 25.1164 11.9136 25.9158 12.6658 26.0354C12.9909 26.0871 13.7154 26.0471 14.0875 26.0471C15.3606 26.0471 15.9178 26.2546 15.9178 24.9005C15.9178 24.6149 15.8957 24.412 15.8957 24.1287C15.998 24.1287 16.1466 24.0871 16.2311 24.0671C17.4149 23.7868 18.3397 23.4609 19.4169 22.8866C19.4724 22.8569 19.4889 22.842 19.5386 22.8099C19.5847 22.78 19.6162 22.7648 19.6623 22.7351C19.7467 22.6806 19.82 22.6342 19.905 22.5807C19.9917 22.5261 20.0658 22.4805 20.1507 22.4296C20.2215 22.3872 20.3337 22.2983 20.4164 22.2762C20.4751 22.3155 20.5017 22.3727 20.5539 22.4255C20.6098 22.4823 20.652 22.5228 20.7087 22.5795C20.817 22.6878 20.909 22.7796 21.0177 22.8879C21.1811 23.0504 21.3948 23.3568 21.7616 23.3568C22.2341 23.3568 22.7244 22.6507 23.0573 22.3591C23.1023 22.3196 23.139 22.3033 23.1766 22.2579L23.5202 21.8958C23.9081 21.5056 24.5201 21.1317 24.0551 20.4897C23.9593 20.3575 23.737 20.1164 23.6046 20.0141C23.4228 19.8738 23.2957 19.7084 23.1508 19.5417C23.3232 19.2159 23.5707 18.9168 23.7609 18.542C23.8097 18.4457 23.8534 18.3799 23.9005 18.2847C24.2832 17.5087 24.4644 17.1983 24.7291 16.2685C24.8507 15.8414 24.9467 15.3868 25.0474 14.9549C25.3783 14.9549 26.1234 14.989 26.3772 14.9396C26.7572 14.8658 26.9438 14.5485 26.9438 14.1611C26.9438 13.6757 26.989 12.0058 26.8946 11.6082C26.7125 10.8412 25.7363 11.1661 25.1112 11.0981C24.9759 11.0834 25.0271 10.924 24.9678 10.6683C24.7647 9.79237 24.4905 8.91299 24.0844 8.11155C23.8627 7.67405 23.7568 7.42897 23.4805 6.99532L23.3089 6.74796C23.2851 6.71604 23.2626 6.6905 23.239 6.66347C23.3592 6.48399 23.6408 6.27136 23.7957 6.09547L24.1378 5.73196C24.4318 5.44324 24.3534 5.10781 24.1121 4.79801C23.9031 4.52966 23.521 4.2147 23.3338 3.9886C23.2744 3.91688 23.2946 3.92117 23.2173 3.86248C23.1289 3.79548 23.0617 3.71851 22.9799 3.63673C22.8244 3.48122 22.6733 3.34722 22.5366 3.17587C22.3684 2.96499 22.1469 2.82636 21.8497 2.82636C21.383 2.82636 20.8791 3.67626 20.5267 3.86283C20.3532 3.77108 20.2055 3.64416 20.0373 3.53632C19.2344 3.02158 18.1334 2.48516 17.2217 2.20614C16.9065 2.10967 16.5536 2.0146 16.2172 1.95363C16.0922 1.93098 15.9623 1.92599 15.8516 1.90028C15.8516 1.62091 15.8516 1.34164 15.8516 1.06227C15.8516 0.7376 15.8685 0.528033 15.729 0.32485C15.6207 0.167063 15.426 0.026943 15.169 0.0248439L13.889 0.025806C13.4483 0.0267681 13.1072 -0.0383062 12.6409 0.03464C12.0632 0.124992 11.9705 0.487361 11.9705 1.08423V1.08388Z" fill="black"/>
<path fill-rule="evenodd" clip-rule="evenodd" d="M13.911 19.2988C12.8628 19.2988 11.7303 19.0041 10.8247 18.4819C10.6624 18.3884 10.4901 18.2811 10.3387 18.1741C10.2001 18.0761 10.0321 17.9526 9.90328 17.8377L9.48327 17.4639C9.41382 17.3944 9.38356 17.3387 9.30781 17.2644C9.15046 17.1103 8.90206 16.7919 8.77742 16.6041C8.66888 16.4405 8.58185 16.3062 8.47672 16.133C7.5634 14.6281 7.42521 12.6706 7.98744 10.9715C8.18196 10.3834 8.57328 9.66246 8.94641 9.19601L9.50627 8.56503C9.70989 8.35957 10.1432 8.01347 10.3696 7.86277C10.5351 7.75256 10.6701 7.65828 10.8461 7.5674L11.3746 7.30203C13.3428 6.44041 15.4718 6.58805 17.2809 7.72589C17.5934 7.92242 17.9023 8.15036 18.1614 8.41109C18.3186 8.56914 18.2354 8.45517 18.4486 8.69728C18.7034 8.98679 18.8296 9.09078 19.076 9.4591C19.2296 9.68879 19.3894 9.94392 19.5126 10.1913C20.1227 11.4175 20.398 12.9886 20.0329 14.4388C19.8849 15.0268 19.6892 15.6005 19.3759 16.1192C19.0299 16.6918 18.8417 16.9595 18.3491 17.452C17.9612 17.84 17.8987 17.8686 17.4994 18.168C17.2556 18.3508 16.7843 18.6171 16.5005 18.7349C15.995 18.9447 15.9218 18.9823 15.3314 19.1314C15.1276 19.1828 14.8676 19.2283 14.657 19.2509C14.4311 19.2753 14.1439 19.2989 13.9111 19.2989L13.911 19.2988ZM6.83237 13.014C6.83237 13.82 6.9724 14.5652 7.21004 15.2825C7.47279 16.0756 8.09817 17.2071 8.67894 17.7831C8.82046 17.9235 8.86051 17.997 8.99871 18.1248C10.1425 19.1826 11.4512 19.8556 13.0249 20.0527L13.867 20.1148C14.0409 20.1148 14.1282 20.091 14.2856 20.0924C14.4357 20.0938 14.5536 20.0825 14.6988 20.0645C16.0692 19.8959 17.3624 19.3764 18.4166 18.4898C18.4692 18.4456 18.4846 18.4387 18.5366 18.3892L18.8894 18.0584C19.2037 17.7441 19.2386 17.7018 19.5177 17.3635L19.8829 16.8467C20.5219 15.894 20.8944 14.6691 20.9887 13.52C21.0016 13.3627 20.9928 13.2172 21.0092 13.0764C21.0231 12.9565 20.9886 12.8148 20.99 12.6611C20.9913 12.5124 20.9794 12.3925 20.9616 12.2484C20.8685 11.492 20.697 10.8415 20.3948 10.169C20.2011 9.73777 20.0161 9.41441 19.7638 9.03586L19.1876 8.28899C19.0982 8.19619 19.046 8.15158 18.9643 8.04907C18.851 7.90668 18.1607 7.34095 18.0128 7.23652C17.8374 7.11258 17.6695 7.00622 17.4766 6.89059C17.1652 6.70385 16.9103 6.57965 16.5764 6.44574C16.4686 6.40253 16.3712 6.36361 16.2573 6.32382C16.0327 6.24527 15.8195 6.18081 15.5739 6.12509C14.534 5.88937 13.4318 5.86445 12.3897 6.1118C11.9648 6.21265 11.4268 6.36711 11.0444 6.55289C10.9435 6.60196 10.8493 6.63974 10.743 6.69248L10.1801 7.01164C9.72196 7.30815 9.45493 7.51789 9.05443 7.87064C8.88553 8.01933 8.66862 8.27613 8.51337 8.45421C7.45547 9.66806 6.83254 11.4046 6.83254 13.014L6.83237 13.014Z" fill="black"/>
</svg>
