<svg width="21" height="21" viewBox="0 0 21 21" fill="none" xmlns="http://www.w3.org/2000/svg">
<mask id="path-1-outside-1" maskUnits="userSpaceOnUse" x="0" y="0" width="21" height="21" fill="black">
<rect fill="white" width="21" height="21"/>
<path fill-rule="evenodd" clip-rule="evenodd" d="M7.45369 18.7285H7.42828C7.41516 18.6914 7.41074 18.7057 7.3867 18.667L7.03079 18.199C7.02927 18.1966 7.02775 18.193 7.02623 18.1906L7.00275 18.1496C6.97513 18.1132 6.94226 18.0915 6.9203 18.0519C6.91892 18.0494 6.9174 18.0458 6.91602 18.0433C6.91464 18.0407 6.91298 18.0373 6.91146 18.0349L6.73371 17.8007L6.71133 17.7717C6.63965 17.6938 6.57101 17.5738 6.51397 17.5184C6.50126 17.5061 6.48759 17.4942 6.47682 17.4784L6.38691 17.3493C6.38552 17.3467 6.38401 17.3432 6.38262 17.3407C6.38124 17.3381 6.37958 17.3347 6.37807 17.3323L6.27158 17.1942C6.2655 17.1852 6.25404 17.1742 6.24727 17.167L6.21344 17.1235C6.21205 17.121 6.21054 17.1174 6.20915 17.1149L6.0988 16.9678C6.08554 16.9463 6.07187 16.9344 6.05681 16.9197L5.83252 16.629C5.83114 16.6264 5.82962 16.6229 5.82824 16.6203L5.752 16.5162C5.75062 16.5136 5.7491 16.5101 5.74772 16.5075C5.72023 16.4594 5.67618 16.4254 5.64165 16.369L5.54 16.2389C5.53848 16.2365 5.53668 16.2332 5.53516 16.231C5.53295 16.2279 5.52619 16.2195 5.5237 16.2167L5.4023 16.0678C5.39608 16.061 5.38697 16.0499 5.38476 16.0467L5.30369 15.9346C5.30217 15.9322 5.30065 15.9286 5.29913 15.9262C5.29609 15.921 5.29347 15.9143 5.29043 15.9091C5.26225 15.8596 5.21971 15.8277 5.18436 15.7705C5.15894 15.7295 5.2019 15.7911 5.174 15.7551L5.00661 15.5363C4.9794 15.492 4.9399 15.4625 4.90495 15.4062L4.82872 15.302C4.80427 15.262 4.76933 15.2458 4.74474 15.2059L4.54448 14.9296C4.54061 14.9238 4.52583 14.9075 4.52059 14.902L4.44283 14.7994C4.42515 14.7739 4.41893 14.7776 4.3996 14.7527L4.26991 14.5732C4.26839 14.5708 4.2666 14.5676 4.26508 14.5653L4.09672 14.3475C4.06854 14.2981 4.026 14.2661 3.99065 14.2089L3.92325 14.1217C3.92187 14.1192 3.92035 14.1156 3.91897 14.1131L3.76469 13.9199C3.73679 13.8839 3.77975 13.9453 3.75434 13.9044C3.75282 13.902 3.7513 13.8985 3.74978 13.8961L3.37328 13.41C3.37176 13.4076 3.37024 13.4041 3.36872 13.4017L3.28392 13.2804C3.25699 13.2331 3.21307 13.1988 3.17785 13.1418L2.91171 12.8029C2.90867 12.7976 2.90605 12.7911 2.90301 12.7858L2.84003 12.7073C2.8008 12.644 2.75965 12.6137 2.73396 12.5687C2.73258 12.5662 2.73106 12.5626 2.72968 12.5601L2.72084 12.5431C2.69542 12.502 2.73838 12.5636 2.71048 12.5277L2.55621 12.3343C2.504 12.2427 2.42058 12.1647 2.36533 12.0746C2.34089 12.0345 2.30595 12.0184 2.28136 11.9783L2.192 11.8487C2.16687 11.8047 2.10969 11.754 2.10361 11.7441L2.01867 11.6231C2.01729 11.6205 2.01577 11.617 2.01439 11.6144C1.98746 11.5671 1.94354 11.5329 1.90832 11.4759L1.70585 11.2539L1.57864 11.1891C1.57547 11.1881 1.57243 11.1865 1.56925 11.1857C1.50959 11.1696 1.3665 11.17 1.31554 11.1885L1.06776 11.3901C1.06624 11.3923 1.06403 11.3955 1.06251 11.3977C1.061 11.4001 1.05906 11.4034 1.05768 11.4058L1.01072 11.5009C0.99995 11.532 1.00202 11.5459 1.00216 11.5831C1.00244 11.6396 0.994288 11.7078 1.00796 11.7609C1.01887 11.8035 1.00644 11.7536 1.01846 11.7892C1.02246 11.801 1.02619 11.8175 1.03034 11.829L1.08793 11.9262C1.11458 11.9691 1.06928 11.9037 1.09815 11.9417C1.1248 11.9766 1.15367 11.9911 1.17632 12.0307C1.18502 12.046 1.17881 12.0392 1.18944 12.0562L1.44343 12.3946C1.46829 12.4352 1.5042 12.4529 1.5274 12.4907C1.52892 12.4931 1.53044 12.4967 1.53196 12.4992L1.60033 12.5854C1.61082 12.596 1.60337 12.5851 1.61883 12.6055L1.90072 12.9933C1.92434 13.0318 1.96633 13.0579 1.98912 13.0979C2.02005 13.1521 2.06908 13.1923 2.09933 13.2453C2.11079 13.2654 2.09933 13.2499 2.11424 13.2691L2.21534 13.3997C2.23385 13.4178 2.24628 13.427 2.25912 13.446L2.26852 13.4624C2.2699 13.4649 2.27142 13.4685 2.2728 13.471L2.33523 13.5502C2.33674 13.5524 2.33868 13.5558 2.34006 13.5581C2.34158 13.5605 2.34324 13.564 2.34462 13.5664L2.50151 13.77C2.504 13.7728 2.51077 13.7812 2.51298 13.7843C2.5145 13.7865 2.51643 13.7899 2.51781 13.7922C2.51933 13.7946 2.52085 13.7981 2.52237 13.8005L2.72553 14.0608C2.72691 14.0634 2.72843 14.0669 2.72981 14.0695C2.74873 14.1034 2.77429 14.1166 2.80605 14.1735L2.97496 14.3908C2.97648 14.3932 2.978 14.3967 2.97952 14.3991L2.98822 14.4163C3.0088 14.4523 3.04112 14.472 3.0664 14.5053L3.08987 14.5463C3.09126 14.5489 3.09291 14.5523 3.09443 14.5547L3.43681 14.9976C3.46554 15.0477 3.51098 15.0795 3.53846 15.1276L3.54717 15.1448C3.54855 15.1473 3.5502 15.1507 3.55172 15.1531L3.61028 15.2233C3.6118 15.2257 3.61332 15.2293 3.61484 15.2317C3.61622 15.2342 3.61774 15.2378 3.61912 15.2403C3.64315 15.2836 3.68625 15.3115 3.71194 15.3534C3.71345 15.3558 3.71497 15.3593 3.71649 15.3618C3.72506 15.3768 3.71925 15.3704 3.72961 15.3872L3.75199 15.4164L3.90736 15.6215C3.93388 15.6648 3.972 15.6843 3.99576 15.7261L4.08056 15.8474C4.08194 15.8499 4.0836 15.8533 4.08511 15.8559L4.1916 15.994C4.21549 16.0293 4.25347 16.0526 4.27516 16.0906L4.52915 16.429C4.55511 16.4743 4.5989 16.506 4.62624 16.5507C4.66491 16.6137 4.70607 16.6431 4.73231 16.6893L4.87029 16.8733C4.88949 16.8921 4.87471 16.8754 4.88935 16.8927C4.89183 16.8955 4.89846 16.904 4.90067 16.9071L4.98617 17.0277C5.02912 17.1027 5.12317 17.1923 5.17262 17.2791C5.20134 17.3293 5.24388 17.3609 5.27869 17.4177C5.3041 17.459 5.26128 17.3967 5.28891 17.4331C5.30327 17.4519 5.31902 17.4631 5.33379 17.4782L5.3802 17.5477C5.38172 17.5501 5.38351 17.5534 5.38503 17.5557L5.45174 17.6434C5.47867 17.6907 5.52259 17.7249 5.55781 17.782L6.15888 18.5585C6.16137 18.5613 6.168 18.5698 6.17021 18.5729L6.37047 18.8491C6.39699 18.8924 6.43511 18.9119 6.45886 18.9537L6.63219 19.1796C6.63371 19.182 6.63523 19.1855 6.63675 19.1879L6.72155 19.3092C6.74904 19.3575 6.79296 19.3912 6.82762 19.4478L6.87624 19.502C6.90939 19.5347 6.91988 19.5719 6.95193 19.6066L7.14211 19.8542L7.29196 19.9609C7.35867 19.9922 7.48794 20.0155 7.56501 19.9874C7.56805 19.9862 7.57122 19.9848 7.57426 19.9838L7.61321 19.9718C7.61625 19.9707 7.6197 19.9695 7.6226 19.9684L8.17892 19.3023C8.18044 19.3 8.18279 19.2971 8.18444 19.2948C8.19522 19.2796 8.20088 19.2738 8.2064 19.2652L8.41426 18.9446C8.41565 18.9422 8.4173 18.9387 8.41868 18.9361L8.48608 18.8491C8.4876 18.8467 8.48926 18.8431 8.49064 18.8407C8.4992 18.8261 8.49396 18.8318 8.50418 18.8155C8.50915 18.8076 8.51592 18.8004 8.52614 18.7859L8.64284 18.6063C8.64436 18.6039 8.64588 18.6004 8.6474 18.5978C8.64878 18.5954 8.65044 18.5919 8.65182 18.5893L9.05345 17.9859C9.06823 17.9688 9.07914 17.9643 9.09558 17.9381L9.25233 17.6952C9.27788 17.6525 9.23576 17.7211 9.26131 17.6784C9.26283 17.676 9.26449 17.6726 9.26601 17.6702L9.4258 17.4434C9.42732 17.441 9.42898 17.4375 9.43036 17.4351C9.43174 17.4327 9.43326 17.4291 9.43478 17.4266L9.82481 16.8372C9.83006 16.8287 9.83627 16.8225 9.84677 16.8076L10.0187 16.5414C10.0508 16.4852 10.0763 16.4705 10.0951 16.4375L10.201 16.2729C10.2024 16.2705 10.2042 16.2671 10.2057 16.2647L10.7554 15.4485C10.7568 15.446 10.7585 15.4424 10.7598 15.44L10.8765 15.2603C10.8815 15.2532 10.8934 15.2386 10.8934 15.2386L10.9218 15.1896C10.9234 15.1874 10.9257 15.1844 10.9274 15.1821L11.0348 15.032C11.0362 15.0294 11.0379 15.0259 11.0392 15.0235L11.2471 14.7029C11.2525 14.6942 11.2583 14.6884 11.2691 14.6733L11.3398 14.5765C11.3429 14.5728 11.3519 14.561 11.3562 14.5543L11.3905 14.4982C11.3927 14.4951 11.3996 14.4867 11.4016 14.4836L11.513 14.3114C11.5143 14.309 11.516 14.3054 11.5174 14.3029L11.9237 13.6913C11.9259 13.6882 11.9328 13.6798 11.9349 13.6767L12.2748 13.1661C12.3009 13.1217 12.3191 13.1177 12.3556 13.0538C12.357 13.0512 12.3586 13.0478 12.36 13.0453L12.4525 12.906C12.4541 12.9036 12.4556 12.9 12.4571 12.8975L12.7918 12.3946C12.7931 12.3922 12.7949 12.3888 12.7964 12.3864L13.2279 11.7354C13.2443 11.7093 13.2554 11.7046 13.27 11.6876L13.558 11.241C13.5595 11.2386 13.5613 11.2354 13.563 11.2331L13.6347 11.1373C13.6396 11.1294 13.6464 11.1221 13.6566 11.1077L14.19 10.3009C14.1915 10.2986 14.1939 10.2958 14.1955 10.2934L14.2817 10.1735C14.2831 10.1711 14.2848 10.1674 14.2861 10.165L14.3226 10.1114C14.3241 10.1091 14.3262 10.1059 14.3276 10.1035C14.3291 10.101 14.3309 10.0977 14.3323 10.0952L14.4846 9.86099C14.486 9.85859 14.4876 9.85505 14.489 9.8525C14.4904 9.84995 14.4919 9.84642 14.4934 9.84401L14.5611 9.7571C14.5626 9.75469 14.5642 9.75116 14.5655 9.74861L14.6925 9.55328C14.7545 9.46751 14.8028 9.37168 14.8705 9.29327L14.9373 9.19263C14.9389 9.19022 14.9406 9.18683 14.942 9.18442L14.9929 9.10629C15.0014 9.09185 14.9964 9.09723 15.0065 9.08124L15.1452 8.87204C15.1466 8.86949 15.1482 8.86609 15.1496 8.86354L15.1586 8.8467C15.1601 8.84429 15.1619 8.84104 15.1636 8.83878L15.2626 8.70601C15.2641 8.70374 15.2662 8.70049 15.2676 8.69808C15.2691 8.69567 15.2707 8.69228 15.2723 8.68987L15.4336 8.43878C15.4351 8.43637 15.4368 8.43297 15.4383 8.43057L15.683 8.06977C15.6939 8.05463 15.6912 8.06015 15.6992 8.04741C15.7106 8.02929 15.7061 8.03227 15.7175 8.01415C15.7255 8.00127 15.7228 8.00693 15.7337 7.99178L15.9114 7.73149C15.9137 7.72838 15.9204 7.72002 15.9226 7.71691L16.0019 7.58995C16.0019 7.58995 16.0138 7.57537 16.0188 7.56829L16.0846 7.46666C16.0862 7.46426 16.0877 7.46072 16.0891 7.45817L16.1654 7.35428C16.1668 7.35173 16.1685 7.34819 16.1699 7.34579L16.3997 6.99561C16.4012 6.99335 16.4035 6.99051 16.4052 6.98811C16.4067 6.98584 16.4088 6.98259 16.4102 6.98032L16.6063 6.68676C16.6078 6.68436 16.6097 6.68124 16.6114 6.67898L16.7451 6.47756C16.7465 6.47516 16.7481 6.47162 16.7495 6.46907C16.7816 6.41288 16.8071 6.39816 16.8259 6.36518C16.8273 6.36263 16.8289 6.35924 16.8303 6.35669L16.9181 6.22548C16.9197 6.22307 16.9213 6.21967 16.9228 6.21727L17.2158 5.7758C17.2238 5.76306 17.221 5.76858 17.2319 5.75343L17.3955 5.5046C17.397 5.50234 17.3991 5.49908 17.4004 5.49682C17.402 5.49441 17.4036 5.49101 17.4051 5.48861C17.4065 5.48606 17.4082 5.48266 17.4096 5.48012C17.4286 5.44657 17.4531 5.43383 17.4859 5.37622C17.4873 5.37368 17.489 5.37028 17.4904 5.36773L17.7032 5.03935C17.7053 5.03624 17.7122 5.02789 17.7144 5.02477C17.7254 5.00949 17.7227 5.01515 17.7305 5.00227L17.7907 4.92074C17.7939 4.91706 17.8029 4.90531 17.8072 4.89852L18.3402 4.0913C18.3417 4.0889 18.3433 4.0855 18.3449 4.08309C18.3462 4.08055 18.3479 4.07715 18.3493 4.0746L18.4257 3.97071C18.427 3.96816 18.4287 3.96476 18.4301 3.96222L18.6653 3.60468C18.6668 3.60242 18.6689 3.59916 18.6703 3.5969C18.6718 3.59449 18.6734 3.59109 18.6749 3.58869C18.6765 3.58628 18.678 3.58274 18.6794 3.58019L18.9954 3.11027C18.9969 3.10801 18.999 3.10475 19.0003 3.10235L19.0095 3.08564C19.0306 3.0487 19.0416 3.05479 19.0769 2.9986L19.0999 2.95712C19.1014 2.95486 19.1038 2.95189 19.1054 2.94976L19.2128 2.78642C19.2237 2.77128 19.2209 2.7768 19.2289 2.76406L19.5825 2.22846L19.6049 2.19931C19.6064 2.19704 19.6084 2.19379 19.6098 2.19152L19.6189 2.17482C19.638 2.14127 19.6625 2.12854 19.6953 2.07093L19.8223 1.8756C19.8332 1.86045 19.8304 1.86597 19.8384 1.85324C19.8485 1.83724 19.8435 1.84262 19.8521 1.82818L19.8673 1.80469C19.9343 1.71014 19.9847 1.62337 20 1.52542V1.39931C19.995 1.36562 19.986 1.32995 19.9725 1.29202L19.9383 1.23611C19.9367 1.23385 19.9347 1.23073 19.9332 1.22833L19.6984 1.02649C19.6272 1.00242 19.4974 0.986572 19.4151 1.01587C19.3674 1.03286 19.311 1.04942 19.2757 1.08126C19.2593 1.09613 19.2737 1.0831 19.2567 1.1008L19.0795 1.33561C19.065 1.35133 19.0773 1.33477 19.06 1.35472C19.0575 1.35755 19.0508 1.3659 19.0485 1.36902L18.7853 1.77595C18.7839 1.7785 18.7823 1.7819 18.7809 1.78445L18.7183 1.86343C18.7168 1.86569 18.7149 1.86909 18.7133 1.87135L18.4598 2.26215C18.4479 2.28126 18.4536 2.27687 18.4417 2.2957L18.1248 2.76491C18.1233 2.76732 18.1218 2.77085 18.1204 2.7734L18.1114 2.79025C18.1099 2.79265 18.1081 2.79591 18.1066 2.79817L18.044 2.87715C18.0427 2.8797 18.041 2.88324 18.0396 2.88564C18.0382 2.88805 18.0365 2.89145 18.0349 2.89385L17.8156 3.2286C17.8134 3.23172 17.8065 3.24007 17.8044 3.24318L17.4539 3.75585C17.4252 3.79279 17.4699 3.72924 17.4435 3.77128L17.4346 3.78812C17.4332 3.79067 17.4315 3.79406 17.4301 3.79661L17.3696 3.89074C17.3696 3.89074 17.3578 3.90532 17.3528 3.91239L17.167 4.20355C17.1648 4.20666 17.1581 4.21501 17.1556 4.21784L17.0582 4.35245L17.0492 4.36929L16.9059 4.5867C16.8973 4.60114 16.9023 4.59576 16.8922 4.61175L16.8418 4.69017C16.8403 4.69258 16.8385 4.69583 16.8368 4.69809L16.7742 4.77707C16.7729 4.77962 16.7712 4.78302 16.7698 4.78557L16.7601 4.8017C16.7601 4.8017 16.7481 4.81657 16.7433 4.8235L16.5249 5.15938C16.5234 5.16179 16.5219 5.16533 16.5205 5.16787L16.4441 5.27177C16.4428 5.27431 16.4411 5.27771 16.4397 5.28026C16.4383 5.28266 16.4366 5.28606 16.435 5.28847C16.4335 5.29087 16.4316 5.29399 16.4301 5.29639L16.1393 5.72725C16.1368 5.73008 16.1301 5.73843 16.1279 5.74154L15.9155 6.07049C15.9139 6.07304 15.9124 6.07643 15.911 6.07898L15.2551 7.05959C15.2538 7.06199 15.2521 7.06553 15.2507 7.06808L15.1881 7.1472C15.1866 7.14947 15.1847 7.15286 15.1833 7.15513L15.1743 7.17197C15.173 7.17452 15.1713 7.17806 15.1699 7.18046C15.1685 7.18287 15.1667 7.18627 15.1652 7.18867C15.1637 7.19108 15.1618 7.19419 15.1602 7.1966L15.1094 7.27473L15.087 7.30389L14.9459 7.52356C14.9348 7.53885 14.9377 7.53319 14.9297 7.54607C14.9179 7.56518 14.9235 7.56079 14.9116 7.57961C14.8952 7.60594 14.8842 7.61047 14.8695 7.62745C14.8663 7.63113 14.8574 7.64288 14.8531 7.64968L14.83 7.69115C14.8285 7.69341 14.8262 7.69639 14.8246 7.69865L14.7335 7.83949C14.7255 7.85237 14.7282 7.8467 14.7173 7.86185L14.5948 8.04868C14.5934 8.05109 14.5918 8.05463 14.5904 8.05718L14.1697 8.6801C14.1676 8.68322 14.1607 8.69157 14.1585 8.69468L14.124 8.75031C14.116 8.76319 14.1187 8.75753 14.1078 8.77267L13.9298 9.03269C13.9273 9.03552 13.9205 9.04387 13.9183 9.04698L13.7567 9.2978C13.7554 9.3002 13.7537 9.30374 13.7523 9.30629L13.6508 9.46255C13.6494 9.4651 13.6479 9.46864 13.6464 9.47104L13.5744 9.56644C13.5731 9.56899 13.5714 9.57239 13.57 9.57494L13.5282 9.63622L13.5192 9.65307L13.2442 10.061C13.2428 10.0635 13.2412 10.0669 13.2398 10.0695L13.0366 10.3819C13.0352 10.3843 13.0335 10.3877 13.0319 10.3901L12.9949 10.4432C12.9935 10.4456 12.9919 10.4491 12.9905 10.4516L12.6514 10.963C12.6514 10.963 12.6314 10.9888 12.6286 10.9918C12.6141 11.0075 12.6264 10.9909 12.6093 11.0109C12.6068 11.0137 12.6 11.0221 12.5978 11.0252L12.5241 11.1448C12.5161 11.1577 12.5188 11.152 12.5079 11.1671L12.127 11.7397C12.1161 11.7548 12.1189 11.7493 12.1109 11.762C12.0994 11.7802 12.104 11.7772 12.0925 11.7953C12.0843 11.8083 12.0874 11.8024 12.0763 11.8177C12.0741 11.8208 12.0672 11.8291 12.0651 11.8323L11.2383 13.0669C11.2273 13.0821 11.2301 13.0766 11.2221 13.0893L10.8123 13.7104C10.8073 13.7175 10.7955 13.7322 10.7955 13.7322L10.7261 13.8433C10.7248 13.8457 10.7231 13.8492 10.7216 13.8516L10.4764 14.212C10.4742 14.2151 10.4673 14.2235 10.4652 14.2266L10.4556 14.2427C10.4469 14.2577 10.4528 14.2512 10.4422 14.2681C10.4422 14.2681 10.4221 14.2938 10.4194 14.2968L9.8831 15.1006C9.87509 15.1135 9.87785 15.1078 9.86693 15.123L9.782 15.257C9.78048 15.2594 9.77868 15.2627 9.77702 15.2649L9.37526 15.8552C9.37374 15.8576 9.3718 15.8607 9.37028 15.8631L8.73344 16.811C8.73192 16.8134 8.73027 16.8168 8.72875 16.8192L7.92079 18.0342C7.91927 18.0366 7.91761 18.04 7.91609 18.0424L7.765 18.2649C7.75422 18.2801 7.74856 18.2859 7.74304 18.2945L7.55037 18.5916C7.54885 18.5939 7.5465 18.5967 7.54498 18.5991L7.53531 18.6152C7.53393 18.6178 7.53228 18.6212 7.5309 18.6237L7.52192 18.6406C7.5204 18.643 7.5186 18.6462 7.51695 18.6485C7.51073 18.6574 7.49954 18.6683 7.49264 18.6755L7.45452 18.7276L7.45369 18.7285Z"/>
</mask>
<path fill-rule="evenodd" clip-rule="evenodd" d="M7.45369 18.7285H7.42828C7.41516 18.6914 7.41074 18.7057 7.3867 18.667L7.03079 18.199C7.02927 18.1966 7.02775 18.193 7.02623 18.1906L7.00275 18.1496C6.97513 18.1132 6.94226 18.0915 6.9203 18.0519C6.91892 18.0494 6.9174 18.0458 6.91602 18.0433C6.91464 18.0407 6.91298 18.0373 6.91146 18.0349L6.73371 17.8007L6.71133 17.7717C6.63965 17.6938 6.57101 17.5738 6.51397 17.5184C6.50126 17.5061 6.48759 17.4942 6.47682 17.4784L6.38691 17.3493C6.38552 17.3467 6.38401 17.3432 6.38262 17.3407C6.38124 17.3381 6.37958 17.3347 6.37807 17.3323L6.27158 17.1942C6.2655 17.1852 6.25404 17.1742 6.24727 17.167L6.21344 17.1235C6.21205 17.121 6.21054 17.1174 6.20915 17.1149L6.0988 16.9678C6.08554 16.9463 6.07187 16.9344 6.05681 16.9197L5.83252 16.629C5.83114 16.6264 5.82962 16.6229 5.82824 16.6203L5.752 16.5162C5.75062 16.5136 5.7491 16.5101 5.74772 16.5075C5.72023 16.4594 5.67618 16.4254 5.64165 16.369L5.54 16.2389C5.53848 16.2365 5.53668 16.2332 5.53516 16.231C5.53295 16.2279 5.52619 16.2195 5.5237 16.2167L5.4023 16.0678C5.39608 16.061 5.38697 16.0499 5.38476 16.0467L5.30369 15.9346C5.30217 15.9322 5.30065 15.9286 5.29913 15.9262C5.29609 15.921 5.29347 15.9143 5.29043 15.9091C5.26225 15.8596 5.21971 15.8277 5.18436 15.7705C5.15894 15.7295 5.2019 15.7911 5.174 15.7551L5.00661 15.5363C4.9794 15.492 4.9399 15.4625 4.90495 15.4062L4.82872 15.302C4.80427 15.262 4.76933 15.2458 4.74474 15.2059L4.54448 14.9296C4.54061 14.9238 4.52583 14.9075 4.52059 14.902L4.44283 14.7994C4.42515 14.7739 4.41893 14.7776 4.3996 14.7527L4.26991 14.5732C4.26839 14.5708 4.2666 14.5676 4.26508 14.5653L4.09672 14.3475C4.06854 14.2981 4.026 14.2661 3.99065 14.2089L3.92325 14.1217C3.92187 14.1192 3.92035 14.1156 3.91897 14.1131L3.76469 13.9199C3.73679 13.8839 3.77975 13.9453 3.75434 13.9044C3.75282 13.902 3.7513 13.8985 3.74978 13.8961L3.37328 13.41C3.37176 13.4076 3.37024 13.4041 3.36872 13.4017L3.28392 13.2804C3.25699 13.2331 3.21307 13.1988 3.17785 13.1418L2.91171 12.8029C2.90867 12.7976 2.90605 12.7911 2.90301 12.7858L2.84003 12.7073C2.8008 12.644 2.75965 12.6137 2.73396 12.5687C2.73258 12.5662 2.73106 12.5626 2.72968 12.5601L2.72084 12.5431C2.69542 12.502 2.73838 12.5636 2.71048 12.5277L2.55621 12.3343C2.504 12.2427 2.42058 12.1647 2.36533 12.0746C2.34089 12.0345 2.30595 12.0184 2.28136 11.9783L2.192 11.8487C2.16687 11.8047 2.10969 11.754 2.10361 11.7441L2.01867 11.6231C2.01729 11.6205 2.01577 11.617 2.01439 11.6144C1.98746 11.5671 1.94354 11.5329 1.90832 11.4759L1.70585 11.2539L1.57864 11.1891C1.57547 11.1881 1.57243 11.1865 1.56925 11.1857C1.50959 11.1696 1.3665 11.17 1.31554 11.1885L1.06776 11.3901C1.06624 11.3923 1.06403 11.3955 1.06251 11.3977C1.061 11.4001 1.05906 11.4034 1.05768 11.4058L1.01072 11.5009C0.99995 11.532 1.00202 11.5459 1.00216 11.5831C1.00244 11.6396 0.994288 11.7078 1.00796 11.7609C1.01887 11.8035 1.00644 11.7536 1.01846 11.7892C1.02246 11.801 1.02619 11.8175 1.03034 11.829L1.08793 11.9262C1.11458 11.9691 1.06928 11.9037 1.09815 11.9417C1.1248 11.9766 1.15367 11.9911 1.17632 12.0307C1.18502 12.046 1.17881 12.0392 1.18944 12.0562L1.44343 12.3946C1.46829 12.4352 1.5042 12.4529 1.5274 12.4907C1.52892 12.4931 1.53044 12.4967 1.53196 12.4992L1.60033 12.5854C1.61082 12.596 1.60337 12.5851 1.61883 12.6055L1.90072 12.9933C1.92434 13.0318 1.96633 13.0579 1.98912 13.0979C2.02005 13.1521 2.06908 13.1923 2.09933 13.2453C2.11079 13.2654 2.09933 13.2499 2.11424 13.2691L2.21534 13.3997C2.23385 13.4178 2.24628 13.427 2.25912 13.446L2.26852 13.4624C2.2699 13.4649 2.27142 13.4685 2.2728 13.471L2.33523 13.5502C2.33674 13.5524 2.33868 13.5558 2.34006 13.5581C2.34158 13.5605 2.34324 13.564 2.34462 13.5664L2.50151 13.77C2.504 13.7728 2.51077 13.7812 2.51298 13.7843C2.5145 13.7865 2.51643 13.7899 2.51781 13.7922C2.51933 13.7946 2.52085 13.7981 2.52237 13.8005L2.72553 14.0608C2.72691 14.0634 2.72843 14.0669 2.72981 14.0695C2.74873 14.1034 2.77429 14.1166 2.80605 14.1735L2.97496 14.3908C2.97648 14.3932 2.978 14.3967 2.97952 14.3991L2.98822 14.4163C3.0088 14.4523 3.04112 14.472 3.0664 14.5053L3.08987 14.5463C3.09126 14.5489 3.09291 14.5523 3.09443 14.5547L3.43681 14.9976C3.46554 15.0477 3.51098 15.0795 3.53846 15.1276L3.54717 15.1448C3.54855 15.1473 3.5502 15.1507 3.55172 15.1531L3.61028 15.2233C3.6118 15.2257 3.61332 15.2293 3.61484 15.2317C3.61622 15.2342 3.61774 15.2378 3.61912 15.2403C3.64315 15.2836 3.68625 15.3115 3.71194 15.3534C3.71345 15.3558 3.71497 15.3593 3.71649 15.3618C3.72506 15.3768 3.71925 15.3704 3.72961 15.3872L3.75199 15.4164L3.90736 15.6215C3.93388 15.6648 3.972 15.6843 3.99576 15.7261L4.08056 15.8474C4.08194 15.8499 4.0836 15.8533 4.08511 15.8559L4.1916 15.994C4.21549 16.0293 4.25347 16.0526 4.27516 16.0906L4.52915 16.429C4.55511 16.4743 4.5989 16.506 4.62624 16.5507C4.66491 16.6137 4.70607 16.6431 4.73231 16.6893L4.87029 16.8733C4.88949 16.8921 4.87471 16.8754 4.88935 16.8927C4.89183 16.8955 4.89846 16.904 4.90067 16.9071L4.98617 17.0277C5.02912 17.1027 5.12317 17.1923 5.17262 17.2791C5.20134 17.3293 5.24388 17.3609 5.27869 17.4177C5.3041 17.459 5.26128 17.3967 5.28891 17.4331C5.30327 17.4519 5.31902 17.4631 5.33379 17.4782L5.3802 17.5477C5.38172 17.5501 5.38351 17.5534 5.38503 17.5557L5.45174 17.6434C5.47867 17.6907 5.52259 17.7249 5.55781 17.782L6.15888 18.5585C6.16137 18.5613 6.168 18.5698 6.17021 18.5729L6.37047 18.8491C6.39699 18.8924 6.43511 18.9119 6.45886 18.9537L6.63219 19.1796C6.63371 19.182 6.63523 19.1855 6.63675 19.1879L6.72155 19.3092C6.74904 19.3575 6.79296 19.3912 6.82762 19.4478L6.87624 19.502C6.90939 19.5347 6.91988 19.5719 6.95193 19.6066L7.14211 19.8542L7.29196 19.9609C7.35867 19.9922 7.48794 20.0155 7.56501 19.9874C7.56805 19.9862 7.57122 19.9848 7.57426 19.9838L7.61321 19.9718C7.61625 19.9707 7.6197 19.9695 7.6226 19.9684L8.17892 19.3023C8.18044 19.3 8.18279 19.2971 8.18444 19.2948C8.19522 19.2796 8.20088 19.2738 8.2064 19.2652L8.41426 18.9446C8.41565 18.9422 8.4173 18.9387 8.41868 18.9361L8.48608 18.8491C8.4876 18.8467 8.48926 18.8431 8.49064 18.8407C8.4992 18.8261 8.49396 18.8318 8.50418 18.8155C8.50915 18.8076 8.51592 18.8004 8.52614 18.7859L8.64284 18.6063C8.64436 18.6039 8.64588 18.6004 8.6474 18.5978C8.64878 18.5954 8.65044 18.5919 8.65182 18.5893L9.05345 17.9859C9.06823 17.9688 9.07914 17.9643 9.09558 17.9381L9.25233 17.6952C9.27788 17.6525 9.23576 17.7211 9.26131 17.6784C9.26283 17.676 9.26449 17.6726 9.26601 17.6702L9.4258 17.4434C9.42732 17.441 9.42898 17.4375 9.43036 17.4351C9.43174 17.4327 9.43326 17.4291 9.43478 17.4266L9.82481 16.8372C9.83006 16.8287 9.83627 16.8225 9.84677 16.8076L10.0187 16.5414C10.0508 16.4852 10.0763 16.4705 10.0951 16.4375L10.201 16.2729C10.2024 16.2705 10.2042 16.2671 10.2057 16.2647L10.7554 15.4485C10.7568 15.446 10.7585 15.4424 10.7598 15.44L10.8765 15.2603C10.8815 15.2532 10.8934 15.2386 10.8934 15.2386L10.9218 15.1896C10.9234 15.1874 10.9257 15.1844 10.9274 15.1821L11.0348 15.032C11.0362 15.0294 11.0379 15.0259 11.0392 15.0235L11.2471 14.7029C11.2525 14.6942 11.2583 14.6884 11.2691 14.6733L11.3398 14.5765C11.3429 14.5728 11.3519 14.561 11.3562 14.5543L11.3905 14.4982C11.3927 14.4951 11.3996 14.4867 11.4016 14.4836L11.513 14.3114C11.5143 14.309 11.516 14.3054 11.5174 14.3029L11.9237 13.6913C11.9259 13.6882 11.9328 13.6798 11.9349 13.6767L12.2748 13.1661C12.3009 13.1217 12.3191 13.1177 12.3556 13.0538C12.357 13.0512 12.3586 13.0478 12.36 13.0453L12.4525 12.906C12.4541 12.9036 12.4556 12.9 12.4571 12.8975L12.7918 12.3946C12.7931 12.3922 12.7949 12.3888 12.7964 12.3864L13.2279 11.7354C13.2443 11.7093 13.2554 11.7046 13.27 11.6876L13.558 11.241C13.5595 11.2386 13.5613 11.2354 13.563 11.2331L13.6347 11.1373C13.6396 11.1294 13.6464 11.1221 13.6566 11.1077L14.19 10.3009C14.1915 10.2986 14.1939 10.2958 14.1955 10.2934L14.2817 10.1735C14.2831 10.1711 14.2848 10.1674 14.2861 10.165L14.3226 10.1114C14.3241 10.1091 14.3262 10.1059 14.3276 10.1035C14.3291 10.101 14.3309 10.0977 14.3323 10.0952L14.4846 9.86099C14.486 9.85859 14.4876 9.85505 14.489 9.8525C14.4904 9.84995 14.4919 9.84642 14.4934 9.84401L14.5611 9.7571C14.5626 9.75469 14.5642 9.75116 14.5655 9.74861L14.6925 9.55328C14.7545 9.46751 14.8028 9.37168 14.8705 9.29327L14.9373 9.19263C14.9389 9.19022 14.9406 9.18683 14.942 9.18442L14.9929 9.10629C15.0014 9.09185 14.9964 9.09723 15.0065 9.08124L15.1452 8.87204C15.1466 8.86949 15.1482 8.86609 15.1496 8.86354L15.1586 8.8467C15.1601 8.84429 15.1619 8.84104 15.1636 8.83878L15.2626 8.70601C15.2641 8.70374 15.2662 8.70049 15.2676 8.69808C15.2691 8.69567 15.2707 8.69228 15.2723 8.68987L15.4336 8.43878C15.4351 8.43637 15.4368 8.43297 15.4383 8.43057L15.683 8.06977C15.6939 8.05463 15.6912 8.06015 15.6992 8.04741C15.7106 8.02929 15.7061 8.03227 15.7175 8.01415C15.7255 8.00127 15.7228 8.00693 15.7337 7.99178L15.9114 7.73149C15.9137 7.72838 15.9204 7.72002 15.9226 7.71691L16.0019 7.58995C16.0019 7.58995 16.0138 7.57537 16.0188 7.56829L16.0846 7.46666C16.0862 7.46426 16.0877 7.46072 16.0891 7.45817L16.1654 7.35428C16.1668 7.35173 16.1685 7.34819 16.1699 7.34579L16.3997 6.99561C16.4012 6.99335 16.4035 6.99051 16.4052 6.98811C16.4067 6.98584 16.4088 6.98259 16.4102 6.98032L16.6063 6.68676C16.6078 6.68436 16.6097 6.68124 16.6114 6.67898L16.7451 6.47756C16.7465 6.47516 16.7481 6.47162 16.7495 6.46907C16.7816 6.41288 16.8071 6.39816 16.8259 6.36518C16.8273 6.36263 16.8289 6.35924 16.8303 6.35669L16.9181 6.22548C16.9197 6.22307 16.9213 6.21967 16.9228 6.21727L17.2158 5.7758C17.2238 5.76306 17.221 5.76858 17.2319 5.75343L17.3955 5.5046C17.397 5.50234 17.3991 5.49908 17.4004 5.49682C17.402 5.49441 17.4036 5.49101 17.4051 5.48861C17.4065 5.48606 17.4082 5.48266 17.4096 5.48012C17.4286 5.44657 17.4531 5.43383 17.4859 5.37622C17.4873 5.37368 17.489 5.37028 17.4904 5.36773L17.7032 5.03935C17.7053 5.03624 17.7122 5.02789 17.7144 5.02477C17.7254 5.00949 17.7227 5.01515 17.7305 5.00227L17.7907 4.92074C17.7939 4.91706 17.8029 4.90531 17.8072 4.89852L18.3402 4.0913C18.3417 4.0889 18.3433 4.0855 18.3449 4.08309C18.3462 4.08055 18.3479 4.07715 18.3493 4.0746L18.4257 3.97071C18.427 3.96816 18.4287 3.96476 18.4301 3.96222L18.6653 3.60468C18.6668 3.60242 18.6689 3.59916 18.6703 3.5969C18.6718 3.59449 18.6734 3.59109 18.6749 3.58869C18.6765 3.58628 18.678 3.58274 18.6794 3.58019L18.9954 3.11027C18.9969 3.10801 18.999 3.10475 19.0003 3.10235L19.0095 3.08564C19.0306 3.0487 19.0416 3.05479 19.0769 2.9986L19.0999 2.95712C19.1014 2.95486 19.1038 2.95189 19.1054 2.94976L19.2128 2.78642C19.2237 2.77128 19.2209 2.7768 19.2289 2.76406L19.5825 2.22846L19.6049 2.19931C19.6064 2.19704 19.6084 2.19379 19.6098 2.19152L19.6189 2.17482C19.638 2.14127 19.6625 2.12854 19.6953 2.07093L19.8223 1.8756C19.8332 1.86045 19.8304 1.86597 19.8384 1.85324C19.8485 1.83724 19.8435 1.84262 19.8521 1.82818L19.8673 1.80469C19.9343 1.71014 19.9847 1.62337 20 1.52542V1.39931C19.995 1.36562 19.986 1.32995 19.9725 1.29202L19.9383 1.23611C19.9367 1.23385 19.9347 1.23073 19.9332 1.22833L19.6984 1.02649C19.6272 1.00242 19.4974 0.986572 19.4151 1.01587C19.3674 1.03286 19.311 1.04942 19.2757 1.08126C19.2593 1.09613 19.2737 1.0831 19.2567 1.1008L19.0795 1.33561C19.065 1.35133 19.0773 1.33477 19.06 1.35472C19.0575 1.35755 19.0508 1.3659 19.0485 1.36902L18.7853 1.77595C18.7839 1.7785 18.7823 1.7819 18.7809 1.78445L18.7183 1.86343C18.7168 1.86569 18.7149 1.86909 18.7133 1.87135L18.4598 2.26215C18.4479 2.28126 18.4536 2.27687 18.4417 2.2957L18.1248 2.76491C18.1233 2.76732 18.1218 2.77085 18.1204 2.7734L18.1114 2.79025C18.1099 2.79265 18.1081 2.79591 18.1066 2.79817L18.044 2.87715C18.0427 2.8797 18.041 2.88324 18.0396 2.88564C18.0382 2.88805 18.0365 2.89145 18.0349 2.89385L17.8156 3.2286C17.8134 3.23172 17.8065 3.24007 17.8044 3.24318L17.4539 3.75585C17.4252 3.79279 17.4699 3.72924 17.4435 3.77128L17.4346 3.78812C17.4332 3.79067 17.4315 3.79406 17.4301 3.79661L17.3696 3.89074C17.3696 3.89074 17.3578 3.90532 17.3528 3.91239L17.167 4.20355C17.1648 4.20666 17.1581 4.21501 17.1556 4.21784L17.0582 4.35245L17.0492 4.36929L16.9059 4.5867C16.8973 4.60114 16.9023 4.59576 16.8922 4.61175L16.8418 4.69017C16.8403 4.69258 16.8385 4.69583 16.8368 4.69809L16.7742 4.77707C16.7729 4.77962 16.7712 4.78302 16.7698 4.78557L16.7601 4.8017C16.7601 4.8017 16.7481 4.81657 16.7433 4.8235L16.5249 5.15938C16.5234 5.16179 16.5219 5.16533 16.5205 5.16787L16.4441 5.27177C16.4428 5.27431 16.4411 5.27771 16.4397 5.28026C16.4383 5.28266 16.4366 5.28606 16.435 5.28847C16.4335 5.29087 16.4316 5.29399 16.4301 5.29639L16.1393 5.72725C16.1368 5.73008 16.1301 5.73843 16.1279 5.74154L15.9155 6.07049C15.9139 6.07304 15.9124 6.07643 15.911 6.07898L15.2551 7.05959C15.2538 7.06199 15.2521 7.06553 15.2507 7.06808L15.1881 7.1472C15.1866 7.14947 15.1847 7.15286 15.1833 7.15513L15.1743 7.17197C15.173 7.17452 15.1713 7.17806 15.1699 7.18046C15.1685 7.18287 15.1667 7.18627 15.1652 7.18867C15.1637 7.19108 15.1618 7.19419 15.1602 7.1966L15.1094 7.27473L15.087 7.30389L14.9459 7.52356C14.9348 7.53885 14.9377 7.53319 14.9297 7.54607C14.9179 7.56518 14.9235 7.56079 14.9116 7.57961C14.8952 7.60594 14.8842 7.61047 14.8695 7.62745C14.8663 7.63113 14.8574 7.64288 14.8531 7.64968L14.83 7.69115C14.8285 7.69341 14.8262 7.69639 14.8246 7.69865L14.7335 7.83949C14.7255 7.85237 14.7282 7.8467 14.7173 7.86185L14.5948 8.04868C14.5934 8.05109 14.5918 8.05463 14.5904 8.05718L14.1697 8.6801C14.1676 8.68322 14.1607 8.69157 14.1585 8.69468L14.124 8.75031C14.116 8.76319 14.1187 8.75753 14.1078 8.77267L13.9298 9.03269C13.9273 9.03552 13.9205 9.04387 13.9183 9.04698L13.7567 9.2978C13.7554 9.3002 13.7537 9.30374 13.7523 9.30629L13.6508 9.46255C13.6494 9.4651 13.6479 9.46864 13.6464 9.47104L13.5744 9.56644C13.5731 9.56899 13.5714 9.57239 13.57 9.57494L13.5282 9.63622L13.5192 9.65307L13.2442 10.061C13.2428 10.0635 13.2412 10.0669 13.2398 10.0695L13.0366 10.3819C13.0352 10.3843 13.0335 10.3877 13.0319 10.3901L12.9949 10.4432C12.9935 10.4456 12.9919 10.4491 12.9905 10.4516L12.6514 10.963C12.6514 10.963 12.6314 10.9888 12.6286 10.9918C12.6141 11.0075 12.6264 10.9909 12.6093 11.0109C12.6068 11.0137 12.6 11.0221 12.5978 11.0252L12.5241 11.1448C12.5161 11.1577 12.5188 11.152 12.5079 11.1671L12.127 11.7397C12.1161 11.7548 12.1189 11.7493 12.1109 11.762C12.0994 11.7802 12.104 11.7772 12.0925 11.7953C12.0843 11.8083 12.0874 11.8024 12.0763 11.8177C12.0741 11.8208 12.0672 11.8291 12.0651 11.8323L11.2383 13.0669C11.2273 13.0821 11.2301 13.0766 11.2221 13.0893L10.8123 13.7104C10.8073 13.7175 10.7955 13.7322 10.7955 13.7322L10.7261 13.8433C10.7248 13.8457 10.7231 13.8492 10.7216 13.8516L10.4764 14.212C10.4742 14.2151 10.4673 14.2235 10.4652 14.2266L10.4556 14.2427C10.4469 14.2577 10.4528 14.2512 10.4422 14.2681C10.4422 14.2681 10.4221 14.2938 10.4194 14.2968L9.8831 15.1006C9.87509 15.1135 9.87785 15.1078 9.86693 15.123L9.782 15.257C9.78048 15.2594 9.77868 15.2627 9.77702 15.2649L9.37526 15.8552C9.37374 15.8576 9.3718 15.8607 9.37028 15.8631L8.73344 16.811C8.73192 16.8134 8.73027 16.8168 8.72875 16.8192L7.92079 18.0342C7.91927 18.0366 7.91761 18.04 7.91609 18.0424L7.765 18.2649C7.75422 18.2801 7.74856 18.2859 7.74304 18.2945L7.55037 18.5916C7.54885 18.5939 7.5465 18.5967 7.54498 18.5991L7.53531 18.6152C7.53393 18.6178 7.53228 18.6212 7.5309 18.6237L7.52192 18.6406C7.5204 18.643 7.5186 18.6462 7.51695 18.6485C7.51073 18.6574 7.49954 18.6683 7.49264 18.6755L7.45452 18.7276L7.45369 18.7285Z" fill="url(#paint0_linear)"/>
<path fill-rule="evenodd" clip-rule="evenodd" d="M7.45369 18.7285H7.42828C7.41516 18.6914 7.41074 18.7057 7.3867 18.667L7.03079 18.199C7.02927 18.1966 7.02775 18.193 7.02623 18.1906L7.00275 18.1496C6.97513 18.1132 6.94226 18.0915 6.9203 18.0519C6.91892 18.0494 6.9174 18.0458 6.91602 18.0433C6.91464 18.0407 6.91298 18.0373 6.91146 18.0349L6.73371 17.8007L6.71133 17.7717C6.63965 17.6938 6.57101 17.5738 6.51397 17.5184C6.50126 17.5061 6.48759 17.4942 6.47682 17.4784L6.38691 17.3493C6.38552 17.3467 6.38401 17.3432 6.38262 17.3407C6.38124 17.3381 6.37958 17.3347 6.37807 17.3323L6.27158 17.1942C6.2655 17.1852 6.25404 17.1742 6.24727 17.167L6.21344 17.1235C6.21205 17.121 6.21054 17.1174 6.20915 17.1149L6.0988 16.9678C6.08554 16.9463 6.07187 16.9344 6.05681 16.9197L5.83252 16.629C5.83114 16.6264 5.82962 16.6229 5.82824 16.6203L5.752 16.5162C5.75062 16.5136 5.7491 16.5101 5.74772 16.5075C5.72023 16.4594 5.67618 16.4254 5.64165 16.369L5.54 16.2389C5.53848 16.2365 5.53668 16.2332 5.53516 16.231C5.53295 16.2279 5.52619 16.2195 5.5237 16.2167L5.4023 16.0678C5.39608 16.061 5.38697 16.0499 5.38476 16.0467L5.30369 15.9346C5.30217 15.9322 5.30065 15.9286 5.29913 15.9262C5.29609 15.921 5.29347 15.9143 5.29043 15.9091C5.26225 15.8596 5.21971 15.8277 5.18436 15.7705C5.15894 15.7295 5.2019 15.7911 5.174 15.7551L5.00661 15.5363C4.9794 15.492 4.9399 15.4625 4.90495 15.4062L4.82872 15.302C4.80427 15.262 4.76933 15.2458 4.74474 15.2059L4.54448 14.9296C4.54061 14.9238 4.52583 14.9075 4.52059 14.902L4.44283 14.7994C4.42515 14.7739 4.41893 14.7776 4.3996 14.7527L4.26991 14.5732C4.26839 14.5708 4.2666 14.5676 4.26508 14.5653L4.09672 14.3475C4.06854 14.2981 4.026 14.2661 3.99065 14.2089L3.92325 14.1217C3.92187 14.1192 3.92035 14.1156 3.91897 14.1131L3.76469 13.9199C3.73679 13.8839 3.77975 13.9453 3.75434 13.9044C3.75282 13.902 3.7513 13.8985 3.74978 13.8961L3.37328 13.41C3.37176 13.4076 3.37024 13.4041 3.36872 13.4017L3.28392 13.2804C3.25699 13.2331 3.21307 13.1988 3.17785 13.1418L2.91171 12.8029C2.90867 12.7976 2.90605 12.7911 2.90301 12.7858L2.84003 12.7073C2.8008 12.644 2.75965 12.6137 2.73396 12.5687C2.73258 12.5662 2.73106 12.5626 2.72968 12.5601L2.72084 12.5431C2.69542 12.502 2.73838 12.5636 2.71048 12.5277L2.55621 12.3343C2.504 12.2427 2.42058 12.1647 2.36533 12.0746C2.34089 12.0345 2.30595 12.0184 2.28136 11.9783L2.192 11.8487C2.16687 11.8047 2.10969 11.754 2.10361 11.7441L2.01867 11.6231C2.01729 11.6205 2.01577 11.617 2.01439 11.6144C1.98746 11.5671 1.94354 11.5329 1.90832 11.4759L1.70585 11.2539L1.57864 11.1891C1.57547 11.1881 1.57243 11.1865 1.56925 11.1857C1.50959 11.1696 1.3665 11.17 1.31554 11.1885L1.06776 11.3901C1.06624 11.3923 1.06403 11.3955 1.06251 11.3977C1.061 11.4001 1.05906 11.4034 1.05768 11.4058L1.01072 11.5009C0.99995 11.532 1.00202 11.5459 1.00216 11.5831C1.00244 11.6396 0.994288 11.7078 1.00796 11.7609C1.01887 11.8035 1.00644 11.7536 1.01846 11.7892C1.02246 11.801 1.02619 11.8175 1.03034 11.829L1.08793 11.9262C1.11458 11.9691 1.06928 11.9037 1.09815 11.9417C1.1248 11.9766 1.15367 11.9911 1.17632 12.0307C1.18502 12.046 1.17881 12.0392 1.18944 12.0562L1.44343 12.3946C1.46829 12.4352 1.5042 12.4529 1.5274 12.4907C1.52892 12.4931 1.53044 12.4967 1.53196 12.4992L1.60033 12.5854C1.61082 12.596 1.60337 12.5851 1.61883 12.6055L1.90072 12.9933C1.92434 13.0318 1.96633 13.0579 1.98912 13.0979C2.02005 13.1521 2.06908 13.1923 2.09933 13.2453C2.11079 13.2654 2.09933 13.2499 2.11424 13.2691L2.21534 13.3997C2.23385 13.4178 2.24628 13.427 2.25912 13.446L2.26852 13.4624C2.2699 13.4649 2.27142 13.4685 2.2728 13.471L2.33523 13.5502C2.33674 13.5524 2.33868 13.5558 2.34006 13.5581C2.34158 13.5605 2.34324 13.564 2.34462 13.5664L2.50151 13.77C2.504 13.7728 2.51077 13.7812 2.51298 13.7843C2.5145 13.7865 2.51643 13.7899 2.51781 13.7922C2.51933 13.7946 2.52085 13.7981 2.52237 13.8005L2.72553 14.0608C2.72691 14.0634 2.72843 14.0669 2.72981 14.0695C2.74873 14.1034 2.77429 14.1166 2.80605 14.1735L2.97496 14.3908C2.97648 14.3932 2.978 14.3967 2.97952 14.3991L2.98822 14.4163C3.0088 14.4523 3.04112 14.472 3.0664 14.5053L3.08987 14.5463C3.09126 14.5489 3.09291 14.5523 3.09443 14.5547L3.43681 14.9976C3.46554 15.0477 3.51098 15.0795 3.53846 15.1276L3.54717 15.1448C3.54855 15.1473 3.5502 15.1507 3.55172 15.1531L3.61028 15.2233C3.6118 15.2257 3.61332 15.2293 3.61484 15.2317C3.61622 15.2342 3.61774 15.2378 3.61912 15.2403C3.64315 15.2836 3.68625 15.3115 3.71194 15.3534C3.71345 15.3558 3.71497 15.3593 3.71649 15.3618C3.72506 15.3768 3.71925 15.3704 3.72961 15.3872L3.75199 15.4164L3.90736 15.6215C3.93388 15.6648 3.972 15.6843 3.99576 15.7261L4.08056 15.8474C4.08194 15.8499 4.0836 15.8533 4.08511 15.8559L4.1916 15.994C4.21549 16.0293 4.25347 16.0526 4.27516 16.0906L4.52915 16.429C4.55511 16.4743 4.5989 16.506 4.62624 16.5507C4.66491 16.6137 4.70607 16.6431 4.73231 16.6893L4.87029 16.8733C4.88949 16.8921 4.87471 16.8754 4.88935 16.8927C4.89183 16.8955 4.89846 16.904 4.90067 16.9071L4.98617 17.0277C5.02912 17.1027 5.12317 17.1923 5.17262 17.2791C5.20134 17.3293 5.24388 17.3609 5.27869 17.4177C5.3041 17.459 5.26128 17.3967 5.28891 17.4331C5.30327 17.4519 5.31902 17.4631 5.33379 17.4782L5.3802 17.5477C5.38172 17.5501 5.38351 17.5534 5.38503 17.5557L5.45174 17.6434C5.47867 17.6907 5.52259 17.7249 5.55781 17.782L6.15888 18.5585C6.16137 18.5613 6.168 18.5698 6.17021 18.5729L6.37047 18.8491C6.39699 18.8924 6.43511 18.9119 6.45886 18.9537L6.63219 19.1796C6.63371 19.182 6.63523 19.1855 6.63675 19.1879L6.72155 19.3092C6.74904 19.3575 6.79296 19.3912 6.82762 19.4478L6.87624 19.502C6.90939 19.5347 6.91988 19.5719 6.95193 19.6066L7.14211 19.8542L7.29196 19.9609C7.35867 19.9922 7.48794 20.0155 7.56501 19.9874C7.56805 19.9862 7.57122 19.9848 7.57426 19.9838L7.61321 19.9718C7.61625 19.9707 7.6197 19.9695 7.6226 19.9684L8.17892 19.3023C8.18044 19.3 8.18279 19.2971 8.18444 19.2948C8.19522 19.2796 8.20088 19.2738 8.2064 19.2652L8.41426 18.9446C8.41565 18.9422 8.4173 18.9387 8.41868 18.9361L8.48608 18.8491C8.4876 18.8467 8.48926 18.8431 8.49064 18.8407C8.4992 18.8261 8.49396 18.8318 8.50418 18.8155C8.50915 18.8076 8.51592 18.8004 8.52614 18.7859L8.64284 18.6063C8.64436 18.6039 8.64588 18.6004 8.6474 18.5978C8.64878 18.5954 8.65044 18.5919 8.65182 18.5893L9.05345 17.9859C9.06823 17.9688 9.07914 17.9643 9.09558 17.9381L9.25233 17.6952C9.27788 17.6525 9.23576 17.7211 9.26131 17.6784C9.26283 17.676 9.26449 17.6726 9.26601 17.6702L9.4258 17.4434C9.42732 17.441 9.42898 17.4375 9.43036 17.4351C9.43174 17.4327 9.43326 17.4291 9.43478 17.4266L9.82481 16.8372C9.83006 16.8287 9.83627 16.8225 9.84677 16.8076L10.0187 16.5414C10.0508 16.4852 10.0763 16.4705 10.0951 16.4375L10.201 16.2729C10.2024 16.2705 10.2042 16.2671 10.2057 16.2647L10.7554 15.4485C10.7568 15.446 10.7585 15.4424 10.7598 15.44L10.8765 15.2603C10.8815 15.2532 10.8934 15.2386 10.8934 15.2386L10.9218 15.1896C10.9234 15.1874 10.9257 15.1844 10.9274 15.1821L11.0348 15.032C11.0362 15.0294 11.0379 15.0259 11.0392 15.0235L11.2471 14.7029C11.2525 14.6942 11.2583 14.6884 11.2691 14.6733L11.3398 14.5765C11.3429 14.5728 11.3519 14.561 11.3562 14.5543L11.3905 14.4982C11.3927 14.4951 11.3996 14.4867 11.4016 14.4836L11.513 14.3114C11.5143 14.309 11.516 14.3054 11.5174 14.3029L11.9237 13.6913C11.9259 13.6882 11.9328 13.6798 11.9349 13.6767L12.2748 13.1661C12.3009 13.1217 12.3191 13.1177 12.3556 13.0538C12.357 13.0512 12.3586 13.0478 12.36 13.0453L12.4525 12.906C12.4541 12.9036 12.4556 12.9 12.4571 12.8975L12.7918 12.3946C12.7931 12.3922 12.7949 12.3888 12.7964 12.3864L13.2279 11.7354C13.2443 11.7093 13.2554 11.7046 13.27 11.6876L13.558 11.241C13.5595 11.2386 13.5613 11.2354 13.563 11.2331L13.6347 11.1373C13.6396 11.1294 13.6464 11.1221 13.6566 11.1077L14.19 10.3009C14.1915 10.2986 14.1939 10.2958 14.1955 10.2934L14.2817 10.1735C14.2831 10.1711 14.2848 10.1674 14.2861 10.165L14.3226 10.1114C14.3241 10.1091 14.3262 10.1059 14.3276 10.1035C14.3291 10.101 14.3309 10.0977 14.3323 10.0952L14.4846 9.86099C14.486 9.85859 14.4876 9.85505 14.489 9.8525C14.4904 9.84995 14.4919 9.84642 14.4934 9.84401L14.5611 9.7571C14.5626 9.75469 14.5642 9.75116 14.5655 9.74861L14.6925 9.55328C14.7545 9.46751 14.8028 9.37168 14.8705 9.29327L14.9373 9.19263C14.9389 9.19022 14.9406 9.18683 14.942 9.18442L14.9929 9.10629C15.0014 9.09185 14.9964 9.09723 15.0065 9.08124L15.1452 8.87204C15.1466 8.86949 15.1482 8.86609 15.1496 8.86354L15.1586 8.8467C15.1601 8.84429 15.1619 8.84104 15.1636 8.83878L15.2626 8.70601C15.2641 8.70374 15.2662 8.70049 15.2676 8.69808C15.2691 8.69567 15.2707 8.69228 15.2723 8.68987L15.4336 8.43878C15.4351 8.43637 15.4368 8.43297 15.4383 8.43057L15.683 8.06977C15.6939 8.05463 15.6912 8.06015 15.6992 8.04741C15.7106 8.02929 15.7061 8.03227 15.7175 8.01415C15.7255 8.00127 15.7228 8.00693 15.7337 7.99178L15.9114 7.73149C15.9137 7.72838 15.9204 7.72002 15.9226 7.71691L16.0019 7.58995C16.0019 7.58995 16.0138 7.57537 16.0188 7.56829L16.0846 7.46666C16.0862 7.46426 16.0877 7.46072 16.0891 7.45817L16.1654 7.35428C16.1668 7.35173 16.1685 7.34819 16.1699 7.34579L16.3997 6.99561C16.4012 6.99335 16.4035 6.99051 16.4052 6.98811C16.4067 6.98584 16.4088 6.98259 16.4102 6.98032L16.6063 6.68676C16.6078 6.68436 16.6097 6.68124 16.6114 6.67898L16.7451 6.47756C16.7465 6.47516 16.7481 6.47162 16.7495 6.46907C16.7816 6.41288 16.8071 6.39816 16.8259 6.36518C16.8273 6.36263 16.8289 6.35924 16.8303 6.35669L16.9181 6.22548C16.9197 6.22307 16.9213 6.21967 16.9228 6.21727L17.2158 5.7758C17.2238 5.76306 17.221 5.76858 17.2319 5.75343L17.3955 5.5046C17.397 5.50234 17.3991 5.49908 17.4004 5.49682C17.402 5.49441 17.4036 5.49101 17.4051 5.48861C17.4065 5.48606 17.4082 5.48266 17.4096 5.48012C17.4286 5.44657 17.4531 5.43383 17.4859 5.37622C17.4873 5.37368 17.489 5.37028 17.4904 5.36773L17.7032 5.03935C17.7053 5.03624 17.7122 5.02789 17.7144 5.02477C17.7254 5.00949 17.7227 5.01515 17.7305 5.00227L17.7907 4.92074C17.7939 4.91706 17.8029 4.90531 17.8072 4.89852L18.3402 4.0913C18.3417 4.0889 18.3433 4.0855 18.3449 4.08309C18.3462 4.08055 18.3479 4.07715 18.3493 4.0746L18.4257 3.97071C18.427 3.96816 18.4287 3.96476 18.4301 3.96222L18.6653 3.60468C18.6668 3.60242 18.6689 3.59916 18.6703 3.5969C18.6718 3.59449 18.6734 3.59109 18.6749 3.58869C18.6765 3.58628 18.678 3.58274 18.6794 3.58019L18.9954 3.11027C18.9969 3.10801 18.999 3.10475 19.0003 3.10235L19.0095 3.08564C19.0306 3.0487 19.0416 3.05479 19.0769 2.9986L19.0999 2.95712C19.1014 2.95486 19.1038 2.95189 19.1054 2.94976L19.2128 2.78642C19.2237 2.77128 19.2209 2.7768 19.2289 2.76406L19.5825 2.22846L19.6049 2.19931C19.6064 2.19704 19.6084 2.19379 19.6098 2.19152L19.6189 2.17482C19.638 2.14127 19.6625 2.12854 19.6953 2.07093L19.8223 1.8756C19.8332 1.86045 19.8304 1.86597 19.8384 1.85324C19.8485 1.83724 19.8435 1.84262 19.8521 1.82818L19.8673 1.80469C19.9343 1.71014 19.9847 1.62337 20 1.52542V1.39931C19.995 1.36562 19.986 1.32995 19.9725 1.29202L19.9383 1.23611C19.9367 1.23385 19.9347 1.23073 19.9332 1.22833L19.6984 1.02649C19.6272 1.00242 19.4974 0.986572 19.4151 1.01587C19.3674 1.03286 19.311 1.04942 19.2757 1.08126C19.2593 1.09613 19.2737 1.0831 19.2567 1.1008L19.0795 1.33561C19.065 1.35133 19.0773 1.33477 19.06 1.35472C19.0575 1.35755 19.0508 1.3659 19.0485 1.36902L18.7853 1.77595C18.7839 1.7785 18.7823 1.7819 18.7809 1.78445L18.7183 1.86343C18.7168 1.86569 18.7149 1.86909 18.7133 1.87135L18.4598 2.26215C18.4479 2.28126 18.4536 2.27687 18.4417 2.2957L18.1248 2.76491C18.1233 2.76732 18.1218 2.77085 18.1204 2.7734L18.1114 2.79025C18.1099 2.79265 18.1081 2.79591 18.1066 2.79817L18.044 2.87715C18.0427 2.8797 18.041 2.88324 18.0396 2.88564C18.0382 2.88805 18.0365 2.89145 18.0349 2.89385L17.8156 3.2286C17.8134 3.23172 17.8065 3.24007 17.8044 3.24318L17.4539 3.75585C17.4252 3.79279 17.4699 3.72924 17.4435 3.77128L17.4346 3.78812C17.4332 3.79067 17.4315 3.79406 17.4301 3.79661L17.3696 3.89074C17.3696 3.89074 17.3578 3.90532 17.3528 3.91239L17.167 4.20355C17.1648 4.20666 17.1581 4.21501 17.1556 4.21784L17.0582 4.35245L17.0492 4.36929L16.9059 4.5867C16.8973 4.60114 16.9023 4.59576 16.8922 4.61175L16.8418 4.69017C16.8403 4.69258 16.8385 4.69583 16.8368 4.69809L16.7742 4.77707C16.7729 4.77962 16.7712 4.78302 16.7698 4.78557L16.7601 4.8017C16.7601 4.8017 16.7481 4.81657 16.7433 4.8235L16.5249 5.15938C16.5234 5.16179 16.5219 5.16533 16.5205 5.16787L16.4441 5.27177C16.4428 5.27431 16.4411 5.27771 16.4397 5.28026C16.4383 5.28266 16.4366 5.28606 16.435 5.28847C16.4335 5.29087 16.4316 5.29399 16.4301 5.29639L16.1393 5.72725C16.1368 5.73008 16.1301 5.73843 16.1279 5.74154L15.9155 6.07049C15.9139 6.07304 15.9124 6.07643 15.911 6.07898L15.2551 7.05959C15.2538 7.06199 15.2521 7.06553 15.2507 7.06808L15.1881 7.1472C15.1866 7.14947 15.1847 7.15286 15.1833 7.15513L15.1743 7.17197C15.173 7.17452 15.1713 7.17806 15.1699 7.18046C15.1685 7.18287 15.1667 7.18627 15.1652 7.18867C15.1637 7.19108 15.1618 7.19419 15.1602 7.1966L15.1094 7.27473L15.087 7.30389L14.9459 7.52356C14.9348 7.53885 14.9377 7.53319 14.9297 7.54607C14.9179 7.56518 14.9235 7.56079 14.9116 7.57961C14.8952 7.60594 14.8842 7.61047 14.8695 7.62745C14.8663 7.63113 14.8574 7.64288 14.8531 7.64968L14.83 7.69115C14.8285 7.69341 14.8262 7.69639 14.8246 7.69865L14.7335 7.83949C14.7255 7.85237 14.7282 7.8467 14.7173 7.86185L14.5948 8.04868C14.5934 8.05109 14.5918 8.05463 14.5904 8.05718L14.1697 8.6801C14.1676 8.68322 14.1607 8.69157 14.1585 8.69468L14.124 8.75031C14.116 8.76319 14.1187 8.75753 14.1078 8.77267L13.9298 9.03269C13.9273 9.03552 13.9205 9.04387 13.9183 9.04698L13.7567 9.2978C13.7554 9.3002 13.7537 9.30374 13.7523 9.30629L13.6508 9.46255C13.6494 9.4651 13.6479 9.46864 13.6464 9.47104L13.5744 9.56644C13.5731 9.56899 13.5714 9.57239 13.57 9.57494L13.5282 9.63622L13.5192 9.65307L13.2442 10.061C13.2428 10.0635 13.2412 10.0669 13.2398 10.0695L13.0366 10.3819C13.0352 10.3843 13.0335 10.3877 13.0319 10.3901L12.9949 10.4432C12.9935 10.4456 12.9919 10.4491 12.9905 10.4516L12.6514 10.963C12.6514 10.963 12.6314 10.9888 12.6286 10.9918C12.6141 11.0075 12.6264 10.9909 12.6093 11.0109C12.6068 11.0137 12.6 11.0221 12.5978 11.0252L12.5241 11.1448C12.5161 11.1577 12.5188 11.152 12.5079 11.1671L12.127 11.7397C12.1161 11.7548 12.1189 11.7493 12.1109 11.762C12.0994 11.7802 12.104 11.7772 12.0925 11.7953C12.0843 11.8083 12.0874 11.8024 12.0763 11.8177C12.0741 11.8208 12.0672 11.8291 12.0651 11.8323L11.2383 13.0669C11.2273 13.0821 11.2301 13.0766 11.2221 13.0893L10.8123 13.7104C10.8073 13.7175 10.7955 13.7322 10.7955 13.7322L10.7261 13.8433C10.7248 13.8457 10.7231 13.8492 10.7216 13.8516L10.4764 14.212C10.4742 14.2151 10.4673 14.2235 10.4652 14.2266L10.4556 14.2427C10.4469 14.2577 10.4528 14.2512 10.4422 14.2681C10.4422 14.2681 10.4221 14.2938 10.4194 14.2968L9.8831 15.1006C9.87509 15.1135 9.87785 15.1078 9.86693 15.123L9.782 15.257C9.78048 15.2594 9.77868 15.2627 9.77702 15.2649L9.37526 15.8552C9.37374 15.8576 9.3718 15.8607 9.37028 15.8631L8.73344 16.811C8.73192 16.8134 8.73027 16.8168 8.72875 16.8192L7.92079 18.0342C7.91927 18.0366 7.91761 18.04 7.91609 18.0424L7.765 18.2649C7.75422 18.2801 7.74856 18.2859 7.74304 18.2945L7.55037 18.5916C7.54885 18.5939 7.5465 18.5967 7.54498 18.5991L7.53531 18.6152C7.53393 18.6178 7.53228 18.6212 7.5309 18.6237L7.52192 18.6406C7.5204 18.643 7.5186 18.6462 7.51695 18.6485C7.51073 18.6574 7.49954 18.6683 7.49264 18.6755L7.45452 18.7276L7.45369 18.7285Z" stroke="url(#paint1_linear)" mask="url(#path-1-outside-1)"/>
<defs>
<linearGradient id="paint0_linear" x1="20" y1="0.999999" x2="1" y2="13.2941" gradientUnits="userSpaceOnUse">
<stop stop-color="#0AB7FF"/>
<stop offset="1" stop-color="#47BD00" stop-opacity="0.76"/>
</linearGradient>
<linearGradient id="paint1_linear" x1="18.8824" y1="1" x2="0.999999" y2="13.2941" gradientUnits="userSpaceOnUse">
<stop stop-color="#0AB7FF"/>
<stop offset="1" stop-color="#47BD00" stop-opacity="0.76"/>
</linearGradient>
</defs>
</svg>
