<svg width="24" height="22" viewBox="0 0 24 22" fill="none" xmlns="http://www.w3.org/2000/svg">
<g clip-path="url(#clip0)">
<path d="M22.6754 22.0001C23.4068 22.0001 24 21.4564 24 20.7859V1.21421C24 0.543555 23.4068 0 22.6754 0H1.32459C0.592875 0 0 0.543555 0 1.21421V20.7859C0 21.4564 0.592875 22.0001 1.32459 22.0001H22.6754Z" fill="#395185"/>
<path d="M16.5595 22.0001V13.4805H19.6792L20.1463 10.1603H16.5595V8.04038C16.5595 7.07908 16.8508 6.42398 18.3546 6.42398L20.2727 6.42321V3.45364C19.9408 3.41316 18.8023 3.32275 17.4778 3.32275C14.7123 3.32275 12.8192 4.87006 12.8192 7.71167V10.1603H9.69147V13.4805H12.8192V22.0001H16.5595Z" fill="white"/>
</g>
<defs>
<clipPath id="clip0">
<rect width="24" height="22" fill="white"/>
</clipPath>
</defs>
</svg>
