<svg width="14" height="26" viewBox="0 0 14 26" fill="none" xmlns="http://www.w3.org/2000/svg">
<path d="M13.5219 0C13.8143 0 14.1334 0.337873 13.942 0.563121C13.7854 0.746383 13.5649 0.946424 13.3464 1.14459C13.1568 1.31665 12.9687 1.48729 12.8253 1.64431L12.5222 1.93263C12.501 1.95261 12.4892 1.96638 12.478 1.97945C12.4639 1.99587 12.4508 2.01117 12.4212 2.03625L11.5226 2.9012C11.5015 2.9242 11.4821 2.93995 11.4615 2.95668C11.4458 2.96944 11.4293 2.98276 11.4109 3.00031L8.15674 6.13126C8.12714 6.15634 8.11402 6.17165 8.09995 6.18806C8.08874 6.20113 8.07693 6.2149 8.05571 6.23488C7.98018 6.31332 7.89906 6.38609 7.81799 6.45882C7.72214 6.54481 7.62635 6.63074 7.53993 6.72592C7.44331 6.83426 7.33454 6.93231 7.22498 7.03107C7.12955 7.1171 7.03351 7.20367 6.9444 7.29805L6.23188 7.98281C6.12312 8.10127 6.00176 8.21119 5.88007 8.32141C5.75186 8.43752 5.6233 8.55396 5.50872 8.68108L4.19003 9.95148C4.16876 9.97175 4.15148 9.98639 4.1342 10.001C4.11692 10.0157 4.09964 10.0303 4.07837 10.0506L2.24922 11.812C2.19029 11.8739 2.12927 11.9305 2.06848 11.9869C1.99213 12.0577 1.91615 12.1282 1.8451 12.2085C1.73448 12.3301 1.60718 12.442 1.47981 12.554C1.31945 12.6951 1.15899 12.8361 1.03156 12.9968C1.12936 13.1211 1.33062 13.3102 1.474 13.4449C1.48651 13.4567 1.49859 13.468 1.51011 13.4789L2.13224 14.069C2.22303 14.1545 2.31075 14.2425 2.39861 14.3307C2.54231 14.475 2.68637 14.6196 2.84476 14.7538L3.46156 15.3484C3.49878 15.389 3.52936 15.4171 3.55993 15.4453C3.59051 15.4734 3.62108 15.5016 3.6583 15.5421L7.12518 18.8713C7.1624 18.9119 7.19298 18.94 7.22355 18.9682C7.25412 18.9963 7.2847 19.0245 7.32192 19.065C7.3484 19.0959 7.36664 19.111 7.3869 19.1278C7.39918 19.138 7.41221 19.1488 7.42827 19.1641L9.15107 20.831C9.18553 20.8699 9.21999 20.8996 9.25611 20.9308C9.28689 20.9574 9.31889 20.985 9.35313 21.0202L12.4265 23.9709C12.4609 24.009 12.4939 24.0392 12.5262 24.0689C12.559 24.0989 12.5911 24.1284 12.6233 24.1647L13.6495 25.1513C13.6806 25.1805 13.6915 25.1927 13.707 25.21C13.7153 25.2193 13.725 25.2301 13.7399 25.2459C13.7673 25.2749 13.7948 25.3008 13.8209 25.3256C13.9165 25.4159 13.9951 25.4902 13.9951 25.6423C13.9951 25.9126 13.5113 26.1378 13.2454 25.8991L12.0703 24.7638C12.0492 24.7408 12.0298 24.7251 12.0092 24.7083C11.9934 24.6956 11.977 24.6823 11.9586 24.6647L11.5439 24.2593C11.5174 24.2284 11.4991 24.2133 11.4789 24.1965C11.4666 24.1863 11.4536 24.1755 11.4375 24.1602C11.2939 24.0295 11.157 23.8921 11.0201 23.7547C10.8832 23.6173 10.7463 23.4799 10.6027 23.3493L10.0657 22.8312C10.047 22.8132 10.0284 22.7985 10.0098 22.7839C9.99121 22.7692 9.9726 22.7546 9.95399 22.7366L9.53924 22.3266C9.50675 22.2912 9.48236 22.273 9.44486 22.245C9.4394 22.2409 9.43366 22.2366 9.42758 22.232L9.11917 21.9257L9.11915 21.9257C9.06599 21.8806 9.05536 21.8716 9.01283 21.8266L4.57288 17.5469C4.44766 17.42 4.3145 17.2979 4.18125 17.1757C4.02594 17.0333 3.87052 16.8908 3.72743 16.7405L3.30204 16.3215C3.27779 16.2951 3.2558 16.2782 3.23166 16.2597C3.21874 16.2498 3.20521 16.2395 3.19038 16.2269L2.24922 15.3169C2.20989 15.2747 2.17574 15.2434 2.14293 15.2134C2.10919 15.1826 2.07689 15.153 2.04184 15.1142C1.92043 14.9802 1.78402 14.8551 1.64775 14.7302C1.52739 14.6198 1.40715 14.5096 1.29742 14.3934C1.22088 14.3118 1.13631 14.236 1.0517 14.1602C0.954104 14.0728 0.856454 13.9853 0.771009 13.8888L0.563634 13.6861C0.539385 13.6597 0.517393 13.6428 0.493246 13.6243C0.480329 13.6144 0.466796 13.6041 0.451971 13.5915C0.43807 13.5785 0.422825 13.5644 0.406608 13.5494C0.249133 13.4037 0 13.1733 0 13.0058C0 12.8267 0.321239 12.541 0.500877 12.3812C0.520052 12.3641 0.537614 12.3485 0.552999 12.3346C0.693482 12.2106 0.825909 12.0785 0.958262 11.9464C1.06637 11.8385 1.17443 11.7306 1.28679 11.6273L2.44064 10.5146C2.57052 10.3731 2.81908 10.1418 3.05665 9.92063C3.2276 9.76152 3.39285 9.6077 3.5041 9.49648L4.23789 8.7892C4.25911 8.76922 4.27092 8.75545 4.28213 8.74238C4.2962 8.72596 4.30932 8.71066 4.33892 8.68558L4.55161 8.48736C4.74051 8.32732 4.95385 8.11256 5.16262 7.90239C5.3182 7.74577 5.47125 7.5917 5.60975 7.46474L7.09328 6.04117C7.12793 6.00997 7.15553 5.98251 7.18182 5.95636C7.22007 5.9183 7.25555 5.883 7.30597 5.84295L9.62432 3.60848C9.64558 3.58821 9.66287 3.57357 9.68015 3.55893C9.69743 3.54429 9.71471 3.52964 9.73598 3.50937C9.7572 3.4894 9.76901 3.47562 9.78021 3.46255C9.79429 3.44614 9.80741 3.43083 9.83701 3.40576L13.2241 0.157674C13.2406 0.143679 13.2553 0.130222 13.269 0.117532C13.3351 0.0566938 13.382 0.0135149 13.5272 0.0135149L13.5219 0Z" fill="#4267EB"/>
<path d="M13.5219 0C13.8143 0 14.1334 0.337873 13.942 0.563121C13.7854 0.746383 13.5649 0.946424 13.3464 1.14459C13.1568 1.31665 12.9687 1.48729 12.8253 1.64431L12.5222 1.93263C12.501 1.95261 12.4892 1.96638 12.478 1.97945C12.4639 1.99587 12.4508 2.01117 12.4212 2.03625L11.5226 2.9012C11.5015 2.9242 11.4821 2.93995 11.4615 2.95668C11.4458 2.96944 11.4293 2.98276 11.4109 3.00031L8.15674 6.13126C8.12714 6.15634 8.11402 6.17165 8.09995 6.18806C8.08874 6.20113 8.07693 6.2149 8.05571 6.23488C7.98018 6.31332 7.89906 6.38609 7.81799 6.45882C7.72214 6.54481 7.62635 6.63074 7.53993 6.72592C7.44331 6.83426 7.33454 6.93231 7.22498 7.03107C7.12955 7.1171 7.03351 7.20367 6.9444 7.29805L6.23188 7.98281C6.12312 8.10127 6.00176 8.21119 5.88007 8.32141C5.75186 8.43752 5.6233 8.55396 5.50872 8.68108L4.19003 9.95148C4.16876 9.97175 4.15148 9.98639 4.1342 10.001C4.11692 10.0157 4.09964 10.0303 4.07837 10.0506L2.24922 11.812C2.19029 11.8739 2.12927 11.9305 2.06848 11.9869C1.99213 12.0577 1.91615 12.1282 1.8451 12.2085C1.73448 12.3301 1.60718 12.442 1.47981 12.554C1.31945 12.6951 1.15899 12.8361 1.03156 12.9968C1.12936 13.1211 1.33062 13.3102 1.474 13.4449C1.48651 13.4567 1.49859 13.468 1.51011 13.4789L2.13224 14.069C2.22303 14.1545 2.31075 14.2425 2.39861 14.3307C2.54231 14.475 2.68637 14.6196 2.84476 14.7538L3.46156 15.3484C3.49878 15.389 3.52936 15.4171 3.55993 15.4453C3.59051 15.4734 3.62108 15.5016 3.6583 15.5421L7.12518 18.8713C7.1624 18.9119 7.19298 18.94 7.22355 18.9682C7.25412 18.9963 7.2847 19.0245 7.32192 19.065C7.3484 19.0959 7.36664 19.111 7.3869 19.1278C7.39918 19.138 7.41221 19.1488 7.42827 19.1641L9.15107 20.831C9.18553 20.8699 9.21999 20.8996 9.25611 20.9308C9.28689 20.9574 9.31889 20.985 9.35313 21.0202L12.4265 23.9709C12.4609 24.009 12.4939 24.0392 12.5262 24.0689C12.559 24.0989 12.5911 24.1284 12.6233 24.1647L13.6495 25.1513C13.6806 25.1805 13.6915 25.1927 13.707 25.21C13.7153 25.2193 13.725 25.2301 13.7399 25.2459C13.7673 25.2749 13.7948 25.3008 13.8209 25.3256C13.9165 25.4159 13.9951 25.4902 13.9951 25.6423C13.9951 25.9126 13.5113 26.1378 13.2454 25.8991L12.0703 24.7638C12.0492 24.7408 12.0298 24.7251 12.0092 24.7083C11.9934 24.6956 11.977 24.6823 11.9586 24.6647L11.5439 24.2593C11.5174 24.2284 11.4991 24.2133 11.4789 24.1965C11.4666 24.1863 11.4536 24.1755 11.4375 24.1602C11.2939 24.0295 11.157 23.8921 11.0201 23.7547C10.8832 23.6173 10.7463 23.4799 10.6027 23.3493L10.0657 22.8312C10.047 22.8132 10.0284 22.7985 10.0098 22.7839C9.99121 22.7692 9.9726 22.7546 9.95399 22.7366L9.53924 22.3266C9.50675 22.2912 9.48236 22.273 9.44486 22.245C9.4394 22.2409 9.43366 22.2366 9.42758 22.232L9.11917 21.9257L9.11915 21.9257C9.06599 21.8806 9.05536 21.8716 9.01283 21.8266L4.57288 17.5469C4.44766 17.42 4.3145 17.2979 4.18125 17.1757C4.02594 17.0333 3.87052 16.8908 3.72743 16.7405L3.30204 16.3215C3.27779 16.2951 3.2558 16.2782 3.23166 16.2597C3.21874 16.2498 3.20521 16.2395 3.19038 16.2269L2.24922 15.3169C2.20989 15.2747 2.17574 15.2434 2.14293 15.2134C2.10919 15.1826 2.07689 15.153 2.04184 15.1142C1.92043 14.9802 1.78402 14.8551 1.64775 14.7302C1.52739 14.6198 1.40715 14.5096 1.29742 14.3934C1.22088 14.3118 1.13631 14.236 1.0517 14.1602C0.954104 14.0728 0.856454 13.9853 0.771009 13.8888L0.563634 13.6861C0.539385 13.6597 0.517393 13.6428 0.493246 13.6243C0.480329 13.6144 0.466796 13.6041 0.451971 13.5915C0.43807 13.5785 0.422825 13.5644 0.406608 13.5494C0.249133 13.4037 0 13.1733 0 13.0058C0 12.8267 0.321239 12.541 0.500877 12.3812C0.520052 12.3641 0.537614 12.3485 0.552999 12.3346C0.693482 12.2106 0.825909 12.0785 0.958262 11.9464C1.06637 11.8385 1.17443 11.7306 1.28679 11.6273L2.44064 10.5146C2.57052 10.3731 2.81908 10.1418 3.05665 9.92063C3.2276 9.76152 3.39285 9.6077 3.5041 9.49648L4.23789 8.7892C4.25911 8.76922 4.27092 8.75545 4.28213 8.74238C4.2962 8.72596 4.30932 8.71066 4.33892 8.68558L4.55161 8.48736C4.74051 8.32732 4.95385 8.11256 5.16262 7.90239C5.3182 7.74577 5.47125 7.5917 5.60975 7.46474L7.09328 6.04117C7.12793 6.00997 7.15553 5.98251 7.18182 5.95636C7.22007 5.9183 7.25555 5.883 7.30597 5.84295L9.62432 3.60848C9.64558 3.58821 9.66287 3.57357 9.68015 3.55893C9.69743 3.54429 9.71471 3.52964 9.73598 3.50937C9.7572 3.4894 9.76901 3.47562 9.78021 3.46255C9.79429 3.44614 9.80741 3.43083 9.83701 3.40576L13.2241 0.157674C13.2406 0.143679 13.2553 0.130222 13.269 0.117532C13.3351 0.0566938 13.382 0.0135149 13.5272 0.0135149L13.5219 0Z" stroke="#4267EB"/>
</svg>
