<svg width="14" height="26" viewBox="0 0 14 26" fill="none" xmlns="http://www.w3.org/2000/svg">
<path d="M0.478105 0C0.185653 0 -0.133385 0.337873 0.0580378 0.563121C0.214576 0.746383 0.435097 0.946423 0.653553 1.14459C0.843227 1.31665 1.03134 1.48729 1.17467 1.64431L1.47776 1.93263C1.49898 1.95261 1.51079 1.96638 1.52199 1.97945C1.53607 1.99587 1.54919 2.01117 1.57878 2.03625L2.47741 2.9012C2.49852 2.9242 2.51793 2.93995 2.53853 2.95668C2.55425 2.96944 2.57066 2.98276 2.58907 3.00031L5.84326 6.13127C5.87286 6.15634 5.88598 6.17165 5.90005 6.18806C5.91126 6.20113 5.92307 6.21491 5.94429 6.23488C6.01982 6.31332 6.10094 6.38609 6.18201 6.45882C6.27786 6.54481 6.37365 6.63074 6.46007 6.72592C6.55669 6.83426 6.66546 6.93231 6.77501 7.03107C6.87045 7.1171 6.96649 7.20367 7.05561 7.29805L7.76812 7.98281C7.87688 8.10127 7.99824 8.21119 8.11993 8.32141C8.24814 8.43752 8.3767 8.55396 8.49128 8.68108L9.80997 9.95148C9.83124 9.97175 9.84852 9.98639 9.8658 10.001C9.88308 10.0157 9.90036 10.0303 9.92163 10.0506L11.7508 11.812C11.8097 11.8739 11.8707 11.9305 11.9315 11.9869C12.0079 12.0577 12.0839 12.1282 12.1549 12.2085C12.2655 12.3301 12.3928 12.4421 12.5202 12.554C12.6805 12.6951 12.841 12.8362 12.9684 12.9968C12.8706 13.1211 12.6694 13.3102 12.526 13.4449C12.5135 13.4567 12.5014 13.468 12.4899 13.4789L11.8678 14.069C11.777 14.1545 11.6892 14.2425 11.6014 14.3307C11.4577 14.475 11.3136 14.6196 11.1552 14.7538L10.5384 15.3484C10.5012 15.389 10.4706 15.4171 10.4401 15.4453C10.4095 15.4734 10.3789 15.5016 10.3417 15.5421L6.87482 18.8713C6.8376 18.9119 6.80702 18.94 6.77645 18.9682C6.74587 18.9963 6.7153 19.0245 6.67808 19.065C6.6516 19.0959 6.63336 19.111 6.6131 19.1278C6.60082 19.138 6.58779 19.1488 6.57173 19.1641L4.84893 20.831C4.81447 20.8699 4.78001 20.8996 4.74388 20.9308C4.71311 20.9574 4.68111 20.985 4.64687 21.0202L1.57347 23.9709C1.53914 24.009 1.50613 24.0392 1.47377 24.0689C1.44097 24.0989 1.40885 24.1284 1.37673 24.1647L0.350489 25.1513C0.319388 25.1805 0.3085 25.1927 0.293013 25.21C0.284668 25.2193 0.274989 25.2301 0.260096 25.2459C0.232661 25.2749 0.205227 25.3008 0.17906 25.3256C0.0835094 25.4159 0.00486469 25.4902 0.00486469 25.6423C0.00486469 25.9126 0.488739 26.1378 0.754603 25.8991L1.92973 24.7638C1.95084 24.7408 1.97025 24.7251 1.99085 24.7083C2.00657 24.6956 2.02298 24.6823 2.04139 24.6647L2.45614 24.2593C2.48262 24.2284 2.50086 24.2133 2.52112 24.1965C2.5334 24.1863 2.54643 24.1755 2.56249 24.1602C2.70605 24.0295 2.84297 23.8921 2.97989 23.7547C3.11681 23.6173 3.25373 23.4799 3.3973 23.3493L3.93435 22.8312C3.95296 22.8132 3.97157 22.7985 3.99018 22.7839C4.00879 22.7693 4.0274 22.7546 4.04601 22.7366L4.46076 22.3266C4.49325 22.2912 4.51764 22.273 4.55514 22.245C4.5606 22.2409 4.56634 22.2366 4.57243 22.232L4.88083 21.9257L4.88085 21.9257C4.93401 21.8806 4.94464 21.8716 4.98718 21.8266L9.42712 17.5469C9.55235 17.42 9.68551 17.2979 9.81875 17.1757C9.97406 17.0333 10.1295 16.8908 10.2726 16.7405L10.698 16.3215C10.7222 16.2951 10.7442 16.2782 10.7683 16.2597C10.7813 16.2498 10.7948 16.2395 10.8096 16.2269L11.7508 15.3169C11.7901 15.2747 11.8243 15.2434 11.8571 15.2134C11.8908 15.1826 11.9231 15.153 11.9582 15.1142C12.0796 14.9802 12.216 14.8551 12.3523 14.7302C12.4726 14.6198 12.5929 14.5096 12.7026 14.3934C12.7791 14.3118 12.8637 14.236 12.9483 14.1602C13.0459 14.0728 13.1435 13.9853 13.229 13.8888L13.4364 13.6861C13.4606 13.6597 13.4826 13.6428 13.5068 13.6243C13.5197 13.6144 13.5332 13.6041 13.548 13.5915C13.5619 13.5785 13.5772 13.5644 13.5934 13.5494C13.7509 13.4037 14 13.1733 14 13.0059C14 12.8267 13.6788 12.541 13.4991 12.3812C13.4799 12.3641 13.4624 12.3485 13.447 12.3346C13.3065 12.2106 13.1741 12.0785 13.0417 11.9464C12.9336 11.8385 12.8256 11.7306 12.7132 11.6273L11.5594 10.5146C11.4295 10.3731 11.1809 10.1418 10.9434 9.92064C10.7724 9.76152 10.6072 9.6077 10.4959 9.49648L9.76211 8.7892C9.74089 8.76922 9.72908 8.75545 9.71787 8.74238C9.7038 8.72597 9.69068 8.71066 9.66108 8.68558L9.44839 8.48736C9.25949 8.32732 9.04615 8.11256 8.83738 7.9024C8.6818 7.74577 8.52875 7.5917 8.39025 7.46474L6.90672 6.04117C6.87207 6.00997 6.84447 5.98251 6.81818 5.95636C6.77993 5.9183 6.74445 5.883 6.69403 5.84295L4.37569 3.60848C4.35442 3.58821 4.33714 3.57357 4.31985 3.55893C4.30257 3.54429 4.28529 3.52964 4.26402 3.50937C4.2428 3.4894 4.23099 3.47562 4.21979 3.46255C4.20571 3.44614 4.19259 3.43083 4.16299 3.40576L0.775874 0.157674C0.759356 0.143679 0.744738 0.130221 0.730954 0.117531C0.664873 0.0566933 0.617974 0.0135149 0.472787 0.0135149L0.478105 0Z" fill="#4267EB"/>
<path d="M0.478105 0C0.185653 0 -0.133385 0.337873 0.0580378 0.563121C0.214576 0.746383 0.435097 0.946423 0.653553 1.14459C0.843227 1.31665 1.03134 1.48729 1.17467 1.64431L1.47776 1.93263C1.49898 1.95261 1.51079 1.96638 1.52199 1.97945C1.53607 1.99587 1.54919 2.01117 1.57878 2.03625L2.47741 2.9012C2.49852 2.9242 2.51793 2.93995 2.53853 2.95668C2.55425 2.96944 2.57066 2.98276 2.58907 3.00031L5.84326 6.13127C5.87286 6.15634 5.88598 6.17165 5.90005 6.18806C5.91126 6.20113 5.92307 6.21491 5.94429 6.23488C6.01982 6.31332 6.10094 6.38609 6.18201 6.45882C6.27786 6.54481 6.37365 6.63074 6.46007 6.72592C6.55669 6.83426 6.66546 6.93231 6.77501 7.03107C6.87045 7.1171 6.96649 7.20367 7.05561 7.29805L7.76812 7.98281C7.87688 8.10127 7.99824 8.21119 8.11993 8.32141C8.24814 8.43752 8.3767 8.55396 8.49128 8.68108L9.80997 9.95148C9.83124 9.97175 9.84852 9.98639 9.8658 10.001C9.88308 10.0157 9.90036 10.0303 9.92163 10.0506L11.7508 11.812C11.8097 11.8739 11.8707 11.9305 11.9315 11.9869C12.0079 12.0577 12.0839 12.1282 12.1549 12.2085C12.2655 12.3301 12.3928 12.4421 12.5202 12.554C12.6805 12.6951 12.841 12.8362 12.9684 12.9968C12.8706 13.1211 12.6694 13.3102 12.526 13.4449C12.5135 13.4567 12.5014 13.468 12.4899 13.4789L11.8678 14.069C11.777 14.1545 11.6892 14.2425 11.6014 14.3307C11.4577 14.475 11.3136 14.6196 11.1552 14.7538L10.5384 15.3484C10.5012 15.389 10.4706 15.4171 10.4401 15.4453C10.4095 15.4734 10.3789 15.5016 10.3417 15.5421L6.87482 18.8713C6.8376 18.9119 6.80702 18.94 6.77645 18.9682C6.74587 18.9963 6.7153 19.0245 6.67808 19.065C6.6516 19.0959 6.63336 19.111 6.6131 19.1278C6.60082 19.138 6.58779 19.1488 6.57173 19.1641L4.84893 20.831C4.81447 20.8699 4.78001 20.8996 4.74388 20.9308C4.71311 20.9574 4.68111 20.985 4.64687 21.0202L1.57347 23.9709C1.53914 24.009 1.50613 24.0392 1.47377 24.0689C1.44097 24.0989 1.40885 24.1284 1.37673 24.1647L0.350489 25.1513C0.319388 25.1805 0.3085 25.1927 0.293013 25.21C0.284668 25.2193 0.274989 25.2301 0.260096 25.2459C0.232661 25.2749 0.205227 25.3008 0.17906 25.3256C0.0835094 25.4159 0.00486469 25.4902 0.00486469 25.6423C0.00486469 25.9126 0.488739 26.1378 0.754603 25.8991L1.92973 24.7638C1.95084 24.7408 1.97025 24.7251 1.99085 24.7083C2.00657 24.6956 2.02298 24.6823 2.04139 24.6647L2.45614 24.2593C2.48262 24.2284 2.50086 24.2133 2.52112 24.1965C2.5334 24.1863 2.54643 24.1755 2.56249 24.1602C2.70605 24.0295 2.84297 23.8921 2.97989 23.7547C3.11681 23.6173 3.25373 23.4799 3.3973 23.3493L3.93435 22.8312C3.95296 22.8132 3.97157 22.7985 3.99018 22.7839C4.00879 22.7693 4.0274 22.7546 4.04601 22.7366L4.46076 22.3266C4.49325 22.2912 4.51764 22.273 4.55514 22.245C4.5606 22.2409 4.56634 22.2366 4.57243 22.232L4.88083 21.9257L4.88085 21.9257C4.93401 21.8806 4.94464 21.8716 4.98718 21.8266L9.42712 17.5469C9.55235 17.42 9.68551 17.2979 9.81875 17.1757C9.97406 17.0333 10.1295 16.8908 10.2726 16.7405L10.698 16.3215C10.7222 16.2951 10.7442 16.2782 10.7683 16.2597C10.7813 16.2498 10.7948 16.2395 10.8096 16.2269L11.7508 15.3169C11.7901 15.2747 11.8243 15.2434 11.8571 15.2134C11.8908 15.1826 11.9231 15.153 11.9582 15.1142C12.0796 14.9802 12.216 14.8551 12.3523 14.7302C12.4726 14.6198 12.5929 14.5096 12.7026 14.3934C12.7791 14.3118 12.8637 14.236 12.9483 14.1602C13.0459 14.0728 13.1435 13.9853 13.229 13.8888L13.4364 13.6861C13.4606 13.6597 13.4826 13.6428 13.5068 13.6243C13.5197 13.6144 13.5332 13.6041 13.548 13.5915C13.5619 13.5785 13.5772 13.5644 13.5934 13.5494C13.7509 13.4037 14 13.1733 14 13.0059C14 12.8267 13.6788 12.541 13.4991 12.3812C13.4799 12.3641 13.4624 12.3485 13.447 12.3346C13.3065 12.2106 13.1741 12.0785 13.0417 11.9464C12.9336 11.8385 12.8256 11.7306 12.7132 11.6273L11.5594 10.5146C11.4295 10.3731 11.1809 10.1418 10.9434 9.92064C10.7724 9.76152 10.6072 9.6077 10.4959 9.49648L9.76211 8.7892C9.74089 8.76922 9.72908 8.75545 9.71787 8.74238C9.7038 8.72597 9.69068 8.71066 9.66108 8.68558L9.44839 8.48736C9.25949 8.32732 9.04615 8.11256 8.83738 7.9024C8.6818 7.74577 8.52875 7.5917 8.39025 7.46474L6.90672 6.04117C6.87207 6.00997 6.84447 5.98251 6.81818 5.95636C6.77993 5.9183 6.74445 5.883 6.69403 5.84295L4.37569 3.60848C4.35442 3.58821 4.33714 3.57357 4.31985 3.55893C4.30257 3.54429 4.28529 3.52964 4.26402 3.50937C4.2428 3.4894 4.23099 3.47562 4.21979 3.46255C4.20571 3.44614 4.19259 3.43083 4.16299 3.40576L0.775874 0.157674C0.759356 0.143679 0.744738 0.130221 0.730954 0.117531C0.664873 0.0566933 0.617974 0.0135149 0.472787 0.0135149L0.478105 0Z" stroke="#4267EB"/>
</svg>
