<svg width="25" height="23" viewBox="0 0 25 23" fill="none" xmlns="http://www.w3.org/2000/svg">
<path fill-rule="evenodd" clip-rule="evenodd" d="M9.28275 16.9083C9.57906 16.9083 9.87749 16.9838 10.0948 17.0722C10.7749 17.3484 11.3234 18.0652 11.3234 18.7762C11.3234 19.1656 11.3166 19.3947 11.1302 19.756C11.0054 19.9979 10.9141 20.1181 10.7282 20.2989C10.5474 20.4748 10.4119 20.571 10.17 20.69C9.63382 20.953 8.9249 20.9393 8.38917 20.6767C8.17522 20.5719 8.11324 20.531 7.94726 20.3869C7.70359 20.1759 7.56436 20.0033 7.41535 19.6784C7.18442 19.1746 7.19801 18.5491 7.43531 18.0693C7.55714 17.8237 7.67133 17.6692 7.85727 17.4876C8.16121 17.1907 8.68165 16.9087 9.28275 16.9087V16.9083ZM2.66132 12.8223V20.294C2.66132 21.4191 2.91475 22.4142 3.91828 22.8068C4.20227 22.9179 4.59749 22.9984 5.00162 22.9984H9.24243C9.4568 22.9984 9.62236 22.8374 9.62236 22.6289V21.5587C10.06 21.5587 10.6144 21.2907 10.9515 21.0422C11.5611 20.5921 12.0429 19.8208 12.0429 19.0487C12.0429 18.5248 12.0009 18.1672 11.7695 17.7192C11.6863 17.5582 11.6218 17.4537 11.5229 17.317C11.2435 16.9322 10.8471 16.6296 10.403 16.4409C9.48227 16.0495 8.35224 16.1737 7.57879 16.789L7.39625 16.9426C7.16999 17.1639 6.9883 17.3984 6.82996 17.6754C6.65889 17.9752 6.55276 18.3522 6.5413 18.6986C6.53408 18.9265 6.50564 18.9909 6.55828 19.2853C6.59648 19.4979 6.62365 19.6144 6.6886 19.8006C6.85289 20.2705 7.12966 20.6408 7.50747 20.9501C7.75623 21.1536 8.04235 21.3242 8.35903 21.4253C8.50548 21.472 8.72198 21.5442 8.90197 21.5587V22.2982H4.88106C4.42811 22.2982 3.99087 22.1545 3.77225 21.8787C3.29128 21.2725 3.38085 20.4604 3.38085 19.7102V12.9198C3.4458 12.9028 3.60796 12.7467 3.6657 12.691L3.94545 12.4577C4.03587 12.3801 4.12544 12.2884 4.21755 12.2166C4.27953 12.1687 4.29863 12.1476 4.35594 12.0981C4.60216 11.8855 5.13151 11.4585 5.32594 11.2707C5.38112 11.2174 5.41211 11.2058 5.46645 11.1542C5.52843 11.0956 5.54965 11.0803 5.61503 11.0266C5.70757 10.9511 5.79374 10.8594 5.88926 10.788L6.44578 10.3173C6.77265 10.0365 7.08509 9.74214 7.42384 9.47871C7.47606 9.43825 7.50577 9.39696 7.55799 9.3565C7.65945 9.27805 7.75029 9.19795 7.8458 9.11124L8.67571 8.40107C8.96692 8.12526 9.48694 7.72805 9.79641 7.44811C10.2549 7.03316 10.729 6.64587 11.1969 6.24164L11.7534 5.77136C11.9529 5.62148 12.1104 5.43073 12.3218 5.29323C12.4606 5.36466 12.9997 5.86261 13.1572 5.99845L13.7252 6.47741C14.0143 6.70243 14.2754 6.97164 14.5653 7.19708C14.6574 7.26892 14.7474 7.36058 14.8374 7.4382C14.8934 7.4861 14.9202 7.50138 14.9771 7.55547L15.3939 7.9089C15.4933 7.98363 15.5841 8.0819 15.6792 8.15622L17.6277 9.82183C17.8913 10.0766 18.2054 10.288 18.4678 10.5419L19.1691 11.1443C19.2306 11.1947 19.2497 11.2058 19.3079 11.2624C19.3626 11.3157 19.3941 11.3272 19.4484 11.3788L20.8497 12.5845C20.91 12.6336 20.9316 12.6501 20.9885 12.7022L21.2016 12.8838C21.239 12.9144 21.2636 12.9016 21.2636 12.9598V20.5677C21.2636 21.5723 20.8658 22.2994 19.743 22.2994H15.742V14.9053C15.742 14.7484 15.5952 14.5746 15.4419 14.5746H12.4211C12.1112 14.5746 12.0043 14.9396 12.1766 15.1432C12.2152 15.1886 12.3239 15.2559 12.4012 15.2559H15.0216V22.5913C15.0216 22.8188 15.174 23.0001 15.4016 23.0001H19.6424C20.4341 23.0001 21.1031 22.7354 21.4431 22.3002C21.8566 21.7705 21.9827 21.0797 21.9827 20.3733V12.7851C21.9827 12.6154 21.8727 12.5448 21.7675 12.4495C21.739 12.4235 21.7276 12.4074 21.6966 12.3822L19.2073 10.2504C19.15 10.1963 19.1084 10.1724 19.0472 10.1146L17.2265 8.55838C17.0856 8.41882 16.9251 8.30652 16.7766 8.17893L16.3329 7.79329C16.2243 7.71154 16.1288 7.61616 16.026 7.52739L14.2057 5.97038C14.1497 5.91753 14.1141 5.9006 14.0555 5.84403L13.7558 5.59093C13.4998 5.37003 12.7917 4.73666 12.5438 4.55168C12.2067 4.30023 11.885 4.76019 11.6515 4.93608L8.3221 7.78792C8.03513 8.01089 7.77576 8.26894 7.49304 8.49934L3.16096 12.2046C3.06587 12.2785 2.77806 12.5064 2.72032 12.5932C2.67915 12.6555 2.65792 12.7245 2.65792 12.8244L2.66132 12.8223Z" fill="black"/>
<path fill-rule="evenodd" clip-rule="evenodd" d="M0.000849011 10.5655C0.000849011 10.7938 0.322624 11.0424 0.536575 10.8921C0.862171 10.6633 1.23998 10.2595 1.56091 10.0205L1.83599 9.78222C1.87886 9.74548 1.89287 9.74382 1.93617 9.7046L2.75504 9.0031C2.79325 8.97213 2.80895 8.94818 2.84673 8.91722L5.81615 6.37711C5.86072 6.33499 5.87091 6.33499 5.91548 6.29866C6.07595 6.16818 6.21519 6.01913 6.38159 5.89568C6.57389 5.75282 6.73181 5.58147 6.92496 5.43159L7.5736 4.87583C7.80581 4.70118 8.00066 4.48648 8.23371 4.31182L9.43633 3.2829C9.47454 3.25152 9.49024 3.22798 9.52803 3.19702L11.1997 1.768C11.3322 1.66519 11.4387 1.55371 11.5741 1.45131C11.8348 1.25519 12.05 0.995068 12.323 0.817112C12.4529 0.901755 12.6532 1.07765 12.778 1.1916L13.3384 1.67799C13.5528 1.86338 13.7841 2.03432 13.9879 2.23292L14.5516 2.716C14.6293 2.77422 14.6573 2.81014 14.735 2.86836L17.8925 5.5761C17.9702 5.63432 17.9982 5.67024 18.0759 5.72887C18.1209 5.76314 18.1302 5.778 18.1693 5.8131L19.7476 7.15747C19.8138 7.20908 19.8545 7.25615 19.9276 7.31313L22.7225 9.71203C22.7938 9.76736 22.8388 9.81525 22.9055 9.8648L23.8402 10.6675C23.8818 10.7067 23.8882 10.7059 23.9285 10.7372C24.0584 10.8384 24.1221 10.9346 24.3055 10.9346C24.5619 10.9346 24.7758 10.5556 24.5475 10.3491L23.4713 9.43085C23.4331 9.39989 23.4174 9.37635 23.3796 9.34497L22.9938 9.01961C22.9488 8.98534 22.9394 8.97048 22.9004 8.93538C22.6533 8.71036 22.3774 8.50763 22.1299 8.28384L21.64 7.86517C21.6039 7.8342 21.5857 7.80902 21.5496 7.77805L21.1616 7.45475C21.1234 7.42503 21.106 7.40273 21.0699 7.36887L20.7791 7.12609C20.7371 7.08646 20.7286 7.07613 20.6845 7.0431L16.6296 3.57399C16.3706 3.36259 16.1299 3.12063 15.8663 2.91543L15.469 2.58181C15.4312 2.55126 15.4134 2.5269 15.3781 2.4951L14.5143 1.75933C14.4336 1.69864 14.3963 1.65033 14.3228 1.59541C14.0838 1.41787 13.8741 1.19739 13.6398 1.01447C13.4747 0.885652 13.332 0.728753 13.1626 0.602821L12.9686 0.441381C12.9309 0.410827 12.913 0.386466 12.8778 0.354674C12.7475 0.236587 12.4991 0 12.3225 0C12.1341 0 11.8216 0.306365 11.6875 0.433123C11.4757 0.633788 11.2337 0.810093 11.0172 1.00704L9.96187 1.90673C9.72967 2.07932 9.2487 2.53102 8.9957 2.73788L8.32625 3.31263C8.28338 3.34979 8.26979 3.35103 8.22607 3.39066L8.03631 3.55623C7.77142 3.81223 7.34777 4.12726 7.06589 4.38284L5.71554 5.54059C5.64507 5.60707 5.59371 5.63927 5.52579 5.70616L3.40623 7.51628C3.36803 7.54766 3.35232 7.57119 3.31454 7.60216C3.27039 7.63849 3.25978 7.63849 3.2152 7.68061L0.134993 10.3268C0.0590063 10.4003 0 10.4255 0 10.5651L0.000849011 10.5655Z" fill="black"/>
</svg>
