<svg width="18" height="17" viewBox="0 0 18 17" fill="none" xmlns="http://www.w3.org/2000/svg">
<path fill-rule="evenodd" clip-rule="evenodd" d="M9.01439 16.0716C9.51182 15.7398 9.97876 15.3628 10.4582 15.0065C10.5228 14.9584 10.5718 14.9177 10.6358 14.8705L12.3742 13.473C12.5118 13.3685 12.6539 13.2233 12.7802 13.1021L13.0332 12.8779C13.0906 12.8195 13.1389 12.7869 13.197 12.7281L13.3607 12.5783C13.3946 12.5449 13.4093 12.5398 13.4428 12.5104C13.4742 12.4828 13.4938 12.4572 13.5247 12.4287C13.5578 12.3981 13.5734 12.3935 13.6071 12.3611L13.855 12.1319C14.1375 11.9146 14.5403 11.4559 14.8019 11.1977C15.0374 10.9651 15.2443 10.7025 15.4643 10.4563L15.6811 10.196C15.7295 10.1351 15.7733 10.0877 15.8219 10.0234C15.8706 9.95881 15.9083 9.90999 15.9583 9.84629C16.0546 9.72341 16.1356 9.61308 16.2277 9.4889C16.4084 9.24532 16.5683 8.99633 16.7337 8.7412C16.8168 8.61296 16.8925 8.48596 16.9679 8.34868C17.2058 7.91484 17.3844 7.56394 17.5779 7.07887C18.0016 6.01666 18.1116 4.90064 17.884 3.75339C17.8228 3.44481 17.7088 3.16948 17.5934 2.88648C17.5388 2.75271 17.4652 2.63128 17.4004 2.5073C17.2402 2.20042 17.042 1.90673 16.8235 1.63987C16.6942 1.48193 16.5598 1.31887 16.4066 1.18449C15.9478 0.782036 15.5582 0.518643 14.983 0.289701C14.5468 0.116069 14.0244 0.00416012 13.5216 0.00416012C12.8507 0.00416012 12.4262 0.0516831 11.8296 0.25061C11.5424 0.346382 11.2469 0.470918 10.9891 0.624218L10.7295 0.773726C10.388 0.977332 10.1089 1.2235 9.83087 1.49754L9.22311 2.10296C9.17148 2.15641 9.06805 2.26771 9.01455 2.30338C8.91897 2.27792 8.79784 2.10348 8.73106 2.02796C8.64565 1.93138 8.53793 1.83537 8.44438 1.74218C8.20581 1.50452 7.96918 1.2734 7.70533 1.06346C7.64985 1.01929 7.5966 0.982818 7.53966 0.942799C6.13021 -0.0475585 4.21919 -0.329549 2.66837 0.44405C2.41477 0.570563 2.19211 0.710348 1.96925 0.87684C1.9098 0.921256 1.86845 0.956919 1.80916 1.00307L1.65645 1.13664C1.51414 1.28006 1.3696 1.4173 1.24535 1.57064C1.07307 1.78321 0.910069 2.00283 0.768002 2.23794C0.421948 2.8106 0.162964 3.41524 0.0647966 4.09517C0.0330868 4.31483 0 4.64051 0 4.87474C0 5.10755 0.029523 5.44042 0.0628527 5.66988C0.0880019 5.84275 0.113921 5.99863 0.150855 6.15362C0.256514 6.5969 0.405587 7.01614 0.576164 7.43061L0.851914 8.01303C1.31165 8.8634 1.8591 9.63466 2.47689 10.3669L2.61126 10.5188C2.79294 10.7449 3.08225 11.0553 3.28879 11.2588C3.34128 11.3104 3.37084 11.3546 3.42523 11.4085L4.13556 12.1159C4.18809 12.1675 4.21761 12.2118 4.272 12.2656C4.37236 12.365 4.46501 12.4459 4.56537 12.5448L4.79038 12.7424C4.81965 12.7668 4.83877 12.7901 4.86582 12.8169L6.25753 13.9883C6.31269 14.0318 6.36096 14.0705 6.41653 14.1156L7.36973 14.8667C7.65945 15.0844 8.8639 16.0315 9.01463 16.0716L9.01439 16.0716Z" fill="#DB0018"/>
</svg>
