<svg width="23" height="20" viewBox="0 0 23 20" fill="none" xmlns="http://www.w3.org/2000/svg">
<path d="M13.09 19C18.0109 19 22 14.9706 22 10C22 5.02944 18.0109 1 13.09 1" stroke="#B4B4B4"/>
<path d="M11.6499 14H10.8325V8.58154L9.19336 9.18359V8.44531L11.5225 7.5708H11.6499V14ZM14.4053 10.792L14.7305 7.60156H18.0088V8.35303H15.4204L15.2271 10.0977C15.5405 9.91309 15.8965 9.8208 16.2949 9.8208C16.8779 9.8208 17.3408 10.0142 17.6836 10.4009C18.0264 10.7847 18.1978 11.3047 18.1978 11.9609C18.1978 12.6201 18.019 13.1401 17.6616 13.521C17.3071 13.8989 16.8105 14.0879 16.1719 14.0879C15.6064 14.0879 15.145 13.9312 14.7876 13.6177C14.4302 13.3042 14.2266 12.8706 14.1768 12.3169H14.9458C14.9956 12.6831 15.126 12.96 15.3369 13.1475C15.5479 13.332 15.8262 13.4243 16.1719 13.4243C16.5498 13.4243 16.8457 13.2954 17.0596 13.0376C17.2764 12.7798 17.3848 12.4238 17.3848 11.9697C17.3848 11.542 17.2676 11.1992 17.0332 10.9414C16.8018 10.6807 16.4927 10.5503 16.106 10.5503C15.7515 10.5503 15.4731 10.6279 15.271 10.7832L15.0557 10.959L14.4053 10.792Z" fill="#B4B4B4"/>
<path d="M4.17993 10.5625C4.17993 5.59194 8.16907 1 13.0899 1" stroke="#B4B4B4"/>
<path d="M4.41297 11.4996C4.20267 11.6779 3.88729 11.6513 3.70855 11.4403L0.795829 8.0007C0.61709 7.78963 0.642679 7.474 0.852983 7.29572C1.06329 7.11744 1.37867 7.14402 1.55741 7.35509L4.14649 10.4125L7.19281 7.83005C7.40311 7.65177 7.71849 7.67835 7.89723 7.88942C8.07597 8.10049 8.05038 8.41612 7.84008 8.5944L4.41297 11.4996ZM4.67804 10.042L4.58744 11.1594L3.59123 11.0755L3.68183 9.95802L4.67804 10.042Z" fill="#B4B4B4"/>
</svg>
