<svg width="24" height="20" viewBox="0 0 24 20" fill="none" xmlns="http://www.w3.org/2000/svg">
<path d="M6.23877 15H5.23975V8.37744L3.23633 9.11328V8.21094L6.08301 7.14209H6.23877V15ZM9.60645 11.0791L10.0039 7.17969H14.0107V8.09814H10.8472L10.6108 10.2305C10.994 10.0049 11.429 9.89209 11.916 9.89209C12.6286 9.89209 13.1943 10.1284 13.6133 10.6011C14.0322 11.0701 14.2417 11.7057 14.2417 12.5078C14.2417 13.3135 14.0233 13.9491 13.5864 14.4146C13.1532 14.8765 12.5462 15.1074 11.7656 15.1074C11.0745 15.1074 10.5106 14.9159 10.0737 14.5327C9.63688 14.1496 9.38802 13.6196 9.32715 12.9429H10.2671C10.328 13.3905 10.4873 13.7288 10.7451 13.958C11.0029 14.1836 11.3431 14.2964 11.7656 14.2964C12.2275 14.2964 12.5892 14.1388 12.8506 13.8237C13.1156 13.5086 13.248 13.0736 13.248 12.5186C13.248 11.9958 13.1048 11.5768 12.8184 11.2617C12.5355 10.943 12.1577 10.7837 11.6851 10.7837C11.2518 10.7837 10.9116 10.8786 10.6646 11.0684L10.4014 11.2832L9.60645 11.0791Z" fill="#B4B4B4"/>
<path d="M10 19C5.02944 19 1 14.9706 1 10C1 5.02944 5.02944 1 10 1" stroke="#B4B4B4"/>
<path d="M18.9998 10.5625C18.9998 5.59194 14.9703 1 9.99976 1" stroke="#B4B4B4"/>
<path d="M18.7677 11.4987C18.9783 11.6774 19.2938 11.6515 19.4725 11.441L22.3842 8.00991C22.5628 7.79936 22.537 7.48383 22.3264 7.30516C22.1159 7.12649 21.8004 7.15232 21.6217 7.36287L19.0336 10.4127L15.9837 7.82457C15.7732 7.6459 15.4576 7.67174 15.279 7.88228C15.1003 8.09283 15.1261 8.40836 15.3367 8.58703L18.7677 11.4987ZM18.5014 10.0408L18.5929 11.1583L19.5896 11.0767L19.4981 9.95919L18.5014 10.0408Z" fill="#B4B4B4"/>
</svg>
