<svg width="25" height="19" viewBox="0 0 25 19" fill="none" xmlns="http://www.w3.org/2000/svg">
    <path d="M3.43213 2.09002C3.43213 1.77522 3.68733 1.52002 4.00213 1.52002H19.1898C19.5046 1.52002 19.7598 1.77522 19.7598 2.09002C19.7598 2.40482 19.5046 2.66001 19.1898 2.66001H4.00213C3.68733 2.66001 3.43213 2.40482 3.43213 2.09002Z"
          fill="#6323FD"/>
    <rect x="1.52002" y="8.35986" width="18.2399" height="1.14" rx="0.569998" fill="#6323FD"/>
    <rect x="15.6855" y="18.335" width="13.8337" height="0.968501" rx="0.484251"
          transform="rotate(-57.0139 15.6855 18.335)" fill="#6323FD"/>
    <rect x="1.52002" y="15.2" width="10.64" height="1.14" rx="0.569998" fill="#6323FD"/>
    <path d="M12.7278 13.2022C12.9544 13.0744 13.2404 13.1321 13.3996 13.3377L16.817 17.7517C16.9766 17.9577 16.9727 18.2466 16.8078 18.4484C16.5782 18.7292 16.1462 18.7207 15.9279 18.4311L12.567 13.9738C12.3763 13.7209 12.452 13.3579 12.7278 13.2022Z"
          fill="#6323FD"/>
    <circle cx="2.06521" cy="2.06521" r="1.56521" stroke="#6323FD"/>
</svg>
