<svg width="19" height="22" viewBox="0 0 19 22" fill="none" xmlns="http://www.w3.org/2000/svg">
<path fill-rule="evenodd" clip-rule="evenodd" d="M7.58935 7.63007C7.58935 8.68005 7.64393 9.45797 7.89047 10.4596C7.97595 10.8069 8.07395 11.1241 8.18484 11.453C8.5957 12.6711 9.34214 14.0139 10.1838 14.9681L10.654 15.4899C10.7656 15.5996 10.8628 15.6963 10.9742 15.8063C11.0912 15.9219 11.1946 16.0102 11.3128 16.123L11.6697 16.4217C12.9886 17.4728 14.3644 18.1773 16.0141 18.5864C16.1902 18.6301 16.3841 18.675 16.5553 18.7029C16.7461 18.734 16.9308 18.7686 17.1209 18.7953C17.314 18.8223 17.5103 18.8544 17.7203 18.8544C17.6401 18.9727 17.3513 19.1876 17.2231 19.275C16.3707 19.8564 15.7683 20.1925 14.8148 20.5614C14.3612 20.7369 13.8801 20.8772 13.3906 20.9777C13.1329 21.0305 12.8606 21.0813 12.5927 21.1197C10.1311 21.473 8.05104 20.934 6.40308 20.1202C5.76532 19.8052 4.98943 19.3022 4.45034 18.8488L3.72403 18.1893C3.47451 17.933 3.08107 17.478 2.87353 17.2058C2.64952 16.9122 2.31355 16.416 2.13498 16.0931C2.07741 15.9889 2.03207 15.9038 1.97807 15.8014C1.70641 15.2855 1.46286 14.7393 1.28333 14.18C1.13238 13.71 1.01003 13.2266 0.920696 12.6957C0.877569 12.4392 0.850712 12.1529 0.815479 11.8876L0.772641 10.9992C0.772641 9.03004 1.39374 7.01269 2.47884 5.40766C2.76167 4.98944 2.79786 4.93786 3.11852 4.5322C3.21844 4.40583 3.75618 3.81737 3.85812 3.73696C3.92686 3.68272 3.954 3.6576 4.01619 3.59546C4.04401 3.56758 4.06201 3.54693 4.09243 3.52191C4.13392 3.48765 4.14441 3.4867 4.1861 3.44702C4.41049 3.23358 4.59513 3.06848 4.83983 2.88339C4.95448 2.79671 5.06451 2.71896 5.18696 2.63084C5.6629 2.28847 6.2273 2.00432 6.75444 1.74188C6.89547 1.67175 7.034 1.61303 7.18292 1.55118C7.95236 1.23164 9.32664 0.835971 10.1691 0.835971C10.1504 0.905151 9.96912 1.10346 9.92127 1.16817C9.83685 1.28226 9.76012 1.39274 9.67926 1.50598C9.12468 2.28314 8.80171 2.79994 8.40972 3.76903C7.9462 4.91493 7.58925 6.31623 7.58925 7.63007H7.58935ZM11.4785 22.0001H10.721C10.1521 21.9817 9.5905 21.9216 9.05325 21.8188C8.85523 21.781 8.68225 21.739 8.49482 21.7007C7.89364 21.5781 7.03034 21.2784 6.47239 21.0009C6.38585 20.9579 6.31461 20.9328 6.22739 20.8895C5.77947 20.6669 5.34339 20.4203 4.92676 20.1462C4.48529 19.8558 4.24655 19.6501 3.85832 19.3411C3.48019 19.0401 3.14249 18.6973 2.81115 18.3473C2.56076 18.0829 2.34455 17.7863 2.13623 17.4881C2.08685 17.4174 2.04411 17.3568 1.99684 17.2909C1.80874 17.0289 1.62073 16.7494 1.45189 16.4707C1.1036 15.8962 0.817115 15.2535 0.601097 14.6128C0.490296 14.2842 0.37574 13.9096 0.303734 13.5665C0.083384 12.5161 0.00088501 11.8748 0.00088501 10.7201C0.00088501 9.6028 0.284578 8.21863 0.689564 7.1755L0.891239 6.66755C1.08454 6.18262 1.3407 5.72282 1.61217 5.27672C1.7944 4.97725 1.97277 4.71462 2.17984 4.4419C2.23558 4.36853 2.28246 4.31001 2.33589 4.24244C2.38845 4.17593 2.44216 4.11817 2.49732 4.04842L2.66155 3.85705C2.9439 3.52314 3.3818 3.12662 3.70574 2.80451C3.78063 2.73 3.81856 2.70259 3.89913 2.64198C3.96132 2.59516 4.0314 2.53445 4.09185 2.47878C4.39981 2.1954 4.7583 1.97045 5.1114 1.73683C6.28082 0.963103 7.81124 0.404239 9.20092 0.176525L10.1488 0.0526292C10.5061 0.0228447 11.4498 -0.158146 11.4498 0.389299C11.4498 0.704272 11.3652 0.66364 11.1782 0.902582L10.7154 1.43166C10.4101 1.818 10.149 2.14716 9.8948 2.57499L9.5443 3.19637C9.39769 3.43436 9.13633 4.02101 9.03246 4.30982C9.00261 4.3927 8.97556 4.46473 8.94534 4.5401C8.57558 5.46142 8.26965 7.20272 8.37766 8.15392C8.38999 8.26202 8.37073 8.37412 8.38556 8.48117C8.41164 8.66901 8.41665 8.89216 8.44235 9.09513C8.60928 10.4136 8.99126 11.719 9.6833 12.857C9.89181 13.1999 10.1036 13.5445 10.3416 13.8629L11.0036 14.6977C11.0376 14.7377 11.0459 14.7442 11.081 14.7886C11.2569 15.0111 11.366 15.0349 11.5699 15.2918C11.6596 15.4049 11.8264 15.5022 11.9345 15.6016C12.5215 16.1411 13.3249 16.637 14.0484 17.0113C14.9682 17.4872 15.8964 17.7853 16.9244 17.9843C17.2129 18.0402 17.5329 18.0584 17.8279 18.0964C18.2548 18.1514 19.0007 18.019 19.0007 18.5752C19.0007 18.6876 18.966 18.7737 18.9174 18.8466C18.8292 18.9787 18.6003 19.1483 18.4679 19.2584C18.4265 19.2929 18.4165 19.2943 18.3746 19.3337C18.3142 19.3905 18.2484 19.4429 18.1804 19.4953C17.5138 20.0099 16.8378 20.4843 16.0758 20.8585C15.99 20.9005 15.9319 20.9233 15.8434 20.9638L14.8607 21.3699C13.8319 21.7498 12.6554 21.9624 11.4785 22L11.4785 22.0001Z" fill="#020202"/>
</svg>
