<svg width="16" height="23" viewBox="0 0 16 23" fill="none" xmlns="http://www.w3.org/2000/svg">
<path fill-rule="evenodd" clip-rule="evenodd" d="M5.2382 19.3667C5.2382 18.498 5.69191 17.8524 6.38978 17.4952C6.94318 17.2118 7.68625 17.2106 8.24472 17.4782C8.67308 17.6839 9.00934 18.0123 9.22014 18.4319C9.61343 19.2163 9.43094 20.1589 8.78671 20.7921C7.98872 21.5772 6.64409 21.5508 5.86004 20.7826C5.55123 20.4802 5.2382 19.9623 5.2382 19.3662V19.3667ZM9.41868 17.4398C9.28097 17.3494 9.1196 17.149 8.82558 16.969C8.59366 16.8269 8.37399 16.7327 8.07701 16.6501C7.92578 16.608 7.78933 16.5956 7.61908 16.572C7.53671 16.5609 7.46067 16.5638 7.37914 16.5522C7.27818 16.5377 7.23171 16.5629 7.12948 16.5642C6.30825 16.5753 5.51998 17.0759 5.05022 17.6848C4.31813 18.6347 4.32616 20.0255 5.06163 20.98C5.37128 21.3819 5.79456 21.7255 6.29051 21.8998C6.40752 21.9411 6.63944 22.0337 6.79068 22.0337L6.74928 22.0514C6.38344 22.1861 6.0024 22.2026 5.60784 22.2588C5.5073 22.2732 5.41774 22.26 5.31847 22.2679C5.22976 22.2749 5.17568 22.2881 5.05824 22.2873C4.93489 22.2864 4.90321 22.2662 4.7807 22.2662C4.43937 22.267 4.0672 22.2051 3.77318 22.1419C3.4517 22.0725 3.17542 21.9808 2.8945 21.8717C2.16325 21.5884 1.37413 21.0432 1.01717 20.3398C0.571914 19.4625 0.704139 18.6628 1.28711 17.8979C1.55071 17.5522 1.91781 17.2932 2.28703 17.0656C2.47924 16.9471 2.69088 16.8636 2.90126 16.7711C3.11459 16.6773 3.36467 16.6026 3.60462 16.5443C3.83781 16.4878 4.11578 16.4295 4.38065 16.4076C4.50992 16.3969 4.67298 16.3828 4.75958 16.3308C5.06881 16.1449 4.94334 15.6687 4.56019 15.6687C4.27124 15.6687 3.89104 15.7414 3.63589 15.7967C2.68962 16.0024 1.83459 16.4018 1.13123 17.007C1.05688 17.071 0.926347 17.1969 0.863403 17.2705C0.4511 17.7521 0.0417518 18.4162 0.0214746 19.075C0.0180951 19.1853 0.0028872 19.2134 0.000352553 19.3084C-0.00302698 19.4199 0.01894 19.4497 0.0214746 19.5612C0.0349928 20.1143 0.31085 20.6471 0.610361 21.0684C0.648381 21.1217 0.682174 21.1584 0.724418 21.2096C2.35082 23.1749 5.73711 23.445 7.87804 22.3967C8.08081 22.2972 8.24599 22.2142 8.42637 22.0956C8.92443 21.7689 9.4115 21.3625 9.71524 20.8449C9.90745 20.5178 10.117 20.073 10.1529 19.5992C10.1918 19.0854 10.174 18.4914 10.174 17.9458V1.20649C10.2348 1.22219 10.4587 1.43532 10.5175 1.49356C10.7278 1.70214 10.9724 1.88099 11.1845 2.08668L12.5143 3.27789C12.5815 3.3287 12.617 3.37454 12.6766 3.43072C12.7175 3.46913 12.7247 3.46954 12.7644 3.50052C12.9157 3.61865 13.0339 3.76817 13.1881 3.88465C13.3926 4.03912 13.6482 4.30636 13.8518 4.48149C13.8915 4.51577 13.9016 4.51577 13.9409 4.55006L14.5281 5.08536C14.5898 5.1436 14.6333 5.16714 14.6979 5.23075L15.3645 5.8247C15.7076 6.15018 16.2158 5.69831 15.9015 5.33855C15.8318 5.25883 15.7752 5.23157 15.7025 5.16342C15.1343 4.62853 14.5302 4.13123 13.9616 3.59552L13.7622 3.42039C13.6946 3.35389 13.6427 3.32456 13.5726 3.25517C13.54 3.22296 13.5172 3.19735 13.483 3.16761L10.6395 0.633604C10.5652 0.577431 10.5259 0.521257 10.457 0.462193L10.2585 0.28665C10.2146 0.244933 10.2036 0.244107 10.1596 0.208173C10.0435 0.113173 9.98222 0 9.7955 0C9.6392 0 9.50233 0.104499 9.45628 0.213129C9.38024 0.392389 9.417 1.60177 9.417 1.84877V17.4398H9.41868Z" fill="black"/>
</svg>
