<svg width="26" height="38" viewBox="0 0 26 38" fill="none" xmlns="http://www.w3.org/2000/svg">
<path fill-rule="evenodd" clip-rule="evenodd" d="M8.50587 31.9929C8.50587 30.552 9.23684 29.4871 10.3711 28.8982C11.2659 28.4346 12.4758 28.4221 13.3832 28.8732C14.0764 29.2114 14.6309 29.7502 14.9712 30.4518C15.614 31.7423 15.3115 33.3084 14.2654 34.3483C12.9673 35.6388 10.787 35.6012 9.51411 34.3358C9.00999 33.8346 8.50587 32.9827 8.50587 31.9929ZM15.2989 28.8105C15.072 28.6602 14.8074 28.3344 14.3411 28.0337C13.963 27.7957 13.6101 27.6453 13.1186 27.5075C12.8791 27.4323 12.6523 27.4198 12.375 27.3822C12.2364 27.3697 12.1229 27.3697 11.9843 27.3446C11.8205 27.3196 11.7448 27.3571 11.581 27.3697C10.2451 27.3822 8.97218 28.2091 8.2034 29.224C7.01871 30.7901 7.03132 33.0954 8.216 34.6616C8.72012 35.3256 9.40068 35.8894 10.2073 36.1776C10.3963 36.2402 10.7744 36.4031 11.0139 36.4031L10.9509 36.4281C10.3585 36.6537 9.74096 36.6787 9.09821 36.7664C8.93437 36.7915 8.79574 36.7664 8.6319 36.779C8.49326 36.7915 8.40504 36.8165 8.2034 36.8165C8.00175 36.8165 7.95133 36.779 7.74969 36.779C7.19515 36.779 6.59021 36.6787 6.1113 36.5785C5.59457 36.4657 5.14086 36.3154 4.68716 36.1274C3.50247 35.6639 2.21697 34.7618 1.63723 33.5966C0.918858 32.1432 1.13311 30.8277 2.07833 29.5623C2.50684 28.9859 3.09918 28.5599 3.70412 28.1841C4.0192 27.9836 4.35948 27.8458 4.69976 27.6954C5.05264 27.5451 5.45594 27.4198 5.84663 27.3196C6.22472 27.2319 6.67843 27.1316 7.10693 27.094C7.32118 27.0815 7.58585 27.0565 7.72448 26.9688C8.2286 26.6555 8.02695 25.8787 7.3968 25.8787C6.93049 25.8787 6.31294 26.004 5.89705 26.0917C4.35948 26.43 2.97315 27.094 1.82627 28.0964C1.70024 28.1966 1.4986 28.4096 1.38517 28.5349C0.71721 29.3242 0.0492508 30.4268 0.0114418 31.5168C0.0114418 31.7047 -0.0137642 31.7423 -0.0263672 31.9052C-0.0263672 32.0931 -0.00116118 32.1432 0.0114418 32.3186C0.0366478 33.2332 0.477753 34.1103 0.96927 34.8119C1.03229 34.8996 1.0827 34.9622 1.15832 35.05C3.80495 38.295 9.29986 38.746 12.7783 37.0045C13.106 36.8416 13.3706 36.7038 13.6731 36.5033C14.4797 35.9646 15.2737 35.288 15.7652 34.436C16.0803 33.8973 16.4206 33.1581 16.471 32.3813C16.534 31.5293 16.5088 30.552 16.5088 29.65V1.99846C16.6096 2.02352 16.9751 2.37433 17.0633 2.47456C17.4036 2.82537 17.8069 3.11354 18.1472 3.45182L20.3023 5.41887C20.4157 5.50658 20.4661 5.58175 20.5669 5.66945C20.63 5.7321 20.6426 5.7321 20.7056 5.78222C20.9576 5.98268 21.1467 6.22073 21.3987 6.42119C21.7264 6.67177 22.1423 7.12282 22.4826 7.41098C22.5456 7.4611 22.5582 7.47363 22.6338 7.52375L23.5917 8.41331C23.6925 8.51354 23.7681 8.55112 23.8689 8.65136L24.9528 9.62862C25.5073 10.1674 26.3391 9.41562 25.8224 8.82676C25.709 8.68894 25.6207 8.65136 25.4947 8.5386C24.5747 7.64904 23.5917 6.83465 22.6716 5.94509L22.344 5.65693C22.2305 5.54417 22.1549 5.49405 22.0415 5.38129C21.9911 5.33117 21.9533 5.28106 21.8903 5.23094L17.265 1.04625C17.1389 0.958551 17.0759 0.85832 16.9625 0.758088L16.6348 0.469921C16.5592 0.407276 16.5466 0.394747 16.471 0.344631C16.2819 0.181754 16.1811 0.00634766 15.8786 0.00634766C15.6266 0.00634766 15.3997 0.181754 15.3241 0.35716C15.1981 0.657856 15.2611 2.64997 15.2611 3.06342V28.823L15.2989 28.8105Z" fill="url(#paint0_linear)"/>
<defs>
<linearGradient id="paint0_linear" x1="12.9793" y1="0.00634766" x2="12.9793" y2="38.007" gradientUnits="userSpaceOnUse">
<stop stop-color="#3001FF"/>
<stop offset="1" stop-color="#3301FF"/>
</linearGradient>
</defs>
</svg>
