<svg width="23" height="27" viewBox="0 0 23 27" fill="none" xmlns="http://www.w3.org/2000/svg">
<path fill-rule="evenodd" clip-rule="evenodd" d="M9.4179 24.1511C9.4179 23.5375 9.63683 23.0482 10.0357 22.6426C10.1742 22.5017 10.2843 22.4025 10.4619 22.3043C10.6417 22.205 10.8117 22.1211 11.0343 22.0751C11.6231 21.9533 12.1649 22.0427 12.6599 22.3781C12.7146 22.4152 12.7586 22.4464 12.8068 22.4861C12.8638 22.5331 12.886 22.5638 12.9515 22.6158C13.0854 22.7221 13.3022 23.0668 13.3812 23.2276C13.7098 23.896 13.6286 24.7101 13.2243 25.3305C13.1524 25.4408 13.0828 25.5197 12.9934 25.6102C12.6491 25.9592 12.1578 26.2482 11.6362 26.2482C11.2102 26.2482 10.9771 26.2397 10.5787 26.0374C9.9237 25.7049 9.4179 25.0034 9.4179 24.1511ZM9.16492 2.88256C8.95909 2.89995 8.08475 3.31296 7.93254 3.39034C7.17198 3.77695 6.487 4.26813 5.85224 4.83645C5.77452 4.90608 5.71659 4.98558 5.63717 5.05302L4.52973 6.36049C4.38398 6.58286 4.23138 6.80107 4.10574 7.0373C4.07801 7.08946 4.05436 7.12338 4.02763 7.17554C3.55733 8.09492 3.24026 9.01241 3.15329 10.0852C3.13219 10.345 3.15229 10.7038 3.15229 10.9744C3.15229 13.342 3.15229 15.7096 3.15229 18.0772C3.15229 18.5969 3.24003 18.4924 2.97234 18.7647L0.131034 21.6529C0.0472986 21.7367 0 21.8127 0 21.9748V24.1313C0 24.3257 0.157919 24.5072 0.350272 24.5072H8.71743C8.71743 25.0143 9.07964 25.7168 9.42298 26.065C10.0054 26.6557 10.5935 27 11.5973 27C11.914 27 12.1843 26.9391 12.4618 26.8304C12.5624 26.791 12.6259 26.7612 12.7095 26.7261C12.9259 26.6352 13.1665 26.4792 13.3342 26.3128L13.6737 25.9655C13.8406 25.766 13.962 25.5446 14.0753 25.3054C14.5129 24.3814 14.3459 23.1174 13.6929 22.3369C13.6347 22.2674 13.5919 22.2114 13.5286 22.1478C13.0444 21.661 12.388 21.2823 11.6362 21.2823C11.0925 21.2823 10.808 21.3307 10.3407 21.5281C10.05 21.6508 9.81639 21.8385 9.57936 22.04C9.17601 22.3829 8.71743 23.2255 8.71743 23.7555H0.739446V22.1133C0.739446 22.0489 1.14326 21.6731 1.21135 21.6039L3.6923 19.0814C3.95668 18.8128 3.89174 18.7457 3.89174 18.2752L3.89158 10.2029C3.88997 9.88918 3.95352 9.57055 4.00683 9.31106C4.1706 8.51419 4.47704 7.82587 4.88031 7.17209C5.00457 6.97057 5.14276 6.76332 5.2842 6.57369C5.45205 6.34875 5.64772 6.09427 5.84207 5.89446C6.36151 5.36068 6.72049 5.06085 7.32451 4.61213C7.37866 4.57187 7.41425 4.55628 7.46833 4.52096L7.93993 4.22889C8.37086 3.97464 8.84623 3.77202 9.31814 3.61216C9.53691 3.53806 9.88156 3.51049 9.90429 3.19915C9.93009 2.84528 9.8848 2.63341 9.95428 2.241C10.0476 1.71372 10.2477 1.24714 10.6959 0.976922C11.1699 0.691193 11.8294 0.654537 12.3059 0.975121C12.512 1.11376 12.6665 1.26837 12.7958 1.48603C12.9138 1.68451 13.0038 1.9642 13.0486 2.23803C13.1582 2.90809 12.9635 3.32204 13.2993 3.48676L14.0379 3.74484C14.1742 3.79778 14.2694 3.84165 14.3967 3.89452L14.7302 4.04999C15.2677 4.32444 15.7727 4.67048 16.2482 5.039C16.2969 5.07675 16.3213 5.10314 16.3758 5.14669C16.6538 5.3689 16.8968 5.63262 17.1479 5.88506C17.4084 6.14674 17.7076 6.55364 17.9213 6.85958C18.1341 7.16442 18.3052 7.48187 18.4727 7.82235C18.5325 7.94399 18.5723 8.0303 18.6285 8.15852C18.7882 8.52273 18.9171 8.90088 18.9966 9.30769C19.0415 9.53789 19.1433 10.1315 19.1143 10.4057C19.0835 10.6968 19.1278 11.764 19.1278 12.1618L19.127 18.7112C19.1264 18.9336 19.1768 18.9488 19.2882 19.0616L22.0221 21.8414C22.0707 21.8907 22.2605 22.0498 22.2605 22.1134V23.7556H18.2131C17.5685 23.7556 17.7035 24.5074 18.0769 24.5074H22.6497C22.858 24.5074 23 24.3308 23 24.1117V21.9354C23 21.7164 22.7649 21.548 22.6449 21.4259L20.0277 18.7649C19.9873 18.7238 19.9619 18.6972 19.9201 18.6568C19.865 18.6034 19.8515 18.6113 19.8462 18.5142C19.8389 18.3744 19.8477 18.2015 19.8477 18.0577C19.8477 15.6901 19.8477 13.3225 19.8477 10.9549C19.8477 10.6687 19.8566 10.3681 19.8483 10.0837C19.8406 9.82182 19.7882 9.55716 19.7451 9.29845C19.6047 8.45607 19.2026 7.50145 18.7424 6.77656C18.5123 6.41415 18.2776 6.07516 18.0051 5.74549C17.962 5.69332 17.9558 5.67837 17.9066 5.62808C17.858 5.57842 17.8518 5.55845 17.8093 5.50942C17.6093 5.27844 17.3738 5.0632 17.158 4.84608L16.9291 4.64361C16.6811 4.44929 16.4457 4.23601 16.1819 4.0579C15.64 3.69197 15.0887 3.36457 14.48 3.11738C14.3827 3.0779 14.2826 3.03224 14.1734 2.99386C14.0763 2.95971 13.9284 2.89063 13.8351 2.8828C13.8351 2.09376 13.6754 1.33737 13.1886 0.770222L12.945 0.523266C12.7039 0.304348 12.4185 0.174328 12.0967 0.079947C11.5468 -0.0813236 10.9438 0.01204 10.4428 0.264481C10.2892 0.341865 10.0007 0.534306 9.89289 0.674821C9.61202 1.0406 9.47459 1.17696 9.31359 1.72798C9.22077 2.04558 9.16507 2.48131 9.16507 2.8828L9.16492 2.88256Z" fill="black"/>
</svg>
