<svg width="41" height="23" viewBox="0 0 41 23" fill="none" xmlns="http://www.w3.org/2000/svg">
<path fill-rule="evenodd" clip-rule="evenodd" d="M30.6592 12.3333C30.1971 12.3333 29.7289 12.2039 29.3895 12.0386C29.3489 12.0187 29.3176 11.9992 29.2801 11.9802C27.7284 11.1956 27.3049 9.04321 28.476 7.76174C30.2777 5.79009 33.265 7.0376 33.4868 9.22998C33.4925 9.28492 33.4873 9.33586 33.492 9.38979C33.5094 9.60853 33.5258 9.41626 33.494 9.70092C33.4879 9.75585 33.493 9.80629 33.4889 9.86073C33.4822 9.94962 33.4565 10.069 33.436 10.1629C33.361 10.5075 33.2024 10.8431 33.0016 11.1287C32.4866 11.8633 31.5799 12.3333 30.6587 12.3333H30.6592ZM0.00308372 16.6636C0.00308372 17.6719 0.0800945 18.4285 0.380977 19.3085C0.807656 20.5555 1.56705 21.4988 2.7141 22.1461C3.18031 22.4093 4.05883 22.6884 4.79409 22.6884C5.34451 22.6884 5.89443 22.6485 6.39145 22.5241C6.77397 22.4282 7.10156 22.3069 7.43479 22.174L7.89586 21.9638C8.33435 21.7141 8.78618 21.4664 9.19746 21.1822C9.74172 20.8062 10.2526 20.4166 10.763 19.9986C10.8877 19.8962 11.0105 19.7669 11.1332 19.676C11.47 19.4258 12.7254 18.2103 13.0869 17.8577C13.1603 17.7858 13.2096 17.7633 13.2815 17.6939C13.514 17.4701 13.7379 17.2209 13.9828 17.0112L14.3618 16.6976C15.1299 16.1592 16.0782 16.0109 17.0199 15.894C17.2366 15.8671 17.4651 15.8815 17.6771 15.8506C17.8984 15.8181 18.1418 15.8481 18.3692 15.8416C18.4956 15.8381 18.5341 15.8161 18.6825 15.8166L20.4251 15.8406C21.1126 15.8406 21.7971 15.7862 22.4589 15.8396C22.6771 15.8571 22.941 15.8206 23.1557 15.8441C23.3569 15.8661 23.5921 15.8736 23.8108 15.889C24.0039 15.903 24.2329 15.936 24.4341 15.9649C25.172 16.0698 25.8934 16.2816 26.4838 16.6781C26.7632 16.8659 26.9757 17.0936 27.2181 17.3288L28.6347 18.6812C28.9392 18.9289 29.4352 19.4413 29.7129 19.6565L31.2549 20.8866C31.3966 20.9904 31.5188 21.0708 31.6625 21.1722C32.0009 21.4114 32.3552 21.6117 32.712 21.8225L33.4216 22.1675C34.3617 22.5411 34.9994 22.6884 36.0797 22.6884C37.4691 22.6884 38.7897 21.9548 39.5748 20.981C40.4107 19.9432 40.8708 18.5588 40.8708 17.1345C40.8708 16.5937 40.8477 15.9844 40.7809 15.48C40.6074 14.1711 40.4867 13.443 40.2192 12.143C40.0451 11.2965 39.7971 10.438 39.5183 9.62401C39.4501 9.42525 39.4413 9.31538 39.278 9.19852C39.0911 9.06468 38.3348 9.1326 38.0149 9.1326C37.9046 9.1326 34.4665 9.15657 34.39 9.1286C34.3006 9.09564 34.334 8.98677 34.3114 8.87541C34.2714 8.67914 34.2293 8.5463 34.1712 8.3765C34.0034 7.88459 33.7615 7.55848 33.4427 7.15596C33.0853 6.7045 32.3757 6.29648 31.8427 6.12319C30.7855 5.7796 29.79 5.91594 28.8206 6.40236C28.7215 6.4523 28.6388 6.51323 28.5402 6.57665C28.339 6.70649 28.206 6.82435 28.0406 6.98516C26.9603 8.03591 26.5794 9.7169 27.2802 11.0783C27.5965 11.6935 27.9816 12.1405 28.5407 12.5355C29.4963 13.2107 31.0002 13.374 32.0872 12.8981C32.5585 12.6918 32.769 12.533 33.1485 12.2359C33.7338 11.7774 34.3376 10.7302 34.3376 9.98009H38.6691C38.7774 9.98009 38.8016 10.2258 38.8298 10.3182C39.1101 11.2376 39.3422 12.1645 39.5384 13.1118C39.7129 13.9563 39.8439 14.8353 39.9296 15.6968C40.0631 17.0442 40.041 18.2942 39.468 19.5352C39.1718 20.1769 38.9289 20.4411 38.4334 20.9295C38.3502 21.0114 38.2368 21.0938 38.1402 21.1622C37.6057 21.5443 36.871 21.8409 36.0797 21.8409C35.041 21.8409 34.3669 21.6906 33.531 21.2841C33.2049 21.1253 32.9436 20.985 32.6483 20.8012C32.1195 20.4716 31.1696 19.8094 30.7019 19.3759C30.6315 19.3109 30.5868 19.2885 30.5201 19.2231C30.4872 19.1911 30.4708 19.1711 30.4349 19.1417L29.2626 18.0934C29.1399 17.974 29.0347 17.8717 28.912 17.7523L27.1703 16.1277C27.0317 16.0174 26.9172 15.9365 26.7601 15.8446C25.9601 15.3761 25.0693 15.1969 24.1415 15.073C23.626 15.0046 21.8689 14.9382 21.5075 14.9861L19.3879 14.9891C18.8997 14.9357 18.7918 14.9951 18.417 14.9926L17.3999 15.0151C17.2797 15.0186 17.2294 15.0356 17.0856 15.039C16.8001 15.046 16.4397 15.098 16.1599 15.1504C14.102 15.538 13.6388 16.1382 12.3254 17.4222C12.2545 17.4916 12.2119 17.5101 12.1431 17.5745L10.6567 18.9529C10.6156 18.9863 10.5971 19.0103 10.5591 19.0463L10.0144 19.5047C9.95121 19.5597 9.88446 19.6131 9.81668 19.6655C9.30221 20.0611 8.79081 20.4406 8.23987 20.7912C7.40192 21.3245 6.29851 21.8404 5.18124 21.8404C4.36074 21.8404 3.73587 21.752 3.08995 21.38C2.67149 21.1383 2.65609 21.0923 2.31567 20.8152C2.00298 20.561 1.58451 19.9527 1.42072 19.5676C1.33805 19.3734 1.24872 19.1976 1.18556 18.9963C0.641306 17.2544 0.91138 15.5529 1.2097 13.7885C1.28569 13.3396 1.3817 12.8866 1.47309 12.4681C1.56859 12.0331 1.66871 11.5772 1.7904 11.1767C2.15546 9.98059 2.52567 8.78651 3.05144 7.64887C3.20394 7.31876 3.39135 6.86231 3.57927 6.56217C3.63216 6.47727 3.66502 6.40935 3.71277 6.31546L4.47421 5.05547C4.74326 4.66543 5.02516 4.2739 5.32912 3.91033C5.39433 3.83243 5.4431 3.766 5.51293 3.6891L6.31186 2.86558C7.25815 1.94518 8.92174 0.847488 10.7943 0.847488C12.3526 0.847488 13.1115 1.3374 14.427 1.85628C14.6098 1.9282 14.7597 2.00611 14.9456 2.08152C15.1232 2.15293 15.2973 2.23283 15.4642 2.30625L15.9791 2.512C16.1691 2.58591 16.3226 2.64384 16.5183 2.71676C16.8941 2.85709 17.2489 2.96196 17.6499 3.07533C19.7854 3.67961 22.2966 3.50282 24.3366 2.72375L27.7459 1.30944C28.5726 1.02428 29.1158 0.847488 30.078 0.847488C31.3483 0.847488 32.5641 1.3389 33.4796 1.98713C33.6372 2.09899 33.7697 2.22634 33.9982 2.19138C34.2991 2.14494 34.6041 1.73343 34.0598 1.35189C32.8465 0.500902 31.5321 0.000499511 29.908 0.000499511C28.0216 0.000499511 26.4438 0.991816 24.7746 1.64404C23.3369 2.20637 22.1175 2.57243 20.4436 2.5964C18.8314 2.61937 17.5174 2.22484 16.1301 1.65802C16.0264 1.61557 15.956 1.5886 15.8564 1.54715L14.8013 1.0907C13.5099 0.503899 12.3603 0 10.7928 0C9.7258 0 8.71482 0.316123 7.99393 0.666704C7.60679 0.854979 7.25251 1.06523 6.89669 1.29396C6.38118 1.62606 5.92112 2.04306 5.48725 2.46506C4.9738 2.96446 4.5266 3.51081 4.09992 4.08113L3.25322 5.37558C2.46405 6.67304 1.87872 8.08784 1.38889 9.51614C0.930891 10.8525 0.606387 12.1585 0.35993 13.5988C0.277265 14.0817 0.208458 14.5601 0.138116 15.0775C0.0734206 15.5529 0 16.1218 0 16.6611L0.00308372 16.6636Z" fill="black"/>
<path fill-rule="evenodd" clip-rule="evenodd" d="M9.8026 6.28491V9.13251H6.99556C6.73215 9.13251 6.55655 9.26586 6.50418 9.4801C6.45437 9.68336 6.64076 9.95653 6.85076 9.95653H9.8026V12.7807C9.8026 13.2736 10.6493 13.3615 10.6493 12.7102V9.95653H13.577C13.9934 9.95653 14.1865 9.13301 13.4076 9.13301H10.6493V6.40277C10.6493 5.73607 9.8026 5.86841 9.8026 6.28491Z" fill="black"/>
</svg>
