<svg width="32" height="23" viewBox="0 0 32 23" fill="none" xmlns="http://www.w3.org/2000/svg">
<path fill-rule="evenodd" clip-rule="evenodd" d="M6.75406 20.9022C6.12954 20.9022 5.65867 20.7004 5.30883 20.3588C5.21383 20.2661 5.175 20.224 5.09115 20.1165C4.64052 19.5366 4.60169 18.7963 4.89908 18.137C5.16963 17.5374 5.9098 17.0466 6.69581 17.0466C7.12249 17.0466 7.50414 17.1805 7.82135 17.3903C7.97914 17.4949 8.21003 17.7171 8.31948 17.8703C8.39053 17.9698 8.4496 18.0688 8.50082 18.1855C8.74244 18.7362 8.73666 19.201 8.50907 19.752C8.40003 20.0159 8.20756 20.2417 7.99525 20.4249C7.9333 20.4783 7.92957 20.4859 7.85564 20.5352L7.55206 20.7133C7.35339 20.8079 7.04938 20.9018 6.75365 20.9018L6.75406 20.9022ZM29.6333 23H29.3516H29.2937H18.1602C17.6769 23 16.337 22.9763 15.974 22.996C15.9455 22.9972 15.917 22.9988 15.8885 23H13.7758H13.7419C10.0307 23 6.31954 23 2.60835 23C1.78888 23 1.2321 22.9972 0.731495 22.6679C0.244519 22.3471 0 21.8274 0 21.2234V3.93099C0 3.70039 0.261044 3.5488 0.394043 3.42568C0.543565 3.28732 0.72943 3.16981 0.907038 3.05431C1.13793 2.90392 1.8843 2.53617 2.16062 2.51371C2.16062 2.20251 2.09742 1.89651 2.26884 1.73048C2.34525 1.65629 2.74342 1.48745 2.86114 1.43612C3.5757 1.12451 4.2535 0.860229 5.03456 0.636048C5.6661 0.454778 6.29475 0.312009 6.99651 0.197311C7.64044 0.092239 8.52188 0 9.1877 0C10.2657 0 10.5669 0.010427 11.6614 0.11189C12.9753 0.233806 14.416 0.585517 15.6844 0.930411C16.0578 1.03187 15.9261 1.05714 16.3626 0.919182C16.482 0.881484 16.5865 0.854614 16.7092 0.820927C17.4762 0.611184 18.078 0.48606 18.8537 0.332863C19.6653 0.172447 21.1089 0.000401039 22.0345 0.000401039C23.0581 0.000401039 23.3873 0.000802078 24.3914 0.112291C24.5657 0.131541 24.716 0.150791 24.8874 0.178863C25.2216 0.233405 25.5214 0.282332 25.8374 0.352112C27.0063 0.610783 28.5119 1.09644 29.606 1.64426C29.9166 1.79986 29.8394 2.0052 29.8394 2.51371C29.9695 2.51652 30.4028 2.69218 30.5143 2.74672C30.5758 2.7768 30.6196 2.79043 30.6762 2.8161C30.8398 2.88989 31.2082 3.11888 31.3602 3.22917C31.5378 3.3583 32 3.69036 32 3.91214V21.2988C32 21.8835 31.6972 22.4213 31.2107 22.7056C30.7551 22.9719 30.2813 22.9976 29.6341 22.9996L29.6333 23ZM16.3498 19.4849C16.3498 16.4903 16.3693 13.5507 16.3693 10.5646C16.3693 7.58485 16.3693 4.60513 16.3693 1.62541L17.0037 1.44775C17.9909 1.20793 18.655 1.03468 19.7058 0.877474C20.2275 0.799271 20.8218 0.742725 21.353 0.700214L23.0655 0.67936L23.7544 0.728688C23.8267 0.738714 23.8974 0.737511 23.9688 0.747537C24.5681 0.829349 24.7941 0.840177 25.4541 0.96851C26.5322 1.17785 27.4499 1.47302 28.4483 1.87887C28.5631 1.92539 28.6849 1.97191 28.7878 2.02164L29.138 2.17283V19.4652L28.4499 19.2639C28.2091 19.1965 27.9675 19.1288 27.7329 19.0718C24.6578 18.3299 21.7359 18.3082 18.6224 18.9122C18.3205 18.9708 16.6006 19.367 16.3503 19.4841L16.3498 19.4849ZM4.0094 19.1448C3.94373 19.15 3.7785 19.1998 3.7149 19.2182L3.14531 19.3834C3.06146 19.4103 2.94375 19.4596 2.86114 19.4664V2.17403C2.92971 2.15879 2.95779 2.13393 3.02512 2.10666C3.46625 1.9282 3.73473 1.79385 4.24607 1.60977C5.24398 1.25084 6.31045 0.974525 7.37362 0.828948C8.67842 0.650486 10.2116 0.6176 11.5367 0.781224C12.8795 0.946854 14.0195 1.16662 15.3011 1.52916L15.6299 1.62581C15.6299 7.59929 15.6493 13.5134 15.6493 19.4849C15.5601 19.4436 15.3755 19.3975 15.2644 19.3674C15.1434 19.3345 14.9934 19.2964 14.8687 19.2603L14.0616 19.061C13.7328 18.9916 12.6634 18.7478 12.3405 18.7478C11.9592 18.7478 11.8679 19.3245 12.2987 19.4115C12.8543 19.5242 13.3239 19.5807 13.9364 19.7303L15.4808 20.1394C16.043 20.3002 15.8798 20.3419 16.4151 20.1719C18.9458 19.3694 21.9974 18.9748 24.7032 19.2547C26.3376 19.4235 27.1406 19.6 28.6969 20.0447C29.0579 20.1478 29.2566 20.2781 29.5465 20.2781C29.6746 20.2781 29.8072 20.1386 29.8315 20.0255C29.86 19.8931 29.8385 3.30657 29.8385 3.21272C29.9236 3.25243 30.0794 3.29093 30.2541 3.37635C30.5597 3.52594 30.7204 3.60735 30.9959 3.80907C31.0554 3.85278 31.0992 3.89008 31.1566 3.9366C31.1954 3.96788 31.2987 4.0501 31.2987 4.10103V21.2799C31.2987 22.0696 30.6712 22.3194 29.936 22.3194H2.04373C1.23045 22.3194 0.700517 22.0126 0.700517 21.2234V4.10143C0.700517 3.99756 1.27547 3.62539 1.35106 3.58008C1.48158 3.50228 1.59806 3.44854 1.73229 3.38277C1.80086 3.34908 1.85414 3.32822 1.93551 3.29654C2.01109 3.26727 2.09743 3.2424 2.16062 3.21272V19.5033C2.16062 19.8482 2.07016 20.2781 2.55012 20.2781C2.64305 20.2781 2.82231 20.1995 2.93713 20.1622C3.06889 20.1197 3.18827 20.0812 3.33573 20.0391L4.14611 19.8057C4.2473 20.228 4.66283 20.7454 5.03002 21.0265C5.50089 21.387 6.03537 21.5823 6.77389 21.5823C7.6169 21.5823 8.44505 21.1083 8.91138 20.445C9.42314 19.7171 9.5359 18.7229 9.14227 17.9032C9.02414 17.657 8.91591 17.5046 8.75111 17.3C8.53633 17.0333 8.12123 16.739 7.78584 16.593C6.94654 16.2276 6.11632 16.3167 5.3336 16.7249C5.25471 16.7662 5.19359 16.8076 5.12213 16.8597C4.56618 17.2671 4.16718 17.8142 4.04864 18.5007C4.01105 18.7181 4.01023 18.8837 4.01023 19.1436L4.0094 19.1448Z" fill="black"/>
</svg>
