<svg width="24" height="23" viewBox="0 0 24 23" fill="none" xmlns="http://www.w3.org/2000/svg">
<path fill-rule="evenodd" clip-rule="evenodd" d="M0.778382 16.478C0.778382 15.9102 0.83624 15.5752 1.18867 15.1053C1.2761 14.9888 1.33752 14.9358 1.43841 14.8375C2.3262 13.9761 3.89597 14.1067 4.64835 15.0932C5.12319 15.7158 5.21377 16.566 4.85641 17.2502C4.03946 18.8149 1.77918 18.7691 0.99631 17.2636C0.892734 17.064 0.777944 16.766 0.777944 16.478H0.778382ZM2.48987 2.80418V9.9358C2.48987 10.2781 2.98262 10.4333 3.20322 10.1747C3.26869 10.0983 3.28707 10.0289 3.3059 9.90734L3.29246 5.50662C3.29246 5.25095 3.27138 5.04572 3.27138 4.77539L3.27228 2.92534C3.27048 2.78823 3.23462 2.74469 3.25883 2.58947C3.27767 2.47091 3.27588 2.37519 3.29785 2.26137C3.34986 1.9919 3.49378 1.70519 3.66058 1.49263C4.18384 0.825217 5.23708 0.509616 6.04641 0.887733C6.53963 1.11797 8.93217 2.46789 9.51328 2.79599C9.71236 2.90852 9.89799 2.99993 10.0921 3.11289C10.8504 3.55438 11.6301 3.96526 12.3982 4.39038C13.1649 4.81463 13.937 5.24405 14.7037 5.6683C14.8006 5.72176 14.8862 5.76444 14.9867 5.82308L16.434 6.62545C16.621 6.73366 16.8138 6.83671 17.0124 6.9432L19.8942 8.5406C19.991 8.59665 20.0812 8.64753 20.1758 8.69668C20.2753 8.74842 20.3722 8.80748 20.4717 8.85922L21.0487 9.17827C21.4433 9.3904 22.1473 9.7573 22.4674 9.98797C22.5638 10.0574 22.623 10.1259 22.7064 10.2053C23.1427 10.6196 23.3041 11.2542 23.1978 11.8466C23.1736 11.9833 23.1409 12.0859 23.0952 12.1946C22.8656 12.7404 22.4984 13.0237 21.9791 13.2953L18.228 15.3773C17.2774 15.9266 16.3009 16.4319 15.3463 16.9747C14.3858 17.521 13.412 18.0336 12.4515 18.5799L8.99407 20.4972C8.1417 20.9887 7.26375 21.4457 6.40824 21.932C6.30646 21.9898 6.21769 22.0437 6.11097 22.0929C5.81011 22.2308 5.48908 22.2688 5.13172 22.2688C4.31611 22.2688 3.53503 21.6195 3.33551 20.8874C3.31578 20.8158 3.305 20.7705 3.29021 20.6869C3.27676 20.6106 3.27901 20.5373 3.26645 20.4455L3.27228 19.1192C3.64936 19.111 4.01839 18.9498 4.32912 18.7942C4.695 18.6113 5.0223 18.319 5.26487 18.0073C5.31823 17.9388 5.36398 17.8745 5.41106 17.8025C5.60162 17.508 5.73838 17.1705 5.79936 16.8148L5.84733 16.3526C5.85226 16.2698 5.83433 16.2844 5.8294 16.193C5.81595 15.9408 5.80024 15.8179 5.74016 15.608C5.69084 15.4347 5.62673 15.2743 5.55409 15.1165C5.42002 14.8241 5.18866 14.5521 4.95729 14.3292C3.58973 13.0099 1.32676 13.3871 0.376197 14.9733C0.133623 15.3786 0.0291447 15.8404 0 16.3185L0.0426049 16.7798C0.167254 17.6227 0.725489 18.3712 1.49043 18.7804C1.72224 18.9045 1.9823 19.0071 2.24908 19.0666C2.60151 19.1451 2.51139 18.9877 2.51139 19.6884C2.51139 20.1833 2.45758 20.5955 2.58357 21.021C2.69746 21.4056 2.85887 21.7273 3.08844 21.9984C3.55834 22.5533 4.3049 23 5.08911 23C5.87916 23 6.20962 22.897 6.82838 22.5391C7.42293 22.1955 8.0426 21.8807 8.6376 21.5358C9.33259 21.1331 10.0603 20.7636 10.7557 20.3627L11.9601 19.6918C12.0655 19.6306 12.1632 19.5827 12.269 19.5215L16.812 17.0023C17.4102 16.6565 18.0231 16.3474 18.6212 15.999L19.2234 15.664C19.3247 15.6054 19.4229 15.5562 19.5328 15.4942L20.8981 14.7345C21.3913 14.4473 22.5159 13.8817 22.8625 13.6368C23.5525 13.1496 24 12.339 24 11.5C24 11.3866 23.9744 11.1986 23.9592 11.0921C23.8404 10.2699 23.3068 9.60899 22.5809 9.18732C22.4795 9.12869 22.3863 9.08385 22.2845 9.02521C22.1791 8.96442 22.0876 8.91139 21.9782 8.85232L19.2548 7.34632C19.1458 7.28424 19.0521 7.23724 18.9459 7.17602L17.1236 6.16498C17.0174 6.10462 16.9335 6.0628 16.8277 6.00244L13.1801 3.98337C13.0775 3.92344 12.9829 3.87127 12.8717 3.81264L11.062 2.81022C10.1589 2.28853 9.22587 1.82074 8.32553 1.29689L7.41441 0.791587C7.21398 0.680782 7.01849 0.572133 6.81268 0.455723C6.27911 0.15392 5.82759 0 5.1734 0C4.35107 0 3.65385 0.419076 3.24493 0.827372C3.20368 0.868762 3.20234 0.877385 3.16916 0.917051C2.98039 1.14168 2.81404 1.37062 2.70105 1.64526C2.5634 1.9794 2.4903 2.33639 2.4903 2.80375L2.48987 2.80418Z" fill="black"/>
</svg>
