<svg width="22" height="21" viewBox="0 0 22 21" fill="none" xmlns="http://www.w3.org/2000/svg">
<path fill-rule="evenodd" clip-rule="evenodd" d="M2.64946 14.0183C2.64946 13.6489 2.78505 13.237 3.01792 12.9753C3.12404 12.856 3.08152 12.8821 3.21794 12.7732C3.26085 12.7391 3.28486 12.7149 3.33335 12.6794C3.42372 12.6131 3.48732 12.5812 3.58774 12.5311C4.32658 12.1621 5.2785 12.4391 5.71632 13.1617C5.74655 13.2116 5.76987 13.2416 5.79299 13.2938C6.08433 13.9516 5.96899 14.6734 5.46078 15.1659C4.90236 15.7071 4.02287 15.7807 3.37408 15.3489C3.15946 15.206 2.90296 14.9247 2.80176 14.6832C2.72503 14.5 2.64946 14.2678 2.64946 14.0183ZM6.01446 6.66277C6.01446 5.92592 6.06326 5.57091 6.2873 4.90167L6.46061 4.48134C6.49404 4.4017 6.51633 4.35897 6.55354 4.28535C6.57435 4.2442 6.58364 4.23091 6.60625 4.1935C7.01128 3.52293 7.06841 3.45899 7.58776 2.94098C7.69408 2.83495 7.95897 2.6256 8.08534 2.5373C8.79868 2.03885 9.80312 1.64181 10.7709 1.64181C11.3581 1.64181 11.5837 1.64282 12.1621 1.7857C12.2412 1.80519 12.3202 1.82393 12.3907 1.84754C12.797 1.98352 13.0368 2.06284 13.4273 2.29421C14.0335 2.65352 14.5798 3.12032 14.9837 3.69802C15.5095 4.44994 15.883 5.4188 15.883 6.35898C15.883 6.91661 15.875 7.17318 15.7375 7.71816C15.67 7.98549 15.6138 8.13444 15.5156 8.37835C15.4821 8.46153 15.4534 8.51008 15.4207 8.58839C15.3579 8.73874 15.2909 8.84154 15.2147 8.9765C15.1749 9.04715 15.1448 9.09178 15.1057 9.15654C15.0264 9.28795 14.8174 9.55301 14.7206 9.67138L14.4229 9.9848C14.3744 10.0327 14.328 10.0855 14.2766 10.128C13.7563 10.5579 13.7744 10.523 13.2068 10.8615C13.0742 10.9406 12.7204 11.0704 12.5712 11.1288C12.4251 11.186 12.271 11.221 12.107 11.2616C11.3285 11.4544 10.3352 11.442 9.57147 11.2061C9.4932 11.1819 9.41513 11.1632 9.33763 11.1334C8.755 10.909 8.17647 10.6339 7.71694 10.2088C7.16358 9.69677 6.81792 9.30758 6.47815 8.58687C6.34667 8.30789 6.24336 8.0398 6.15959 7.71841C6.08453 7.43019 6.01446 7.01961 6.01446 6.66277ZM5.41588 6.4709C5.41588 7.31074 5.57702 7.97454 5.87093 8.69151L6.00914 8.98663C6.06416 9.08304 6.1079 9.16989 6.16516 9.26415C6.33693 9.54731 6.55693 9.89275 6.79474 10.1289L7.11042 10.4565C7.15692 10.503 7.17389 10.5124 7.22301 10.5531L7.45416 10.7563C7.49745 10.7895 7.53479 10.8201 7.58135 10.8545C8.0113 11.1719 8.46551 11.4298 8.9702 11.6244C9.40898 11.7936 9.87966 11.923 10.3669 11.9549C10.7336 11.9789 10.8105 11.9876 11.1914 11.9874C11.9241 11.987 12.7974 12.1163 13.5049 12.2912C14.3188 12.4924 15.2564 12.8249 15.9894 13.2573C16.0833 13.3126 16.1646 13.3584 16.2542 13.4114C16.5214 13.5694 16.7871 13.7487 17.0363 13.9336L17.974 14.7337C18.486 15.2397 18.9176 15.8098 19.2873 16.4258C19.3436 16.5197 19.3948 16.6103 19.4422 16.7044C19.5371 16.893 19.6328 17.0838 19.7151 17.2822C19.938 17.82 20.1057 18.3815 20.1892 18.9723C20.2043 19.0788 20.2349 19.2403 20.2349 19.3588H1.66257C1.66257 19.0956 1.77939 18.5611 1.84055 18.3194C2.017 17.6221 2.21977 17.1664 2.53629 16.5606C2.60476 16.4296 2.93536 15.8714 3.02157 15.809C3.80178 16.3254 4.76645 16.3413 5.55826 15.8218L5.78562 15.6468C5.91051 15.5474 6.01369 15.4201 6.10925 15.2951C6.94505 14.2009 6.51171 12.6157 5.25436 12.0031C4.56432 11.6669 3.60926 11.7512 3.00063 12.2066C2.8423 12.325 2.69717 12.4486 2.57529 12.6017C2.49293 12.7052 2.41371 12.8055 2.3526 12.9252C2.18359 13.2562 2.06702 13.5573 2.06702 14.0021C2.06702 14.2937 2.13536 14.5778 2.21939 14.795C2.31328 15.0377 2.42984 15.1886 2.56857 15.3933C2.55493 15.4438 2.53021 15.4651 2.50145 15.5029C2.29003 15.7801 2.1205 16.0921 1.9486 16.3956L1.55177 17.2666C1.30231 17.9339 1.04785 18.9185 1.04785 19.6627C1.04785 19.7468 1.1069 19.8319 1.15647 19.8752C1.21994 19.9306 1.30641 19.9506 1.41996 19.9506H20.4777C20.9647 19.9506 20.8401 19.5555 20.818 19.2304C20.8078 19.0813 20.787 18.9365 20.7621 18.7899C20.7141 18.5069 20.6565 18.2355 20.5817 17.9768C20.2972 16.9926 19.8723 16.124 19.2666 15.3271C19.1204 15.1347 18.9793 14.959 18.8227 14.7744C18.685 14.6121 18.2361 14.1599 18.0872 14.0303L17.8854 13.8621C17.2282 13.2835 16.4686 12.8284 15.6838 12.4403C15.3391 12.2699 14.9742 12.1481 14.6165 12.0082C14.1127 11.811 13.5621 11.7089 13.0358 11.5877L13.3917 11.4278C13.447 11.4024 13.4935 11.369 13.5589 11.3372C13.6282 11.3035 13.6701 11.2773 13.7365 11.2409L14.0644 11.0373C14.3707 10.8166 14.657 10.5841 14.9246 10.3205C14.9794 10.2666 14.9972 10.2436 15.0467 10.1853C15.0697 10.1581 15.0861 10.1462 15.111 10.1209C15.2207 10.0092 15.3255 9.87338 15.4139 9.74874L15.8192 9.10994C16.2619 8.35296 16.4818 7.41152 16.4818 6.45482C16.4818 5.63878 16.291 4.97251 15.9896 4.2549C15.9257 4.10278 15.8378 3.95187 15.7587 3.81146C15.376 3.13152 14.7153 2.40455 14.0381 1.97833C13.0708 1.36954 12.1411 1.05005 10.8518 1.05005C9.64884 1.05005 8.65906 1.45329 7.77458 2.03809C7.50418 2.21692 7.25818 2.43531 7.02979 2.66105C6.01817 3.66093 5.41588 5.01688 5.41588 6.4709Z" fill="white" stroke="white"/>
</svg>
