<svg width="20" height="23" viewBox="0 0 20 23" fill="none" xmlns="http://www.w3.org/2000/svg">
<path fill-rule="evenodd" clip-rule="evenodd" d="M0.0269518 14.7923V18.3877C0.0269518 19.212 -0.0852673 20.6108 0.164057 21.2521C0.470528 22.0407 0.897744 22.4804 1.6047 22.8091C1.99781 22.9919 2.29829 22.9986 2.71768 22.9986C3.39422 22.9986 4.03596 22.5405 4.60213 22.2054L5.72155 21.535C6.35454 21.1403 7.05873 20.754 7.69057 20.362L8.80977 19.6913C8.9077 19.6301 8.99872 19.5824 9.09711 19.5211L13.3197 17.0023C13.8576 16.6679 14.467 16.334 15.0014 15.9994L15.5613 15.6643C15.6554 15.6057 15.7468 15.5566 15.8487 15.4944L17.1177 14.7348C17.5223 14.4815 18.7095 13.8153 18.9438 13.6373C19.5863 13.1495 20.0013 12.3263 20.0013 11.5012C20.0013 11.388 19.9775 11.1999 19.9632 11.0937C19.8524 10.2678 19.3669 9.61698 18.6818 9.18918C18.5878 9.13055 18.5009 9.08551 18.4065 9.02712C18.3085 8.96634 18.2235 8.9132 18.1219 8.85433L15.5906 7.34882C15.489 7.28661 15.4024 7.2399 15.3035 7.17865L13.6098 6.16767C13.511 6.10713 13.4333 6.06543 13.3349 6.00513L9.9444 3.9865C9.84854 3.92668 9.76098 3.87425 9.65775 3.81586L7.97538 2.81345C7.17026 2.3132 6.22527 1.79699 5.4319 1.30007L4.58484 0.794821C4.39866 0.683999 4.21685 0.575322 4.02559 0.459018C3.22923 -0.0252624 2.52066 -0.145141 1.63512 0.183512C1.31044 0.304106 0.928161 0.585808 0.699805 0.841295C-0.110845 1.74741 0.00782616 2.71312 0.00782616 3.94431L0.0274127 14.7918L0.0269518 14.7923Z" fill="#3D3D3D"/>
</svg>
