<svg width="22" height="22" viewBox="0 0 22 22" fill="none" xmlns="http://www.w3.org/2000/svg">
<path d="M11 0C4.92482 0 0 4.92482 0 11C0 17.0752 4.92482 22 11 22C17.0752 22 22 17.0752 22 11C22 4.92482 17.0752 0 11 0Z" fill="#40B3E0"/>
<path d="M16.3526 6.32757L14.3878 16.2335C14.3878 16.2335 14.113 16.9205 13.3574 16.5907L8.82348 13.1147L7.17486 12.3179L4.39959 11.3836C4.39959 11.3836 3.97369 11.2325 3.93244 10.9028C3.89119 10.5731 4.41334 10.3945 4.41334 10.3945L15.4457 6.06666C15.4457 6.06666 16.3525 5.66825 16.3525 6.32774" fill="white"/>
<path d="M8.47486 16.1222C8.47486 16.1222 8.34251 16.1098 8.17751 15.5876C8.01277 15.0656 7.17462 12.3178 7.17462 12.3178L13.838 8.08623C13.838 8.08623 14.2228 7.85266 14.209 8.08623C14.209 8.08623 14.2777 8.12748 14.0715 8.31981C13.8655 8.51223 8.83708 13.0323 8.83708 13.0323" fill="#D2E5F1"/>
<path d="M10.5618 14.4474L8.76854 16.0824C8.76854 16.0824 8.62829 16.1888 8.47498 16.1221L8.81838 13.0851" fill="#B5CFE4"/>
</svg>
