<svg width="28" height="22" viewBox="0 0 28 22" fill="none" xmlns="http://www.w3.org/2000/svg">
<path d="M28 2.67897C26.9697 3.11865 25.8626 3.41581 24.7006 3.5495C25.8868 2.86528 26.7975 1.78181 27.2264 0.490864C26.0988 1.13485 24.8651 1.58858 23.5786 1.83244C22.5307 0.758022 21.0378 0.0865479 19.3855 0.0865479C16.213 0.0865479 13.6408 2.56192 13.6408 5.61497C13.6408 6.04834 13.6917 6.47023 13.7896 6.87497C9.01534 6.64434 4.78253 4.44339 1.94917 1.09855C1.4548 1.91507 1.17152 2.86486 1.17152 3.87792C1.17152 5.79602 2.18575 7.48813 3.72706 8.4796C2.81482 8.4521 1.92265 8.21498 1.12503 7.78802C1.1247 7.81118 1.1247 7.83434 1.1247 7.8576C1.1247 10.5362 3.10483 12.7708 5.73267 13.2787C4.88675 13.5001 3.99944 13.5325 3.13852 13.3734C3.86947 15.5698 5.99102 17.1681 8.50467 17.2129C6.53866 18.6956 4.06164 19.5795 1.37036 19.5795C0.906609 19.5795 0.449422 19.5533 0 19.5022C2.5422 21.0709 5.56172 21.9861 8.80578 21.9861C19.3722 21.9861 25.1501 13.5618 25.1501 6.25613C25.1501 6.01634 25.1447 5.77792 25.1335 5.54086C26.2581 4.75843 27.2288 3.7893 28 2.67897Z" fill="#55ACEE"/>
</svg>
