<svg xmlns="http://www.w3.org/2000/svg" width="777.309" height="506.718" viewBox="0 0 777.309 506.718">
  <g id="uzbekistan" transform="translate(-0.25 -0.328)">
    <path id="UZ-AS" d="M133.806,7l-3.337,6.3-.981,3.366-.6,3.749,1.983,2.768.981,2.964-1.776,2.571-2.768,5.133-1.384,2.169,2.179-.981,1.58-1.983,1.384-.981,3.749.589,2.375.589.2,3.17-2.768.393-.2,8.1-1.973-.991-1.776.4L128.889,46.3l.6,2.375,3.16,2.562,2.964,1.776-.991,3.17v3.946L133.237,63.1l-2.768.991-1.776-.991-1.178-2.768h-1.59v3.357l1.188,1.58.2,6.124.4,3.955,2.964,1.776,2.169-2.365L135.22,70.6,137,66.648l2.365-1.384,2.964,1.58,2.375-.785-.795-2.768-1.188-2.571-.785-4.534.589-2.571,1.384-1.384,1.776-.2h2.179l.981-4.152,2.768-5.928,3.16-5.329,1.983-5.732-.353-7.587h0l55.728,40.231h0l-3.818.353.991,1.973,1.58,1.384.991,1.384-.795,3.749-2.768,4.937-4.544,4.544-6.124,4.947-1.58,3.357.991,1.776-1.188,1.776h-3.357l-.589,2.571L185,99.056l-4.74,1.58-4.937.981-3.563-1.188-1.973.6-3.749.785-1.188-.981-2.375-1.384-3.553,2.169-4.348-.2-5.928-.589-2.964-.4-2.562-2.169-5.143-.785L136.2,95.69l-2.169-.981-.991-3.563,2.768-1.776,1.776-2.169-.785-3.563-1.58-.981-2.571,1.188-4.937,1.58-1.786.785-2.365-.2-1.58.393-.991,1.983-1.973-.6-2.571-1.973-2.964-.2-3.946-1.58-2.964-1.384-2.179-2.571-2.169-5.133-.393-5.143,2.964-8.293.393-2.571-1.973-3.553-1.188-2.768-.2-5.928.393-4.544,1.973-5.329,2.964-4.741,1.188-5.536,2.571-2.571.2-5.722,1.973-3.16,3.759-3.366.2-4.741,1.58-3.16L118.79.34h0" transform="translate(-1.882 0)" fill="#f6f6f6" stroke="#fff" stroke-width="0.5"/>
    <path id="TJ-SU" d="M676.626,291.511l-1.482-1.737-1.178-.51.265-.363-.717.54-.265.471.187.658.991.029,1.2.883,3.121,4.23.2-.344-.628-1.551-.756-.962Z" transform="translate(-12.468 -5.346)" fill="#f6f6f6"/>
    <path id="UZ-AN" d="M749.773,319.77l-.108-3.543-.3-.824-3.936-1.256-2.208-.442-.236.167h-.324l-9.079-1.541-2.2-3.4-.608-.638-2.964-1.531-4.083-.589-.2,1.423-2.974-4.4h0l1.865-1.187-2.159-2.621,1.992-1.865,1.168-.785,8.431-2.149,3.612.029.56.255.716.55,3.268.726,1.433.147,4.79-.432.52-.265.393-.442,1.237-5.761h0l.235.147.658-.01,2.8-1.325.746-.177,1.2-.9,1.109-1.217.677-.069.147.177,1.3.343.952.667.873.049.775.393.844-.088.766.167.648.314.255,1.148-.1.638-.8,1.492.01.216.177.216.147-.02.451-.707.226-.049.236-.029.461.236.412.383,1.3,2.218.569.677.2,1.963.756.54,1.178.344,1.305.638,1.541.569.54-.2,1.786.285.923-.393.9-.186.668.206,2.169-.55.707.02.8.442,1.492,1.639.373,1.031.167.147.648.157.5-.039.638-.245.187-.294.628-.324.392-.471.569-.02.343-.206-.147-.53-.569-.393-.344-.481.422-1.394.226-.226.422.01.991,1.433.883.2,1.109.746.932-.51,1.472.069.422.373.226.952-.422,1.708-.422.6-.442.3-2.827,1.188-1.629.236-.618.854-1.138.785-1.374.766-.795.167-.049.226-.854.2-1.315.726-.982.942-1.511.491-1.109-.147-.775.108-.3.353-.049.314.137.432.373.451.03.334-.726.6-.1.412.177,2.689-.069,1.05-.638.206-.511-.294-.942-.962-1.472-.334-.314.363-.049.746-.854.618-.138.236-.206,1.374-.569,1.05-.657.157-.412-.039-1.364-1.1-1.443-.069-.677-.373-.893-.854-.5-.177-.667.285-.206-.039-1.345-1.639-.54-.981-1.364-1.148-.393-.186-.962.422-1.08.01-.392.53.147.275,1.1.373.314.3.451,1.011,1.031.314.4.55-.039.54-.343.393-1.011.1-.265.187-.167.5.137.442,1.06-.108.255.363.226,1.443.481.52.235.736-1.119,2.621.275.815-.069.628-.167.157-.294.059-1.453-.373-.442-.265-1.521-1.57-.638-.452-.285-.1-.785.294-.314-.206-.491-.7-.285-.206-.883.01-.265-.108-.177-.393.324-1.109-.059-.245-.442-.265Z" transform="translate(-13.339 -5.289)" fill="#f6f6f6"/>
    <path id="UZ-BU" d="M418.752,381.105l-3.7,3.523-3.288,2.179-.559.108-4.318,4.623-.344,1.011.147.844.7,1.178.815.864.8,1.148.226.5-.275.6L391.173,404.2l-5.506,6.115h0l-2.091-2.257-.4-.029-1.158.294-2.061,1.188-.982.255-1.031.02-1.354-.177-.834-.412-2.9-2.385-2.817-1.963-6.664-5.123-1.786-1.148L357,395.2l-1.286-1.266-1.129-1.364-.285-.618-.4-.363-.765-1.207-3.5-3.4-1.983-2.11-3.9-2.758-4.3-2.572-4.368-3.092-4.161-2.728-10.07-7.165-6.831-4.682-14.065-10.335-1.158-1.08L297.9,349.2l-.157-.52-.2-.883.059-.54-.285-.687-.128-1.718-1.384-2.032.02-.638.677-1.168.079-2.581-.373-.991-.137-1.207-.579-2-.059-1.119-.226-.756.039-.589.353-.893-.029-.991-.736-1.315-1.139-1.031L293,326.5l-.059-.5.491-1.511.285-1.443-.039-.3-1.3-.51-1.3-.824-1.3-1.423-1.246-.559-1.3-.854-.393-.55h0l6.164-7.469,4.505-5.035.775-3.73.029-1.512-.667-1.129-5.8-6.556-3.18-3.268h0l10.737-4.966L285.89,265.527h0l.55-.275,3.6-.9,13.3-3.151,1.031-.079,3.278,6.576,1.364,2.022,2.11,2.277,2.346,1.521,3.474,1.865,1.541,1.551,2.041,4.269,1.374,5.055.559,1.364.864-.088.442-.363,2-.049,3.1.893,5.28,2.267,8.323,4.515,9.648,5.594,2.081,1.639.55,1.031.334,1.462-.471,2.189,3.337-.088,2.591-.226.54-.186,5.28-11.964,1.021-1.07,2.149-1.148.864.147,1.639,1.894.1,7.469,15.89,1.855.186-.481.8-4.407.559-.186,4.927-.569,3.72-.059,2.228-.373,1.109-2.63.707-2.061.442-.186.952.216.775,2.778,2.1,9.932,1.119,1.08.785.412,1.011.334,8.47,1.168,5.82.618,7.822,1.119-1.374,9.089-3.916,2.758-.167,1.011-1.423,4.054-3.288,4.063-.628.6-.923.373-3.779-.226-2.846-.53-1.973-.972-.8-.775-1.963-1.276-2.022-.118-1.089.471-.353.609.353,3.258-.442,4.279-1.266,5.6-2.483,4.691-2.091,2.424-4.319,2.621-.874.324L392.5,355.1l4.191,5.683,1.168,1.129,6.929,2.621,1.06.059,3.141-.766,4.819,3.622,4.309,9.216.353,1.129Z" transform="translate(-5.292 -4.831)" fill="#f6f6f6"/>
    <path id="UZ-FA" d="M673.566,330.844l.1-.648-.226-.54-.726-.648-2.856-1.286-1.6-.324-.982-.393h-.314l-.884.422-.422-.029-.451-.206-.324-.363-.451-1.089-.285-.3-.275-.1-.147-.726-.893-1.737-.059-.6.128-.2.795-.216.981-.8,1.168-.216,1.08-.56,2.012-.707h.785l.461-.4.118-.795.432-.432.138-.874.186-.393.393-.216.579-.079.756.069.471-.353.707-.02.422-.157.854-1.089,1.089-2.179.353-.373.638-.177.667-.716.5-.167.147-.275.4-.079.4-.491.952-.216.393.275.314.029.049-.648-.177-.972.3-.226.275.245.648-.039.432-.569.294-.982.569-.52.059-.255h0l.334-.088.255-.255,4.78-1.227,3.308-.6,6.635-.1v.216l-.363.51-1.335,1.629.815,1.934,1.835,1.825,5.487,2.679.392.079.736-.412,2.964-2.8.746-.972.726-1.423,1.217-.785,4.034-2.189,3.376-1.011h0l2.974,4.4.2-1.423,4.083.589,2.964,1.531.609.638,2.2,3.4,9.079,1.541h.324l.236-.167,2.208.442,3.936,1.256.3.824.108,3.543h0l-.481.039-1.05-.255-.383.079-.5,1.354-.294.491-.618.589-.452.236-.363.069-.579-.2-.873-.579-.452,1.021.442,1.678-.137.334-.628.7-.069.559-.285.393-1.345.4-1.021,1.315-.5.373-.785,1.109-1.168.51-.913.844-.118.255.206.491.962.226.962.873-.069.481-1.09,1.011-.451,1.06-.285.314-.648.324-.609-.02-1.246-.9-1.983-.461-.471.383-.128.471.049.265.726,1.109.02.52-.736.491-.53-.03-2.444,1.561-1.3.412-.9.648-.343.059-.245-.137-.452-.834-.422-.5-.236-.069-.353-.393-.147-.353.167-1.865-.187-.8-.667-.893-.51-.353-.756-.078-1.207.118-.108.824.236,1.4-.206.932.078.55-.118.2-.285-.029-.795-.942h-.981l-.54.186-.9-.569-1.737-.775-.216-.53.186-1.325-.236-.51-1.276-.029-1.511-.393-.618-.491-1.07-1.207-.4-.265-.481-.147-.491.216-.608.059-.157-.3.088-.383-.314-.245-1.5.628-.736.1-.265-.1-.147-.265-.02-.981-1.512.108-.991-.334-.982-.088-.814.108-1.355.452-.962-.02-.6.206-2.513,1.747-1.914.344-2.032.883-.442.285-.137.265.3.9-.108.952-2.336.069-1.914.344-.265-.088-1.669,1.237-2.424,1.08-1.551.324-1.374.118-3.072.677-.815-.334-1.158-2.1-.314-.864-.707-.383-.52-.923.128-.108.069-1.256.363-.972-.54-1.718Z" transform="translate(-12.274 -5.617)" fill="#f6f6f6"/>
    <path id="UZ-JI" d="M578.964,372.853l-.471.245-.206,1.511-.314,1-.8.716-1.06-.373-1.129.255-2.905-.461-1.825.795-.383-.118-.775-.746-.5-.236-1.394-.314-1.737-.206-1.237.137-.913.255-.726-.128-1-.579-.726.1-2.189-.157-.952-.471-.726-.186-1.07.088-.589-.147L554.25,373l-.893-.363-1.344-.079-.9.1-1.835-.824-.942-.864-1.354-.079-2.385-1.62-.687.383-1.188.314-1.894-.815-.393-.01-.864,1-1.07.373-.628.442-.923,1.5-.569.157-1.4.029-3.906,1.462-.118.667.2,1.58-.4.5-2.179-.54-.451.108-.344.785-.02,1.286.314.5h0l-4.446-3.749-1.011-1.031-.638-.942-.206-.932-.02-4.083.1-.363,3.16-5.143.746-.893.677-.53,2.12-1.011,1.511-.373,1.276-.147-.079-1-1.05-5.85-.206-.236-11.65-2.483-4.721-.393-2.081-.785-5.722-3.857-.343-3.641.1-.344,1.217-.285.236-.157.442-1.315.069-.8-1.413-2.758-1.826-1.629-.824-4.024-.1-3.857.138-.756.815-1.8-.01-1.08-.942-2.14-4.525-.1-7.646-.9h0l.716-1.757,4.348-8.431,3.062-5.221.275-.726-1.541-6.733-.226-.52L497.6,296l-4.191-1.031-.932-.569-.707-1.246-1.109-10.443,6.586-.216.284-2.876.216.039.51-4.672h0l17.078,1.286,4.554.51,2.67.01.834.55.854.128,1.227-.4,1.246-.2,15.124.461,1.384,1.266.854.226,2.012,2.444,3.258,3.023,1.443-1.276.824,1.168,2.993-1.943,1.355,1.266.579-.255.775.461-2.424.52-1.384,1.453,1.364,3.386-1.453,1.443.078,5.123-3.994.147-.717,2.238,1.413,1.963,2.395.667,5.663,3.337,3.524,3.955,3.72,1.315.432.373h0l-.167,2.787-.334.6-1.826-.1-2.061.53-.471,4.8.157.265,2.071-1,.324-.1.157.2-.147.756-.756,1.963-4.858,10.835-.2,1.492.147.942.334.883.648.952.314.049,6.429.3,4.485-.167,3.945-.8,2.238-.775,7-1.61.3.667-.991,6.291h0l-1.521.275-.088.137-2.836.824-.236.589.844.785,2.571,1.512,1.207-.029,2.11-.442,1.286-.55,2.817-.795,1.207-.54,3.367-.874,1.649-.206,3.091-.108.825.638.4,1.256.442,2.336-.314.648-.736.059-1.5-.353-.883-.01-.736.03-1.492.343-1.148.864L592.8,346.8l-.147.118-.451-.255-.294-1.266-.716-1.08-.638-.1-.569.2-.236.275-.029.52.343.559.923.923.049.618-.4,1.325.029.294,1.472,1.374,2.561,3.18.53,1.08.039.736-.2.677-.7.707-.795.1-.609-.3-.589-.923-.069-1.747-1.325-3.151-.707-.864-.392-.069-.461.216-.118.393.079,1.08,1.021,1.943.795,1.884.029.677-.353.785-.353.265-.9.206-.294.383-.265,1.4-.236.216-.451.108-.55-.412-.3-1.246-.766-.874-.451-.128-1.443,1.207-.5-.294-1.178-.147-.088,1.129.294,1.639-.314,1.286-.481.834-.245.9-.295.55-.628.265-.618.039-.412.5.265.628,1.845,2.63-.265,1.688-2.326,2.63Z" transform="translate(-9.085 -5.088)" fill="#f6f6f6"/>
    <path id="UZ-NG" d="M747.761,280.68l-.491-.824-.451-.285-.442-.069-.442.236-1.031-.344-.746-.029-1.845,1.335-.344.078-.667-.294-1.708-1.1-1.119-.3-1.2-.137-1.139.775-.452-.216-.55-.049-1.59-.638-.314-.4.02-.864-.55-.059-.363-.2-.069-.206.628-1.963.9-1.58.765-.785.461-.8.55-1.325-.049-.245-1.06-.569-.834-1.011-.275-.638.128-1.276-.137-.363-.373-.275-.4.236-.334.55-.8.167-.245-.167-.059-.186.255-1.276-.608-1.04-1.374-1.325-1.031-2.169-.363-.1-.137.118-.108,1.659-.167.255-.3.069-.206-.4-.1-.667-.3-.265-.373-.029-.618.442-.118.393.4.648-.059.55-.265.206-.412-.255-.4-.7-.1-.452.088-.422.824-1.08.451-.815.069-.461-.236-1.384.128-.294-.059-.726.422-.883-.344-.6-1.119-.049-.353.1-.756.707-.746,1.335-.432.491-1.237.422-.236.344.049.412.314.236,1.119.108.559.226.491.766.128.667-.334,1.2-.432.795-.039.4.785,1.207-.285.648-.648.707-.353.687-.265.962-.216.01-.353-.245-.255.245-.314.707-.589.481-.167.569-.167.039-.245.932-.373.314-.589-.157-.6-.677-.393-.216-.864-.02-.412.344-.657.137-.8-.5-.314.069-1.413,1.688-.049.4.245.756-.255.834v.52l.177.363.844.363.294.707-.873,1.963-.314,1.953-.7,1.58-.029.363-1.011,1.1-.52.039-.255-.167-.147-.285-.226-1.737-.226-.481-.775-.815-.383-.186-.53.01-.5.294-.344.4-.226,1.384-.393.746-.785.736-.5.118-.373-.108-.137-.294.216-2.346-.255-1.4-.255-.412-.932-.618-.294-.039-.608.285-.128.393.039.53-.3.226-.275-.059-.422-1.04-.314-.01-.343.294-.461.707-.471-.02-.255.147-.815.864-.491.285-.393.029-1.188-.422-.4-.363-.6-1-.785-.186-1.207-.785-.579.029-2.611,1.776-.55-.2-.53-1.207-.9-.844-.844-.53-.569-.834-.52-.491-.265-.039-.7.314-.461.667-.815,2.022-.294.432-.324.157-.844-.343-.491-.6-.216-.883.029-1.07.726-.932.177-.589-.1-.343-.609-.893-.245-.726-.069-1.757.412-.9.245-1.139-.481-2.012-2.5-4-.412-1.148-.186-.157-1.187-.334-.3.029-1.119.834-1.207-.059-1.492.471-.962.824-.4.726-1.649,1.364h-2.042l-.491-.53h0l-.668,1.894-2.915,4.034.658,7.165,1.875,2.572.648,1.315.236,2.287.03,1.718-.147.864.2.412h0l.442-.02.716.393.265.667,1.08.874.069.608.314.236.864,1.168.667.02.54,1.345.991,1.227.383.874L676.6,295.9l.452,1.158.265.01.118.363.952.815.55,1.345.814.3.52.461.716.972-.471.373-.167-.088-.284.177.078.314-.186.285-.363.1-.56-.245-.461-1.188-.363,1.217.039.7.314.628.815-.236,1.207.1.834.442-.275.177.883.039.422.226.981.834.216.481h0l.334-.088.255-.255,4.78-1.227,3.317-.6,6.625-.1v.216l-.363.51-1.335,1.629.815,1.934,1.845,1.816,5.477,2.679.393.078.746-.412,2.964-2.8.746-.981.736-1.423,1.207-.775,4.034-2.189,3.376-1.011h0l1.865-1.188-2.159-2.621L721.3,297l1.178-.785,8.431-2.149,3.6.029.569.245.716.55,3.268.736,1.433.147,4.79-.432.52-.265.393-.451,1.237-5.751h0l-.412-.255-.442-.569.157-.324,1.237-.294.52-.4.461-1-.442-.8-.756-4.544ZM678.606,295.1l-3.121-4.23-1.2-.883-.991-.029-.187-.667.265-.461.717-.55-.265.373,1.178.5,1.482,1.737,1.7,2.306.628,1.551Z" transform="translate(-12.328 -4.733)" fill="#eaf1fb"/>
    <path id="UZ-NW" d="M494.076,272.056l-.51,4.672-.216-.039-.285,2.876-6.586.216,1.109,10.443.707,1.247.932.569,4.191,1.031.245.226.226.52,1.541,6.733-.275.726-3.062,5.221-4.348,8.431-.716,1.757h0l-1.237-3.406-1.826-2.611-.952-1.1-.569-.265-2.071,1.884-2.306,1.266-1.355.108-1.8-.245-1.021-.775-1.011-1.521-1.168-.088-1.089.186-.893,1.06-2.11,4.593-.579,4.819.245.344.53.2.363.707-.167,2.228-.864,6.007-.844,1.315-2.257,5.958.2.962.785.1,1.4-.9.8.069.177.442-.138,1.1-.422.608-3.425,3.229-1.6.746-8.745,1.894-1.2-.2-5.28-2.257-2.051-1.119-.451-1.021-.981-1.521-5.378-2.032-.991-.167-.51.275-.344.559-.157.687.049.952-.412,5.693-1.8,5.437-.7,1.266-.51.294-.579.01-2.8-.864-.982-.481-8.49,2.866-.491.343-.078.363.324.756,1.453,1.5.952.795.923,1.423,1.325,5.123-.167.952-.5,1.433-1.148,2.3-.039.618.167.795.795,1.776,2.081,3.73h0l-.393.422-.52.206-2.552.393-1.364.363-.785.373-1.148.795h0l-.285-3.317-.353-1.129-4.309-9.216-4.819-3.622-3.141.766-1.06-.059-6.929-2.621L396.3,358.1l-4.191-5.683,1.394-2.67.873-.324L398.7,346.8l2.091-2.424,2.483-4.691,1.266-5.6.442-4.279-.353-3.259.353-.609,1.089-.471,2.022.118,1.963,1.276.8.775,1.973.972,2.846.53,3.779.226.923-.373.628-.6,3.288-4.063,1.423-4.054.167-1.011,3.916-2.758,1.374-9.088-7.822-1.119-5.82-.618-8.47-1.168-1.011-.334-.785-.412-1.119-1.08-2.1-9.932-.776-2.778-.952-.216-.442.186-.707,2.061-1.109,2.63-2.228.373-3.72.059-4.927.569-.559.186-.8,4.407-.186.481-15.89-1.855-.1-7.469-1.639-1.894-.864-.147-2.149,1.148-1.021,1.07-5.28,11.964-.54.186-2.591.226-3.337.088.471-2.189-.334-1.462-.55-1.031-2.081-1.639-9.648-5.594-8.323-4.515-5.28-2.267-3.1-.893-2,.049-.442.363-.864.088-.559-1.364-1.374-5.055-2.041-4.269-1.541-1.551-3.474-1.865-2.346-1.521-2.11-2.277-1.364-2.022-3.278-6.576-1.031.079-13.3,3.151-3.6.9-.55.275h0L264.97,234.71l12.612-6.968-6.615-11.925,1.237-15.478L299.351,149.1l-15.154-4.1-5.742-10.3h0l41.575-8.1,20.071-3.543,3.415.667,2.954.353,9.52,1.031,5.82.373,2.356.412,13.917,1.07,13.387.658.2-.147.834-.039,10.325-5.074,6.87-3,4.3-2.149,2.022-.5,1.06-.108,1.639.069.815.314.746.569.972,1.119,5.624,12.386,1.983,1.875,3.533,3.671,10.678,9.5,1.472,5.958,6.517,20.994,12.337-5.81.344,30.72-.049,7.076-.569-.177-2.375-1.207H460.5l-.1,6.478-.893,1.08-.294,16.332.069,2.11,23.693,2.866,3.415,38.965Z" transform="translate(-4.904 -2.154)" fill="#dde7f5"/>
    <path id="UZ-QA" d="M420.636,383.29l1.148-.795.785-.373,1.364-.363,2.552-.393.52-.206.393-.422h0l.677.157,17.225.52,1.462-.177,1.286-.54,1.4-1.05.187-.265.039-.324,4.23.864,3.239,3.739,2.719,4.564.088,1.462.216.206.707.245,3.023.766,1.5-.039,2.169-1.354,3.209-1.639,7.41-1.835.618.157,1.148.736,1.619,1.413,1.609,1.129.677.324.294-.01,3.573-1.531.8-.942,1.08-1.747.815-.932.8-.275,1.168-.059,8.411,1.5.618.658.481,1.3-.108,1.237-.451,1.669.059.569.324.471.913.52,1.855.147,3.808-.235.8-.206.412-.471.108-.343-.069-1.747.422-.471.864-.049,4.377,1.246,2.513,1.07,3.769,1.168,1.62.314.981-.226h0l.373,1.551,1.364,2.365.716.736.942.52,1.727.363.609.4.834.285.785.02,1.011-.216,1.06.186,1,.461.638,1.639.559.226,1.561.079.275.284-.01.56-.344.5L537,404.834l.432,1.237.128,2.012.383.55h0l-.785.8-.962.569-3.916.226-.844.255-.5.245-.658.559-.442.824-.059.393.53,3.082,1,2.061.373.451.147.51.128,4.122-1.315,4.22-.53-.177-1.384-1.4-.982-.314-1.4-.069-1.119.324-.442.334-.579.628-.8,1.276-1.168,2.179-8.725,8.716-.707,3.288-.157,1.492-.363,1.374-.442.854-2.375,2.385-1.8,1.256-3.475,1.816L492.833,462.79l-.422,1.227-1.021,4.191.265.883h0l-2.346-2.738-1.031-.658-1.453-.6-3.131-.344-2.581.8-.559.059-1.237-.324-1.207-1.05-2.738-1.61-1.8-2.032-1.266-2.287-.461-.294-1.865-.108-3.435-1.011-.618-.393-.491-.952-1.148-.393-.854-.128-.746-.785-.461-.167-1.345.069-.815-.265-.883-.589-1.875-1.924-.883-.236-1.05.01-.952.265-.716,1.374-.55-.069-.137.1-.157.628-.363.167h-.52l-4.593-.942-9.746-3.847-1.914-1.1-6.291-4.054-1.816-1.462-2.65-2.473-7.469-7.459-.569-.383-2.679-1.227-3.435-1.305-2.886-1.345-1.7-1.237-.6-.648-8.814-5.447-2.67-1.865-5.437-5.035L387.55,412.5h0l5.506-6.115,17.784-6.517.275-.6-.226-.5-.8-1.148-.815-.864-.7-1.178-.147-.844.344-1.011,4.318-4.623.559-.108,3.288-2.179Z" transform="translate(-7.175 -7.016)" fill="#e5f0fe"/>
    <path id="UZ-QR" d="M154.518,23.306l.344,7.577-1.973,5.732-3.16,5.339-2.768,5.928-.991,4.152H143.8l-1.776.2-1.384,1.384-.589,2.571.795,4.544,1.188,2.571.795,2.768-2.375.795-2.964-1.58-2.375,1.384-1.776,3.955-2.375,4.152-2.169,2.375-2.964-1.776-.393-3.955-.2-6.124-1.188-1.58V60.327h1.58l1.188,2.768,1.776.991,2.768-.991,1.384-2.964V56.176l.991-3.16-2.974-1.776-3.16-2.571-.589-2.375,1.776-1.973,1.776-.393,1.973.991.2-8.1,2.768-.393-.2-3.16-2.375-.589-3.749-.589-1.384.991-1.58,1.973-2.169.991,1.384-2.169,2.768-5.133,1.776-2.571-.991-2.964-1.973-2.768.589-3.749.991-3.357,3.337-6.311h0l22.584,16.283ZM116.908.34l-.177,3.484-1.58,3.16-.2,4.741-3.749,3.357-1.973,3.16-.2,5.732-2.571,2.571-1.188,5.536-2.964,4.741-1.973,5.329-.393,4.544.2,5.928,1.188,2.768,1.973,3.553-.393,2.571-2.964,8.293.393,5.133,2.169,5.133,2.169,2.571,2.964,1.384,3.955,1.58,2.964.2,2.571,1.973,1.973.589L120.1,86.4l1.58-.393,2.375.2,1.776-.795,4.937-1.58,2.571-1.188,1.58.991.795,3.553-1.776,2.169-2.778,1.8.991,3.553,2.169.991,1.776,1.776,5.133.795,2.571,2.169,2.964.393,5.928.589,4.348.2,3.553-2.169,2.375,1.384,1.188.991,3.749-.795,1.973-.589,3.553,1.188,4.937-.991,4.741-1.58,6.919-2.768.589-2.571h3.357l1.188-1.776-.981-1.767,1.58-3.357,6.124-4.937,4.544-4.544L209.2,72.39l.8-3.749L209,67.257l-1.58-1.384-.991-1.973,3.808-.344h0l21.278,15.36,2.169,6.919,5.958,6.016,6.272,7.567.285.628.628.579,2.483,2.954,5.594,6.88,16.518,20.513,1.6,1.531.54.049h0L279.3,142.86l15.144,4.1L267.3,198.2l-1.237,15.478,6.615,11.925-12.612,6.968L280.6,260.705h0l13.535,18.825L283.4,284.5h0l-2.5,1.188-.638-.187-.265-.216-4.475-7.273-1.472-2.719-7.852-8.647-3.023-1.875-3.455-1.826-8.784-2.022-2.984-.02-.609.2-1.364.756-.766.874-1.148,2.257-.5,1.835-.707.756h-1.462l-2.208-1.413-.245-1.139-.363-.854-1.983-2.228-.7-.6-.726-.285-2.12-.353-1.384-.569-5.85-4.456-8.078-7.175-1.541-1.472-3.288-3.828-5.074-4.741-.677-.3-.658-.638-.363-.452-3.023-5.29-.4-2.414-.039-2.581-.167-.569-.383-.471-5.182-1.1-4.181,1.364-1.865.824-2.621,5.133h0l-.216-.52-.491-.589-.54-.383-2.375-.815-.795-.5-1.747-2.149-.167.039-.324-.343-.864.2-1.237-1.217-.186-.795.186-.334.55-.442,2.768-.2.344-.442-.2-.785-.5-.716-.4-.952-.216-.923-.157-2.228-1.237-1.61-.029-.658.177-.471,1.07-.569.412.186.834.1.452-.108.442-.422.245-.383.02-.628-.481-1.168-.471-.55-.972-.589-1.718-.236-.569-.236-.8-.7-.815-1.1-.667-1.335-.618-.55-1.934-.628-1.021-.824-.3.54-.451,1.4-.353.344-.491.01-1.767-.54-.667-.344-.451.02-.53-.206-1.933-.039-1.541.363h-1.482l-1.315.157-7.273.1-.559-.442-.716-1.374-.638-.294-.864-1.04-3.965-3.955-.039-.393.451-1.217-.108-1.207-3.347-4.368-.461-.451-1.089-.648-.393-.059-1.07.294-.942.756-.559.236-2.552-.167-.687-.216-1.551-.844-2.228-.648-.658-.314-1.7-1.472-4.112-4.515-4.721-5.251-3.023-3.828-.471-.422-.029.834-.3,1.158.1.54.873.874.039.285-.167.51-.334.216-.412-.01-.54-.3h-.618l-.5.618v.167l.677.559.255.412-.412,2.14-.3.481-.481.294-1.129-.363-2.6.491-1.05.059-1.3-.628-1.188-.236-1.168-.559-1.462-.4-2.846-.589-.883.029-1.394.559-1.021.589-2.287,1.9-.609.059-.4.344-.177.677.314.746,1.826,1.325,2.326,1.305.972.373,1.325.245.442.53,2.621,6.085,1.276,2.012.559.667.186.923-.039,1.188.432.393.52-.128,3.092,1.943.942.775.128.7-.5,1.021-.363.255-.422.02-2.071-.491-1.835.373-.187-.658.118-1.983-.108-1.031-.795-2.807-.7-1.315-.874-.972-1.227-.824-4.76-1.227-.785.049-2.14,1.109-1.276.471-.186-.1-.186-.707-.9-.638-.285-.363-.265-1.178-.834-.736-.942-.177-1.4.3-.972.667-.52-.01-.265.285-.393,1.8-.285.736-.314-.128-.726-.844-.432-.108-.658.216-.216.383-.275,1.521.334.766.874.8.432.707.324,1.06-.02.53-.363,1.031.029,1.384-.236,1.089.118,1.521-.2,1.58-.177.589-.334.383-.461.157-.834-.029-1.629-.677-.432.1-.275.51-.334,1.178.687,1.178.432,1.08-.186.412-.854.118-3-.51-2.542.873-1.737.913-.726.177-.589-.02L73.439,214l-1.835-.363-2.248-.177-5.074.275-1.924.716-2.473,1.217-2.149,1.57-1.237,1.07-1.1,1.58-.4.854-.667,1.561-1.05,3.268-.6.834-1.109,1.08-.7.422-1.345.5-2.12.628-.716.432-.844.775-.9,1.884-.3,2-.442,1.8.049,2.7.294,2.63-.137,2.679.55,2.326.393.972.373.491-.02.236.353.157.52,1.011.236,1.129.088.785-.2,1.2v2.3l.412,3.082.294.972.373.707,1.816,2.591.893.02,1.914-.589.422.393.039.51-.314.7-.393.393-.52.324-1.943.677-.824.775-.451.864-.039,1.472-.314.658-.481.53-.54.285h-1.3l-1.767-.432-3.887-.334-4.073-.579-6.625-.412-3.7-.078-5.771-.667-3.425-.255-1.845.01-5.084-.461L.329,265.3.25,37.047l1.492-.383,1.4-.618,29.582-9.668.02-.128,1.639-.285.334-.344.991-.334,12.9-4.122L91.458,7.917l6.527-2.179,2.179-.451L116.908.34Z" transform="translate(0 0)" fill="#f6f6f6"/>
    <path id="UZ-SA" d="M530.863,389.4l-.108.294-1.57-.3-.952.206-3.268,1.129-.226.285v.186h0l-.982.226-1.619-.314-3.769-1.168-2.513-1.07-4.377-1.246-.864.049-.422.471.069,1.747-.108.344-.412.471-.8.206-3.808.235L503.273,391l-.913-.52-.324-.471-.059-.569.451-1.669.108-1.237-.481-1.3-.618-.658-8.411-1.5-1.168.059-.8.275-.815.932-1.08,1.747-.8.942-3.573,1.531-.294.01-.677-.324-1.61-1.129-1.619-1.413-1.148-.736-.618-.157-7.41,1.835-3.209,1.639-2.169,1.354-1.5.039-3.023-.766-.707-.245-.216-.206L460.5,387l-2.719-4.564-3.239-3.739-4.23-.864-.039.324-.187.265-1.4,1.05-1.286.54-1.462.177-17.225-.52-.677-.157h0l-2.081-3.73-.8-1.777-.167-.795.039-.618,1.148-2.3.5-1.433.167-.952-1.325-5.123-.923-1.423-.952-.795-1.453-1.5-.324-.756.078-.363.491-.343,8.49-2.866.982.481,2.8.864.579-.01.51-.294.7-1.266,1.8-5.437.412-5.693-.049-.952.157-.687.344-.559.51-.275.991.167,5.378,2.032.982,1.521.452,1.021,2.051,1.119,5.28,2.257,1.2.2,8.745-1.894,1.6-.746,3.425-3.229.422-.608.137-1.1-.177-.442-.8-.069-1.4.9-.785-.1-.2-.962,2.257-5.958.844-1.315.864-6.007.167-2.228-.363-.707-.53-.2-.245-.344.579-4.819,2.11-4.593.893-1.06,1.089-.186,1.168.088,1.011,1.521,1.021.775,1.8.245,1.354-.108,2.307-1.266,2.071-1.884.569.265.952,1.1,1.826,2.611,1.237,3.406h0l7.646.9,4.525.1.942,2.14.01,1.08-.815,1.8-.137.756.1,3.857.824,4.024,1.826,1.629,1.413,2.758-.069.8-.442,1.315-.236.157-1.217.285-.1.343.343,3.641,5.722,3.857,2.081.785,4.721.393,11.65,2.483.206.236,1.05,5.85.079,1-1.276.147-1.511.373-2.12,1.011-.677.53-.746.893-3.16,5.143-.1.363.02,4.083.206.932.638.942,1.011,1.03,4.446,3.749h0l2.189,4.584.815,2.257.923,1.914.206.8Z" transform="translate(-7.811 -5.791)" fill="#f6f6f6"/>
    <path id="UZ-SI" d="M595.444,336.892l-1.58.952-1.266.324-2.346-.658-.962.432-5.339,1.708h0l.991-6.291-.3-.667-7,1.61-2.238.775-3.945.8-4.485.167-6.429-.3-.314-.049-.648-.952-.334-.883-.147-.942.2-1.492,4.858-10.835.756-1.963.147-.756-.157-.2-.324.1-2.071,1-.157-.265.471-4.8,2.061-.53,1.826.1.334-.6.167-2.787h0l3.582,3.052,1.855-.491,1.875,1.541-.53,1.119,4.78,1.4.8-1.1,2.355.177,4.23-1.7-.824-2.051-2.365-1.266-1.109-3.229-3.219-4.446.854-7.312-.981-2.483.844-.883-.864-1.364-3.553-.226-.01-1.276,4.829.3.314.589,2.316-1.443-.02.236.3.088.2,1.178.658.245.785-.363.923.206.363.373-.137.324-1.413.54-.186.343-.029.55.53,1.04.393-.324h0l4.77,5.418,3.406,3.406,4.829,4.358,4.623,3.838.609.079,2.974,4.152-.491,4.613-.844,5.221-.991,4.868.02,1.04.137.609.491,1.03-.245,4.642h0l-1.089-.344-2.523-.02-3.3.344Z" transform="translate(-10.353 -5.344)" fill="#f6f6f6"/>
    <path id="UZ-SU" d="M571.662,458.517l-1.011,3.465-.137,1.207-2.257,2.375-1.61,3.043.069,1.541-.461,1.09.088.775-.343.874-2.454,1.148-3.975.687-.8,1.413-3.1,6.625-1.129,1.629-1.345.962-2.247,2.915-1.031,2.385-1.247,2.385-1.56,1.5-1.168,3.808-.049,2.513.255,3.936-.55,6.537-.7,2.385-.667.432-.579-1.089-1.472-1.178-.726-.216-1.354.147-.412-.059-.844-.746-.981-.579-.6.088-1.345.54-.658.53-.383.491-.687.088-.412-.638-.412-1.345-.726-.707-.8-.393-.658.137-.559.373-1.835,1.688-1.325.452-1.129.667-1.237.108-1.806.461-.942,1.011-1.472.618-.53-.2-.844-.756-.167-1.5-.275-.481-.756-.363-.363-.854-.265-.265-.952-.373-.442-.334-.687.147-.452-.118-1.492-.834-.451-.7.353-1.5-.314-.824-1.7-.844-1.335-1.384-.422-.255-1.894-.707-1.845.128-3.514,1.561-1.551-.186-.8.069-2.189.746-1.914-.481-.932.01-1.08.363-1.57-.363-1.423.226-1.148-.118-1.757.069-1.286.53-.393-1.973.167-.648.422-.608.844-.618,1.109-.569,2.984-.893.295-.716.01-.736-.422-1.08-4.476-5.437-.255-1.462.55-5.516-.285-1.5v-.589l.442-3.052.726-1.757.717-1.1.756-.746.53-1.247.55-.716,2.238-1.305.422-.393.236-.815-.029-.873-.53-1.031h0l-.265-.883,1.021-4.191.422-1.227,11.366-11.876,3.474-1.816,1.8-1.256,2.375-2.385.442-.854.363-1.374.157-1.492.707-3.288,8.725-8.715,1.168-2.179.8-1.276.579-.628.441-.334,1.119-.324,1.4.069.981.314,1.384,1.4.53.177,1.315-4.22-.128-4.122-.147-.51-.373-.451-1-2.061-.53-3.082.059-.393.442-.824.658-.559.5-.245.844-.255,3.916-.226.962-.569.785-.8h0l.383.52.667.285.893-.314.609.236,1.021-.707,2.012-.186,1.325.8,1.443.137,1.03-1.325,2.012-.069,1.021-.54.442.01,1.089,1.138,1,.245,1.806-.972,1.227.137,1.217.8.854,1.806.3,1.011,2.64,2.061.088.785-.138,1.217-.344.216.295,2.12-1.237.638-.579.883-1.011.314-2.454.393-.344.55,2.483,3.612-.353.658-1.561.186-1.246,1.2.412,1.453.854,1.9-.01.442-.461.55-.324,5.212,2.375,3.151.982.795-.363,1.1-.913,1.423-.245.991.442.01,1.453-.638.452.01,1.639.923,1.384,2.356.206.775.079,1.335.216.226,1.315.471,1.423.7.981.677,1.933,2.483.02.373.707,1.3L572,456.5l-.01.775Z" transform="translate(-9.008 -7.552)" fill="#f6f6f6"/>
    <path id="UZ-TK" d="M618.745,266.477l.049-.559-.088-.138h-.236l-.294.245-.128.363-.736.226-.7.736-.687-.069-.353.648-.54-.265-.559.108-1.57-.824-.2.02-.255.334-.8.363-1.011-.206-.108-.177h-.138l-1.178,1.3-.1.834-.442,1.227-.137.854-.118,1.433.088.334.913.216.285.206.324-.177.471.245.314.824.157.049.354-.226.167.245.677.128.559-.059.01-.471,1.06-.854,1.07.088.707.226-.157.4.422.923.363.245.618-.088,1.031-1.031.373-.854-.069-1.158-.373-.716-.285-.265.471-.746.333-.245-.128-.334.049-.471.285-.667.147-.118.393.049-.088-.648.275-.265.118-.471-.108-.314-.236-.137Z" transform="translate(-11.267 -4.918)" fill="#f6f6f6"/>
    <path id="UZ-TO" d="M703.508,216.024l-.147-.373-.638-.5-.775-.373-3.268-2.944-.922-.53-1.718-.206-1.2-.687-.452-.02-.844.206-1.119.491-1.227,1.138-.667.029-.923-.334-.412.039-1.737,2.2-1,.677-.942.422-1.158.874-.687.02-1.04-.991-.51.157-.569.55-.658.716-.824,1.354-.8.648-.54.883-.962.766-.736,1.07-.147,1.237-.893,1.767-1.08,2.935.049.2-.216.471-.726.255-.412-.02-1.207-1.109-.736-.206-.147-.618.108-1.58-.54-.893-2.493-1.364-2.64-2.326-.363-.157-.677.137-.363.452-.294,2.081-.216.363-.952.854-.295.677-1.551.942-.3.491.128,1.148.334,1.364-.078,1.06-1.021.726-.942.3-.481.54-.53-.02-1.139.54-.874,1.276-1.05.883-.432.746-.726,1.973-.579.991-3.131,1.57-1.315.942-.716,2.1-.314.294-.324.118-.353-.118-.157-.285.049-.55-.373-.658-.383-.069-.667.2-.255.3-1.619,3.916-2.876,1.178-1.178-1.021-.726-.324h-.491l-1.639,1.031-2,.324-.245-.128-.825.128-.3.2-.2.432-.52.52-.667.324-2.689.638-.51.226-1.2,1.119-.285.5-.932.7-1.276,1.364-.393.53-.491,1.531-.226.275-.726.373-1.2.344-.373-.059-.324.118-1.649,1.4-.658,1.08.02.51.324.53,1.148.746-.334.991-.4.206-2.169-.343-.52.226-.815.039-1.286.344-.461-.02-.982-.569-.55-.137-1.08.128-.353-.118-1.472.314-1.129.677-.628,1.865-.432.491-2.189,1.237-1.119,2.787-.648.452-.5-.059-.579-.569-.285-.118-.5.157-1.943,3.013-.186,2.66-.226.363-1.364,1.148-.294,1.767-.206.137-.834-.147-.667.451-.638.844-1.384,1.345-1.5,1.983-.726,1.129L592,283.52l-1.629,2.051-.707,1.639-.147,1.482-.167.344-1.305,1.188-1.8.707-1.021.844h0l4.77,5.418,3.406,3.406,4.829,4.358,4.623,3.838.608.078,2.974,4.152-.491,4.613-.844,5.221-.991,4.868.01,1.04.138.609.491,1.04-.246,4.642h0l2.5.216.628-.049,1.031.363,1.07-.088.756-.245,1.276.3,1.924.039,1.1.608.471-.393-.825-2.081-.4-.412-1.355-.265-.4-.412.236-.834-.344-.569.177-.608,1.718.236.815-.059,1.109-1.05.01-.893.324-.54-.02-1.188-1.021-.815-.412-.491.01-.815-.285-.8-.393-.343.235-.834-.461-.187-.6-2.032-.412-.491.01-.815.344-.4.039-.746-.648-.559L611.4,316l-.069-.324.265-.628,1.531-1.031,1.786-.236.854.167.294-.079.255-.265-.03-.177.393-.736.471-.226.255-1.246-.55-1.207-.334-1.109.206-3.445.059-.314.324-.383.2-.932,1.806-2.542,1.61-.2.648.324,2.483.687,1.188.147.736.726.834,1.678.245,1.168.54.766,1.237.883.716.864.677.108.393.206.491,1.276.294.4.648.147,1.59-.108.913-.579,1.374-2.964.442-.393.7-.206,1.4.4.294-.029.923-.991,1.089-.648.422-.01,1.561.962.206.01,1.158-1.1.746-.481,1.993-.285.815-.353,1.04-.883,1.4-.55,2.336-2.277.3-.432.275-.854.481-.579.579-.108,1.011.4,1.119.177,1.433-.923.864-.383.707-1,1.61-.972,1.178-.029.667-.226.363-.353.5-.991.01-.353-.285-.913.147-.707.667-.8.03-.746.294-.52-.275-1.256.108-.451.373-.275.393-.923.54-.589,1.276-.51,1.011.245h0l-.2-.412.147-.864-.029-1.718-.236-2.287-.648-1.315-1.875-2.571-.657-7.165,2.915-4.034.667-1.894h0l-.481-.991-.471-.55-.834-.55-1.188-1.423-1.148-.118-.491-.51-.618-1.443-.393-.265-1.286-.55-1.05-.177-.952.059-.51.275-.8.1-.923-.236-1.227.088-.618-.363-.157-.363-.167-1.217.079-1.934.275-.726.4-.569,1.246-.53.677-.118,1.256.108,1.629-1.511,1.276.049.834-.393,1.482-1.433.569-.883.294-.226,2.032-1.109.53-.157,1.629-1.109.657-1.315.088-2.169.236-.481.608-.579,1.217-.55,2.13-1.492.324-1.188,1.1-.785.363-.412.726-1.5,1.031-1.06,1.168-.559.638-.049.864.314.4-.01.167-.186.167-.8.216-.2.667.451,1.021.353.864.01.422-.147.874-.883.294-.5.157-1.786-.893-1.551.334-.883.638-.648.118-.716.167-.285.589-.285h.785l1.835,1.021.8.2h.756l1.03-.51,1.266-1.08.667-.294,1.727-1.776.795-.3,2.63-2.513,1.06-.4.8-.029,1.247.3.393-.609.687-.53.442-.177.2-.275.1-1.541.324-.442ZM618.885,266.5l-.353.451.088.648-.383-.049-.157.108-.285.667-.049.471.137.334-.334.245-.471.736.559.736.167.54v.874l-.147.54-.932,1.119-.324.226-.628.088-.353-.245-.422-.913.157-.4-.707-.226-1.06-.088-1.06.854-.02.471-.559.069-.677-.137-.167-.245-.353.226-.157-.049-.324-.824-.471-.245-.324.177-.284-.206-.913-.226-.088-.334.118-1.433.137-.854.442-1.227.1-.825,1.178-1.3h.137l.1.177,1.011.206.815-.363.255-.334.206-.02,1.57.824.56-.108.54.265.353-.648.7.069.687-.736.589-.108.373-.608.442-.108.039.7.5.452.049.589Z" transform="translate(-10.837 -3.891)" fill="#b1d0f8"/>
    <path id="UZ-XO" d="M280.789,310.784l-1.237-2.807-.51-.736-.677-.6-.294-.795-.157-2.719-.451-.726-.255-1.011-1.2-2-.088-1.2.157-1.158-.069-1.943-.147-.471-.245-2.8.226-1.59-.216-.393-.5-.206-.177-.707.02-.628-.285-.8-.726-.923-1.443-.766-.559-.108-.442-.255-.294-.55.186-.923-.363-1.031-.461-.854-1.2-.716-1.845-1.943-1.109-.334-1.462-.991-1.992-2.365-.471-.294-1.246-.128-.648-.226-.481-.334-.4-.373-.275-.932-.373-.707-.834-.628-.461-.01-1.276.56-1.737-.137-.726-.216-1.58-.883-1.727-.285-.51.039-.461.3-.8,1.443.059,2.6-.442.785-.275,1.541-.422.893-.344.383-.481.324-1.031.157-.147.137-1.639.186-.324-.1-1.3.049-.2-.128-.275.1-.687-.157-3.043-1.453-2.091-2.189-.334-.147-1.973.177-1.3-1.531-4.819-.216-.412.206-1.021-.069-2.14.314-2.532-.118-1.649.3L216.3,275l-4.672.294-.864-.049-2.552.422-.932-.059-.707-.236-3.18-1.9-2.856-2.552-6-4.093-3.308-1.894-1.139-1.021-.559-1.217-.02-.677.157-.775.039-2.935.275-1.826.373-.795,2.1-1.963.245-.6v-1.148l-.265-.873-1.109-1.983-1.129-1.5-1.816-2.837-.373-1.472.51-1.217.55-2.208.236-.137.3.02.883.481.981-.02,1.943.707,1.089.52,1.256,1.031,1.168-.029.766.618.8.265.255-.393.716.01.255-.157.029-.432-.51-.687-1.109-.873-1.139-1.3-1.227-.559-1.619-.363-1.364-.854-.746-.834-.3-.707h0l2.621-5.133,1.865-.834,4.181-1.364,5.182,1.1.383.471.157.569.039,2.591.4,2.4,3.023,5.29.373.461.648.638.687.3,5.074,4.741,3.288,3.828,1.541,1.482,8.078,7.175,5.85,4.456,1.384.569,2.12.353.726.285.7.6,1.973,2.228.363.854.255,1.138,2.208,1.413h1.462l.707-.746.5-1.845,1.148-2.257.765-.864,1.364-.756.609-.2,2.984.01,8.784,2.022L266.636,269l3.023,1.875,7.852,8.647,1.472,2.719,4.475,7.273.265.216.638.186,2.5-1.2h0l3.18,3.268,5.8,6.556.667,1.129-.029,1.511-.775,3.73-4.5,5.035-6.164,7.469h0Z" transform="translate(-3.478 -4.234)" fill="#f6f6f6"/>
  </g>
</svg>
