<svg width="19" height="22" viewBox="0 0 19 22" fill="none" xmlns="http://www.w3.org/2000/svg">
    <path fill-rule="evenodd" clip-rule="evenodd"
          d="M10.9159 21.9999C11.7038 21.9999 12.48 21.9561 13.1983 21.8186C13.7637 21.7104 14.2687 21.5677 14.8004 21.3927C15.7814 21.0698 16.6319 20.5857 17.47 20.0309C17.8653 19.7692 18.2373 19.4603 18.5909 19.1478C18.7677 18.9916 19.0134 18.8793 18.9996 18.5611C18.9856 18.2395 18.7422 18.1437 18.426 18.1284C17.8059 18.0984 17.1918 18.0432 16.6016 17.9224C16.0564 17.8108 15.5119 17.6449 15.0378 17.4586C14.6862 17.3204 14.3363 17.1652 14.0025 16.9933C13.5174 16.7436 13.0432 16.4468 12.6048 16.1234L11.8905 15.5641C11.7978 15.4842 11.7023 15.4168 11.6167 15.3323C11.5192 15.2359 11.4856 15.1579 11.3738 15.07C11.2474 14.9707 11.1644 14.8854 11.0639 14.7622C11.0377 14.7301 11.0377 14.7239 11.0056 14.6896L10.7708 14.4192C10.7272 14.3615 10.6969 14.3287 10.655 14.2731C10.58 14.1735 10.5102 14.0927 10.4345 13.9886C9.92727 13.291 9.4869 12.56 9.14137 11.7682C9.09013 11.6508 9.03694 11.5219 8.9984 11.4071C8.95614 11.281 8.90882 11.1587 8.86666 11.0348C8.73234 10.64 8.63183 10.2537 8.56065 9.82981C8.23524 7.89165 8.31784 6.3017 8.98903 4.44133C9.04882 4.27569 9.10783 4.14633 9.17081 3.98828C9.41463 3.37642 9.93161 2.45156 10.3351 1.91968C10.4965 1.70698 10.6531 1.49252 10.8359 1.29808L11.2124 0.870122C11.2505 0.832283 11.2482 0.8319 11.2815 0.789483C11.3863 0.656126 11.5828 0.481008 11.3763 0.177421C11.2867 0.0456495 11.1097 0.00569512 10.922 -0.00012207H10.8142C10.7115 0.00264975 10.6098 0.01226 10.5216 0.0194631C8.91219 0.151107 7.49115 0.501998 6.08494 1.19729C5.76578 1.3551 5.48669 1.52042 5.18111 1.69943C5.10257 1.74543 5.05145 1.78149 4.97571 1.83136C4.62207 2.06419 4.30146 2.3258 3.97354 2.58991C3.89557 2.6527 3.85187 2.67542 3.7776 2.74977L3.58962 2.91752C3.31418 3.15735 2.81757 3.69042 2.57214 3.97737L2.24693 4.36304C2.03848 4.62704 1.84647 4.9036 1.67325 5.19167C0.889715 6.49476 0.405253 7.73858 0.146988 9.26613C0.0857455 9.62831 0.0159834 10.1198 0.0180487 10.5346C0.0192105 10.7666 -0.0189254 10.9617 0.0128668 11.191C0.0413397 11.3966 0.0134016 11.6399 0.0419667 11.8509C0.0681712 12.0444 0.0827765 12.2743 0.11101 12.4713C0.195045 13.0574 0.312237 13.6453 0.481802 14.2079C0.736139 15.0518 1.0614 15.8776 1.55023 16.6133C1.83043 17.035 2.11241 17.4554 2.41899 17.8574C2.47208 17.927 2.51213 17.9767 2.56694 18.0461C2.78412 18.3214 3.05846 18.6327 3.31634 18.8685L3.50564 19.035C3.54728 19.0694 3.55701 19.0708 3.59891 19.1102C3.6409 19.1498 3.64889 19.153 3.69108 19.1866L4.16459 19.5932C4.4214 19.8091 4.70806 19.9919 4.98702 20.1758C5.05835 20.2228 5.12374 20.2695 5.20198 20.3169L6.34219 20.9389C6.80874 21.1704 7.33837 21.3815 7.85589 21.5267C8.85716 21.8076 9.85272 21.9998 10.9159 21.9998V21.9999Z"
          fill="white"/>
</svg>
