<svg width="24" height="23" viewBox="0 0 24 23" fill="none" xmlns="http://www.w3.org/2000/svg">
<g clip-path="url(#clip0)">
<path d="M0.114382 10.34L11.7753 0.0835017L11.7771 0.0853006C11.904 -0.0271315 12.0975 -0.0271315 12.2253 0.0853006L12.2271 0.0835017L23.8881 10.34L23.8863 10.3418C23.9565 10.4039 24.0015 10.4515 24.0015 10.5963C24.0015 10.7403 23.799 10.9354 23.6622 10.9354C23.5254 10.9354 23.4984 10.904 23.4381 10.8509L23.4363 10.8527L12.0012 0.794072L0.566203 10.8527L0.564403 10.8509C0.505 10.9031 0.477098 10.9354 0.340292 10.9354C0.203486 10.9354 0.000976562 10.7412 0.000976562 10.5963C0.000976562 10.4524 0.0450786 10.4039 0.116182 10.3418L0.114382 10.34ZM9.35781 21.5706V15.2591H12.12H12.8491H14.6438V22.659C14.6438 22.8478 14.7968 22.9999 14.9849 22.9999H19.2637V22.999L19.2826 22.9981C20.0521 22.9549 20.5705 22.7102 20.9134 22.2632C21.2357 21.8423 21.3752 21.2594 21.4031 20.5057C21.4049 20.4922 21.4058 20.4787 21.4058 20.4652V12.7865C21.4058 12.6921 21.3662 12.5976 21.2897 12.5302L12.2262 4.5583L12.2244 4.5601C12.165 4.50793 12.0867 4.47555 12.0003 4.47555C11.9148 4.47555 11.8365 4.50703 11.7762 4.5601L11.7744 4.5583L2.711 12.5302C2.6345 12.5976 2.5949 12.6912 2.5949 12.7865V20.4652C2.5949 20.4787 2.5958 20.4922 2.5976 20.5057C2.6255 21.2585 2.765 21.8423 3.08722 22.2632C3.42923 22.7102 3.94856 22.9549 4.71809 22.9981L4.73699 22.999V22.9999H8.46947H9.01579C9.2048 22.9999 9.35691 22.8469 9.35691 22.659V21.5706H9.35781Z" fill="white"/>
</g>
<defs>
<clipPath id="clip0">
<rect width="24" height="23" fill="white"/>
</clipPath>
</defs>
</svg>
