<svg width="32" height="22" viewBox="0 0 32 22" fill="none" xmlns="http://www.w3.org/2000/svg">
<path d="M12.7001 15.0578L21.3501 10.6822L12.7001 6.27002V15.0578Z" fill="white"/>
<path opacity="0.12" d="M12.7001 6.27002L20.2876 11.22L21.3501 10.6822L12.7001 6.27002Z" fill="#420000"/>
<path d="M31.6626 4.74222C31.6626 4.74222 31.3503 2.59111 30.3881 1.63778C29.1761 0.391111 27.8141 0.391111 27.1769 0.317778C22.7162 0 16.0063 0 16.0063 0H15.9937C15.9937 0 9.28387 0 4.79812 0.317778C4.17337 0.391111 2.81137 0.391111 1.58687 1.63778C0.63725 2.59111 0.324875 4.74222 0.324875 4.74222C0.324875 4.74222 0 7.28444 0 9.81444V12.1856C0 14.7156 0.324875 17.2456 0.324875 17.2456C0.324875 17.2456 0.63725 19.3967 1.59938 20.35C2.81138 21.5967 4.41075 21.56 5.123 21.6822C7.6845 21.9267 15.9937 22 15.9937 22C15.9937 22 22.7161 21.9878 27.1894 21.67C27.8141 21.5967 29.1761 21.5967 30.4006 20.35C31.3628 19.3967 31.6751 17.2456 31.6751 17.2456C31.6751 17.2456 32 14.7156 32 12.1856V9.81444C31.9875 7.28444 31.6626 4.74222 31.6626 4.74222ZM12.6951 15.0578V6.27L21.3416 10.6822L12.695 15.0578H12.6951Z" fill="url(#paint0_linear)"/>
<defs>
<linearGradient id="paint0_linear" x1="15.9936" y1="0" x2="15.9936" y2="22.0066" gradientUnits="userSpaceOnUse">
<stop stop-color="#E52D27"/>
<stop offset="1" stop-color="#BF171D"/>
</linearGradient>
</defs>
</svg>
