<svg width="46" height="26" viewBox="0 0 46 26" fill="none" xmlns="http://www.w3.org/2000/svg">
<g clip-path="url(#clip0)">
<path fill-rule="evenodd" clip-rule="evenodd" d="M34.5044 14.1336C33.9825 14.1336 33.4539 13.9878 33.0726 13.7957C33.0257 13.7758 32.9923 13.7493 32.9521 13.7294C31.2059 12.8283 30.7308 10.3635 32.0489 8.8925C34.0762 6.63307 37.4416 8.06427 37.6892 10.5755C37.6959 10.6417 37.6892 10.6947 37.6959 10.761C37.7159 11.0128 37.736 10.7941 37.6959 11.1188C37.6892 11.1851 37.6959 11.2381 37.6892 11.3043C37.6825 11.4037 37.6557 11.5429 37.629 11.6489C37.542 12.0464 37.368 12.4307 37.1405 12.7554C36.5584 13.5969 35.5415 14.1336 34.5044 14.1336ZM0.000244141 19.0964C0.000244141 20.2493 0.0872237 21.1173 0.428451 22.1244C0.910185 23.5556 1.75991 24.6356 3.05122 25.3777C3.5731 25.6825 4.56333 26.0006 5.39298 26.0006C6.01522 26.0006 6.63077 25.9542 7.19279 25.815C7.621 25.7024 7.98899 25.5632 8.37036 25.4109L8.89224 25.1723C9.38735 24.8874 9.89585 24.6025 10.3575 24.2778C10.9731 23.8471 11.5485 23.4032 12.1172 22.9195C12.2577 22.8003 12.3982 22.6545 12.532 22.5485C12.9134 22.2636 14.3251 20.8721 14.7333 20.4613C14.8135 20.3818 14.8738 20.3553 14.954 20.2758C15.215 20.0174 15.4692 19.7325 15.7436 19.4939L16.1718 19.1361C17.0349 18.5199 18.1054 18.3477 19.1625 18.2151C19.4034 18.182 19.6643 18.2019 19.9052 18.1621C20.1528 18.1224 20.4271 18.1621 20.6813 18.1489C20.8218 18.1422 20.8687 18.1224 21.0359 18.1224L22.9963 18.1489C23.7724 18.1489 24.5419 18.0892 25.2845 18.1489C25.5321 18.1688 25.8265 18.129 26.0674 18.1555C26.2948 18.182 26.5558 18.1886 26.8033 18.2085C27.0175 18.2218 27.2784 18.2615 27.5059 18.2946C28.3355 18.4139 29.1451 18.6591 29.8142 19.1096C30.1286 19.3217 30.3695 19.5867 30.6438 19.8584L32.2362 21.4088C32.5775 21.6937 33.1395 22.2768 33.4473 22.5286L35.1802 23.9399C35.3407 24.0592 35.4745 24.1519 35.6418 24.2646C36.0232 24.5362 36.4179 24.7681 36.8261 25.0067L37.6223 25.4042C38.6794 25.8349 39.3953 26.0006 40.613 26.0006C42.1787 26.0006 43.664 25.1591 44.5472 24.0459C45.4906 22.8533 46.0058 21.2697 46.0058 19.6397C46.0058 19.0169 45.979 18.3211 45.9054 17.7447C45.7114 16.2472 45.5776 15.4124 45.2765 13.9216C45.0824 12.9542 44.8014 11.9669 44.487 11.0327C44.4134 10.8074 44.4 10.6815 44.2193 10.5424C44.0119 10.39 43.1555 10.4695 42.8009 10.4695C42.6738 10.4695 38.8065 10.496 38.7196 10.4628C38.6192 10.4231 38.6593 10.2972 38.6326 10.1713C38.5857 9.94602 38.5389 9.79362 38.472 9.60147C38.2847 9.03827 38.0103 8.66722 37.649 8.20341C37.2476 7.68659 36.4514 7.21615 35.8492 7.01738C34.6583 6.62645 33.5409 6.77884 32.4503 7.33542C32.3366 7.39505 32.2429 7.46131 32.1359 7.5342C31.9084 7.67997 31.7612 7.81911 31.5738 8.00463C30.3561 9.21055 29.9279 11.1321 30.7174 12.6958C31.072 13.3981 31.5069 13.9149 32.1359 14.3655C33.2131 15.1407 34.9058 15.3262 36.1302 14.7829C36.6588 14.5444 36.8997 14.3655 37.3279 14.0209C37.9836 13.4975 38.666 12.2982 38.666 11.4368H43.5436C43.664 11.4368 43.6908 11.7151 43.7242 11.8211C44.0387 12.8747 44.2996 13.9348 44.5204 15.0215C44.7145 15.9888 44.8616 16.996 44.962 17.9832C45.1092 19.5271 45.0891 20.9583 44.4401 22.3828C44.1056 23.1183 43.8313 23.4231 43.2759 23.9797C43.1823 24.0724 43.0552 24.1652 42.9481 24.2447C42.3459 24.682 41.523 25.0199 40.6264 25.0199C39.4555 25.0199 38.6995 24.8477 37.7561 24.3838C37.3881 24.2049 37.0937 24.0393 36.7659 23.8273C36.1704 23.4496 35.0999 22.6876 34.578 22.1973C34.4977 22.1244 34.4509 22.0979 34.3706 22.025C34.3304 21.9853 34.317 21.9654 34.2769 21.9323L32.9588 20.733C32.8183 20.5938 32.7046 20.4812 32.5641 20.342L30.6037 18.4802C30.4498 18.3543 30.316 18.2615 30.142 18.1555C29.2388 17.6188 28.2419 17.4134 27.1914 17.2743C26.6093 17.1947 24.6355 17.1219 24.2274 17.1749L21.8388 17.1815C21.2902 17.1219 21.1697 17.1881 20.7482 17.1881L19.6041 17.2146C19.4703 17.2213 19.4101 17.2411 19.2495 17.2411C18.9283 17.2478 18.5202 17.3074 18.2057 17.367C15.8907 17.811 15.3689 18.5 13.8902 19.971C13.8099 20.0505 13.7631 20.0704 13.6828 20.1433L12.0101 21.7202C11.9633 21.76 11.9432 21.7865 11.9031 21.8262L11.2875 22.3497C11.2139 22.4093 11.1403 22.4756 11.0667 22.5352C10.4846 22.9858 9.90923 23.4231 9.29368 23.8273C8.35029 24.4368 7.10581 25.0266 5.84795 25.0266C4.92463 25.0266 4.2221 24.9272 3.49281 24.4965C3.02446 24.2182 3.00439 24.1652 2.62301 23.8471C2.2684 23.5556 1.80005 22.8599 1.61271 22.416C1.51904 22.1907 1.41868 21.9919 1.34508 21.76C0.729535 19.7656 1.03731 17.811 1.37185 15.7901C1.45883 15.2732 1.56588 14.7564 1.66624 14.2794C1.77329 13.7824 1.88703 13.259 2.02085 12.8018C2.42898 11.4302 2.8505 10.0653 3.43928 8.75999C3.61324 8.38231 3.82066 7.85886 4.03476 7.51432C4.09498 7.41493 4.12843 7.34204 4.18196 7.2294L5.03837 5.78496C5.33945 5.34103 5.66061 4.89046 6.00184 4.47303C6.07544 4.3869 6.12896 4.30739 6.20925 4.22125L7.10581 3.28037C8.16964 2.22686 10.043 0.967937 12.1506 0.967937C13.9036 0.967937 14.76 1.53114 16.2387 2.12084C16.4461 2.20035 16.6133 2.29311 16.8208 2.37925C17.0215 2.45876 17.2155 2.55152 17.4029 2.63766L17.985 2.87619C18.1991 2.96233 18.373 3.02859 18.5938 3.1081C19.0153 3.26712 19.4168 3.38639 19.865 3.5189C22.267 4.208 25.0972 4.00922 27.3921 3.11473L31.2326 1.49138C32.1626 1.16671 32.7715 0.961311 33.8554 0.961311C35.2872 0.961311 36.6521 1.52451 37.6825 2.26661C37.8631 2.3925 38.0103 2.53827 38.2646 2.49852C38.6058 2.44551 38.947 1.97507 38.3315 1.53776C36.9666 0.563757 35.4879 -0.0126953 33.6614 -0.0126953C31.5404 -0.0126953 29.7607 1.12033 27.8806 1.86906C26.2614 2.51177 24.8898 2.93583 23.003 2.96233C21.1898 2.98883 19.7112 2.53827 18.1455 1.88894C18.0318 1.84255 17.9515 1.80942 17.8378 1.76304L16.6535 1.2396C15.2016 0.570383 13.9036 -0.0126953 12.1439 -0.0126953C10.9396 -0.0126953 9.80218 0.351729 8.9926 0.749282C8.5577 0.967937 8.15626 1.20647 7.75481 1.4715C7.17272 1.84918 6.65753 2.33287 6.16911 2.81656C5.5937 3.38639 5.08521 4.01585 4.61016 4.67181L3.66008 6.15601C2.77021 7.64021 2.11452 9.26355 1.55919 10.9001C1.044 12.4307 0.676009 13.9282 0.401689 15.578C0.308018 16.1346 0.23442 16.6779 0.154131 17.2743C0.080533 17.8176 0.000244141 18.4735 0.000244141 19.0898L0.000244141 19.0964Z" fill="#F600E7"/>
<path fill-rule="evenodd" clip-rule="evenodd" d="M11.0334 7.20233V10.4689H7.87536C7.58097 10.4689 7.38025 10.6213 7.32003 10.8665C7.2665 11.0984 7.47392 11.4098 7.70809 11.4098H11.0334V14.6432C11.0334 15.2064 11.9835 15.3058 11.9835 14.5637V11.4098H15.282C15.7504 11.4098 15.9712 10.4689 15.0947 10.4689H11.9902V7.34148C11.9902 6.5795 11.0401 6.73189 11.0401 7.20896L11.0334 7.20233Z" fill="#F600E7"/>
</g>
<defs>
<clipPath id="clip0">
<rect width="46" height="26" fill="white"/>
</clipPath>
</defs>
</svg>
