<?xml version="1.0" encoding="UTF-8"?>
<!DOCTYPE svg PUBLIC "-//W3C//DTD SVG 1.1//EN" "http://www.w3.org/Graphics/SVG/1.1/DTD/svg11.dtd">
<!-- Creator: CorelDRAW 2020 (64-Bit) -->
<svg xmlns="http://www.w3.org/2000/svg" xml:space="preserve" width="104.309mm" height="100.091mm" version="1.1" style="shape-rendering:geometricPrecision; text-rendering:geometricPrecision; image-rendering:optimizeQuality; fill-rule:evenodd; clip-rule:evenodd"
viewBox="0 0 818.04 784.95"
 xmlns:xlink="http://www.w3.org/1999/xlink"
 xmlns:xodm="http://www.corel.com/coreldraw/odm/2003">
 <defs>
  <style type="text/css">
   <![CDATA[
    .fil0 {fill:black}
   ]]>
  </style>
 </defs>
 <g id="Слой_x0020_1">
  <metadata id="CorelCorpID_0Corel-Layer"/>
  <path class="fil0" d="M240.37 644.85c0,-10.35 2.86,-20.37 6.15,-27.71 12.8,-28.54 43.86,-44.8 75.91,-38.41 4.72,0.94 8.44,2.46 12.52,4.08 6.5,2.58 14.86,8.22 20.14,13.06 1.68,1.54 2.31,2.36 3.76,4.21 11.96,15.3 16.98,25.41 16.98,47.43 0,34.72 -32.19,65.07 -63.74,65.07 -13.58,0 -21.58,-0.77 -33.2,-6.64 -8.05,-4.06 -13.25,-7.59 -19.43,-13.77 -11.77,-11.78 -19.08,-29.98 -19.08,-47.32zm-152.05 -208.49l0 260.29c0,18.69 2.42,36.46 9.95,51.8 2.52,5.13 4.79,8.55 8.25,13 11.41,14.68 33.54,23.51 59.49,23.51l140.77 0c8.92,0 12.62,-7.1 12.62,-15.27l0 -33.86c14.52,0 33.34,-9.74 44.4,-18.02 8.1,-6.06 14.39,-13.16 20.4,-21.43 2.99,-4.11 5.33,-9.09 7.59,-13.66 13.69,-27.75 9.25,-66.91 -9.11,-91.17 -10.07,-13.3 -21.97,-23.43 -37.38,-30.34 -35.28,-15.82 -76.41,-6.27 -101.42,18.75 -32.8,32.82 -36.25,82.83 -8.9,120.12 4.51,6.15 9.67,11.56 15.65,16.22 12.61,9.85 28.31,18.15 44.88,19.53l0 25.23 -132.8 0c-37.15,0 -50.46,-24.45 -50.46,-59.1l0 -259.62c0,-2.1 7.2,-7.07 8.79,-8.47 3,-2.65 5.97,-5.77 9.04,-8.23l9.23 -8.04c1.85,-1.89 2.86,-2.29 4.66,-3.98l106.56 -93.97c9.06,-8.48 18.82,-16.08 27.89,-24.57l9.29 -7.97c10.78,-9.58 21.22,-19.61 32.47,-28.61l32.44 -28.65c3,-2.29 6.15,-5.48 9.14,-8.13l37.51 -32.87c2.73,-2.78 6.48,-6.39 9.79,-8.14 7.8,5.23 51.72,46.11 64.51,56.34l14 12.56c1.79,1.66 2.79,2.13 4.65,3.98 1.83,1.82 2.86,2.22 4.66,3.97l18.24 16.29c8.76,8.51 24.15,20.01 32.54,28.54 1.85,1.89 2.86,2.29 4.66,3.97 0.95,0.89 1.33,1.44 2.35,2.3 10.98,9.24 39.98,34.31 48.77,42.87 1.8,1.75 2.83,2.15 4.66,3.97 8.75,8.71 19.16,15.88 27.89,24.57 1.86,1.85 2.87,2.32 4.65,3.98 17.97,16.82 37.04,32.47 55.43,48.82 2.43,2.16 6.83,7.34 9.8,8.13l0 230.41c0,29.56 4.88,74.51 -29.95,86.25 -5.3,1.79 -12.95,3.39 -19.85,3.39l-133.46 0 0 -251.65c0,-5.47 -4.77,-11.95 -9.96,-11.95l-100.26 0c-14.88,0 -14.53,23.24 0,23.24l86.32 0 0 250.99c0,8.29 4.99,13.28 13.28,13.28l140.1 0c57.11,0 77.69,-36.05 77.69,-92.96l0 -254.97c0,-7.69 -8.74,-13.85 -14.14,-18.4l-27.53 -24.26c-1.24,-1.1 -1.4,-1 -2.62,-2.03l-22.61 -19.88c-3.48,-3.24 -6.53,-6.08 -10.22,-9.04 -3.28,-2.63 -6.54,-6.26 -9.76,-8.83l-75.62 -66.47c-1.89,-1.84 -3.06,-2.34 -4.99,-4.3l-15.26 -13.29c-10.7,-9.45 -21.28,-19.68 -32.47,-28.61l-19.98 -17.87c-1.36,-1.26 -1.63,-1.22 -2.97,-2.35 -6.83,-5.74 -13.17,-12.34 -20.02,-17.83l-9.88 -8.71c-1.86,-1.81 -3.04,-2.38 -4.98,-4.31l-35.31 -31.09c-5.88,-4.56 -11.31,-10.29 -19.38,-4.66 -5.36,3.73 -9.85,8.83 -14.97,12.92l-34.94 30.8c-0.9,0.9 -1.35,1.47 -2.34,2.3 -6.75,5.65 -17.24,15.68 -23.04,20.12l-210.87 185.53c-3.56,2.75 -6.78,6.43 -10.14,9.11 -3.44,2.75 -6.69,5.61 -9.88,8.71 -3.41,3.31 -7.48,4.8 -7.48,11.77z"/>
  <path class="fil0" d="M-0 359.33c0,12.17 11.47,18.12 20.39,10.43 1.13,-0.98 1.6,-1.66 2.69,-2.62l126.48 -111.23c2.11,-2.1 3.74,-3.09 5.97,-5.32 1.46,-1.46 1.79,-1.53 3.26,-2.71 1.29,-1.03 1.82,-1.81 3.06,-2.91l58.43 -51.13c1.17,-1.09 1.76,-1.92 3.01,-2.97 1.35,-1.13 1.6,-1.07 2.96,-2.35l71.37 -62.76c1.08,-0.95 1.6,-1.68 2.65,-2.66l34.27 -30.14c2.37,-1.89 3.87,-3.53 6.07,-5.21l49.42 -43.54c6.5,-5.03 12.07,-11.6 18.98,-16.22 5.38,3.6 12.99,11 18.09,15.78l31.21 27.23c14.77,13.12 37.24,32.2 51.79,45.81l24.51 21.31c1.27,1.02 1.84,1.77 3.04,2.93 1.48,1.43 1.84,1.44 3.3,2.67l9.02 8.24c1.48,1.24 1.82,1.24 3.3,2.68l43.15 37.86c1.2,1.06 1.8,1.92 3,2.98 11.69,10.32 32.47,27.46 43.15,37.86 1.37,1.34 1.59,1.31 2.93,2.38l6.35 5.61c1.26,1.06 1.79,1.87 3.05,2.93l58.39 51.16c1.24,1.1 1.77,1.88 3.06,2.91 7.47,5.98 14.24,12.82 21.54,18.96l46.38 40.6c1.29,1.03 1.82,1.81 3.06,2.91 1.42,1.26 1.88,1.32 3.32,2.65 6.35,5.91 9.02,9.8 16.09,9.8 4.81,0 11.29,-6.99 11.29,-11.95 0,-7.93 -10.9,-14.24 -16.44,-19.42l-15.9 -13.98c-1.26,-1.06 -1.79,-1.87 -3.05,-2.93 -1.47,-1.24 -1.82,-1.24 -3.3,-2.68l-28.87 -25.58c-6.82,-6.64 -18.15,-15.68 -25.57,-22.24 -1.2,-1.06 -1.8,-1.92 -3,-2.98l-13.24 -11.32c-7.62,-6.38 -14.4,-13.38 -22.21,-19.62 -8.87,-7.1 -17.12,-15.31 -25.64,-22.84 -1.43,-1.26 -1.88,-1.31 -3.32,-2.66 -1.29,-1.21 -1.59,-1.72 -3.1,-2.88 -5.59,-4.32 -10.48,-9.51 -15.85,-14.03 -1.47,-1.24 -1.82,-1.24 -3.3,-2.68 -2.33,-2.27 -4.04,-3.37 -6.3,-5.66 -1.43,-1.46 -1.57,-1.5 -3.21,-2.77l-16.22 -14.33c-1.47,-1.12 -1.75,-1.47 -3.15,-2.83 -1.48,-1.44 -1.83,-1.44 -3.3,-2.68l-63.78 -56.4c-1.42,-1.26 -1.88,-1.31 -3.32,-2.66l-22.58 -19.92c-4.29,-4.01 -8.39,-7.22 -12.6,-11.3l-6.35 -5.6c-7.48,-6.29 -14.63,-13.43 -22.28,-19.55l-9.89 -8.71c-6.82,-6.64 -18.15,-15.68 -25.57,-22.24 -1.2,-1.06 -1.8,-1.92 -3,-2.98l-6.42 -5.53c-7.59,-5.88 -16.5,-18.53 -26.79,-8.76 -2.24,2.13 -4,3.52 -6.29,5.66l-121.18 106.57c-1.48,1.44 -1.82,1.44 -3.3,2.68 -1.25,1.04 -1.84,1.88 -3.01,2.97 -1.44,1.34 -1.9,1.4 -3.32,2.65l-34.86 30.88c-7.08,6.9 -15.25,12.59 -22.24,19.59 -1.57,1.57 -2.04,1.67 -3.63,3.01l-25.33 22.48c-4.52,3.62 -8.26,7.45 -12.81,11.09 -1.29,1.03 -1.82,1.81 -3.06,2.91l-79.94 70.12c-8.03,6.41 -24.15,22.26 -32.05,28.37l-31.75 28.01c-4.27,3.99 -17.77,13.25 -17.77,18.75z"/>
 </g>
</svg>
