<?xml version="1.0" encoding="UTF-8"?>
<!DOCTYPE svg PUBLIC "-//W3C//DTD SVG 1.1//EN" "http://www.w3.org/Graphics/SVG/1.1/DTD/svg11.dtd">
<!-- Creator: CorelDRAW 2020 (64-Bit) -->
<svg xmlns="http://www.w3.org/2000/svg" xml:space="preserve" width="86.6142mm" height="100.011mm" version="1.1" style="shape-rendering:geometricPrecision; text-rendering:geometricPrecision; image-rendering:optimizeQuality; fill-rule:evenodd; clip-rule:evenodd"
viewBox="0 0 6008.73 6938.1"
 xmlns:xlink="http://www.w3.org/1999/xlink"
 xmlns:xodm="http://www.corel.com/coreldraw/odm/2003">
 <defs>
  <style type="text/css">
   <![CDATA[
    .fil0 {fill:black}
   ]]>
  </style>
 </defs>
 <g id="Слой_x0020_1">
  <metadata id="CorelCorpID_0Corel-Layer"/>
  <path class="fil0" d="M3013.18 6746.07c-177.54,0 -272.58,-55.42 -388.65,-151.73 -30.81,-25.56 -91.57,-114.4 -110.74,-153.57 -69.97,-143.01 -70.98,-323.77 -3.82,-468.1 43.54,-93.56 98.55,-154.67 179.22,-214.32 209.66,-155.04 510.98,-126.06 701.37,64.08 49.77,49.7 76.45,87.99 108.2,156.11 96.75,207.56 41.04,456.52 -105.25,601.6 -53.89,53.44 -86.13,78.18 -157.05,113.14 -56.84,28.03 -138.39,52.78 -223.29,52.78zm-616.73 -6008.73c-23.02,11.04 -57.18,19.43 -82.24,29.37 -26.97,10.7 -52.29,19.8 -80.56,31.04 -144.26,57.34 -282.22,132.11 -411.76,216.72 -14.99,9.8 -18.67,14.29 -33.9,24.84 -87.16,60.33 -178.91,122.8 -253.54,198.73 -9.53,9.7 -16.23,17.5 -26.65,26.22 -14.09,11.78 -18.33,12.9 -32.15,26.58 -21.02,20.8 -37.59,37.95 -58.67,58.8 -21.3,21.05 -31.06,37.5 -52.8,58.8 -21.14,20.71 -36.05,39.75 -55.72,61.76l-97.57 125.63c-227.06,309.53 -344.39,598.34 -387.71,986.72 -6.87,61.57 -0.86,162.42 -0.86,228.21l0.42 1932.84c0.01,46.5 -14.11,45.65 -40.06,71.54l-743.05 742.98c-21.89,21.53 -39.62,36.23 -39.62,77.85l0 575.62c0,15.59 12.19,39.53 19.84,50.64 11.45,16.64 27.13,24.73 45.19,31.17 44.83,15.97 957.64,6.29 1027.47,6.29 393.53,0 787.06,0 1180.6,0 13.26,159.28 94.82,290.08 189.69,403.55 11.02,13.18 31.53,33.44 44.38,43.73 66.47,53.2 128.38,98.35 208.08,132.59 276.66,118.89 597.41,51.63 804.53,-155.49 15.75,-15.75 29.16,-27.88 44.14,-43.98 95.14,-102.26 153.03,-247.84 170.16,-387.83l7.87 -86.59c1.7,-96.94 -23.1,-216.42 -66.92,-303.5 -20.85,-41.44 -38.88,-80.75 -65.16,-116.93 -144.57,-199.07 -354.3,-319.6 -614.3,-319.6 -155.66,0 -274.75,43.39 -392.41,118.59l-96.52 73.81c-120.65,106.32 -219.78,282.7 -233.53,447.82l-2079.27 0 0 -422.9c0,-21.82 88.51,-97.32 107.2,-116.01 39.61,-39.61 74.92,-74.92 114.54,-114.54l458.14 -458.14c37.8,-37.8 79.65,-75.35 114.65,-114.42 38.41,-42.88 27.78,-123.05 27.78,-201.29l-0.02 -2049.92c-1.1,-299.02 141.55,-611.03 298.4,-846.96 44.4,-66.78 93.36,-134.2 146.6,-194.07 241.66,-271.74 530.21,-485.97 870.65,-621.25 51.71,-20.55 114.52,-43.8 170.46,-58.62 33.97,-9 49.55,-16.12 68.17,-43.42 22.84,-33.49 13.99,-55.67 13.99,-91.73 0,-169.28 24.78,-296.08 89.87,-403.52 164.05,-270.8 647.87,-249.74 729.08,189.56 49.44,267.42 -61.69,301.71 152.32,364.56 185.76,54.55 368.58,154.59 526.21,254.98l113.29 80.54c13.51,11.2 21.8,17.2 36.41,28.19l139.98 118.46c328.28,315.98 580.95,715.54 620.71,1200.11 7.17,87.31 0.31,663.69 0.31,780.89l0 1298.07c0,112.45 -16,153.11 42.51,215.94 124.7,133.88 264.15,258.11 393.62,387.58l323.04 323.05c13.7,13.7 63.14,53.62 63.14,71.95l0 422.9 -1080.75 0c-53.11,0 -94.95,42.32 -96.33,94.77 -1.33,50.75 38.54,99.06 96.33,99.06l1174.73 0c56.66,0 99.85,-49.64 99.85,-105.73l0 -540.38c0,-74.81 -45.27,-101.06 -83.7,-139.5l-687.21 -687.21c-17.47,-17.47 -46.32,-34.64 -50.98,-60.62 -7.08,-39.46 -0.42,-1754 -0.42,-1943.76 0,-162.36 -2.12,-291.59 -27.83,-424.44 -57.46,-296.96 -185.53,-551.51 -353.99,-791.36 -50.7,-72.18 -104.81,-125.32 -152.68,-188 -17.15,-22.46 -36.45,-39.38 -57.27,-60.2 -77.72,-77.72 -152.57,-151.51 -238.83,-219.31 -44.65,-35.1 -86.82,-63.92 -131.78,-97.3 -21.69,-16.09 -43.02,-29.82 -67.38,-44.22 -26.33,-15.57 -45.9,-28.87 -72.62,-44.85 -121.02,-72.37 -250.31,-138.33 -385.81,-183.94 -27.4,-9.21 -63.23,-20.63 -85.95,-31.53 0,-156.9 -20.67,-290.48 -87.22,-417.91 -79.27,-151.78 -206.71,-255.77 -374.72,-300.75 -140.89,-37.72 -295.02,-16.15 -417.28,45 -73.8,36.92 -135.49,89.52 -184.81,149.99 -120.7,147.97 -151.8,329.36 -151.8,523.67z"/>
 </g>
</svg>
