<?xml version="1.0" encoding="UTF-8"?>
<!DOCTYPE svg PUBLIC "-//W3C//DTD SVG 1.1//EN" "http://www.w3.org/Graphics/SVG/1.1/DTD/svg11.dtd">
<!-- Creator: CorelDRAW 2020 (64-Bit) -->
<svg xmlns="http://www.w3.org/2000/svg" xml:space="preserve" width="96.0558mm" height="95.8718mm" version="1.1" style="shape-rendering:geometricPrecision; text-rendering:geometricPrecision; image-rendering:optimizeQuality; fill-rule:evenodd; clip-rule:evenodd"
viewBox="0 0 1073.09 1071.04"
 xmlns:xlink="http://www.w3.org/1999/xlink"
 xmlns:xodm="http://www.corel.com/coreldraw/odm/2003">
 <defs>
  <style type="text/css">
   <![CDATA[
    .fil0 {fill:black}
   ]]>
  </style>
 </defs>
 <g id="Слой_x0020_1">
  <metadata id="CorelCorpID_0Corel-Layer"/>
  <path class="fil0" d="M132.42 857.27c-40.59,0 -72.23,-20.56 -88.6,-53.28 -37.36,-74.7 33.68,-167.91 125.64,-131.31 14.33,5.7 30.96,20.03 39.4,32.48 11.6,17.11 16.68,31.96 18.02,54.83 0.65,11.13 -3.63,28.56 -8.1,38.92 -6.65,15.39 -18.75,30.51 -31.89,40 -4.32,3.12 -10.38,7.06 -15.41,9.19 -11.36,4.81 -23.39,9.18 -39.06,9.18zm-21.75 -724.53l0 328.21c0,7.03 1.86,10.45 5.74,14.13 10.18,9.65 27.99,5.82 30.79,-13.54 1.21,-8.36 1.04,-25.05 -0.19,-33.14 -1.67,-11.02 -0.4,-150.64 -0.4,-171.75 0,-12.6 -0.95,-22.15 -0.95,-34.05 0.01,-18.33 -1.71,-101.72 1.33,-116.9 8.59,-42.87 44.49,-71.33 89.47,-71.33 32.39,0 59.61,22.45 85.45,36.56 9.13,4.99 16.7,9.85 25.83,14.84l77.49 44.53c8.84,5.2 17.07,9.69 25.76,14.92l258.7 148.97c8.67,5.21 16.93,9.94 25.86,14.81l51.58 29.76c25.67,15.43 52.36,29.52 78.03,44.94l103.22 59.47c12.81,7.7 25.94,13.8 37.63,22.9 49.7,38.7 41.31,115.78 -11.36,146.77l-129.14 74.22c-68.71,39.56 -137.56,79.51 -206.3,119.08l-64.22 36.99c-4.34,2.5 -8.75,5 -13.24,7.57l-25.77 14.9c-33.95,20.36 -69.23,39.11 -103.08,59.6 -49.93,30.23 -104.37,59.05 -154.76,89.27 -25.19,15.11 -36.85,22.51 -69.24,22.51 -34.64,0 -65.52,-26.18 -77.72,-56.59 -2.09,-5.21 -3.72,-10.99 -4.87,-17.83l-0.65 -72.18c16.87,-0.38 33.4,-7.89 47.3,-15.12 12.74,-6.62 25.97,-17.7 35.21,-28.16 10.44,-11.82 17.86,-24.77 23.83,-39.55 7.69,-19.04 10.17,-45.22 7.01,-67.42 -1.75,-12.32 -6.31,-24.99 -11.21,-36.08 -1.51,-3.41 -3.4,-6.2 -5.37,-9.76 -5.62,-10.15 -13.34,-18.86 -21.34,-26.9 -69.79,-70.02 -188.6,-36.52 -216.71,58.06 -3.85,12.95 -4.38,28.82 -4.38,42.91 0,44.24 31.73,89.25 68.41,107.53 10.45,5.21 20.48,9.63 32.24,12.21 14.88,3.26 10.96,-4.27 10.96,42.01 0,8.71 -1.56,14.56 -0.4,22.15 2.13,14.04 -0.69,13.91 6.19,34.48 5.33,15.91 13.09,28.34 23.13,41.19 18.69,23.91 53.52,43.11 86.48,43.11 19.15,0 31.95,-1.07 49.55,-7.2 21.35,-7.44 71.69,-40.01 95.49,-53.01l67.83 -39.05c9.14,-5.51 18.31,-10.37 27.55,-15.96l121.79 -70.22c4.53,-2.73 8.93,-5.01 13.84,-7.92l189.52 -109.37c31.22,-18.82 63.57,-35.87 94.83,-54.62l67.73 -39.15c2.37,-1.42 4.27,-2.35 6.63,-3.77l20.36 -11.8c12.64,-6.9 28.85,-15.27 40.5,-23.82l11.93 -9.83c14.54,-14.39 27.1,-32.17 32.94,-52.19 14.02,-48.12 1.18,-92.74 -32.48,-126.6 -7.62,-7.66 -15.54,-12.79 -25,-18.51 -31.25,-18.86 -63.4,-36.05 -94.82,-54.63l-217.33 -125.07c-2.36,-1.42 -4.26,-2.36 -6.63,-3.78 -2.53,-1.52 -4.45,-2.8 -7.09,-4.26 -36.58,-20.35 -71.97,-42.37 -108.74,-62.46l-175.85 -101.28c-26.42,-15.63 -105.4,-62.12 -123.76,-69.2 -48.81,-18.83 -107.81,0 -138.66,40.26 -19.17,25.01 -26.47,50.87 -26.47,85.14z"/>
 </g>
</svg>
