<svg width="32" height="32" viewBox="0 0 32 32" fill="none" xmlns="http://www.w3.org/2000/svg">
<g clip-path="url(#clip0)">
<path fill-rule="evenodd" clip-rule="evenodd" d="M1.03881 22.9206C1.03881 22.1361 1.1205 21.6677 1.58731 21.0119C1.70401 20.848 1.78571 20.7777 1.92575 20.6372C3.10445 19.4427 5.20511 19.6184 6.20875 20.9885C6.83895 21.855 6.96732 23.0377 6.48884 23.9862C5.4035 26.1643 2.38089 26.0941 1.34223 24.0097C1.20219 23.7286 1.05048 23.3188 1.05048 22.9206H1.03881ZM3.32619 3.9035V13.8219C3.32619 14.302 3.97972 14.5128 4.27148 14.1498C4.35317 14.0444 4.38819 13.9507 4.41153 13.7751L4.38819 7.65072C4.38819 7.29942 4.36484 7.00667 4.36484 6.63195V4.05573C4.36484 3.86837 4.31816 3.80982 4.3415 3.58733C4.36484 3.42339 4.36484 3.29458 4.38819 3.13064C4.45821 2.75592 4.64493 2.35778 4.86667 2.06502C5.56689 1.13993 6.96732 0.694948 8.05266 1.2219C8.7062 1.53807 11.9039 3.42339 12.6741 3.88008C12.9425 4.03231 13.1876 4.16112 13.4444 4.32507C14.4597 4.93399 15.4983 5.50778 16.5136 6.10499C17.5406 6.6905 18.5676 7.28771 19.5829 7.88492C19.7113 7.95518 19.828 8.01373 19.9564 8.0957L21.882 9.20816C22.1271 9.36039 22.3838 9.50091 22.6522 9.65314L26.4918 11.8781C26.6201 11.96 26.7368 12.0303 26.8652 12.1005C26.9936 12.1708 27.122 12.2528 27.262 12.323L28.0322 12.768C28.5574 13.0608 29.491 13.576 29.9228 13.8922C30.0512 13.9859 30.1329 14.0795 30.2379 14.1966C30.8214 14.7704 31.0315 15.6604 30.8915 16.4801C30.8565 16.6675 30.8098 16.808 30.7514 16.9602C30.448 17.7214 29.9578 18.1078 29.2693 18.4942L24.2627 21.3866C22.9907 22.1478 21.6953 22.8504 20.4232 23.6115C19.1395 24.3727 17.8441 25.087 16.5603 25.8482L11.9505 28.518C10.8185 29.1972 9.63983 29.8413 8.50781 30.5088C8.36776 30.5907 8.25106 30.661 8.11102 30.7312C7.71422 30.9186 7.28242 30.9772 6.80394 30.9772C5.7186 30.9772 4.67994 30.0755 4.41153 29.0567C4.38819 28.9513 4.37651 28.8928 4.35317 28.7757C4.32983 28.6703 4.3415 28.5649 4.31816 28.4361L4.32983 26.5859C4.83166 26.5742 5.32181 26.3517 5.74194 26.1292C6.2321 25.8716 6.6639 25.4734 6.99066 25.0402C7.06069 24.9465 7.11904 24.8528 7.18906 24.7591C7.44581 24.3493 7.62086 23.8809 7.70255 23.389L7.76091 22.745C7.77258 22.6279 7.74924 22.6513 7.73757 22.5225C7.71422 22.1712 7.70255 21.9955 7.62086 21.7145C7.55084 21.4686 7.46915 21.2461 7.37579 21.0353C7.20073 20.6255 6.88563 20.2507 6.5822 19.9346C4.76164 18.0961 1.73902 18.623 0.47863 20.8362C0.151861 21.3983 0.0118176 22.0424 -0.0231934 22.7099L0.0351582 23.3539C0.198543 24.5249 0.945443 25.5671 1.96076 26.1409C2.26419 26.3166 2.6143 26.4571 2.97608 26.539C3.44289 26.6444 3.32619 26.4337 3.32619 27.4056C3.32619 28.0965 3.25617 28.6703 3.41955 29.2558C3.57126 29.7944 3.78133 30.2394 4.09643 30.6141C4.72662 31.387 5.7186 32.0076 6.76893 32.0076C7.81926 32.0076 8.26273 31.8671 9.09132 31.3636C9.8849 30.8835 10.7135 30.4502 11.5071 29.9701C12.429 29.408 13.4093 28.8928 14.3313 28.3424L15.9418 27.4056C16.0818 27.3236 16.2102 27.2534 16.3503 27.1714L22.4072 23.6701C23.2007 23.19 24.0177 22.7567 24.8229 22.2766L25.6282 21.8082C25.7682 21.7262 25.8966 21.6559 26.0366 21.574L27.8572 20.5201C28.5107 20.1219 30.0162 19.3374 30.4713 18.9978C31.3933 18.3186 31.9885 17.1944 31.9885 16.0234C31.9885 15.8712 31.9535 15.6019 31.9301 15.4613C31.7667 14.3137 31.0549 13.4004 30.0979 12.8149C29.9578 12.7329 29.8411 12.6743 29.7011 12.5924C29.5611 12.5104 29.4444 12.4284 29.2926 12.3465L25.6632 10.2504C25.5231 10.1684 25.3948 10.0981 25.2547 10.0162L22.8273 8.61095C22.6872 8.52898 22.5705 8.47043 22.4305 8.38846L17.564 5.57804C17.4239 5.49607 17.2956 5.42581 17.1555 5.34384L14.7398 3.95034C13.5377 3.22432 12.289 2.56856 11.0869 1.84253L9.87323 1.13993C9.60482 0.987699 9.34807 0.835468 9.06798 0.671528C8.35609 0.249966 7.74924 0.0391846 6.88563 0.0391846C5.78862 0.0391846 4.855 0.624687 4.31816 1.18677C4.25981 1.24532 4.25981 1.25703 4.21313 1.31558C3.95638 1.63175 3.73465 1.94792 3.5946 2.33436C3.40788 2.80276 3.31452 3.29458 3.31452 3.95034L3.32619 3.9035Z" fill="url(#paint0_linear)"/>
</g>
<defs>
<linearGradient id="paint0_linear" x1="15.9826" y1="0.0391846" x2="15.9826" y2="32.0076" gradientUnits="userSpaceOnUse">
<stop stop-color="#FF38F2"/>
<stop offset="1" stop-color="#FE23F3"/>
</linearGradient>
<clipPath id="clip0">
<rect width="32" height="32" fill="white"/>
</clipPath>
</defs>
</svg>
