<?xml version="1.0" encoding="UTF-8"?>
<!DOCTYPE svg PUBLIC "-//W3C//DTD SVG 1.1//EN" "http://www.w3.org/Graphics/SVG/1.1/DTD/svg11.dtd">
<!-- Creator: CorelDRAW 2020 (64-Bit) -->
<svg xmlns="http://www.w3.org/2000/svg" xml:space="preserve" width="461.433mm" height="461.433mm" version="1.1" style="shape-rendering:geometricPrecision; text-rendering:geometricPrecision; image-rendering:optimizeQuality; fill-rule:evenodd; clip-rule:evenodd"
viewBox="0 0 15149.46 15149.46"
 xmlns:xlink="http://www.w3.org/1999/xlink"
 xmlns:xodm="http://www.corel.com/coreldraw/odm/2003">
 <defs>
  <style type="text/css">
   <![CDATA[
    .fil22 {fill:none}
    .fil0 {fill:#666666}
    .fil23 {fill:white;fill-rule:nonzero}
    .fil1 {fill:url(#id5)}
    .fil2 {fill:url(#id6)}
    .fil3 {fill:url(#id7)}
    .fil4 {fill:url(#id8)}
    .fil5 {fill:url(#id9)}
    .fil6 {fill:url(#id10)}
    .fil7 {fill:url(#id11)}
    .fil8 {fill:url(#id12)}
    .fil9 {fill:url(#id13)}
    .fil10 {fill:url(#id14)}
    .fil11 {fill:url(#id15)}
    .fil12 {fill:url(#id16)}
    .fil13 {fill:url(#id17)}
    .fil14 {fill:url(#id18)}
    .fil15 {fill:url(#id19)}
    .fil16 {fill:url(#id20)}
    .fil17 {fill:url(#id21)}
    .fil18 {fill:url(#id22)}
    .fil19 {fill:url(#id23)}
    .fil20 {fill:url(#id24)}
    .fil21 {fill:url(#id25)}
   ]]>
  </style>
   <clipPath id="id0">
    <path d="M7574.73 694.92c3799.61,0 6879.81,3080.19 6879.81,6879.81 0,3799.61 -3080.19,6879.81 -6879.81,6879.81 -3799.61,0 -6879.81,-3080.19 -6879.81,-6879.81 0,-3799.61 3080.19,-6879.81 6879.81,-6879.81z"/>
   </clipPath>
    <clipPath id="id1">
     <path d="M7574.73 694.92c3799.61,0 6879.81,3080.19 6879.81,6879.81 0,3799.61 -3080.19,6879.81 -6879.81,6879.81 -3799.61,0 -6879.81,-3080.19 -6879.81,-6879.81 0,-3799.61 3080.19,-6879.81 6879.81,-6879.81z"/>
    </clipPath>
    <clipPath id="id2">
     <path d="M7574.73 694.92c3799.61,0 6879.81,3080.19 6879.81,6879.81 0,3799.61 -3080.19,6879.81 -6879.81,6879.81 -3799.61,0 -6879.81,-3080.19 -6879.81,-6879.81 0,-3799.61 3080.19,-6879.81 6879.81,-6879.81z"/>
    </clipPath>
    <clipPath id="id3">
     <path d="M7574.73 694.92c3799.61,0 6879.81,3080.19 6879.81,6879.81 0,3799.61 -3080.19,6879.81 -6879.81,6879.81 -3799.61,0 -6879.81,-3080.19 -6879.81,-6879.81 0,-3799.61 3080.19,-6879.81 6879.81,-6879.81z"/>
    </clipPath>
    <clipPath id="id4">
     <path d="M2569.06 4891.36l10422.79 0 0 5985.32 -10422.79 0 0 -5985.32z"/>
    </clipPath>
  <linearGradient id="id5" gradientUnits="userSpaceOnUse" x1="7270.02" y1="7589.96" x2="77441.67" y2="-9215.97">
   <stop offset="0" style="stop-opacity:1; stop-color:#6C6C6C"/>
   <stop offset="1" style="stop-opacity:1; stop-color:#777676"/>
  </linearGradient>
  <linearGradient id="id6" gradientUnits="userSpaceOnUse" x1="7271.36" y1="7589.89" x2="77135.08" y2="-9142.29">
   <stop offset="0" style="stop-opacity:1; stop-color:#727272"/>
   <stop offset="1" style="stop-opacity:1; stop-color:#7C7B7B"/>
  </linearGradient>
  <linearGradient id="id7" gradientUnits="userSpaceOnUse" x1="7272.7" y1="7589.83" x2="76828.52" y2="-9068.62">
   <stop offset="0" style="stop-opacity:1; stop-color:#787878"/>
   <stop offset="1" style="stop-opacity:1; stop-color:#828181"/>
  </linearGradient>
  <linearGradient id="id8" gradientUnits="userSpaceOnUse" x1="7274.03" y1="7589.76" x2="76521.97" y2="-8994.94">
   <stop offset="0" style="stop-opacity:1; stop-color:#7E7E7E"/>
   <stop offset="1" style="stop-opacity:1; stop-color:#888787"/>
  </linearGradient>
  <linearGradient id="id9" gradientUnits="userSpaceOnUse" x1="7275.37" y1="7589.69" x2="76215.41" y2="-8921.27">
   <stop offset="0" style="stop-opacity:1; stop-color:#848484"/>
   <stop offset="1" style="stop-opacity:1; stop-color:#8F8D8D"/>
  </linearGradient>
  <linearGradient id="id10" gradientUnits="userSpaceOnUse" x1="7276.71" y1="7589.63" x2="75908.82" y2="-8847.59">
   <stop offset="0" style="stop-opacity:1; stop-color:#8B8B8B"/>
   <stop offset="1" style="stop-opacity:1; stop-color:#959393"/>
  </linearGradient>
  <linearGradient id="id11" gradientUnits="userSpaceOnUse" x1="7278.05" y1="7589.56" x2="75602.26" y2="-8773.92">
   <stop offset="0" style="stop-opacity:1; stop-color:#919191"/>
   <stop offset="1" style="stop-opacity:1; stop-color:#9B9999"/>
  </linearGradient>
  <linearGradient id="id12" gradientUnits="userSpaceOnUse" x1="7279.38" y1="7589.49" x2="75295.71" y2="-8700.24">
   <stop offset="0" style="stop-opacity:1; stop-color:#979797"/>
   <stop offset="1" style="stop-opacity:1; stop-color:#A2A0A0"/>
  </linearGradient>
  <linearGradient id="id13" gradientUnits="userSpaceOnUse" x1="7280.72" y1="7589.43" x2="74989.12" y2="-8626.56">
   <stop offset="0" style="stop-opacity:1; stop-color:#9D9D9D"/>
   <stop offset="1" style="stop-opacity:1; stop-color:#A8A6A6"/>
  </linearGradient>
  <linearGradient id="id14" gradientUnits="userSpaceOnUse" x1="7282.06" y1="7589.36" x2="74682.56" y2="-8552.89">
   <stop offset="0" style="stop-opacity:1; stop-color:#A3A3A3"/>
   <stop offset="1" style="stop-opacity:1; stop-color:#AEACAC"/>
  </linearGradient>
  <linearGradient id="id15" gradientUnits="userSpaceOnUse" x1="7283.39" y1="7589.29" x2="74376.01" y2="-8479.22">
   <stop offset="0" style="stop-opacity:1; stop-color:darkgray"/>
   <stop offset="1" style="stop-opacity:1; stop-color:#B6B3B3"/>
  </linearGradient>
  <linearGradient id="id16" gradientUnits="userSpaceOnUse" x1="7284.73" y1="7589.23" x2="74069.45" y2="-8405.54">
   <stop offset="0" style="stop-opacity:1; stop-color:#AFAFAF"/>
   <stop offset="1" style="stop-opacity:1; stop-color:#BCBABA"/>
  </linearGradient>
  <linearGradient id="id17" gradientUnits="userSpaceOnUse" x1="7286.07" y1="7589.16" x2="73762.86" y2="-8331.86">
   <stop offset="0" style="stop-opacity:1; stop-color:#B5B5B5"/>
   <stop offset="1" style="stop-opacity:1; stop-color:#C2C0C0"/>
  </linearGradient>
  <linearGradient id="id18" gradientUnits="userSpaceOnUse" x1="7287.4" y1="7589.09" x2="73456.3" y2="-8258.19">
   <stop offset="0" style="stop-opacity:1; stop-color:#BBBBBB"/>
   <stop offset="1" style="stop-opacity:1; stop-color:#CAC8C8"/>
  </linearGradient>
  <linearGradient id="id19" gradientUnits="userSpaceOnUse" x1="7288.74" y1="7589.03" x2="73149.75" y2="-8184.52">
   <stop offset="0" style="stop-opacity:1; stop-color:#C1C1C1"/>
   <stop offset="1" style="stop-opacity:1; stop-color:#D1CFCF"/>
  </linearGradient>
  <linearGradient id="id20" gradientUnits="userSpaceOnUse" x1="7290.08" y1="7588.96" x2="72843.16" y2="-8110.84">
   <stop offset="0" style="stop-opacity:1; stop-color:#C8C8C8"/>
   <stop offset="1" style="stop-opacity:1; stop-color:#D7D6D7"/>
  </linearGradient>
  <linearGradient id="id21" gradientUnits="userSpaceOnUse" x1="7291.42" y1="7588.89" x2="72536.6" y2="-8037.16">
   <stop offset="0" style="stop-opacity:1; stop-color:#CECECE"/>
   <stop offset="1" style="stop-opacity:1; stop-color:#E0DEDE"/>
  </linearGradient>
  <linearGradient id="id22" gradientUnits="userSpaceOnUse" x1="7292.75" y1="7588.82" x2="72230.04" y2="-7963.49">
   <stop offset="0" style="stop-opacity:1; stop-color:#D4D4D4"/>
   <stop offset="1" style="stop-opacity:1; stop-color:#E7E6E6"/>
  </linearGradient>
  <linearGradient id="id23" gradientUnits="userSpaceOnUse" x1="7294.09" y1="7588.76" x2="71923.49" y2="-7889.82">
   <stop offset="0" style="stop-opacity:1; stop-color:#DADADA"/>
   <stop offset="1" style="stop-opacity:1; stop-color:#EFEEEF"/>
  </linearGradient>
  <linearGradient id="id24" gradientUnits="userSpaceOnUse" x1="7295.43" y1="7588.69" x2="71616.9" y2="-7816.14">
   <stop offset="0" style="stop-opacity:1; stop-color:#E0E0E0"/>
   <stop offset="1" style="stop-opacity:1; stop-color:#F7F6F6"/>
  </linearGradient>
  <linearGradient id="id25" gradientUnits="userSpaceOnUse" x1="7296.76" y1="7588.62" x2="71310.34" y2="-7742.47">
   <stop offset="0" style="stop-opacity:1; stop-color:#E6E6E6"/>
   <stop offset="1" style="stop-opacity:1; stop-color:#FEFEFE"/>
  </linearGradient>
 </defs>
 <g id="Слой_x0020_1">
  <metadata id="CorelCorpID_0Corel-Layer"/>
  <path class="fil0" d="M7574.73 0c4183.41,0 7574.73,3391.32 7574.73,7574.73 0,4183.41 -3391.32,7574.73 -7574.73,7574.73 -4183.41,0 -7574.73,-3391.32 -7574.73,-7574.73 0,-4183.41 3391.32,-7574.73 7574.73,-7574.73z"/>
  <g id="_1437249238720">
   <path class="fil1" d="M7574.73 33.09c4165.13,0 7541.64,3376.51 7541.64,7541.64 0,4165.13 -3376.51,7541.64 -7541.64,7541.64 -4165.13,0 -7541.64,-3376.51 -7541.64,-7541.64 0,-4165.13 3376.51,-7541.64 7541.64,-7541.64z"/>
   <path class="fil2" d="M7574.73 66.18c4146.86,0 7508.55,3361.69 7508.55,7508.55 0,4146.86 -3361.69,7508.55 -7508.55,7508.55 -4146.86,0 -7508.55,-3361.69 -7508.55,-7508.55 0,-4146.86 3361.69,-7508.55 7508.55,-7508.55z"/>
   <path class="fil3" d="M7574.73 99.28c4128.58,0 7475.45,3346.87 7475.45,7475.45 0,4128.58 -3346.87,7475.45 -7475.45,7475.45 -4128.58,0 -7475.45,-3346.87 -7475.45,-7475.45 0,-4128.58 3346.87,-7475.45 7475.45,-7475.45z"/>
   <path class="fil4" d="M7574.73 132.37c4110.31,0 7442.36,3332.06 7442.36,7442.36 0,4110.31 -3332.06,7442.36 -7442.36,7442.36 -4110.31,0 -7442.36,-3332.06 -7442.36,-7442.36 0,-4110.31 3332.06,-7442.36 7442.36,-7442.36z"/>
   <path class="fil5" d="M7574.73 165.46c4092.03,0 7409.27,3317.24 7409.27,7409.27 0,4092.03 -3317.24,7409.27 -7409.27,7409.27 -4092.03,0 -7409.27,-3317.24 -7409.27,-7409.27 0,-4092.03 3317.24,-7409.27 7409.27,-7409.27z"/>
   <path class="fil6" d="M7574.73 198.55c4073.75,0 7376.18,3302.43 7376.18,7376.18 0,4073.75 -3302.43,7376.18 -7376.18,7376.18 -4073.75,0 -7376.18,-3302.43 -7376.18,-7376.18 0,-4073.75 3302.43,-7376.18 7376.18,-7376.18z"/>
   <path class="fil7" d="M7574.73 231.64c4055.48,0 7343.09,3287.61 7343.09,7343.09 0,4055.48 -3287.61,7343.09 -7343.09,7343.09 -4055.48,0 -7343.09,-3287.61 -7343.09,-7343.09 0,-4055.48 3287.61,-7343.09 7343.09,-7343.09z"/>
   <path class="fil8" d="M7574.73 264.73c4037.2,0 7310,3272.8 7310,7310 0,4037.2 -3272.8,7310 -7310,7310 -4037.2,0 -7310,-3272.8 -7310,-7310 0,-4037.2 3272.8,-7310 7310,-7310z"/>
   <path class="fil9" d="M7574.73 297.83c4018.92,0 7276.9,3257.98 7276.9,7276.9 0,4018.92 -3257.98,7276.9 -7276.9,7276.9 -4018.92,0 -7276.9,-3257.98 -7276.9,-7276.9 0,-4018.92 3257.98,-7276.9 7276.9,-7276.9z"/>
   <path class="fil10" d="M7574.73 330.92c4000.65,0 7243.81,3243.16 7243.81,7243.81 0,4000.65 -3243.16,7243.81 -7243.81,7243.81 -4000.65,0 -7243.81,-3243.16 -7243.81,-7243.81 0,-4000.65 3243.16,-7243.81 7243.81,-7243.81z"/>
   <path class="fil11" d="M7574.73 364.01c3982.37,0 7210.72,3228.35 7210.72,7210.72 0,3982.37 -3228.35,7210.72 -7210.72,7210.72 -3982.37,0 -7210.72,-3228.35 -7210.72,-7210.72 0,-3982.37 3228.35,-7210.72 7210.72,-7210.72z"/>
   <path class="fil12" d="M7574.73 397.1c3964.1,0 7177.63,3213.53 7177.63,7177.63 0,3964.1 -3213.53,7177.63 -7177.63,7177.63 -3964.1,0 -7177.63,-3213.53 -7177.63,-7177.63 0,-3964.1 3213.53,-7177.63 7177.63,-7177.63z"/>
   <path class="fil13" d="M7574.73 430.19c3945.82,0 7144.54,3198.72 7144.54,7144.54 0,3945.82 -3198.72,7144.54 -7144.54,7144.54 -3945.82,0 -7144.54,-3198.72 -7144.54,-7144.54 0,-3945.82 3198.72,-7144.54 7144.54,-7144.54z"/>
   <path class="fil14" d="M7574.73 463.28c3927.54,0 7111.45,3183.9 7111.45,7111.45 0,3927.54 -3183.9,7111.45 -7111.45,7111.45 -3927.54,0 -7111.45,-3183.9 -7111.45,-7111.45 0,-3927.54 3183.9,-7111.45 7111.45,-7111.45z"/>
   <path class="fil15" d="M7574.73 496.37c3909.27,0 7078.36,3169.09 7078.36,7078.36 0,3909.27 -3169.09,7078.36 -7078.36,7078.36 -3909.27,0 -7078.36,-3169.09 -7078.36,-7078.36 0,-3909.27 3169.09,-7078.36 7078.36,-7078.36z"/>
   <path class="fil16" d="M7574.73 529.47c3890.99,0 7045.26,3154.27 7045.26,7045.26 0,3890.99 -3154.27,7045.26 -7045.26,7045.26 -3890.99,0 -7045.26,-3154.27 -7045.26,-7045.26 0,-3890.99 3154.27,-7045.26 7045.26,-7045.26z"/>
   <path class="fil17" d="M7574.73 562.56c3872.72,0 7012.17,3139.46 7012.17,7012.17 0,3872.72 -3139.46,7012.17 -7012.17,7012.17 -3872.72,0 -7012.17,-3139.46 -7012.17,-7012.17 0,-3872.72 3139.46,-7012.17 7012.17,-7012.17z"/>
   <path class="fil18" d="M7574.73 595.65c3854.44,0 6979.08,3124.64 6979.08,6979.08 0,3854.44 -3124.64,6979.08 -6979.08,6979.08 -3854.44,0 -6979.08,-3124.64 -6979.08,-6979.08 0,-3854.44 3124.64,-6979.08 6979.08,-6979.08z"/>
   <path class="fil19" d="M7574.73 628.74c3836.17,0 6945.99,3109.83 6945.99,6945.99 0,3836.17 -3109.83,6945.99 -6945.99,6945.99 -3836.17,0 -6945.99,-3109.83 -6945.99,-6945.99 0,-3836.17 3109.83,-6945.99 6945.99,-6945.99z"/>
   <path class="fil20" d="M7574.73 661.83c3817.89,0 6912.9,3095.01 6912.9,6912.9 0,3817.89 -3095.01,6912.9 -6912.9,6912.9 -3817.89,0 -6912.9,-3095.01 -6912.9,-6912.9 0,-3817.89 3095.01,-6912.9 6912.9,-6912.9z"/>
  </g>
  <path class="fil21" d="M7574.73 694.92c3799.61,0 6879.81,3080.19 6879.81,6879.81 0,3799.61 -3080.19,6879.81 -6879.81,6879.81 -3799.61,0 -6879.81,-3080.19 -6879.81,-6879.81 0,-3799.61 3080.19,-6879.81 6879.81,-6879.81z"/>
  <g>
  </g>
  <g style="clip-path:url(#id0)">
   <g>
   </g>
   <g style="clip-path:url(#id1)">
    <image x="-8415.04" y="-2910.72" width="40537.93" height="27574.8" xlink:href="утюг_Images\утюг_ImgID1.png"/>
   </g>
   <g style="clip-path:url(#id2)">
   </g>
  </g>
  <path class="fil22" d="M7574.73 694.92c3799.61,0 6879.81,3080.19 6879.81,6879.81 0,3799.61 -3080.19,6879.81 -6879.81,6879.81 -3799.61,0 -6879.81,-3080.19 -6879.81,-6879.81 0,-3799.61 3080.19,-6879.81 6879.81,-6879.81z"/>
  <g>
   <g style="clip-path:url(#id3)">
    <image x="694.92" y="694.92" width="13759.61" height="13759.61" xlink:href="утюг_Images\утюг_ImgID2.png"/>
   </g>
  </g>
  <g>
   <g style="clip-path:url(#id4)">
    <image x="2569.06" y="4891.36" width="10422.79" height="5985.32" xlink:href="утюг_Images\утюг_ImgID3.png"/>
   </g>
  </g>
  <path class="fil23" d="M12114.17 9302.79l-988.57 -1853.57c-236,-442.47 -694.1,-717.34 -1195.55,-717.34l-2366.39 0 0 -181.37c0,-182.37 -148.36,-330.74 -330.74,-330.74l-1024.23 0c-182.38,0 -330.74,148.36 -330.74,330.74l0 181.37 -411.57 0c-57.44,0 -110.21,-26.29 -144.8,-72.14 -34.59,-45.86 -45.37,-103.83 -29.6,-159.05l146.32 -512.12c22.13,-77.46 93.85,-131.55 174.4,-131.55l3668.67 0c276.5,0 501.44,-224.94 501.44,-501.44 0,-276.5 -224.94,-501.45 -501.44,-501.45l-4391.82 0c-504.39,0 -954.13,320.24 -1119.12,796.89l-1102.11 3183.85c-62.8,181.42 -34.95,375.19 76.41,531.57 103.43,145.23 260.88,232.82 436.6,244.6 -22.3,56.69 -34.67,118.34 -34.67,182.84 0,276.5 224.94,501.45 501.45,501.45l8364.51 0c276.5,0 501.44,-224.95 501.44,-501.45 0.02,-241.71 -171.9,-444.02 -399.9,-491.09zm-5916.15 -2752.29c0,-5.89 4.78,-10.67 10.67,-10.67l1024.23 -0c5.89,0 10.67,4.78 10.67,10.67l0 181.37 -1045.57 0 0 -181.37zm-3192.55 2630.3c-50.53,-70.97 -63.16,-158.91 -34.68,-241.23l1102.11 -3183.85c120.39,-347.81 448.57,-581.51 816.65,-581.51l4391.82 0c100.01,0 181.37,81.36 181.37,181.37 0,100.01 -81.36,181.37 -181.37,181.37l-3668.67 0c-222.7,0 -420.98,149.56 -482.15,363.69l-146.32 512.11c-43.61,152.68 -13.78,312.96 81.83,439.71 95.62,126.75 241.55,199.47 400.33,199.47l4463.66 0c383,0 732.9,209.94 913.14,547.88l902.73 1692.62 -419.93 0 -802.87 -1521.92c-117.06,-219.48 -344.31,-355.83 -593.07,-355.83l-4637.8 0c-295.94,0 -553.85,189.84 -641.78,472.42l-437.33 1405.32 -991.07 0c-87.12,0 -166.07,-40.69 -216.6,-111.64zm7958.62 111.64l-6415.75 0 407.73 -1310.22c46.07,-148.02 181.16,-247.46 336.18,-247.46l4637.8 -0c130.29,0 249.34,71.42 310.3,185.75l723.74 1371.93zm1048.55 682.82l-8364.52 0c-100.01,0 -181.37,-81.36 -181.37,-181.37 0,-100.01 81.36,-181.37 181.37,-181.37l8364.18 0c0.15,0 0.32,0.02 0.47,0.02 0.06,0 0.15,-0.02 0.21,-0.02 99.84,0.19 181.01,81.47 181.01,181.35 0.02,100.03 -81.34,181.39 -181.35,181.39z"/>
 </g>
</svg>
