<?xml version="1.0" encoding="UTF-8"?>
<!DOCTYPE svg PUBLIC "-//W3C//DTD SVG 1.1//EN" "http://www.w3.org/Graphics/SVG/1.1/DTD/svg11.dtd">
<!-- Creator: CorelDRAW 2020 (64-Bit) -->
<svg xmlns="http://www.w3.org/2000/svg" xml:space="preserve" width="134.686mm" height="130.048mm" version="1.1" style="shape-rendering:geometricPrecision; text-rendering:geometricPrecision; image-rendering:optimizeQuality; fill-rule:evenodd; clip-rule:evenodd"
viewBox="0 0 4466.51 4312.72"
 xmlns:xlink="http://www.w3.org/1999/xlink"
 xmlns:xodm="http://www.corel.com/coreldraw/odm/2003">
 <defs>
  <style type="text/css">
   <![CDATA[
    .fil0 {fill:black}
   ]]>
  </style>
 </defs>
 <g id="Слой_x0020_1">
  <metadata id="CorelCorpID_0Corel-Layer"/>
  <path class="fil0" d="M361.57 2965c0,-81.24 15.68,-132.34 49.57,-194.7 62.14,-114.32 192.57,-187.15 323.86,-187.15 95.79,0 194.44,40.84 257.62,104.58 33.53,33.84 52.88,59.04 75.57,104.12 67.84,134.8 44,292.81 -54.36,409.87 -24.75,29.45 -13.65,15.76 -35.22,34.97 -86.55,77.12 -212.87,109.14 -328.47,82.7 -89.96,-20.57 -164.48,-72.53 -218.82,-146.19 -14.65,-19.85 -22.5,-35.21 -34.21,-58.45 -18.3,-36.29 -35.54,-96.41 -35.54,-149.77zm1909.27 -603.67c-178.07,0 -248.85,-9.96 -411,-63.51 -43.39,-14.33 -62.64,-25.83 -97.59,-39.98 -40.59,-16.44 -91.8,-48.25 -130.39,-71.77 -14.33,-8.73 -27.12,-17.74 -40.07,-27.32 -13.56,-10.03 -25.22,-18.21 -38.94,-28.45l-54.97 -46.11c-39.79,-33.46 -84.13,-80.45 -117.96,-120.69 -21.66,-25.77 -39.55,-47.99 -58.62,-76.15 -9.4,-13.89 -18.94,-25.77 -27.42,-39.97 -4.6,-7.7 -8.23,-12.72 -13.02,-20.68l-36.03 -65.05c-10.24,-17.1 -14.14,-29.37 -23.13,-47.06 -60.47,-118.99 -102.03,-309.37 -102.03,-442.67 0,-160.52 15.45,-251.53 62.83,-394.84 27.09,-81.95 91.54,-206.77 142.91,-275.44 45.41,-60.7 87.94,-114.69 145.91,-165.75l54.83 -49.06c43.38,-35.43 114.09,-86.13 163.51,-111.65 114.95,-59.35 159.62,-81.79 302.63,-115.72 57.19,-13.57 181.86,-31.03 248.42,-25.46 41.88,3.5 65.41,-1.39 130.06,7.55 210.19,29.07 418.04,111.95 578.93,252.17l106.65 101.12c39.72,42.94 89.47,108.69 119.78,158.19 111.29,181.73 172.89,373.96 172.89,593.62 0,211.38 -64.65,424.45 -165.11,584.56 -4.72,7.51 -8.6,12.4 -13.4,20.29 -31.81,52.25 -96.5,132.04 -138.07,173.6 -11.91,11.92 -21.83,21.72 -33.68,33.71 -7.55,7.64 -9.89,9.24 -17.98,15.72 -34.44,27.56 -46.9,44.35 -94.49,76.78 -75.24,51.27 -84.22,58.05 -172.76,102.4 -119.69,59.94 -301.1,107.63 -442.69,107.63zm-1285.95 -1114.68c0,60.58 6.03,127.11 13.54,180.19 30.76,217.33 118.09,410.41 247.58,583.52 34.69,46.37 74.48,90.47 115.77,131.32 31.5,31.17 70.53,64.71 105.66,90.88l56.54 41.74c127.43,84.4 253.78,146.39 403.2,183.62 108.06,26.93 153.63,26.16 257.04,37.77 26.44,2.97 69.64,0.43 97.86,0.41 159.07,-0.1 368.9,29.75 521.68,67.95 183.97,46 245.46,75.18 398.87,137.41 34.51,14 67.12,31.53 100.57,48.24 12.12,6.06 18.34,10.74 30.85,16.89l94.81 54c83.92,50.47 183.92,117.15 257.82,183l27.36 23.18c29.02,22.24 124.7,114.36 149.49,142.52l91.11 105.43c45.88,54.29 85.36,110.91 122.79,172.03 24.85,40.58 50.67,82.2 71.82,124.73 44.24,88.96 84.3,182.25 114.79,278.3 22.11,69.65 64.91,248.89 64.91,328.18l-4189.17 0c0,-80.46 22.17,-159.08 38.58,-236.58 17.81,-84.06 53.11,-179.3 86.99,-258.36 20.65,-48.2 45.91,-94.7 69.08,-141.5 7.67,-15.5 16.53,-28.56 24.35,-43.03l53.91 -86.48c7.97,-11.96 24.04,-29.66 27.52,-42.67 16.67,1.39 42.1,23.81 57.98,31.86 176.35,89.44 364.11,74.62 526.62,-34.08 12.28,-8.21 23.74,-17.13 35.09,-26.68 6.29,-5.3 9.4,-9.93 15.7,-15.19 7.15,-5.98 10.18,-6.66 16.74,-14.15 18.83,-21.49 39.59,-44.15 55.44,-68.1 78.43,-118.43 112.06,-260.84 75.8,-404.33 -12.16,-48.14 -29,-91.97 -53.47,-134.65 -7.34,-12.79 -15.12,-24.91 -24,-37.77 -70.43,-101.97 -179.07,-172.56 -300.99,-201.6 -16.87,-4.02 -32.47,-5.85 -53.07,-8.7l-59.67 -4.62c-9.88,0.29 -13.9,2.79 -28.18,2.74 -85.51,-0.35 -189.4,39.05 -257.19,88.16 -103.45,74.94 -172.42,172.66 -203.37,299.22 -16.18,66.13 -16.51,144.08 -3.97,211.81 13.05,70.48 41.96,133.7 81.48,190.87 8.35,12.08 15.77,20.84 23.61,32.55l-139.46 222.73c-31.65,58.78 -61.61,122.12 -84.74,184.81 -50.07,135.74 -97.66,290.26 -109.85,434.86 -3.56,42.28 -21.46,126.29 -1.09,160.99 10.71,18.25 32.18,32.67 59.98,32.67l4329.56 0c40.12,0 67.39,-29.13 67.39,-67.39 0,-151.75 -41.27,-332.99 -88.1,-473.45 -18.75,-56.22 -37.06,-109.41 -62.55,-162.07 -13.14,-27.14 -24.55,-51.81 -37.47,-77.65l-59.52 -108.94c-3.87,-6.45 -6.14,-11.65 -10.1,-17.98 -48.3,-77.04 -156.48,-233.62 -228.7,-304.77 -5.35,-5.27 -9.2,-8.6 -13.76,-14.32 -29.15,-36.54 -114.57,-117.78 -157.65,-154.01 -71.86,-60.44 -145.11,-117.78 -223.23,-169.85 -22.9,-15.26 -44.95,-30.31 -68.07,-44.24 -23.59,-14.21 -46.7,-27.22 -70.58,-41.73l-35.95 -20.2c-190.53,-99.11 -400.64,-185.49 -614.23,-230.9l-93.36 -21.76c13.84,-3.22 29.33,-11.2 42.08,-16.89 6.59,-2.94 11.35,-5.98 18.88,-9.2 97.76,-41.79 207.67,-115.71 287.88,-186.63 100.15,-88.54 188.43,-192.12 256.45,-307.91 7.93,-13.49 13.52,-24.6 21.39,-37.58 12.51,-20.65 29.82,-55.78 39.16,-78.77l35.29 -85.44c40.08,-102.05 76.63,-260.4 76.63,-400.69 0,-182.04 -16.52,-285.79 -70.55,-448.89 -24.01,-72.49 -57.37,-144.55 -96.69,-209.36 -42.92,-70.74 -87.26,-138.44 -143.74,-198.8 -7.42,-7.93 -9.87,-12.87 -18.2,-21.1l-77.18 -77.25c-64.66,-62.24 -142.14,-114.76 -219.62,-159.43 -253.67,-146.25 -559.41,-198.88 -849.71,-144.68 -250.04,46.68 -479.45,169.65 -658.9,349.09l-54.78 60.34c-30.13,33.91 -59.83,70.93 -84.92,108.82 -30.38,45.87 -61.08,94.11 -86.09,144.14 -4.96,9.92 -8.14,16.29 -13.13,26.18 -22.12,43.88 -39.54,89.85 -56.29,137.45 -31.96,90.87 -60.66,224.04 -63.58,323.89 -0.83,28.37 -2.72,48.09 -2.72,75.9z"/>
 </g>
</svg>
