<?xml version="1.0" encoding="UTF-8"?>
<!DOCTYPE svg PUBLIC "-//W3C//DTD SVG 1.1//EN" "http://www.w3.org/Graphics/SVG/1.1/DTD/svg11.dtd">
<!-- Creator: CorelDRAW 2020 (64-Bit) -->
<svg xmlns="http://www.w3.org/2000/svg" xml:space="preserve" width="103.547mm" height="99.971mm" version="1.1" style="shape-rendering:geometricPrecision; text-rendering:geometricPrecision; image-rendering:optimizeQuality; fill-rule:evenodd; clip-rule:evenodd"
viewBox="0 0 1916.26 1850.07"
 xmlns:xlink="http://www.w3.org/1999/xlink"
 xmlns:xodm="http://www.corel.com/coreldraw/odm/2003">
 <defs>
  <style type="text/css">
   <![CDATA[
    .fil0 {fill:black}
   ]]>
  </style>
 </defs>
 <g id="Слой_x0020_1">
  <metadata id="CorelCorpID_0Corel-Layer"/>
  <path class="fil0" d="M56.41 925.63c0,-36.78 14.11,-73.98 35.8,-100.51l9.23 -11.14c8.6,-9.81 32.58,-26.03 45.82,-32.53 106.47,-52.24 228.79,31.18 228.79,137.91 0,53.08 -16.14,88.77 -47.38,120.27l-20.6 17c-57.41,37.85 -125.76,38.97 -182.42,0.32 -22.09,-15.07 -44.02,-40.96 -54.7,-65.95 -7.71,-18.04 -14.53,-40.31 -14.53,-65.38zm1859.85 -42.39l0 1.27c-0.13,19.77 -1.57,34.72 -1.57,55.23 0,19.32 -0,38.65 0,57.97 0.01,23.31 -0.32,33.41 -11.4,46.57 -8.48,10.08 -20.68,17.67 -38.74,17.67l-84.61 0c-0.18,7.89 -3.25,17.36 -4.83,24.94 -23.81,113.96 -65.91,205.38 -129.92,300.96 1.66,1.22 8.45,9.01 10.5,11.44 21.08,24.96 66.28,53.27 66.28,87.27 0,30.74 -43.84,60.26 -66.99,86.56l-32.08 32.16c-4.46,4.42 -7.35,5.71 -11.81,10.12 -17.88,17.68 -33.26,43.51 -64.6,43.51 -23.93,0 -40.21,-20.63 -52.88,-33.3l-42.7 -43.48c-30.14,15.95 -57.49,37.41 -88.27,52.75 -3.67,1.83 -5.88,2.76 -9.38,4.72l-28.21 14.1c-45.67,22.86 -96.88,37.88 -147.08,50.34 -8.04,1.99 -14.93,3.45 -22.88,5.33 -6,1.42 -16.56,4.37 -23.83,4.37l0 75.21c0,39.81 -17.05,58.79 -56.4,61.11l-170.73 -0.06c-17.89,-1.33 -29.55,-8.93 -37.72,-20.25 -18.19,-25.21 -9.34,-71.87 -9.34,-103.47 0,-5.71 -1.4,-3.73 -1.57,-10.97 -6.52,-0.15 -8.21,-1.59 -12.94,-2.73 -65.05,-15.68 -103.36,-21.78 -168.86,-50.5 -27.51,-12.07 -53.01,-24.37 -78.8,-38.71 -24.48,-13.61 -46.9,-31.32 -71.57,-44.37 -11.06,16.51 -34.79,32.87 -48.2,47.38 -3.41,3.69 -3.59,5.27 -6.99,8.68 -41.4,41.47 -79.54,-1.32 -107.38,-32.93l-46.21 -47.8c-11.13,-11.03 -21.04,-21.03 -32.12,-32.12 -8.93,-8.93 -23.9,-22.12 -23.9,-38.78 0,-22.26 5.69,-35.76 22.4,-49.68 16.4,-13.67 29.55,-29.58 44.56,-44.75 20.23,-20.43 52.12,-12.08 52.12,19.22 0,13.86 -15.93,27.68 -25.46,37.21 -7.92,7.92 -25.68,23.86 -30.94,31.73 6.6,9.86 17.5,21.53 26.24,30.17 14.73,14.56 72.22,75.13 83.44,82.64 4.07,-6.07 34.3,-36.08 41.2,-41.84l23.03 -19.28c19.33,-13.69 38.83,-13.73 58.64,-0.64 37.89,25.05 75.57,52.54 118.21,69.81 8.31,3.37 16.62,7.74 25.95,11.66 46.16,19.38 91.51,34.32 143.33,44.69 21.41,4.29 43.46,5.08 57.01,18.2 8.09,7.83 10.84,11.56 13.58,24.02 5.53,25.08 3.21,55.44 3.21,81.4 0,7.88 -1.41,7.02 -1.57,14.1l159.82 0c0,-29.82 -11.03,-102.71 16.54,-121.34 14.1,-9.52 35.99,-13.81 54.36,-17.72 39.54,-8.43 78.3,-19.83 112.42,-33.3l51.73 -21.91c32.58,-14.53 62.12,-33.06 91.48,-52.67 48.48,-32.37 59.9,-36.27 106.33,9.92 13.74,13.67 25.63,30.27 41.89,41.15l50.37 -48.34c16.83,-21.09 47.34,-41.13 60.87,-61.34 -11.31,-16.88 -26.5,-30.42 -41.13,-45.05 -27.59,-27.59 -46.24,-44.36 -24.19,-81.38 13.37,-22.44 29.58,-42.95 42.3,-65.81 16.77,-30.14 34.66,-64.62 47.43,-98.29 13.17,-34.74 25.5,-73.6 33.45,-112.27 4.34,-21.07 5.48,-42.26 15.43,-58.21 9.18,-14.72 27.22,-21.59 50.49,-21.59l73.64 0 0 -158.25 -78.34 0c-53.65,0 -51.45,-37.12 -61.42,-79.6 -13.13,-55.95 -28.19,-107.86 -53.48,-158.04 -4.29,-8.51 -7.97,-15.93 -12.02,-24.02 -4.02,-8.04 -7.88,-14.32 -12.01,-22.46 -7.79,-15.35 -17.57,-29.74 -26.85,-43.66 -32.24,-48.37 -29.52,-59.01 11.83,-100.36 10.08,-10.08 32.93,-35.38 42.7,-41.91 -14.41,-21.52 -35.43,-39.34 -53.67,-57.58l-29 -27.41c-6.44,-6.51 -20.91,-23.35 -27.02,-27.83 -7.91,2.11 -49.17,47.87 -63.31,58.9 -33.1,25.83 -53.99,9.96 -85.84,-11.6 -15.4,-10.43 -28.74,-20.3 -45.68,-29.53l-49.08 -26.13c-16.95,-8.52 -34.52,-15.96 -52.21,-23 -145.6,-57.86 -192.74,-17.37 -192.74,-108.1l0 -64.24c-39.11,0 -80.66,-3.27 -119.16,-0.08 -7.06,0.58 -39.09,-3.95 -39.09,4.78 0,53.98 11.94,108.73 -32.43,124.26 -20.62,7.22 -44.03,9.3 -65.67,14.24l-46.62 12.92c-24.53,8.05 -48.81,16.32 -72.04,26.67 -58.88,26.25 -76.47,40.73 -126.88,70.55 -14.11,8.34 -19.46,11.47 -37.1,11.47 -27.83,0 -62.8,-53.81 -87.74,-70.51 -9.83,14.68 -29.96,29.06 -42.72,41.89 -13.19,13.25 -26.6,28.83 -40.79,40.69 -6.33,5.29 -9.02,7.59 -14.81,13.39 -4.79,4.79 -8.71,8.86 -12.93,13.71 16.53,24.69 53.28,46.52 65.18,72.7 9.42,20.73 2.96,35.5 -7.5,50.79 -30.69,44.86 -53.28,78.59 -76.51,130.31 -14.07,31.33 -28.01,65.98 -36.01,100.3 9.91,4.76 22.52,7.38 32.93,12.51 19.26,9.5 36.41,21.25 52.79,34.96 23.46,19.64 43.66,50.02 55.1,78.08 12.78,31.34 15.87,58.12 15.87,93.81 0,61.85 -35.34,119.24 -78.82,156.21 -35.92,30.54 -83.54,49.05 -132.71,49.05 -123.33,0 -220.93,-95.58 -220.93,-216.23 0,-120.02 98.45,-216.23 217.79,-216.23l23.04 -70.97c4.78,-12.12 8.33,-21.79 13.53,-33.48l22.99 -47.52c13.23,-25.39 27.07,-50.67 42.98,-74.54l18.11 -27.33c-7.19,-10.74 -20.21,-20.76 -28.67,-30.88 -21.77,-26.04 -40.27,-25.74 -40.27,-67.84 0,-18.21 24.91,-41.65 36.04,-50.14 15,-11.45 27.86,-29.98 42.97,-41.64 15.68,-12.11 28.02,-28.56 42.04,-42.57 12.18,-12.18 29.78,-31.73 52.88,-31.73 44.45,0 69.1,66.27 94.01,72.07 16.72,-11.2 33.69,-23.6 51.69,-32.92 117.2,-60.68 140.01,-66.85 263.25,-95.56 0,-120.74 -9.47,-139.95 115.94,-133.18 29.08,1.57 106.18,-4.35 125.82,2.66 14.09,5.02 27.11,18.28 30.96,33.29 3.84,15 1.48,42.98 1.48,61.19 0,45.27 -8.32,34.35 24.4,39.84 36.03,6.05 67.24,15.26 100.72,27.76 54.29,20.27 122.47,51.36 170.4,83.43 8.96,6 29.01,22.31 38.22,24.45 25.7,-17.21 61.81,-73.64 94.01,-73.64 38.2,0 51.97,36.28 78.34,56.41 11.03,8.41 77.22,77.83 85.76,89.72 5.42,7.55 11.38,18.59 11.38,30.92 0,34.18 -70.99,75.5 -76.77,97.15 2.24,3.35 3.87,4.49 6.28,7.82 46.62,64.58 74.73,141.37 100.07,216.43 4.75,14.06 7.91,27.67 11.8,43.04 3.35,13.26 7.62,32.22 8.77,46.07 32.64,0 87.77,-3.95 109.71,6.23 13.64,6.33 19.74,17.62 22.82,35.16l3.78 54.1z"/>
  <path class="fil0" d="M991.82 479.08c112.13,0 217.53,42.41 296.51,115.57 3.38,3.13 4.5,3.31 7.84,6.26 18.58,16.36 54.01,60.44 67.66,82.76 50.02,81.8 71.41,150.9 71.41,251.36 0,77.21 -26.28,157.87 -60.03,214.17l-32.9 48.58c-4.62,5.67 -8.19,9.7 -12.71,15.5 -2.75,3.54 -3.95,4.27 -6.79,7.31 -3.18,3.39 -3.3,4.46 -6.27,7.84 -16.39,18.61 -52.34,48.65 -74.31,63.57 -30.49,20.7 -38.22,23.67 -70.19,39.49 -11.13,5.51 -27.2,11.41 -39.39,15.45 -94.36,31.25 -190.55,31.93 -285.17,0.4 -82.17,-27.38 -159.65,-82.57 -211.55,-151.96 -11.92,-15.94 -23.35,-32.08 -33.18,-49.87l-18.83 -37.58c-11.82,-25.29 -21.4,-52.78 -28.3,-82.94 -4.27,-18.66 -10.52,-55.05 -10.37,-74.24 0.09,-11.43 -1.66,-17.38 -1.66,-26.67l3.51 -51.45c7.07,-70.07 30.24,-126.37 65.48,-185.22 16.66,-27.82 40.41,-55.15 63.14,-77.88l28.47 -26.37c10.85,-8.53 21.09,-16.78 32.24,-24.16 76.01,-50.33 160.76,-79.9 255.4,-79.9zm-504.53 427.75c0,90.87 6.77,132.88 38.93,213.33 19.39,48.52 54.76,102.08 89.17,141.15 33.05,37.53 75.42,70.66 117.57,97.08 28.07,17.6 63.91,33.16 95.7,43.75 85.51,28.49 182.92,35.5 271.28,13.92 52.44,-12.8 92.06,-27.81 136.78,-52.81 41.12,-22.99 93.56,-63.04 123.68,-97.25 13.49,-15.32 30.41,-35.83 41.63,-52.38 56.85,-83.84 91.17,-174.73 91.17,-288.01 0,-64.08 -16.18,-150.31 -44.38,-206.32 -18.62,-36.99 -20.71,-44.01 -45.23,-80.12 -33.31,-49.05 -76.33,-91.63 -124.39,-126.31 -35.64,-25.71 -81.81,-49.48 -123.84,-64.18 -30.31,-10.6 -97.01,-26.16 -130.61,-26.08 -12.92,0.03 -19.14,-1.52 -31.39,-1.52 -31.42,0 -81.8,5.54 -111.25,12.53 -92.14,21.87 -174.72,62.69 -241.69,129.66l-29.77 31.33c-31,33.34 -65.66,89.93 -83.56,132.66 -10.14,24.21 -17.4,44.13 -23.84,70.17 -7.94,32.08 -15.98,70.15 -15.98,109.37z"/>
 </g>
</svg>
